<svg width="458" height="445" viewBox="0 0 458 445" fill="none" xmlns="http://www.w3.org/2000/svg">
<path fill-rule="evenodd" clip-rule="evenodd" d="M282.45 380.231C282.255 380.427 281.938 380.427 281.743 380.231L277.096 375.585L272.45 380.231C272.255 380.427 271.938 380.427 271.743 380.231C271.547 380.036 271.547 379.72 271.743 379.524L276.743 374.524C276.938 374.329 277.255 374.329 277.45 374.524L282.45 379.524C282.645 379.72 282.645 380.036 282.45 380.231Z" fill="white" stroke="white" stroke-linecap="round" stroke-linejoin="round"/>
<g filter="url(#filter0_d_845_4011)">
<rect x="24.4091" y="20.3779" width="409.295" height="396" rx="10" fill="white"/>
</g>
<g filter="url(#filter1_d_845_4011)">
<rect x="233.556" y="368.378" width="63" height="26" rx="3" fill="#3BBCA0" shape-rendering="crispEdges"/>
<path d="M248.804 383.814C248.804 383.609 248.773 383.427 248.709 383.268C248.649 383.108 248.542 382.962 248.387 382.83C248.233 382.698 248.014 382.57 247.731 382.447C247.453 382.32 247.098 382.19 246.665 382.058C246.191 381.912 245.753 381.75 245.352 381.572C244.956 381.39 244.609 381.18 244.313 380.943C244.017 380.702 243.787 380.426 243.623 380.116C243.459 379.802 243.377 379.439 243.377 379.029C243.377 378.624 243.461 378.255 243.63 377.922C243.803 377.589 244.047 377.302 244.361 377.061C244.68 376.814 245.056 376.625 245.489 376.493C245.922 376.356 246.4 376.288 246.925 376.288C247.663 376.288 248.299 376.425 248.832 376.698C249.37 376.972 249.782 377.339 250.069 377.799C250.361 378.259 250.507 378.767 250.507 379.323H248.804C248.804 378.995 248.734 378.706 248.593 378.455C248.456 378.2 248.246 377.999 247.964 377.854C247.686 377.708 247.332 377.635 246.904 377.635C246.498 377.635 246.161 377.696 245.892 377.819C245.623 377.942 245.423 378.109 245.291 378.318C245.159 378.528 245.093 378.765 245.093 379.029C245.093 379.216 245.136 379.387 245.222 379.542C245.309 379.692 245.441 379.834 245.619 379.966C245.797 380.093 246.02 380.214 246.289 380.328C246.558 380.442 246.874 380.551 247.239 380.656C247.79 380.82 248.271 381.003 248.681 381.203C249.092 381.399 249.433 381.622 249.707 381.873C249.98 382.124 250.185 382.409 250.322 382.728C250.459 383.042 250.527 383.4 250.527 383.801C250.527 384.22 250.443 384.598 250.274 384.936C250.106 385.268 249.864 385.553 249.55 385.79C249.24 386.022 248.866 386.202 248.428 386.33C247.996 386.453 247.512 386.515 246.979 386.515C246.501 386.515 246.029 386.451 245.564 386.323C245.104 386.196 244.685 386.002 244.306 385.742C243.928 385.478 243.627 385.15 243.404 384.758C243.181 384.361 243.069 383.899 243.069 383.37H244.785C244.785 383.694 244.84 383.969 244.949 384.197C245.063 384.425 245.22 384.612 245.421 384.758C245.621 384.899 245.854 385.004 246.118 385.072C246.387 385.141 246.674 385.175 246.979 385.175C247.38 385.175 247.715 385.118 247.984 385.004C248.258 384.89 248.463 384.73 248.599 384.525C248.736 384.32 248.804 384.083 248.804 383.814ZM256.331 384.635V378.981H257.985V386.378H256.427L256.331 384.635ZM256.563 383.097L257.117 383.083C257.117 383.58 257.062 384.038 256.953 384.457C256.844 384.872 256.675 385.234 256.447 385.544C256.219 385.849 255.927 386.089 255.572 386.262C255.217 386.43 254.79 386.515 254.294 386.515C253.934 386.515 253.603 386.462 253.302 386.357C253.002 386.253 252.742 386.091 252.523 385.872C252.309 385.653 252.143 385.368 252.024 385.018C251.906 384.667 251.846 384.247 251.846 383.76V378.981H253.494V383.773C253.494 384.042 253.526 384.268 253.59 384.45C253.653 384.628 253.74 384.771 253.849 384.881C253.959 384.99 254.086 385.068 254.232 385.113C254.378 385.159 254.533 385.182 254.697 385.182C255.166 385.182 255.536 385.09 255.804 384.908C256.078 384.721 256.272 384.471 256.385 384.156C256.504 383.842 256.563 383.489 256.563 383.097ZM259.68 375.878H261.328V384.799L261.171 386.378H259.68V375.878ZM266.154 382.611V382.755C266.154 383.302 266.093 383.805 265.969 384.266C265.851 384.721 265.669 385.118 265.423 385.455C265.181 385.792 264.88 386.054 264.52 386.241C264.165 386.424 263.752 386.515 263.283 386.515C262.823 386.515 262.422 386.428 262.08 386.255C261.738 386.082 261.451 385.836 261.219 385.517C260.991 385.198 260.806 384.817 260.665 384.375C260.524 383.933 260.423 383.445 260.364 382.912V382.454C260.423 381.916 260.524 381.429 260.665 380.991C260.806 380.549 260.991 380.169 261.219 379.85C261.451 379.526 261.736 379.278 262.073 379.104C262.415 378.931 262.814 378.845 263.269 378.845C263.743 378.845 264.16 378.936 264.52 379.118C264.885 379.3 265.188 379.56 265.429 379.897C265.671 380.23 265.851 380.627 265.969 381.087C266.093 381.547 266.154 382.055 266.154 382.611ZM264.507 382.755V382.611C264.507 382.279 264.479 381.966 264.425 381.675C264.37 381.379 264.279 381.119 264.151 380.896C264.028 380.672 263.859 380.497 263.645 380.369C263.436 380.237 263.174 380.171 262.859 380.171C262.567 380.171 262.317 380.221 262.107 380.321C261.898 380.422 261.722 380.558 261.581 380.731C261.44 380.905 261.328 381.105 261.246 381.333C261.168 381.561 261.116 381.807 261.089 382.071V383.309C261.13 383.65 261.216 383.965 261.348 384.252C261.485 384.535 261.677 384.762 261.923 384.936C262.169 385.104 262.485 385.188 262.873 385.188C263.178 385.188 263.436 385.127 263.645 385.004C263.855 384.881 264.021 384.71 264.144 384.491C264.272 384.268 264.363 384.008 264.418 383.712C264.477 383.416 264.507 383.097 264.507 382.755ZM269.196 380.485V386.378H267.549V378.981H269.1L269.196 380.485ZM268.929 382.406L268.369 382.399C268.369 381.889 268.433 381.417 268.56 380.984C268.688 380.551 268.875 380.175 269.121 379.856C269.367 379.533 269.672 379.285 270.037 379.111C270.406 378.934 270.832 378.845 271.315 378.845C271.652 378.845 271.96 378.895 272.238 378.995C272.521 379.091 272.764 379.243 272.969 379.453C273.179 379.663 273.339 379.932 273.448 380.26C273.562 380.588 273.619 380.984 273.619 381.449V386.378H271.971V381.593C271.971 381.233 271.917 380.95 271.807 380.745C271.703 380.54 271.55 380.394 271.349 380.308C271.153 380.216 270.919 380.171 270.645 380.171C270.335 380.171 270.071 380.23 269.852 380.349C269.638 380.467 269.463 380.629 269.326 380.834C269.189 381.039 269.089 381.276 269.025 381.545C268.961 381.814 268.929 382.101 268.929 382.406ZM273.516 381.969L272.744 382.14C272.744 381.693 272.805 381.271 272.928 380.875C273.056 380.474 273.241 380.123 273.482 379.822C273.728 379.517 274.031 379.278 274.391 379.104C274.751 378.931 275.164 378.845 275.629 378.845C276.007 378.845 276.344 378.897 276.64 379.002C276.941 379.102 277.196 379.262 277.406 379.48C277.616 379.699 277.775 379.984 277.885 380.335C277.994 380.681 278.049 381.101 278.049 381.593V386.378H276.394V381.586C276.394 381.212 276.34 380.923 276.23 380.718C276.125 380.513 275.975 380.371 275.779 380.294C275.583 380.212 275.348 380.171 275.075 380.171C274.82 380.171 274.594 380.219 274.398 380.314C274.207 380.406 274.045 380.535 273.913 380.704C273.781 380.868 273.68 381.057 273.612 381.271C273.548 381.486 273.516 381.718 273.516 381.969ZM281.508 378.981V386.378H279.853V378.981H281.508ZM279.744 377.04C279.744 376.789 279.826 376.582 279.99 376.418C280.159 376.249 280.391 376.165 280.687 376.165C280.979 376.165 281.209 376.249 281.378 376.418C281.546 376.582 281.631 376.789 281.631 377.04C281.631 377.286 281.546 377.491 281.378 377.655C281.209 377.819 280.979 377.901 280.687 377.901C280.391 377.901 280.159 377.819 279.99 377.655C279.826 377.491 279.744 377.286 279.744 377.04ZM286.703 378.981V380.185H282.533V378.981H286.703ZM283.736 377.17H285.384V384.334C285.384 384.562 285.415 384.737 285.479 384.86C285.548 384.979 285.641 385.059 285.76 385.1C285.878 385.141 286.017 385.161 286.177 385.161C286.29 385.161 286.4 385.154 286.505 385.141C286.609 385.127 286.694 385.113 286.758 385.1L286.764 386.357C286.628 386.398 286.468 386.435 286.286 386.467C286.108 386.499 285.903 386.515 285.671 386.515C285.292 386.515 284.957 386.449 284.666 386.316C284.374 386.18 284.146 385.959 283.982 385.653C283.818 385.348 283.736 384.942 283.736 384.437V377.17Z" fill="white"/>
</g>
<g filter="url(#filter2_d_845_4011)">
<path d="M176.068 376.425H179.589C180.345 376.425 180.99 376.539 181.523 376.767C182.057 376.994 182.465 377.332 182.747 377.778C183.034 378.22 183.178 378.767 183.178 379.419C183.178 379.916 183.087 380.353 182.904 380.731C182.722 381.11 182.465 381.429 182.132 381.688C181.799 381.944 181.403 382.142 180.942 382.283L180.423 382.536H177.258L177.244 381.176H179.616C180.026 381.176 180.368 381.103 180.642 380.957C180.915 380.811 181.12 380.613 181.257 380.362C181.398 380.107 181.469 379.82 181.469 379.501C181.469 379.155 181.4 378.854 181.264 378.599C181.132 378.339 180.926 378.141 180.648 378.004C180.37 377.863 180.017 377.792 179.589 377.792H177.784V386.378H176.068V376.425ZM181.749 386.378L179.411 381.907L181.209 381.9L183.581 386.289V386.378H181.749ZM187.983 386.515C187.437 386.515 186.942 386.426 186.5 386.248C186.062 386.066 185.689 385.813 185.379 385.489C185.074 385.166 184.839 384.785 184.675 384.348C184.511 383.91 184.429 383.438 184.429 382.933V382.659C184.429 382.08 184.513 381.556 184.682 381.087C184.85 380.618 185.085 380.216 185.386 379.884C185.687 379.547 186.042 379.289 186.452 379.111C186.862 378.934 187.307 378.845 187.785 378.845C188.314 378.845 188.776 378.934 189.173 379.111C189.569 379.289 189.897 379.54 190.157 379.863C190.422 380.182 190.618 380.563 190.745 381.005C190.877 381.447 190.943 381.935 190.943 382.468V383.172H185.229V381.989H189.316V381.859C189.307 381.563 189.248 381.285 189.139 381.025C189.034 380.766 188.872 380.556 188.653 380.396C188.435 380.237 188.143 380.157 187.778 380.157C187.505 380.157 187.261 380.216 187.047 380.335C186.837 380.449 186.662 380.615 186.521 380.834C186.379 381.053 186.27 381.317 186.192 381.627C186.119 381.932 186.083 382.276 186.083 382.659V382.933C186.083 383.256 186.126 383.557 186.213 383.835C186.304 384.108 186.436 384.348 186.609 384.553C186.783 384.758 186.992 384.92 187.238 385.038C187.484 385.152 187.765 385.209 188.079 385.209C188.476 385.209 188.829 385.129 189.139 384.97C189.449 384.81 189.717 384.585 189.945 384.293L190.813 385.134C190.654 385.366 190.447 385.59 190.191 385.804C189.936 386.013 189.624 386.184 189.255 386.316C188.89 386.449 188.466 386.515 187.983 386.515ZM196.378 384.375C196.378 384.211 196.337 384.063 196.255 383.931C196.173 383.794 196.016 383.671 195.783 383.562C195.555 383.452 195.218 383.352 194.771 383.261C194.38 383.174 194.02 383.072 193.691 382.953C193.368 382.83 193.09 382.682 192.857 382.509C192.625 382.336 192.445 382.131 192.317 381.894C192.19 381.657 192.126 381.383 192.126 381.073C192.126 380.772 192.192 380.488 192.324 380.219C192.456 379.95 192.646 379.713 192.892 379.508C193.138 379.303 193.436 379.141 193.787 379.022C194.143 378.904 194.539 378.845 194.977 378.845C195.596 378.845 196.127 378.95 196.569 379.159C197.016 379.364 197.358 379.645 197.595 380C197.832 380.351 197.95 380.747 197.95 381.189H196.303C196.303 380.993 196.253 380.811 196.152 380.643C196.057 380.469 195.911 380.33 195.715 380.226C195.519 380.116 195.273 380.062 194.977 380.062C194.694 380.062 194.459 380.107 194.272 380.198C194.09 380.285 193.953 380.399 193.862 380.54C193.776 380.681 193.732 380.836 193.732 381.005C193.732 381.128 193.755 381.24 193.801 381.34C193.851 381.436 193.933 381.524 194.047 381.606C194.161 381.684 194.316 381.757 194.512 381.825C194.712 381.894 194.963 381.96 195.264 382.023C195.829 382.142 196.314 382.295 196.72 382.481C197.13 382.664 197.444 382.901 197.663 383.192C197.882 383.479 197.991 383.844 197.991 384.286C197.991 384.614 197.921 384.915 197.779 385.188C197.643 385.457 197.442 385.692 197.178 385.893C196.913 386.089 196.597 386.241 196.228 386.351C195.863 386.46 195.453 386.515 194.997 386.515C194.327 386.515 193.76 386.396 193.295 386.159C192.83 385.918 192.477 385.61 192.235 385.236C191.998 384.858 191.88 384.466 191.88 384.061H193.473C193.491 384.366 193.575 384.61 193.726 384.792C193.881 384.97 194.072 385.1 194.3 385.182C194.532 385.259 194.771 385.298 195.018 385.298C195.314 385.298 195.562 385.259 195.763 385.182C195.963 385.1 196.116 384.99 196.221 384.854C196.326 384.712 196.378 384.553 196.378 384.375ZM202.694 386.515C202.147 386.515 201.653 386.426 201.211 386.248C200.773 386.066 200.4 385.813 200.09 385.489C199.785 385.166 199.55 384.785 199.386 384.348C199.222 383.91 199.14 383.438 199.14 382.933V382.659C199.14 382.08 199.224 381.556 199.393 381.087C199.561 380.618 199.796 380.216 200.097 379.884C200.397 379.547 200.753 379.289 201.163 379.111C201.573 378.934 202.018 378.845 202.496 378.845C203.025 378.845 203.487 378.934 203.884 379.111C204.28 379.289 204.608 379.54 204.868 379.863C205.132 380.182 205.328 380.563 205.456 381.005C205.588 381.447 205.654 381.935 205.654 382.468V383.172H199.939V381.989H204.027V381.859C204.018 381.563 203.959 381.285 203.85 381.025C203.745 380.766 203.583 380.556 203.364 380.396C203.146 380.237 202.854 380.157 202.489 380.157C202.216 380.157 201.972 380.216 201.758 380.335C201.548 380.449 201.373 380.615 201.231 380.834C201.09 381.053 200.981 381.317 200.903 381.627C200.83 381.932 200.794 382.276 200.794 382.659V382.933C200.794 383.256 200.837 383.557 200.924 383.835C201.015 384.108 201.147 384.348 201.32 384.553C201.493 384.758 201.703 384.92 201.949 385.038C202.195 385.152 202.476 385.209 202.79 385.209C203.187 385.209 203.54 385.129 203.85 384.97C204.16 384.81 204.428 384.585 204.656 384.293L205.524 385.134C205.365 385.366 205.158 385.59 204.902 385.804C204.647 386.013 204.335 386.184 203.966 386.316C203.601 386.449 203.177 386.515 202.694 386.515ZM210.33 378.981V380.185H206.16V378.981H210.33ZM207.363 377.17H209.011V384.334C209.011 384.562 209.043 384.737 209.106 384.86C209.175 384.979 209.268 385.059 209.387 385.1C209.505 385.141 209.644 385.161 209.804 385.161C209.918 385.161 210.027 385.154 210.132 385.141C210.237 385.127 210.321 385.113 210.385 385.1L210.392 386.357C210.255 386.398 210.095 386.435 209.913 386.467C209.735 386.499 209.53 386.515 209.298 386.515C208.92 386.515 208.585 386.449 208.293 386.316C208.001 386.18 207.773 385.959 207.609 385.653C207.445 385.348 207.363 384.942 207.363 384.437V377.17Z" fill="#3BBCA0"/>
<rect x="162.057" y="368.878" width="62" height="25" rx="2.5" stroke="#3BBCA0" shape-rendering="crispEdges"/>
</g>
<path d="M65.567 301.571H67.1783C67.1354 302.142 66.9772 302.647 66.7037 303.089C66.4303 303.526 66.0494 303.87 65.5612 304.12C65.0729 304.37 64.4811 304.495 63.7858 304.495C63.2506 304.495 62.7682 304.401 62.3385 304.214C61.9127 304.022 61.5475 303.751 61.2428 303.399C60.942 303.044 60.7115 302.618 60.5514 302.122C60.3912 301.622 60.3112 301.062 60.3112 300.44V299.79C60.3112 299.169 60.3932 298.608 60.5573 298.108C60.7213 297.608 60.9557 297.183 61.2604 296.831C61.569 296.476 61.9381 296.202 62.3678 296.011C62.8014 295.819 63.2858 295.724 63.8209 295.724C64.5162 295.724 65.1041 295.853 65.5846 296.11C66.0651 296.364 66.4381 296.714 66.7037 297.159C66.9694 297.604 67.1295 298.116 67.1842 298.694H65.5729C65.5416 298.335 65.4635 298.03 65.3385 297.78C65.2174 297.53 65.0338 297.341 64.7877 297.212C64.5455 297.079 64.2233 297.013 63.8209 297.013C63.5084 297.013 63.233 297.071 62.9948 297.188C62.7604 297.306 62.5651 297.481 62.4088 297.716C62.2526 297.946 62.1354 298.235 62.0573 298.583C61.9791 298.927 61.9401 299.325 61.9401 299.778V300.44C61.9401 300.874 61.9752 301.263 62.0455 301.606C62.1158 301.95 62.2252 302.241 62.3737 302.479C62.5221 302.718 62.7135 302.899 62.9479 303.024C63.1823 303.149 63.4615 303.212 63.7858 303.212C64.1803 303.212 64.5006 303.149 64.7467 303.024C64.9967 302.899 65.1862 302.716 65.3151 302.474C65.4479 302.231 65.5319 301.931 65.567 301.571ZM68.0338 301.272V301.149C68.0338 300.685 68.1002 300.257 68.233 299.866C68.3658 299.472 68.5592 299.13 68.8131 298.841C69.067 298.552 69.3776 298.327 69.7448 298.167C70.1119 298.003 70.5299 297.921 70.9987 297.921C71.4752 297.921 71.8971 298.003 72.2643 298.167C72.6354 298.327 72.9479 298.552 73.2018 298.841C73.4557 299.13 73.649 299.472 73.7819 299.866C73.9147 300.257 73.9811 300.685 73.9811 301.149V301.272C73.9811 301.733 73.9147 302.161 73.7819 302.556C73.649 302.946 73.4557 303.288 73.2018 303.581C72.9479 303.87 72.6373 304.095 72.2701 304.255C71.903 304.415 71.483 304.495 71.0104 304.495C70.5416 304.495 70.1217 304.415 69.7506 304.255C69.3795 304.095 69.067 303.87 68.8131 303.581C68.5592 303.288 68.3658 302.946 68.233 302.556C68.1002 302.161 68.0338 301.733 68.0338 301.272ZM69.5807 301.149V301.272C69.5807 301.55 69.608 301.81 69.6627 302.052C69.7174 302.294 69.8014 302.507 69.9147 302.69C70.028 302.874 70.1744 303.019 70.3541 303.124C70.5377 303.226 70.7565 303.276 71.0104 303.276C71.2604 303.276 71.4752 303.226 71.6549 303.124C71.8346 303.019 71.9811 302.874 72.0944 302.69C72.2115 302.507 72.2975 302.294 72.3522 302.052C72.4069 301.81 72.4342 301.55 72.4342 301.272V301.149C72.4342 300.876 72.4069 300.62 72.3522 300.382C72.2975 300.14 72.2115 299.927 72.0944 299.743C71.9811 299.556 71.8326 299.409 71.649 299.304C71.4694 299.194 71.2526 299.14 70.9987 299.14C70.7487 299.14 70.5338 299.194 70.3541 299.304C70.1744 299.409 70.028 299.556 69.9147 299.743C69.8014 299.927 69.7174 300.14 69.6627 300.382C69.608 300.62 69.5807 300.876 69.5807 301.149ZM76.6471 299.339V304.378H75.1002V298.038H76.5592L76.6471 299.339ZM76.4186 300.979H75.944C75.944 300.538 75.9967 300.132 76.1022 299.761C76.2115 299.39 76.3717 299.067 76.5826 298.794C76.7936 298.517 77.0533 298.302 77.3619 298.149C77.6744 297.997 78.0358 297.921 78.4459 297.921C78.7311 297.921 78.9928 297.964 79.2311 298.05C79.4694 298.132 79.6744 298.263 79.8463 298.442C80.0221 298.618 80.1569 298.849 80.2506 299.134C80.3444 299.415 80.3912 299.753 80.3912 300.147V304.378H78.8444V300.306C78.8444 300.009 78.8014 299.776 78.7155 299.608C78.6334 299.44 78.5143 299.323 78.358 299.257C78.2018 299.187 78.0143 299.151 77.7955 299.151C77.5533 299.151 77.3444 299.2 77.1686 299.298C76.9967 299.392 76.8541 299.522 76.7408 299.69C76.6315 299.858 76.5494 300.052 76.4948 300.271C76.444 300.489 76.4186 300.726 76.4186 300.979ZM80.274 300.692L79.6354 300.81C79.6393 300.411 79.694 300.038 79.7994 299.69C79.9049 299.339 80.0592 299.032 80.2623 298.771C80.4694 298.505 80.7252 298.298 81.0299 298.149C81.3385 297.997 81.694 297.921 82.0963 297.921C82.4088 297.921 82.6901 297.966 82.9401 298.056C83.194 298.142 83.4108 298.28 83.5905 298.472C83.7701 298.659 83.9069 298.903 84.0006 299.204C84.0983 299.505 84.1471 299.872 84.1471 300.306V304.378H82.5885V300.3C82.5885 299.991 82.5455 299.755 82.4596 299.591C82.3776 299.427 82.2584 299.313 82.1022 299.251C81.9459 299.185 81.7623 299.151 81.5514 299.151C81.3365 299.151 81.149 299.192 80.9889 299.274C80.8326 299.353 80.6998 299.462 80.5905 299.603C80.485 299.743 80.4049 299.907 80.3502 300.095C80.2994 300.278 80.274 300.478 80.274 300.692ZM87.0768 299.339V304.378H85.5299V298.038H86.9889L87.0768 299.339ZM86.8483 300.979H86.3737C86.3737 300.538 86.4264 300.132 86.5319 299.761C86.6412 299.39 86.8014 299.067 87.0123 298.794C87.2233 298.517 87.483 298.302 87.7916 298.149C88.1041 297.997 88.4655 297.921 88.8756 297.921C89.1608 297.921 89.4225 297.964 89.6608 298.05C89.899 298.132 90.1041 298.263 90.276 298.442C90.4518 298.618 90.5865 298.849 90.6803 299.134C90.774 299.415 90.8209 299.753 90.8209 300.147V304.378H89.274V300.306C89.274 300.009 89.2311 299.776 89.1451 299.608C89.0631 299.44 88.944 299.323 88.7877 299.257C88.6315 299.187 88.444 299.151 88.2252 299.151C87.983 299.151 87.774 299.2 87.5983 299.298C87.4264 299.392 87.2838 299.522 87.1705 299.69C87.0612 299.858 86.9791 300.052 86.9244 300.271C86.8737 300.489 86.8483 300.726 86.8483 300.979ZM90.7037 300.692L90.0651 300.81C90.069 300.411 90.1237 300.038 90.2291 299.69C90.3346 299.339 90.4889 299.032 90.692 298.771C90.899 298.505 91.1549 298.298 91.4596 298.149C91.7682 297.997 92.1237 297.921 92.526 297.921C92.8385 297.921 93.1198 297.966 93.3698 298.056C93.6237 298.142 93.8405 298.28 94.0201 298.472C94.1998 298.659 94.3365 298.903 94.4303 299.204C94.528 299.505 94.5768 299.872 94.5768 300.306V304.378H93.0182V300.3C93.0182 299.991 92.9752 299.755 92.8893 299.591C92.8073 299.427 92.6881 299.313 92.5319 299.251C92.3756 299.185 92.192 299.151 91.9811 299.151C91.7662 299.151 91.5787 299.192 91.4186 299.274C91.2623 299.353 91.1295 299.462 91.0201 299.603C90.9147 299.743 90.8346 299.907 90.7799 300.095C90.7291 300.278 90.7037 300.478 90.7037 300.692ZM98.8131 304.495C98.3326 304.495 97.901 304.417 97.5182 304.261C97.1354 304.104 96.8092 303.888 96.5397 303.61C96.274 303.329 96.069 303.003 95.9244 302.632C95.7838 302.257 95.7135 301.854 95.7135 301.425V301.19C95.7135 300.702 95.7838 300.259 95.9244 299.86C96.0651 299.458 96.2643 299.112 96.5221 298.823C96.7799 298.534 97.0885 298.312 97.4479 298.155C97.8073 297.999 98.2037 297.921 98.6373 297.921C99.0865 297.921 99.483 297.997 99.8268 298.149C100.171 298.298 100.458 298.509 100.688 298.782C100.919 299.056 101.092 299.384 101.21 299.767C101.327 300.146 101.385 300.565 101.385 301.026V301.677H96.4166V300.61H99.8619V300.493C99.8541 300.247 99.8073 300.022 99.7213 299.819C99.6354 299.612 99.5026 299.448 99.3229 299.327C99.1432 299.202 98.9108 299.14 98.6256 299.14C98.3951 299.14 98.194 299.19 98.0221 299.292C97.8541 299.39 97.7135 299.53 97.6002 299.714C97.4908 299.894 97.4088 300.108 97.3541 300.358C97.2994 300.608 97.2721 300.886 97.2721 301.19V301.425C97.2721 301.69 97.3073 301.937 97.3776 302.163C97.4518 302.39 97.5592 302.587 97.6998 302.755C97.8444 302.919 98.0162 303.048 98.2155 303.142C98.4186 303.231 98.649 303.276 98.9069 303.276C99.2311 303.276 99.524 303.214 99.7858 303.089C100.051 302.96 100.282 302.771 100.477 302.521L101.256 303.329C101.124 303.524 100.944 303.712 100.717 303.892C100.495 304.071 100.225 304.218 99.9088 304.331C99.5924 304.44 99.2272 304.495 98.8131 304.495ZM103.94 299.392V304.378H102.393V298.038H103.846L103.94 299.392ZM103.694 300.979H103.237C103.241 300.519 103.303 300.101 103.424 299.726C103.546 299.351 103.715 299.028 103.934 298.759C104.157 298.489 104.421 298.282 104.725 298.138C105.03 297.993 105.37 297.921 105.745 297.921C106.049 297.921 106.325 297.964 106.571 298.05C106.817 298.136 107.028 298.272 107.204 298.46C107.383 298.647 107.52 298.894 107.614 299.198C107.712 299.499 107.76 299.87 107.76 300.312V304.378H106.202V300.3C106.202 300.011 106.159 299.782 106.073 299.614C105.991 299.446 105.87 299.327 105.71 299.257C105.553 299.187 105.36 299.151 105.13 299.151C104.891 299.151 104.682 299.2 104.503 299.298C104.327 299.392 104.178 299.522 104.057 299.69C103.94 299.858 103.85 300.052 103.788 300.271C103.725 300.489 103.694 300.726 103.694 300.979ZM112.126 298.038V299.151H108.493V298.038H112.126ZM109.465 296.479H111.018V302.55C111.018 302.737 111.044 302.882 111.094 302.983C111.145 303.085 111.221 303.153 111.323 303.188C111.424 303.224 111.546 303.241 111.686 303.241C111.788 303.241 111.881 303.235 111.967 303.224C112.053 303.212 112.126 303.2 112.184 303.188L112.19 304.349C112.061 304.392 111.915 304.427 111.751 304.454C111.59 304.481 111.409 304.495 111.206 304.495C110.858 304.495 110.553 304.437 110.292 304.319C110.03 304.198 109.827 304.005 109.682 303.739C109.538 303.47 109.465 303.114 109.465 302.673V296.479ZM116.643 302.644C116.643 302.511 116.608 302.392 116.538 302.286C116.467 302.181 116.335 302.085 116.139 301.999C115.948 301.909 115.667 301.825 115.296 301.747C114.967 301.677 114.665 301.589 114.387 301.483C114.11 301.378 113.872 301.251 113.672 301.103C113.473 300.95 113.317 300.772 113.204 300.569C113.094 300.362 113.04 300.124 113.04 299.854C113.04 299.593 113.096 299.347 113.21 299.116C113.323 298.882 113.487 298.677 113.702 298.501C113.917 298.321 114.178 298.181 114.487 298.079C114.796 297.974 115.143 297.921 115.53 297.921C116.069 297.921 116.532 298.009 116.919 298.185C117.309 298.36 117.608 298.603 117.815 298.911C118.022 299.216 118.126 299.56 118.126 299.942H116.579C116.579 299.774 116.54 299.622 116.462 299.485C116.387 299.349 116.272 299.239 116.116 299.157C115.96 299.071 115.762 299.028 115.524 299.028C115.309 299.028 115.128 299.063 114.979 299.134C114.835 299.204 114.725 299.296 114.651 299.409C114.577 299.522 114.54 299.647 114.54 299.784C114.54 299.886 114.559 299.978 114.598 300.06C114.641 300.138 114.71 300.21 114.803 300.276C114.897 300.343 115.024 300.403 115.184 300.458C115.348 300.513 115.549 300.565 115.788 300.616C116.26 300.71 116.672 300.835 117.024 300.991C117.38 301.144 117.657 301.347 117.856 301.601C118.055 301.854 118.155 302.179 118.155 302.573C118.155 302.854 118.094 303.112 117.973 303.347C117.852 303.577 117.676 303.778 117.446 303.95C117.215 304.122 116.94 304.257 116.62 304.354C116.299 304.448 115.938 304.495 115.536 304.495C114.954 304.495 114.462 304.392 114.059 304.185C113.657 303.974 113.352 303.708 113.145 303.388C112.938 303.063 112.835 302.728 112.835 302.38H114.317C114.329 302.626 114.395 302.823 114.516 302.972C114.637 303.12 114.79 303.228 114.973 303.294C115.161 303.356 115.358 303.388 115.565 303.388C115.799 303.388 115.997 303.356 116.157 303.294C116.317 303.228 116.438 303.14 116.52 303.03C116.602 302.917 116.643 302.788 116.643 302.644Z" fill="black"/>
<rect x="59.8438" y="313" width="302" height="35" rx="2.5" fill="white" stroke="#B6B6B6"/>
<path d="M76.5865 332.475H73.9274V331.401H76.5865C77.1015 331.401 77.5185 331.319 77.8375 331.155C78.1565 330.991 78.389 330.763 78.5348 330.472C78.6852 330.18 78.7604 329.847 78.7604 329.474C78.7604 329.132 78.6852 328.811 78.5348 328.51C78.389 328.209 78.1565 327.967 77.8375 327.785C77.5185 327.598 77.1015 327.505 76.5865 327.505H74.235V336.378H72.9156V326.425H76.5865C77.3385 326.425 77.9742 326.555 78.4938 326.814C79.0133 327.074 79.4075 327.434 79.6764 327.895C79.9453 328.35 80.0797 328.872 80.0797 329.46C80.0797 330.098 79.9453 330.643 79.6764 331.094C79.4075 331.545 79.0133 331.889 78.4938 332.126C77.9742 332.358 77.3385 332.475 76.5865 332.475ZM84.5299 336.515C84.0149 336.515 83.5478 336.428 83.1285 336.255C82.7138 336.077 82.3561 335.829 82.0553 335.51C81.7591 335.191 81.5312 334.812 81.3717 334.375C81.2122 333.938 81.1324 333.459 81.1324 332.939V332.652C81.1324 332.051 81.2213 331.515 81.399 331.046C81.5768 330.572 81.8183 330.171 82.1237 329.843C82.429 329.515 82.7753 329.266 83.1627 329.098C83.5501 328.929 83.9511 328.845 84.3658 328.845C84.8945 328.845 85.3502 328.936 85.733 329.118C86.1204 329.3 86.4371 329.556 86.6832 329.884C86.9293 330.207 87.1116 330.59 87.2301 331.032C87.3486 331.47 87.4078 331.948 87.4078 332.468V333.035H81.8844V332.003H86.1432V331.907C86.125 331.579 86.0566 331.26 85.9381 330.95C85.8242 330.64 85.6419 330.385 85.3912 330.185C85.1406 329.984 84.7988 329.884 84.3658 329.884C84.0787 329.884 83.8144 329.945 83.5729 330.068C83.3313 330.187 83.124 330.365 82.9508 330.602C82.7776 330.839 82.6432 331.128 82.5475 331.47C82.4518 331.812 82.4039 332.206 82.4039 332.652V332.939C82.4039 333.29 82.4518 333.621 82.5475 333.931C82.6477 334.236 82.7913 334.505 82.9781 334.737C83.1696 334.97 83.3997 335.152 83.6686 335.284C83.942 335.416 84.2519 335.482 84.5983 335.482C85.0449 335.482 85.4231 335.391 85.733 335.209C86.0429 335.027 86.3141 334.783 86.5465 334.478L87.3121 335.086C87.1526 335.327 86.9498 335.558 86.7037 335.776C86.4576 335.995 86.1546 336.173 85.7946 336.31C85.4391 336.446 85.0175 336.515 84.5299 336.515ZM90.149 330.144V336.378H88.8844V328.981H90.1149L90.149 330.144ZM92.4596 328.94L92.4528 330.116C92.3479 330.093 92.2477 330.08 92.152 330.075C92.0608 330.066 91.956 330.062 91.8375 330.062C91.5459 330.062 91.2884 330.107 91.0651 330.198C90.8418 330.289 90.6526 330.417 90.4977 330.581C90.3427 330.745 90.2197 330.941 90.1285 331.169C90.042 331.392 89.985 331.638 89.9576 331.907L89.6022 332.112C89.6022 331.666 89.6455 331.246 89.7321 330.854C89.8232 330.463 89.9622 330.116 90.149 329.815C90.3359 329.51 90.5729 329.273 90.86 329.104C91.1517 328.931 91.498 328.845 91.899 328.845C91.9902 328.845 92.095 328.856 92.2135 328.879C92.332 328.897 92.414 328.918 92.4596 328.94ZM97.9352 334.416C97.9352 334.234 97.8942 334.065 97.8121 333.91C97.7347 333.751 97.5729 333.607 97.3268 333.479C97.0852 333.347 96.7207 333.233 96.233 333.138C95.8229 333.051 95.4515 332.949 95.1188 332.83C94.7906 332.712 94.5104 332.568 94.278 332.399C94.0501 332.231 93.8746 332.033 93.7516 331.805C93.6285 331.577 93.567 331.31 93.567 331.005C93.567 330.713 93.6308 330.438 93.7584 330.178C93.8906 329.918 94.0752 329.688 94.3121 329.487C94.5537 329.287 94.8431 329.13 95.1803 329.016C95.5175 328.902 95.8935 328.845 96.3082 328.845C96.9007 328.845 97.4065 328.95 97.8258 329.159C98.2451 329.369 98.5664 329.649 98.7897 330C99.013 330.346 99.1246 330.731 99.1246 331.155H97.86C97.86 330.95 97.7985 330.752 97.6754 330.561C97.5569 330.365 97.3815 330.203 97.149 330.075C96.9212 329.948 96.6409 329.884 96.3082 329.884C95.9573 329.884 95.6725 329.938 95.4537 330.048C95.2395 330.153 95.0823 330.287 94.9821 330.451C94.8864 330.615 94.8385 330.788 94.8385 330.971C94.8385 331.107 94.8613 331.23 94.9069 331.34C94.957 331.445 95.0436 331.543 95.1666 331.634C95.2897 331.72 95.4628 331.802 95.6862 331.88C95.9095 331.957 96.1943 332.035 96.5406 332.112C97.1468 332.249 97.6458 332.413 98.0377 332.604C98.4296 332.796 98.7213 333.031 98.9127 333.309C99.1041 333.587 99.1998 333.924 99.1998 334.32C99.1998 334.644 99.1315 334.94 98.9948 335.209C98.8626 335.478 98.6689 335.71 98.4137 335.906C98.163 336.098 97.8623 336.248 97.5114 336.357C97.165 336.462 96.7753 336.515 96.3424 336.515C95.6907 336.515 95.1393 336.398 94.6881 336.166C94.2369 335.934 93.8951 335.633 93.6627 335.264C93.4303 334.895 93.3141 334.505 93.3141 334.095H94.5856C94.6038 334.441 94.7041 334.717 94.8864 334.922C95.0686 335.122 95.292 335.266 95.5563 335.353C95.8206 335.435 96.0826 335.476 96.3424 335.476C96.6888 335.476 96.9781 335.43 97.2106 335.339C97.4476 335.248 97.6276 335.122 97.7506 334.963C97.8737 334.803 97.9352 334.621 97.9352 334.416ZM100.526 332.762V332.604C100.526 332.071 100.603 331.577 100.758 331.121C100.913 330.661 101.137 330.262 101.428 329.925C101.72 329.583 102.073 329.319 102.488 329.132C102.903 328.94 103.367 328.845 103.882 328.845C104.402 328.845 104.869 328.94 105.284 329.132C105.703 329.319 106.059 329.583 106.35 329.925C106.646 330.262 106.872 330.661 107.027 331.121C107.182 331.577 107.259 332.071 107.259 332.604V332.762C107.259 333.295 107.182 333.789 107.027 334.245C106.872 334.701 106.646 335.1 106.35 335.441C106.059 335.779 105.705 336.043 105.291 336.234C104.88 336.421 104.416 336.515 103.896 336.515C103.377 336.515 102.909 336.421 102.495 336.234C102.08 336.043 101.725 335.779 101.428 335.441C101.137 335.1 100.913 334.701 100.758 334.245C100.603 333.789 100.526 333.295 100.526 332.762ZM101.791 332.604V332.762C101.791 333.131 101.834 333.479 101.921 333.808C102.007 334.131 102.137 334.418 102.31 334.669C102.488 334.92 102.709 335.118 102.973 335.264C103.238 335.405 103.545 335.476 103.896 335.476C104.242 335.476 104.546 335.405 104.805 335.264C105.07 335.118 105.288 334.92 105.462 334.669C105.635 334.418 105.765 334.131 105.851 333.808C105.942 333.479 105.988 333.131 105.988 332.762V332.604C105.988 332.24 105.942 331.896 105.851 331.572C105.765 331.244 105.632 330.955 105.455 330.704C105.282 330.449 105.063 330.248 104.798 330.103C104.539 329.957 104.233 329.884 103.882 329.884C103.536 329.884 103.231 329.957 102.966 330.103C102.707 330.248 102.488 330.449 102.31 330.704C102.137 330.955 102.007 331.244 101.921 331.572C101.834 331.896 101.791 332.24 101.791 332.604ZM110.11 330.561V336.378H108.845V328.981H110.042L110.11 330.561ZM109.809 332.399L109.283 332.379C109.287 331.873 109.363 331.406 109.508 330.978C109.654 330.545 109.859 330.169 110.124 329.85C110.388 329.531 110.702 329.285 111.067 329.111C111.436 328.934 111.844 328.845 112.291 328.845C112.655 328.845 112.983 328.895 113.275 328.995C113.567 329.091 113.815 329.246 114.02 329.46C114.23 329.674 114.389 329.952 114.499 330.294C114.608 330.631 114.663 331.044 114.663 331.531V336.378H113.391V331.518C113.391 331.13 113.334 330.82 113.22 330.588C113.106 330.351 112.94 330.18 112.721 330.075C112.503 329.966 112.234 329.911 111.915 329.911C111.6 329.911 111.313 329.977 111.053 330.109C110.798 330.242 110.577 330.424 110.39 330.656C110.208 330.889 110.064 331.155 109.96 331.456C109.859 331.752 109.809 332.067 109.809 332.399ZM120.945 335.113V331.306C120.945 331.014 120.886 330.761 120.767 330.547C120.653 330.328 120.48 330.16 120.248 330.041C120.015 329.923 119.728 329.863 119.386 329.863C119.067 329.863 118.787 329.918 118.546 330.027C118.309 330.137 118.122 330.28 117.985 330.458C117.853 330.636 117.787 330.827 117.787 331.032H116.522C116.522 330.768 116.59 330.506 116.727 330.246C116.864 329.986 117.06 329.752 117.315 329.542C117.575 329.328 117.885 329.159 118.245 329.036C118.609 328.909 119.015 328.845 119.462 328.845C119.999 328.845 120.473 328.936 120.883 329.118C121.298 329.3 121.622 329.576 121.854 329.945C122.091 330.31 122.21 330.768 122.21 331.319V334.765C122.21 335.011 122.23 335.273 122.271 335.551C122.317 335.829 122.383 336.068 122.469 336.269V336.378H121.15C121.086 336.232 121.036 336.038 121 335.797C120.963 335.551 120.945 335.323 120.945 335.113ZM121.164 331.894L121.177 332.782H119.899C119.539 332.782 119.218 332.812 118.935 332.871C118.653 332.926 118.416 333.01 118.224 333.124C118.033 333.238 117.887 333.382 117.787 333.555C117.686 333.723 117.636 333.922 117.636 334.149C117.636 334.382 117.689 334.594 117.794 334.785C117.898 334.977 118.056 335.129 118.265 335.243C118.479 335.353 118.741 335.407 119.051 335.407C119.439 335.407 119.781 335.325 120.077 335.161C120.373 334.997 120.608 334.797 120.781 334.56C120.959 334.323 121.054 334.092 121.068 333.869L121.608 334.478C121.576 334.669 121.49 334.881 121.348 335.113C121.207 335.346 121.018 335.569 120.781 335.783C120.548 335.993 120.27 336.168 119.947 336.31C119.628 336.446 119.268 336.515 118.867 336.515C118.366 336.515 117.926 336.417 117.547 336.221C117.174 336.025 116.882 335.763 116.672 335.435C116.467 335.102 116.365 334.73 116.365 334.32C116.365 333.924 116.442 333.575 116.597 333.274C116.752 332.969 116.976 332.716 117.267 332.516C117.559 332.311 117.91 332.156 118.32 332.051C118.73 331.946 119.188 331.894 119.694 331.894H121.164ZM125.573 325.878V336.378H124.301V325.878H125.573Z" fill="black"/>
<path d="M62.1862 221.969V230.5H60.5748V221.969H62.1862ZM65.6256 225.654V226.926H61.7643V225.654H65.6256ZM66.0768 221.969V223.24H61.7643V221.969H66.0768ZM68.4498 225.455V230.5H66.903V224.16H68.3678L68.4498 225.455ZM70.3776 224.119L70.3541 225.561C70.2682 225.545 70.1705 225.533 70.0612 225.525C69.9557 225.518 69.8561 225.514 69.7623 225.514C69.524 225.514 69.3151 225.547 69.1354 225.613C68.9557 225.676 68.8053 225.768 68.6842 225.889C68.567 226.01 68.4772 226.158 68.4147 226.334C68.3522 226.506 68.317 226.701 68.3092 226.92L67.9752 226.879C67.9752 226.477 68.0162 226.104 68.0983 225.76C68.1803 225.416 68.2994 225.115 68.4557 224.857C68.6119 224.6 68.8073 224.4 69.0416 224.26C69.2799 224.115 69.5533 224.043 69.8619 224.043C69.9479 224.043 70.0397 224.051 70.1373 224.066C70.2389 224.078 70.319 224.096 70.3776 224.119ZM70.7877 227.395V227.271C70.7877 226.807 70.8541 226.379 70.9869 225.988C71.1198 225.594 71.3131 225.252 71.567 224.963C71.8209 224.674 72.1315 224.449 72.4987 224.289C72.8658 224.125 73.2838 224.043 73.7526 224.043C74.2291 224.043 74.651 224.125 75.0182 224.289C75.3893 224.449 75.7018 224.674 75.9557 224.963C76.2096 225.252 76.403 225.594 76.5358 225.988C76.6686 226.379 76.735 226.807 76.735 227.271V227.395C76.735 227.855 76.6686 228.283 76.5358 228.678C76.403 229.068 76.2096 229.41 75.9557 229.703C75.7018 229.992 75.3912 230.217 75.024 230.377C74.6569 230.537 74.2369 230.617 73.7643 230.617C73.2955 230.617 72.8756 230.537 72.5045 230.377C72.1334 230.217 71.8209 229.992 71.567 229.703C71.3131 229.41 71.1198 229.068 70.9869 228.678C70.8541 228.283 70.7877 227.855 70.7877 227.395ZM72.3346 227.271V227.395C72.3346 227.672 72.3619 227.932 72.4166 228.174C72.4713 228.416 72.5553 228.629 72.6686 228.812C72.7819 228.996 72.9283 229.141 73.108 229.246C73.2916 229.348 73.5104 229.398 73.7643 229.398C74.0143 229.398 74.2291 229.348 74.4088 229.246C74.5885 229.141 74.735 228.996 74.8483 228.812C74.9655 228.629 75.0514 228.416 75.1061 228.174C75.1608 227.932 75.1881 227.672 75.1881 227.395V227.271C75.1881 226.998 75.1608 226.742 75.1061 226.504C75.0514 226.262 74.9655 226.049 74.8483 225.865C74.735 225.678 74.5865 225.531 74.403 225.426C74.2233 225.316 74.0065 225.262 73.7526 225.262C73.5026 225.262 73.2877 225.316 73.108 225.426C72.9283 225.531 72.7819 225.678 72.6686 225.865C72.5553 226.049 72.4713 226.262 72.4166 226.504C72.3619 226.742 72.3346 226.998 72.3346 227.271ZM79.401 225.461V230.5H77.8541V224.16H79.3131L79.401 225.461ZM79.1725 227.102H78.6979C78.6979 226.66 78.7506 226.254 78.8561 225.883C78.9655 225.512 79.1256 225.189 79.3365 224.916C79.5475 224.639 79.8073 224.424 80.1158 224.271C80.4283 224.119 80.7897 224.043 81.1998 224.043C81.485 224.043 81.7467 224.086 81.985 224.172C82.2233 224.254 82.4283 224.385 82.6002 224.564C82.776 224.74 82.9108 224.971 83.0045 225.256C83.0983 225.537 83.1451 225.875 83.1451 226.27V230.5H81.5983V226.428C81.5983 226.131 81.5553 225.898 81.4694 225.73C81.3873 225.562 81.2682 225.445 81.1119 225.379C80.9557 225.309 80.7682 225.273 80.5494 225.273C80.3073 225.273 80.0983 225.322 79.9225 225.42C79.7506 225.514 79.608 225.645 79.4948 225.812C79.3854 225.98 79.3033 226.174 79.2487 226.393C79.1979 226.611 79.1725 226.848 79.1725 227.102ZM83.028 226.814L82.3893 226.932C82.3932 226.533 82.4479 226.16 82.5533 225.812C82.6588 225.461 82.8131 225.154 83.0162 224.893C83.2233 224.627 83.4791 224.42 83.7838 224.271C84.0924 224.119 84.4479 224.043 84.8502 224.043C85.1627 224.043 85.444 224.088 85.694 224.178C85.9479 224.264 86.1647 224.402 86.3444 224.594C86.524 224.781 86.6608 225.025 86.7545 225.326C86.8522 225.627 86.901 225.994 86.901 226.428V230.5H85.3424V226.422C85.3424 226.113 85.2994 225.877 85.2135 225.713C85.1315 225.549 85.0123 225.436 84.8561 225.373C84.6998 225.307 84.5162 225.273 84.3053 225.273C84.0905 225.273 83.903 225.314 83.7428 225.396C83.5865 225.475 83.4537 225.584 83.3444 225.725C83.2389 225.865 83.1588 226.029 83.1041 226.217C83.0533 226.4 83.028 226.6 83.028 226.814Z" fill="black"/>
<rect x="60.2604" y="239" width="138" height="35" rx="2.5" fill="white" stroke="#B6B6B6"/>
<path d="M75.609 262.5H73.5309L73.5446 261.427H75.609C76.3199 261.427 76.9124 261.279 77.3864 260.982C77.8603 260.682 78.2158 260.262 78.4528 259.725C78.6943 259.182 78.8151 258.549 78.8151 257.824V257.216C78.8151 256.646 78.7467 256.14 78.61 255.698C78.4733 255.252 78.2727 254.876 78.0084 254.57C77.7441 254.26 77.4205 254.026 77.0377 253.866C76.6595 253.707 76.2242 253.627 75.7321 253.627H73.4899V252.547H75.7321C76.3837 252.547 76.9785 252.656 77.5162 252.875C78.054 253.089 78.5166 253.401 78.9039 253.812C79.2959 254.217 79.5966 254.709 79.8063 255.288C80.0159 255.862 80.1207 256.509 80.1207 257.229V257.824C80.1207 258.544 80.0159 259.194 79.8063 259.772C79.5966 260.347 79.2936 260.837 78.8971 261.242C78.5052 261.648 78.0312 261.96 77.4752 262.179C76.9238 262.393 76.3017 262.5 75.609 262.5ZM74.235 252.547V262.5H72.9156V252.547H74.235ZM84.7965 262.5H82.7184L82.7321 261.427H84.7965C85.5074 261.427 86.0999 261.279 86.5739 260.982C87.0478 260.682 87.4033 260.262 87.6403 259.725C87.8818 259.182 88.0026 258.549 88.0026 257.824V257.216C88.0026 256.646 87.9342 256.14 87.7975 255.698C87.6608 255.252 87.4602 254.876 87.1959 254.57C86.9316 254.26 86.608 254.026 86.2252 253.866C85.847 253.707 85.4117 253.627 84.9196 253.627H82.6774V252.547H84.9196C85.5712 252.547 86.166 252.656 86.7037 252.875C87.2415 253.089 87.7041 253.401 88.0914 253.812C88.4834 254.217 88.7841 254.709 88.9938 255.288C89.2034 255.862 89.3082 256.509 89.3082 257.229V257.824C89.3082 258.544 89.2034 259.194 88.9938 259.772C88.7841 260.347 88.4811 260.837 88.0846 261.242C87.6927 261.648 87.2187 261.96 86.6627 262.179C86.1113 262.393 85.4892 262.5 84.7965 262.5ZM83.4225 252.547V262.5H82.1031V252.547H83.4225ZM93.7311 257.749V258.788H90.3951V257.749H93.7311ZM95.5768 252.547H96.8551L100.116 260.661L103.37 252.547H104.655L100.608 262.5H99.61L95.5768 252.547ZM95.1598 252.547H96.2877L96.4723 258.617V262.5H95.1598V252.547ZM103.937 252.547H105.065V262.5H103.753V258.617L103.937 252.547ZM107.799 252.547H109.078L112.339 260.661L115.592 252.547H116.878L112.831 262.5H111.833L107.799 252.547ZM107.382 252.547H108.51L108.695 258.617V262.5H107.382V252.547ZM116.16 252.547H117.288V262.5H115.975V258.617L116.16 252.547ZM122.046 257.749V258.788H118.71V257.749H122.046ZM123.932 252.547L126.516 257.544L129.107 252.547H130.604L127.172 258.781V262.5H125.853V258.781L122.422 252.547H123.932ZM132.464 252.547L135.047 257.544L137.638 252.547H139.135L135.704 258.781V262.5H134.384V258.781L130.953 252.547H132.464ZM140.995 252.547L143.579 257.544L146.17 252.547H147.667L144.235 258.781V262.5H142.916V258.781L139.484 252.547H140.995ZM149.526 252.547L152.11 257.544L154.701 252.547H156.198L152.766 258.781V262.5H151.447V258.781L148.015 252.547H149.526Z" fill="black"/>
<path d="M184.271 250.09H182.682V249.295C182.682 249.084 182.598 248.882 182.449 248.733C182.3 248.584 182.098 248.5 181.887 248.5C181.676 248.5 181.474 248.584 181.325 248.733C181.176 248.882 181.092 249.084 181.092 249.295V250.09H176.324V249.295C176.324 249.084 176.24 248.882 176.091 248.733C175.942 248.584 175.74 248.5 175.529 248.5C175.318 248.5 175.116 248.584 174.967 248.733C174.818 248.882 174.734 249.084 174.734 249.295V250.09H173.145C172.512 250.09 171.906 250.341 171.459 250.788C171.012 251.235 170.76 251.841 170.76 252.474V262.011C170.76 262.643 171.012 263.25 171.459 263.697C171.906 264.144 172.512 264.395 173.145 264.395H184.271C184.904 264.395 185.51 264.144 185.957 263.697C186.404 263.25 186.656 262.643 186.656 262.011V252.474C186.656 251.841 186.404 251.235 185.957 250.788C185.51 250.341 184.904 250.09 184.271 250.09ZM185.066 262.011C185.066 262.222 184.982 262.424 184.833 262.573C184.684 262.722 184.482 262.806 184.271 262.806H173.145C172.934 262.806 172.732 262.722 172.583 262.573C172.434 262.424 172.35 262.222 172.35 262.011V256.448H185.066V262.011ZM185.066 254.858H172.35V252.474C172.35 252.263 172.434 252.061 172.583 251.912C172.732 251.763 172.934 251.679 173.145 251.679H174.734V252.474C174.734 252.685 174.818 252.887 174.967 253.036C175.116 253.185 175.318 253.269 175.529 253.269C175.74 253.269 175.942 253.185 176.091 253.036C176.24 252.887 176.324 252.685 176.324 252.474V251.679H181.092V252.474C181.092 252.685 181.176 252.887 181.325 253.036C181.474 253.185 181.676 253.269 181.887 253.269C182.098 253.269 182.3 253.185 182.449 253.036C182.598 252.887 182.682 252.685 182.682 252.474V251.679H184.271C184.482 251.679 184.684 251.763 184.833 251.912C184.982 252.061 185.066 252.263 185.066 252.474V254.858Z" fill="#3BBCA0"/>
<path d="M227.573 221.969V230.5H225.967V221.969H227.573ZM230.221 221.969V223.24H223.348V221.969H230.221ZM229.987 227.395V227.271C229.987 226.807 230.053 226.379 230.186 225.988C230.319 225.594 230.512 225.252 230.766 224.963C231.02 224.674 231.331 224.449 231.698 224.289C232.065 224.125 232.483 224.043 232.952 224.043C233.428 224.043 233.85 224.125 234.217 224.289C234.589 224.449 234.901 224.674 235.155 224.963C235.409 225.252 235.602 225.594 235.735 225.988C235.868 226.379 235.934 226.807 235.934 227.271V227.395C235.934 227.855 235.868 228.283 235.735 228.678C235.602 229.068 235.409 229.41 235.155 229.703C234.901 229.992 234.59 230.217 234.223 230.377C233.856 230.537 233.436 230.617 232.964 230.617C232.495 230.617 232.075 230.537 231.704 230.377C231.333 230.217 231.02 229.992 230.766 229.703C230.512 229.41 230.319 229.068 230.186 228.678C230.053 228.283 229.987 227.855 229.987 227.395ZM231.534 227.271V227.395C231.534 227.672 231.561 227.932 231.616 228.174C231.671 228.416 231.755 228.629 231.868 228.812C231.981 228.996 232.128 229.141 232.307 229.246C232.491 229.348 232.71 229.398 232.964 229.398C233.214 229.398 233.428 229.348 233.608 229.246C233.788 229.141 233.934 228.996 234.047 228.812C234.165 228.629 234.251 228.416 234.305 228.174C234.36 227.932 234.387 227.672 234.387 227.395V227.271C234.387 226.998 234.36 226.742 234.305 226.504C234.251 226.262 234.165 226.049 234.047 225.865C233.934 225.678 233.786 225.531 233.602 225.426C233.422 225.316 233.206 225.262 232.952 225.262C232.702 225.262 232.487 225.316 232.307 225.426C232.128 225.531 231.981 225.678 231.868 225.865C231.755 226.049 231.671 226.262 231.616 226.504C231.561 226.742 231.534 226.998 231.534 227.271Z" fill="black"/>
<rect x="223.596" y="239" width="138" height="35" rx="2.5" fill="white" stroke="#B6B6B6"/>
<path d="M238.945 262.5H236.867L236.88 261.427H238.945C239.656 261.427 240.248 261.279 240.722 260.982C241.196 260.682 241.552 260.262 241.789 259.725C242.03 259.182 242.151 258.549 242.151 257.824V257.216C242.151 256.646 242.083 256.14 241.946 255.698C241.809 255.252 241.609 254.876 241.344 254.57C241.08 254.26 240.756 254.026 240.374 253.866C239.995 253.707 239.56 253.627 239.068 253.627H236.826V252.547H239.068C239.72 252.547 240.314 252.656 240.852 252.875C241.39 253.089 241.852 253.401 242.24 253.812C242.632 254.217 242.933 254.709 243.142 255.288C243.352 255.862 243.457 256.509 243.457 257.229V257.824C243.457 258.544 243.352 259.194 243.142 259.772C242.933 260.347 242.63 260.837 242.233 261.242C241.841 261.648 241.367 261.96 240.811 262.179C240.26 262.393 239.638 262.5 238.945 262.5ZM237.571 252.547V262.5H236.252V252.547H237.571ZM248.132 262.5H246.054L246.068 261.427H248.132C248.843 261.427 249.436 261.279 249.91 260.982C250.384 260.682 250.739 260.262 250.976 259.725C251.218 259.182 251.339 258.549 251.339 257.824V257.216C251.339 256.646 251.27 256.14 251.133 255.698C250.997 255.252 250.796 254.876 250.532 254.57C250.268 254.26 249.944 254.026 249.561 253.866C249.183 253.707 248.748 253.627 248.255 253.627H246.013V252.547H248.255C248.907 252.547 249.502 252.656 250.04 252.875C250.577 253.089 251.04 253.401 251.427 253.812C251.819 254.217 252.12 254.709 252.33 255.288C252.539 255.862 252.644 256.509 252.644 257.229V257.824C252.644 258.544 252.539 259.194 252.33 259.772C252.12 260.347 251.817 260.837 251.421 261.242C251.029 261.648 250.555 261.96 249.999 262.179C249.447 262.393 248.825 262.5 248.132 262.5ZM246.758 252.547V262.5H245.439V252.547H246.758ZM257.067 257.749V258.788H253.731V257.749H257.067ZM258.913 252.547H260.191L263.452 260.661L266.706 252.547H267.991L263.944 262.5H262.946L258.913 252.547ZM258.496 252.547H259.624L259.808 258.617V262.5H258.496V252.547ZM267.273 252.547H268.401V262.5H267.089V258.617L267.273 252.547ZM271.135 252.547H272.414L275.674 260.661L278.928 252.547H280.214L276.167 262.5H275.169L271.135 252.547ZM270.718 252.547H271.846L272.031 258.617V262.5H270.718V252.547ZM279.496 252.547H280.624V262.5H279.311V258.617L279.496 252.547ZM285.381 257.749V258.788H282.046V257.749H285.381ZM287.268 252.547L289.852 257.544L292.443 252.547H293.94L290.508 258.781V262.5H289.189V258.781L285.757 252.547H287.268ZM295.799 252.547L298.383 257.544L300.974 252.547H302.471L299.04 258.781V262.5H297.72V258.781L294.289 252.547H295.799ZM304.331 252.547L306.915 257.544L309.505 252.547H311.003L307.571 258.781V262.5H306.252V258.781L302.82 252.547H304.331ZM312.862 252.547L315.446 257.544L318.037 252.547H319.534L316.102 258.781V262.5H314.783V258.781L311.351 252.547H312.862Z" fill="black"/>
<path d="M347.607 250.09H346.018V249.295C346.018 249.084 345.934 248.882 345.785 248.733C345.636 248.584 345.434 248.5 345.223 248.5C345.012 248.5 344.81 248.584 344.661 248.733C344.512 248.882 344.428 249.084 344.428 249.295V250.09H339.66V249.295C339.66 249.084 339.576 248.882 339.427 248.733C339.278 248.584 339.076 248.5 338.865 248.5C338.654 248.5 338.452 248.584 338.303 248.733C338.154 248.882 338.07 249.084 338.07 249.295V250.09H336.481C335.848 250.09 335.242 250.341 334.795 250.788C334.348 251.235 334.096 251.841 334.096 252.474V262.011C334.096 262.643 334.348 263.25 334.795 263.697C335.242 264.144 335.848 264.395 336.481 264.395H347.607C348.24 264.395 348.846 264.144 349.293 263.697C349.74 263.25 349.991 262.643 349.991 262.011V252.474C349.991 251.841 349.74 251.235 349.293 250.788C348.846 250.341 348.24 250.09 347.607 250.09ZM348.402 262.011C348.402 262.222 348.318 262.424 348.169 262.573C348.02 262.722 347.818 262.806 347.607 262.806H336.481C336.27 262.806 336.068 262.722 335.919 262.573C335.77 262.424 335.686 262.222 335.686 262.011V256.448H348.402V262.011ZM348.402 254.858H335.686V252.474C335.686 252.263 335.77 252.061 335.919 251.912C336.068 251.763 336.27 251.679 336.481 251.679H338.07V252.474C338.07 252.685 338.154 252.887 338.303 253.036C338.452 253.185 338.654 253.269 338.865 253.269C339.076 253.269 339.278 253.185 339.427 253.036C339.576 252.887 339.66 252.685 339.66 252.474V251.679H344.428V252.474C344.428 252.685 344.512 252.887 344.661 253.036C344.81 253.185 345.012 253.269 345.223 253.269C345.434 253.269 345.636 253.185 345.785 253.036C345.934 252.887 346.018 252.685 346.018 252.474V251.679H347.607C347.818 251.679 348.02 251.763 348.169 251.912C348.318 252.061 348.402 252.263 348.402 252.474V254.858Z" fill="#3BBCA0"/>
<path d="M65.9889 95.1123V96.3779H61.6998V95.1123H65.9889ZM62.1862 87.8467V96.3779H60.5748V87.8467H62.1862ZM69.7975 96.4951C69.317 96.4951 68.8854 96.417 68.5026 96.2607C68.1198 96.1045 67.7936 95.8877 67.524 95.6104C67.2584 95.3291 67.0533 95.0029 66.9088 94.6318C66.7682 94.2568 66.6979 93.8545 66.6979 93.4248V93.1904C66.6979 92.7021 66.7682 92.2588 66.9088 91.8604C67.0494 91.458 67.2487 91.1123 67.5065 90.8232C67.7643 90.5342 68.0729 90.3115 68.4323 90.1553C68.7916 89.999 69.1881 89.9209 69.6217 89.9209C70.0709 89.9209 70.4674 89.9971 70.8112 90.1494C71.1549 90.2979 71.442 90.5088 71.6725 90.7822C71.903 91.0557 72.0768 91.3838 72.194 91.7666C72.3112 92.1455 72.3698 92.5654 72.3698 93.0264V93.6768H67.401V92.6104H70.8463V92.4932C70.8385 92.2471 70.7916 92.0225 70.7057 91.8193C70.6198 91.6123 70.4869 91.4482 70.3073 91.3271C70.1276 91.2021 69.8951 91.1396 69.61 91.1396C69.3795 91.1396 69.1783 91.1904 69.0065 91.292C68.8385 91.3896 68.6979 91.5303 68.5846 91.7139C68.4752 91.8936 68.3932 92.1084 68.3385 92.3584C68.2838 92.6084 68.2565 92.8857 68.2565 93.1904V93.4248C68.2565 93.6904 68.2916 93.9365 68.3619 94.1631C68.4362 94.3896 68.5436 94.5869 68.6842 94.7549C68.8287 94.9189 69.0006 95.0479 69.1998 95.1416C69.403 95.2314 69.6334 95.2764 69.8912 95.2764C70.2155 95.2764 70.5084 95.2139 70.7701 95.0889C71.0358 94.96 71.2662 94.7705 71.4615 94.5205L72.2408 95.3291C72.108 95.5244 71.9283 95.7119 71.7018 95.8916C71.4791 96.0713 71.2096 96.2178 70.8932 96.3311C70.5768 96.4404 70.2115 96.4951 69.7975 96.4951ZM76.899 95.0303V92.1064C76.899 91.8916 76.8619 91.7061 76.7877 91.5498C76.7135 91.3936 76.6002 91.2725 76.4479 91.1865C76.2955 91.1006 76.1022 91.0576 75.8678 91.0576C75.6608 91.0576 75.4791 91.0928 75.3229 91.1631C75.1705 91.2334 75.0533 91.333 74.9713 91.4619C74.8893 91.5869 74.8483 91.7314 74.8483 91.8955H73.2955C73.2955 91.6338 73.358 91.3857 73.483 91.1514C73.608 90.9131 73.7858 90.7021 74.0162 90.5186C74.2506 90.3311 74.5299 90.1846 74.8541 90.0791C75.1823 89.9736 75.5494 89.9209 75.9557 89.9209C76.4362 89.9209 76.8639 90.0029 77.2389 90.167C77.6178 90.3271 77.9147 90.5693 78.1295 90.8936C78.3483 91.2178 78.4576 91.626 78.4576 92.1182V94.8838C78.4576 95.2002 78.4772 95.4717 78.5162 95.6982C78.5592 95.9209 78.6217 96.1143 78.7037 96.2783V96.3779H77.1276C77.0533 96.2178 76.9967 96.0146 76.9576 95.7686C76.9186 95.5186 76.899 95.2725 76.899 95.0303ZM77.1158 92.5166L77.1276 93.4365H76.149C75.9069 93.4365 75.694 93.4619 75.5104 93.5127C75.3268 93.5596 75.1764 93.6299 75.0592 93.7236C74.942 93.8135 74.8541 93.9229 74.7955 94.0518C74.7369 94.1768 74.7076 94.3193 74.7076 94.4795C74.7076 94.6357 74.7428 94.7764 74.8131 94.9014C74.8873 95.0264 74.9928 95.126 75.1295 95.2002C75.2701 95.2705 75.4342 95.3057 75.6217 95.3057C75.8951 95.3057 76.1334 95.251 76.3365 95.1416C76.5397 95.0283 76.6979 94.8916 76.8112 94.7314C76.9244 94.5713 76.985 94.4189 76.9928 94.2744L77.4381 94.9424C77.3834 95.1025 77.3014 95.2725 77.192 95.4521C77.0826 95.6318 76.942 95.7998 76.7701 95.9561C76.5983 96.1123 76.3912 96.2412 76.149 96.3428C75.9069 96.4443 75.6256 96.4951 75.3053 96.4951C74.8951 96.4951 74.528 96.4131 74.2037 96.249C73.8795 96.085 73.6237 95.8604 73.4362 95.5752C73.2487 95.29 73.1549 94.9658 73.1549 94.6025C73.1549 94.2666 73.2174 93.9697 73.3424 93.7119C73.4674 93.4541 73.653 93.2373 73.899 93.0615C74.1451 92.8818 74.4498 92.7471 74.8131 92.6572C75.1803 92.5635 75.6002 92.5166 76.0729 92.5166H77.1158ZM81.8619 95.2061L83.3385 90.0381H84.9557L82.7819 96.3779H81.7975L81.8619 95.2061ZM80.7838 90.0381L82.278 95.2178L82.3307 96.3779H81.3405L79.1608 90.0381H80.7838ZM88.5358 96.4951C88.0553 96.4951 87.6237 96.417 87.2408 96.2607C86.858 96.1045 86.5319 95.8877 86.2623 95.6104C85.9967 95.3291 85.7916 95.0029 85.6471 94.6318C85.5065 94.2568 85.4362 93.8545 85.4362 93.4248V93.1904C85.4362 92.7021 85.5065 92.2588 85.6471 91.8604C85.7877 91.458 85.9869 91.1123 86.2448 90.8232C86.5026 90.5342 86.8112 90.3115 87.1705 90.1553C87.5299 89.999 87.9264 89.9209 88.36 89.9209C88.8092 89.9209 89.2057 89.9971 89.5494 90.1494C89.8932 90.2979 90.1803 90.5088 90.4108 90.7822C90.6412 91.0557 90.8151 91.3838 90.9323 91.7666C91.0494 92.1455 91.108 92.5654 91.108 93.0264V93.6768H86.1393V92.6104H89.5846V92.4932C89.5768 92.2471 89.5299 92.0225 89.444 91.8193C89.358 91.6123 89.2252 91.4482 89.0455 91.3271C88.8658 91.2021 88.6334 91.1396 88.3483 91.1396C88.1178 91.1396 87.9166 91.1904 87.7448 91.292C87.5768 91.3896 87.4362 91.5303 87.3229 91.7139C87.2135 91.8936 87.1315 92.1084 87.0768 92.3584C87.0221 92.6084 86.9948 92.8857 86.9948 93.1904V93.4248C86.9948 93.6904 87.0299 93.9365 87.1002 94.1631C87.1744 94.3896 87.2819 94.5869 87.4225 94.7549C87.567 94.9189 87.7389 95.0479 87.9381 95.1416C88.1412 95.2314 88.3717 95.2764 88.6295 95.2764C88.9537 95.2764 89.2467 95.2139 89.5084 95.0889C89.774 94.96 90.0045 94.7705 90.1998 94.5205L90.9791 95.3291C90.8463 95.5244 90.6666 95.7119 90.4401 95.8916C90.2174 96.0713 89.9479 96.2178 89.6315 96.3311C89.3151 96.4404 88.9498 96.4951 88.5358 96.4951ZM98.6198 87.8467V96.3779H97.0143V87.8467H98.6198ZM101.268 87.8467V89.1182H94.3951V87.8467H101.268ZM103.624 95.6748L105.323 90.0381H106.981L104.438 97.3389C104.38 97.4951 104.303 97.665 104.21 97.8486C104.12 98.0322 103.999 98.2061 103.846 98.3701C103.694 98.5381 103.503 98.6748 103.272 98.7803C103.046 98.8857 102.77 98.9385 102.446 98.9385C102.305 98.9385 102.18 98.9287 102.071 98.9092C101.962 98.8896 101.846 98.8643 101.725 98.833V97.6729C101.764 97.6768 101.809 97.6787 101.86 97.6787C101.915 97.6826 101.962 97.6846 102.001 97.6846C102.227 97.6846 102.415 97.6572 102.563 97.6025C102.712 97.5518 102.831 97.4678 102.921 97.3506C103.014 97.2373 103.092 97.0889 103.155 96.9053L103.624 95.6748ZM102.786 90.0381L104.221 94.708L104.473 96.3428L103.407 96.5361L101.116 90.0381H102.786ZM109.278 91.2568V98.8154H107.725V90.0381H109.161L109.278 91.2568ZM113.35 93.1436V93.2666C113.35 93.7275 113.296 94.1553 113.186 94.5498C113.081 94.9404 112.924 95.2822 112.717 95.5752C112.51 95.8643 112.253 96.0908 111.944 96.2549C111.639 96.415 111.288 96.4951 110.889 96.4951C110.499 96.4951 110.159 96.4209 109.87 96.2725C109.581 96.1201 109.337 95.9053 109.137 95.6279C108.938 95.3506 108.778 95.0283 108.657 94.6611C108.54 94.29 108.452 93.8857 108.393 93.4482V93.0557C108.452 92.5908 108.54 92.1689 108.657 91.79C108.778 91.4072 108.938 91.0771 109.137 90.7998C109.337 90.5186 109.579 90.3018 109.864 90.1494C110.153 89.9971 110.491 89.9209 110.878 89.9209C111.28 89.9209 111.633 89.9971 111.938 90.1494C112.247 90.3018 112.506 90.5205 112.717 90.8057C112.928 91.0908 113.087 91.4307 113.192 91.8252C113.297 92.2197 113.35 92.6592 113.35 93.1436ZM111.797 93.2666V93.1436C111.797 92.8623 111.772 92.6025 111.721 92.3643C111.671 92.1221 111.592 91.9111 111.487 91.7314C111.381 91.5479 111.245 91.4053 111.077 91.3037C110.909 91.2021 110.706 91.1514 110.467 91.1514C110.229 91.1514 110.024 91.1904 109.852 91.2686C109.68 91.3467 109.54 91.458 109.43 91.6025C109.321 91.7471 109.235 91.9189 109.172 92.1182C109.114 92.3135 109.075 92.5303 109.055 92.7686V93.7412C109.09 94.0303 109.159 94.29 109.26 94.5205C109.362 94.751 109.51 94.9346 109.706 95.0713C109.905 95.208 110.163 95.2764 110.479 95.2764C110.717 95.2764 110.921 95.2236 111.089 95.1182C111.256 95.0127 111.393 94.8682 111.499 94.6846C111.604 94.4971 111.68 94.2822 111.727 94.04C111.774 93.7979 111.797 93.54 111.797 93.2666ZM117.329 96.4951C116.848 96.4951 116.417 96.417 116.034 96.2607C115.651 96.1045 115.325 95.8877 115.055 95.6104C114.79 95.3291 114.585 95.0029 114.44 94.6318C114.299 94.2568 114.229 93.8545 114.229 93.4248V93.1904C114.229 92.7021 114.299 92.2588 114.44 91.8604C114.581 91.458 114.78 91.1123 115.038 90.8232C115.296 90.5342 115.604 90.3115 115.964 90.1553C116.323 89.999 116.719 89.9209 117.153 89.9209C117.602 89.9209 117.999 89.9971 118.342 90.1494C118.686 90.2979 118.973 90.5088 119.204 90.7822C119.434 91.0557 119.608 91.3838 119.725 91.7666C119.842 92.1455 119.901 92.5654 119.901 93.0264V93.6768H114.932V92.6104H118.378V92.4932C118.37 92.2471 118.323 92.0225 118.237 91.8193C118.151 91.6123 118.018 91.4482 117.839 91.3271C117.659 91.2021 117.426 91.1396 117.141 91.1396C116.911 91.1396 116.71 91.1904 116.538 91.292C116.37 91.3896 116.229 91.5303 116.116 91.7139C116.006 91.8936 115.924 92.1084 115.87 92.3584C115.815 92.6084 115.788 92.8857 115.788 93.1904V93.4248C115.788 93.6904 115.823 93.9365 115.893 94.1631C115.967 94.3896 116.075 94.5869 116.215 94.7549C116.36 94.9189 116.532 95.0479 116.731 95.1416C116.934 95.2314 117.165 95.2764 117.422 95.2764C117.747 95.2764 118.04 95.2139 118.301 95.0889C118.567 94.96 118.797 94.7705 118.993 94.5205L119.772 95.3291C119.639 95.5244 119.46 95.7119 119.233 95.8916C119.01 96.0713 118.741 96.2178 118.424 96.3311C118.108 96.4404 117.743 96.4951 117.329 96.4951Z" fill="black"/>
<rect x="59.8438" y="105" width="302" height="35" rx="2.5" fill="white" stroke="#B6B6B6"/>
<path d="M75.3561 123.627V124.666H72.0201V123.627H75.3561ZM82.0895 125.862C82.0895 125.63 82.053 125.425 81.9801 125.247C81.9117 125.065 81.7887 124.901 81.611 124.755C81.4378 124.609 81.1962 124.47 80.8864 124.338C80.581 124.206 80.1936 124.071 79.7242 123.935C79.2321 123.789 78.7877 123.627 78.3912 123.449C77.9948 123.267 77.6552 123.06 77.3727 122.827C77.0901 122.595 76.8737 122.328 76.7233 122.027C76.5729 121.727 76.4977 121.382 76.4977 120.995C76.4977 120.608 76.5774 120.25 76.7369 119.922C76.8964 119.594 77.1243 119.309 77.4205 119.067C77.7213 118.821 78.0791 118.63 78.4938 118.493C78.9085 118.356 79.3711 118.288 79.8815 118.288C80.6289 118.288 81.2623 118.432 81.7819 118.719C82.3059 119.001 82.7047 119.373 82.9781 119.833C83.2516 120.289 83.3883 120.776 83.3883 121.296H82.0758C82.0758 120.922 81.9961 120.592 81.8365 120.305C81.677 120.013 81.4355 119.785 81.1119 119.621C80.7884 119.452 80.3782 119.368 79.8815 119.368C79.4121 119.368 79.0247 119.439 78.7194 119.58C78.414 119.721 78.1862 119.913 78.0358 120.154C77.8899 120.396 77.817 120.672 77.817 120.981C77.817 121.191 77.8603 121.382 77.9469 121.556C78.038 121.724 78.177 121.882 78.3639 122.027C78.5553 122.173 78.7968 122.308 79.0885 122.431C79.3847 122.554 79.7379 122.672 80.1481 122.786C80.7132 122.946 81.2008 123.123 81.611 123.319C82.0211 123.515 82.3584 123.736 82.6227 123.982C82.8916 124.224 83.0898 124.5 83.2174 124.81C83.3496 125.115 83.4156 125.461 83.4156 125.849C83.4156 126.254 83.3336 126.621 83.1696 126.949C83.0055 127.277 82.7708 127.558 82.4655 127.79C82.1601 128.022 81.7933 128.202 81.3649 128.33C80.941 128.453 80.4671 128.515 79.943 128.515C79.4827 128.515 79.0293 128.451 78.5826 128.323C78.1406 128.196 77.7373 128.004 77.3727 127.749C77.0127 127.494 76.7233 127.179 76.5045 126.806C76.2903 126.427 76.1832 125.99 76.1832 125.493H77.4957C77.4957 125.835 77.5618 126.129 77.694 126.375C77.8261 126.617 78.0061 126.817 78.234 126.977C78.4664 127.136 78.7285 127.255 79.0201 127.332C79.3164 127.405 79.624 127.441 79.943 127.441C80.4033 127.441 80.7929 127.378 81.1119 127.25C81.4309 127.122 81.6725 126.94 81.8365 126.703C82.0052 126.466 82.0895 126.186 82.0895 125.862ZM87.9752 128.515C87.4602 128.515 86.9931 128.428 86.5739 128.255C86.1591 128.077 85.8014 127.829 85.5006 127.51C85.2044 127.191 84.9765 126.812 84.817 126.375C84.6575 125.938 84.5778 125.459 84.5778 124.939V124.652C84.5778 124.051 84.6666 123.515 84.8444 123.046C85.0221 122.572 85.2636 122.171 85.569 121.843C85.8743 121.515 86.2207 121.266 86.608 121.098C86.9954 120.929 87.3964 120.845 87.8112 120.845C88.3398 120.845 88.7955 120.936 89.1783 121.118C89.5657 121.3 89.8824 121.556 90.1285 121.884C90.3746 122.207 90.5569 122.59 90.6754 123.032C90.7939 123.47 90.8531 123.948 90.8531 124.468V125.035H85.3297V124.003H89.5885V123.907C89.5703 123.579 89.5019 123.26 89.3834 122.95C89.2695 122.64 89.0872 122.385 88.8365 122.185C88.5859 121.984 88.2441 121.884 87.8112 121.884C87.524 121.884 87.2597 121.945 87.0182 122.068C86.7767 122.187 86.5693 122.365 86.3961 122.602C86.2229 122.839 86.0885 123.128 85.9928 123.47C85.8971 123.812 85.8492 124.206 85.8492 124.652V124.939C85.8492 125.29 85.8971 125.621 85.9928 125.931C86.0931 126.236 86.2366 126.505 86.4235 126.737C86.6149 126.97 86.845 127.152 87.1139 127.284C87.3873 127.416 87.6972 127.482 88.0436 127.482C88.4902 127.482 88.8684 127.391 89.1783 127.209C89.4882 127.027 89.7594 126.783 89.9918 126.478L90.7574 127.086C90.5979 127.327 90.3951 127.558 90.149 127.776C89.903 127.995 89.5999 128.173 89.2399 128.31C88.8844 128.446 88.4628 128.515 87.9752 128.515ZM93.7037 117.878V128.378H92.4323V117.878H93.7037ZM98.8033 128.515C98.2884 128.515 97.8212 128.428 97.402 128.255C96.9873 128.077 96.6295 127.829 96.3287 127.51C96.0325 127.191 95.8046 126.812 95.6451 126.375C95.4856 125.938 95.4059 125.459 95.4059 124.939V124.652C95.4059 124.051 95.4948 123.515 95.6725 123.046C95.8502 122.572 96.0918 122.171 96.3971 121.843C96.7024 121.515 97.0488 121.266 97.4362 121.098C97.8235 120.929 98.2246 120.845 98.6393 120.845C99.1679 120.845 99.6237 120.936 100.006 121.118C100.394 121.3 100.711 121.556 100.957 121.884C101.203 122.207 101.385 122.59 101.504 123.032C101.622 123.47 101.681 123.948 101.681 124.468V125.035H96.1578V124.003H100.417V123.907C100.398 123.579 100.33 123.26 100.212 122.95C100.098 122.64 99.9153 122.385 99.6647 122.185C99.414 121.984 99.0722 121.884 98.6393 121.884C98.3522 121.884 98.0878 121.945 97.8463 122.068C97.6048 122.187 97.3974 122.365 97.2242 122.602C97.0511 122.839 96.9166 123.128 96.8209 123.47C96.7252 123.812 96.6774 124.206 96.6774 124.652V124.939C96.6774 125.29 96.7252 125.621 96.8209 125.931C96.9212 126.236 97.0647 126.505 97.2516 126.737C97.443 126.97 97.6731 127.152 97.942 127.284C98.2155 127.416 98.5253 127.482 98.8717 127.482C99.3183 127.482 99.6966 127.391 100.006 127.209C100.316 127.027 100.588 126.783 100.82 126.478L101.586 127.086C101.426 127.327 101.223 127.558 100.977 127.776C100.731 127.995 100.428 128.173 100.068 128.31C99.7125 128.446 99.291 128.515 98.8033 128.515ZM106.118 127.476C106.419 127.476 106.697 127.414 106.952 127.291C107.207 127.168 107.417 126.999 107.581 126.785C107.745 126.566 107.838 126.318 107.861 126.04H109.064C109.041 126.478 108.893 126.885 108.62 127.264C108.351 127.637 107.998 127.94 107.56 128.173C107.123 128.401 106.642 128.515 106.118 128.515C105.562 128.515 105.076 128.417 104.662 128.221C104.252 128.025 103.91 127.756 103.636 127.414C103.367 127.072 103.165 126.68 103.028 126.238C102.896 125.792 102.83 125.32 102.83 124.823V124.536C102.83 124.039 102.896 123.57 103.028 123.128C103.165 122.681 103.367 122.287 103.636 121.945C103.91 121.604 104.252 121.335 104.662 121.139C105.076 120.943 105.562 120.845 106.118 120.845C106.697 120.845 107.202 120.963 107.635 121.2C108.068 121.433 108.408 121.752 108.654 122.157C108.905 122.558 109.041 123.014 109.064 123.524H107.861C107.838 123.219 107.752 122.943 107.601 122.697C107.455 122.451 107.255 122.255 107 122.109C106.749 121.959 106.455 121.884 106.118 121.884C105.73 121.884 105.405 121.961 105.14 122.116C104.88 122.267 104.673 122.472 104.518 122.731C104.368 122.987 104.258 123.271 104.19 123.586C104.126 123.896 104.094 124.213 104.094 124.536V124.823C104.094 125.147 104.126 125.466 104.19 125.78C104.254 126.095 104.361 126.38 104.511 126.635C104.666 126.89 104.874 127.095 105.133 127.25C105.398 127.4 105.726 127.476 106.118 127.476ZM113.583 120.981V121.952H109.584V120.981H113.583ZM110.937 119.184H112.202V126.546C112.202 126.797 112.241 126.986 112.318 127.113C112.395 127.241 112.496 127.325 112.619 127.366C112.742 127.407 112.874 127.428 113.015 127.428C113.12 127.428 113.229 127.419 113.343 127.4C113.462 127.378 113.551 127.359 113.61 127.346L113.617 128.378C113.517 128.41 113.384 128.439 113.22 128.467C113.061 128.499 112.867 128.515 112.639 128.515C112.329 128.515 112.045 128.453 111.785 128.33C111.525 128.207 111.318 128.002 111.163 127.715C111.012 127.423 110.937 127.031 110.937 126.539V119.184ZM117.698 123.627V124.666H114.362V123.627H117.698Z" fill="black"/>
<path d="M334.78 119.644C334.694 119.56 334.593 119.493 334.482 119.447C334.37 119.401 334.251 119.378 334.13 119.378C334.009 119.378 333.89 119.401 333.778 119.447C333.667 119.493 333.566 119.56 333.48 119.644L329.905 123.18L326.329 119.644C326.157 119.474 325.923 119.378 325.679 119.378C325.436 119.378 325.202 119.474 325.03 119.644C324.857 119.815 324.76 120.046 324.76 120.287C324.76 120.528 324.857 120.759 325.03 120.929L329.26 125.111C329.345 125.196 329.446 125.263 329.558 125.309C329.669 125.354 329.789 125.378 329.909 125.378C330.03 125.378 330.149 125.354 330.261 125.309C330.372 125.263 330.474 125.196 330.559 125.111L334.789 120.929C335.139 120.583 335.139 120 334.78 119.644Z" fill="#ADADAD"/>
<rect x="60.2604" y="185.5" width="15" height="15" rx="7.5" fill="white"/>
<circle cx="67.7604" cy="193" r="4" fill="#3BBCA0"/>
<rect x="60.2604" y="185.5" width="15" height="15" rx="7.5" stroke="#3BBCA0"/>
<path d="M86.235 187.547V197.5H84.9156V187.547H86.235ZM90.4049 192.024V193.104H85.9479V192.024H90.4049ZM91.0817 187.547V188.627H85.9479V187.547H91.0817ZM96.8375 195.791V190.104H98.109V197.5H96.899L96.8375 195.791ZM97.0768 194.232L97.6031 194.219C97.6031 194.711 97.5507 195.167 97.4459 195.586C97.3457 196.001 97.1816 196.361 96.9537 196.666C96.7259 196.971 96.4274 197.211 96.0582 197.384C95.6891 197.552 95.2402 197.637 94.7115 197.637C94.3515 197.637 94.0211 197.584 93.7203 197.479C93.4241 197.375 93.1689 197.213 92.9547 196.994C92.7405 196.775 92.5742 196.491 92.4557 196.14C92.3418 195.789 92.2848 195.367 92.2848 194.875V190.104H93.5494V194.889C93.5494 195.221 93.5859 195.497 93.6588 195.716C93.7363 195.93 93.8388 196.101 93.9664 196.229C94.0986 196.352 94.2444 196.438 94.4039 196.488C94.568 196.538 94.7366 196.563 94.9098 196.563C95.4476 196.563 95.8737 196.461 96.1881 196.256C96.5026 196.046 96.7281 195.766 96.8649 195.415C97.0061 195.06 97.0768 194.665 97.0768 194.232ZM101.411 187V197.5H100.139V187H101.411ZM104.815 187V197.5H103.544V187H104.815ZM109.477 192.749V193.788H106.141V192.749H109.477ZM113.599 197.5H111.521L111.535 196.427H113.599C114.31 196.427 114.903 196.279 115.377 195.982C115.851 195.682 116.206 195.262 116.443 194.725C116.685 194.182 116.805 193.549 116.805 192.824V192.216C116.805 191.646 116.737 191.14 116.6 190.698C116.464 190.252 116.263 189.876 115.999 189.57C115.734 189.26 115.411 189.026 115.028 188.866C114.65 188.707 114.214 188.627 113.722 188.627H111.48V187.547H113.722C114.374 187.547 114.969 187.656 115.506 187.875C116.044 188.089 116.507 188.401 116.894 188.812C117.286 189.217 117.587 189.709 117.797 190.288C118.006 190.862 118.111 191.509 118.111 192.229V192.824C118.111 193.544 118.006 194.194 117.797 194.772C117.587 195.347 117.284 195.837 116.887 196.242C116.495 196.648 116.021 196.96 115.465 197.179C114.914 197.393 114.292 197.5 113.599 197.5ZM112.225 187.547V197.5H110.906V187.547H112.225ZM124.263 196.235V192.428C124.263 192.136 124.204 191.883 124.086 191.669C123.972 191.45 123.798 191.282 123.566 191.163C123.334 191.045 123.047 190.985 122.705 190.985C122.386 190.985 122.105 191.04 121.864 191.149C121.627 191.259 121.44 191.402 121.303 191.58C121.171 191.758 121.105 191.949 121.105 192.154H119.84C119.84 191.89 119.909 191.628 120.046 191.368C120.182 191.108 120.378 190.874 120.633 190.664C120.893 190.45 121.203 190.281 121.563 190.158C121.928 190.031 122.333 189.967 122.78 189.967C123.318 189.967 123.792 190.058 124.202 190.24C124.616 190.423 124.94 190.698 125.172 191.067C125.409 191.432 125.528 191.89 125.528 192.441V195.887C125.528 196.133 125.548 196.395 125.589 196.673C125.635 196.951 125.701 197.19 125.788 197.391V197.5H124.468C124.405 197.354 124.354 197.16 124.318 196.919C124.282 196.673 124.263 196.445 124.263 196.235ZM124.482 193.016L124.496 193.904H123.217C122.857 193.904 122.536 193.934 122.254 193.993C121.971 194.048 121.734 194.132 121.543 194.246C121.351 194.36 121.205 194.504 121.105 194.677C121.005 194.845 120.955 195.044 120.955 195.271C120.955 195.504 121.007 195.716 121.112 195.907C121.217 196.099 121.374 196.251 121.584 196.365C121.798 196.475 122.06 196.529 122.37 196.529C122.757 196.529 123.099 196.447 123.395 196.283C123.691 196.119 123.926 195.919 124.099 195.682C124.277 195.445 124.373 195.215 124.386 194.991L124.926 195.6C124.894 195.791 124.808 196.003 124.667 196.235C124.525 196.468 124.336 196.691 124.099 196.905C123.867 197.115 123.589 197.29 123.265 197.432C122.946 197.568 122.586 197.637 122.185 197.637C121.684 197.637 121.244 197.539 120.866 197.343C120.492 197.147 120.2 196.885 119.991 196.557C119.786 196.224 119.683 195.853 119.683 195.442C119.683 195.046 119.761 194.697 119.916 194.396C120.071 194.091 120.294 193.838 120.586 193.638C120.877 193.433 121.228 193.278 121.638 193.173C122.048 193.068 122.506 193.016 123.012 193.016H124.482ZM129.486 196.734L131.544 190.104H132.897L129.93 198.642C129.862 198.824 129.771 199.02 129.657 199.229C129.547 199.444 129.406 199.646 129.233 199.838C129.06 200.029 128.85 200.184 128.604 200.303C128.363 200.426 128.073 200.487 127.736 200.487C127.636 200.487 127.508 200.474 127.353 200.446C127.198 200.419 127.089 200.396 127.025 200.378L127.018 199.353C127.055 199.357 127.112 199.362 127.189 199.366C127.271 199.375 127.328 199.38 127.36 199.38C127.647 199.38 127.891 199.341 128.091 199.264C128.292 199.191 128.461 199.065 128.597 198.888C128.739 198.715 128.859 198.475 128.96 198.17L129.486 196.734ZM127.975 190.104L129.896 195.846L130.224 197.179L129.315 197.644L126.594 190.104H127.975Z" fill="black"/>
<rect x="164.26" y="185.5" width="15" height="15" rx="7.5" fill="white"/>
<rect x="164.26" y="185.5" width="15" height="15" rx="7.5" stroke="#3BBCA0"/>
<path d="M195.417 191.826V192.899H190.03V191.826H195.417ZM190.235 187.547V197.5H188.916V187.547H190.235ZM196.565 187.547V197.5H195.253V187.547H196.565ZM203.08 196.235V192.428C203.08 192.136 203.02 191.883 202.902 191.669C202.788 191.45 202.615 191.282 202.382 191.163C202.15 191.045 201.863 190.985 201.521 190.985C201.202 190.985 200.922 191.04 200.68 191.149C200.443 191.259 200.256 191.402 200.12 191.58C199.988 191.758 199.922 191.949 199.922 192.154H198.657C198.657 191.89 198.725 191.628 198.862 191.368C198.999 191.108 199.195 190.874 199.45 190.664C199.71 190.45 200.019 190.281 200.38 190.158C200.744 190.031 201.15 189.967 201.596 189.967C202.134 189.967 202.608 190.058 203.018 190.24C203.433 190.423 203.756 190.698 203.989 191.067C204.226 191.432 204.344 191.89 204.344 192.441V195.887C204.344 196.133 204.365 196.395 204.406 196.673C204.451 196.951 204.518 197.19 204.604 197.391V197.5H203.285C203.221 197.354 203.171 197.16 203.134 196.919C203.098 196.673 203.08 196.445 203.08 196.235ZM203.298 193.016L203.312 193.904H202.034C201.674 193.904 201.352 193.934 201.07 193.993C200.787 194.048 200.55 194.132 200.359 194.246C200.168 194.36 200.022 194.504 199.922 194.677C199.821 194.845 199.771 195.044 199.771 195.271C199.771 195.504 199.824 195.716 199.928 195.907C200.033 196.099 200.19 196.251 200.4 196.365C200.614 196.475 200.876 196.529 201.186 196.529C201.574 196.529 201.915 196.447 202.212 196.283C202.508 196.119 202.742 195.919 202.916 195.682C203.093 195.445 203.189 195.215 203.203 194.991L203.743 195.6C203.711 195.791 203.624 196.003 203.483 196.235C203.342 196.468 203.153 196.691 202.916 196.905C202.683 197.115 202.405 197.29 202.082 197.432C201.763 197.568 201.403 197.637 201.002 197.637C200.5 197.637 200.061 197.539 199.682 197.343C199.309 197.147 199.017 196.885 198.807 196.557C198.602 196.224 198.5 195.853 198.5 195.442C198.5 195.046 198.577 194.697 198.732 194.396C198.887 194.091 199.11 193.838 199.402 193.638C199.694 193.433 200.045 193.278 200.455 193.173C200.865 193.068 201.323 193.016 201.829 193.016H203.298ZM207.708 187V197.5H206.436V187H207.708ZM211.625 197.5H210.36V189.324C210.36 188.791 210.456 188.342 210.647 187.978C210.843 187.608 211.123 187.33 211.488 187.144C211.852 186.952 212.285 186.856 212.787 186.856C212.933 186.856 213.078 186.866 213.224 186.884C213.375 186.902 213.52 186.929 213.662 186.966L213.593 187.998C213.498 187.975 213.388 187.959 213.265 187.95C213.147 187.941 213.028 187.937 212.91 187.937C212.641 187.937 212.408 187.991 212.213 188.101C212.021 188.205 211.875 188.36 211.775 188.565C211.675 188.771 211.625 189.023 211.625 189.324V197.5ZM213.197 190.104V191.074H209.191V190.104H213.197ZM217.237 192.749V193.788H213.901V192.749H217.237ZM221.359 197.5H219.281L219.295 196.427H221.359C222.07 196.427 222.662 196.279 223.136 195.982C223.61 195.682 223.966 195.262 224.203 194.725C224.444 194.182 224.565 193.549 224.565 192.824V192.216C224.565 191.646 224.497 191.14 224.36 190.698C224.223 190.252 224.023 189.876 223.758 189.57C223.494 189.26 223.171 189.026 222.788 188.866C222.409 188.707 221.974 188.627 221.482 188.627H219.24V187.547H221.482C222.134 187.547 222.728 187.656 223.266 187.875C223.804 188.089 224.267 188.401 224.654 188.812C225.046 189.217 225.347 189.709 225.556 190.288C225.766 190.862 225.871 191.509 225.871 192.229V192.824C225.871 193.544 225.766 194.194 225.556 194.772C225.347 195.347 225.044 195.837 224.647 196.242C224.255 196.648 223.781 196.96 223.225 197.179C222.674 197.393 222.052 197.5 221.359 197.5ZM219.985 187.547V197.5H218.666V187.547H219.985ZM232.023 196.235V192.428C232.023 192.136 231.964 191.883 231.845 191.669C231.731 191.45 231.558 191.282 231.326 191.163C231.093 191.045 230.806 190.985 230.464 190.985C230.145 190.985 229.865 191.04 229.624 191.149C229.387 191.259 229.2 191.402 229.063 191.58C228.931 191.758 228.865 191.949 228.865 192.154H227.6C227.6 191.89 227.669 191.628 227.805 191.368C227.942 191.108 228.138 190.874 228.393 190.664C228.653 190.45 228.963 190.281 229.323 190.158C229.687 190.031 230.093 189.967 230.54 189.967C231.077 189.967 231.551 190.058 231.962 190.24C232.376 190.423 232.7 190.698 232.932 191.067C233.169 191.432 233.288 191.89 233.288 192.441V195.887C233.288 196.133 233.308 196.395 233.349 196.673C233.395 196.951 233.461 197.19 233.547 197.391V197.5H232.228C232.164 197.354 232.114 197.16 232.078 196.919C232.041 196.673 232.023 196.445 232.023 196.235ZM232.242 193.016L232.255 193.904H230.977C230.617 193.904 230.296 193.934 230.013 193.993C229.731 194.048 229.494 194.132 229.302 194.246C229.111 194.36 228.965 194.504 228.865 194.677C228.765 194.845 228.714 195.044 228.714 195.271C228.714 195.504 228.767 195.716 228.872 195.907C228.977 196.099 229.134 196.251 229.343 196.365C229.558 196.475 229.82 196.529 230.13 196.529C230.517 196.529 230.859 196.447 231.155 196.283C231.451 196.119 231.686 195.919 231.859 195.682C232.037 195.445 232.132 195.215 232.146 194.991L232.686 195.6C232.654 195.791 232.568 196.003 232.426 196.235C232.285 196.468 232.096 196.691 231.859 196.905C231.627 197.115 231.349 197.29 231.025 197.432C230.706 197.568 230.346 197.637 229.945 197.637C229.444 197.637 229.004 197.539 228.626 197.343C228.252 197.147 227.96 196.885 227.751 196.557C227.546 196.224 227.443 195.853 227.443 195.442C227.443 195.046 227.52 194.697 227.675 194.396C227.83 194.091 228.054 193.838 228.345 193.638C228.637 193.433 228.988 193.278 229.398 193.173C229.808 193.068 230.266 193.016 230.772 193.016H232.242ZM237.246 196.734L239.303 190.104H240.657L237.69 198.642C237.622 198.824 237.531 199.02 237.417 199.229C237.307 199.444 237.166 199.646 236.993 199.838C236.82 200.029 236.61 200.184 236.364 200.303C236.122 200.426 235.833 200.487 235.496 200.487C235.395 200.487 235.268 200.474 235.113 200.446C234.958 200.419 234.849 200.396 234.785 200.378L234.778 199.353C234.814 199.357 234.871 199.362 234.949 199.366C235.031 199.375 235.088 199.38 235.12 199.38C235.407 199.38 235.651 199.341 235.851 199.264C236.052 199.191 236.22 199.065 236.357 198.888C236.498 198.715 236.619 198.475 236.719 198.17L237.246 196.734ZM235.735 190.104L237.656 195.846L237.984 197.179L237.075 197.644L234.354 190.104H235.735Z" fill="black"/>
<path d="M65.2804 44.3H67.7204L73.1204 58.5H70.2804L68.9604 54.96H64.0004L62.7004 58.5H59.8604L65.2804 44.3ZM68.4604 53.02L66.5004 47.44L64.4604 53.02H68.4604ZM80.6979 58.7C79.8712 58.7 79.1512 58.52 78.5379 58.16C77.9245 57.7867 77.4445 57.2867 77.0979 56.66V62.76H74.4179V48.02H76.7579V49.82C77.1445 49.2067 77.6445 48.7267 78.2579 48.38C78.8712 48.02 79.5779 47.84 80.3779 47.84C81.0845 47.84 81.7379 47.9867 82.3379 48.28C82.9379 48.56 83.4512 48.9467 83.8779 49.44C84.3179 49.92 84.6579 50.4933 84.8979 51.16C85.1512 51.8133 85.2779 52.5067 85.2779 53.24C85.2779 54 85.1645 54.7133 84.9379 55.38C84.7112 56.0467 84.3912 56.6267 83.9779 57.12C83.5779 57.6133 83.0979 58 82.5379 58.28C81.9779 58.56 81.3645 58.7 80.6979 58.7ZM79.7979 56.42C80.1979 56.42 80.5645 56.3333 80.8979 56.16C81.2445 55.9867 81.5379 55.7533 81.7779 55.46C82.0179 55.1667 82.2045 54.8267 82.3379 54.44C82.4712 54.0533 82.5379 53.6533 82.5379 53.24C82.5379 52.8 82.4645 52.3933 82.3179 52.02C82.1712 51.6333 81.9645 51.3 81.6979 51.02C81.4445 50.74 81.1379 50.52 80.7779 50.36C80.4312 50.2 80.0512 50.12 79.6379 50.12C79.3845 50.12 79.1245 50.1667 78.8579 50.26C78.5912 50.34 78.3445 50.46 78.1179 50.62C77.8912 50.78 77.6845 50.9667 77.4979 51.18C77.3245 51.3933 77.1912 51.6267 77.0979 51.88V54.34C77.3379 54.94 77.7045 55.44 78.1979 55.84C78.6912 56.2267 79.2245 56.42 79.7979 56.42ZM93.3737 58.7C92.547 58.7 91.827 58.52 91.2137 58.16C90.6003 57.7867 90.1203 57.2867 89.7737 56.66V62.76H87.0937V48.02H89.4337V49.82C89.8203 49.2067 90.3203 48.7267 90.9337 48.38C91.547 48.02 92.2537 47.84 93.0537 47.84C93.7603 47.84 94.4137 47.9867 95.0137 48.28C95.6137 48.56 96.127 48.9467 96.5537 49.44C96.9937 49.92 97.3337 50.4933 97.5737 51.16C97.827 51.8133 97.9537 52.5067 97.9537 53.24C97.9537 54 97.8403 54.7133 97.6137 55.38C97.387 56.0467 97.067 56.6267 96.6537 57.12C96.2537 57.6133 95.7737 58 95.2137 58.28C94.6537 58.56 94.0403 58.7 93.3737 58.7ZM92.4737 56.42C92.8737 56.42 93.2403 56.3333 93.5737 56.16C93.9203 55.9867 94.2137 55.7533 94.4537 55.46C94.6937 55.1667 94.8803 54.8267 95.0137 54.44C95.147 54.0533 95.2137 53.6533 95.2137 53.24C95.2137 52.8 95.1403 52.3933 94.9937 52.02C94.847 51.6333 94.6403 51.3 94.3737 51.02C94.1203 50.74 93.8137 50.52 93.4537 50.36C93.107 50.2 92.727 50.12 92.3137 50.12C92.0603 50.12 91.8003 50.1667 91.5337 50.26C91.267 50.34 91.0203 50.46 90.7937 50.62C90.567 50.78 90.3603 50.9667 90.1737 51.18C90.0003 51.3933 89.867 51.6267 89.7737 51.88V54.34C90.0137 54.94 90.3803 55.44 90.8737 55.84C91.367 56.2267 91.9003 56.42 92.4737 56.42ZM99.7494 43.9H102.429V55.14C102.429 55.5267 102.523 55.8267 102.709 56.04C102.896 56.2533 103.163 56.36 103.509 56.36C103.669 56.36 103.843 56.3333 104.029 56.28C104.229 56.2267 104.416 56.16 104.589 56.08L104.949 58.12C104.589 58.2933 104.169 58.4267 103.689 58.52C103.209 58.6133 102.776 58.66 102.389 58.66C101.549 58.66 100.896 58.44 100.429 58C99.9761 57.5467 99.7494 56.9067 99.7494 56.08V43.9ZM106.122 60.54C106.349 60.6067 106.569 60.6533 106.782 60.68C106.996 60.72 107.176 60.74 107.322 60.74C107.496 60.74 107.656 60.7067 107.802 60.64C107.949 60.5733 108.082 60.4533 108.202 60.28C108.322 60.12 108.442 59.8933 108.562 59.6C108.682 59.3067 108.809 58.94 108.942 58.5L104.802 48.02H107.562L110.402 56.18L112.922 48.02H115.442L111.042 60.58C110.789 61.3133 110.356 61.9133 109.742 62.38C109.129 62.8467 108.369 63.08 107.462 63.08C107.249 63.08 107.029 63.06 106.802 63.02C106.589 62.9933 106.362 62.94 106.122 62.86V60.54ZM121.796 58.5V50.62H120.416V48.58H121.796V47.94C121.796 46.6333 122.109 45.6 122.736 44.84C123.363 44.08 124.216 43.7 125.296 43.7C126.149 43.7 127.009 43.9067 127.876 44.32L127.336 46.34C127.136 46.2333 126.896 46.1467 126.616 46.08C126.349 46 126.103 45.96 125.876 45.96C124.943 45.96 124.476 46.5867 124.476 47.84V48.58H127.036V50.62H124.476V58.5H121.796ZM132.871 58.7C132.018 58.7 131.251 58.5533 130.571 58.26C129.891 57.9667 129.311 57.5733 128.831 57.08C128.364 56.5733 128.004 55.9933 127.751 55.34C127.498 54.6867 127.371 54 127.371 53.28C127.371 52.5467 127.498 51.8533 127.751 51.2C128.004 50.5467 128.364 49.9733 128.831 49.48C129.311 48.9733 129.891 48.5733 130.571 48.28C131.251 47.9867 132.018 47.84 132.871 47.84C133.724 47.84 134.484 47.9867 135.151 48.28C135.831 48.5733 136.404 48.9733 136.871 49.48C137.351 49.9733 137.718 50.5467 137.971 51.2C138.224 51.8533 138.351 52.5467 138.351 53.28C138.351 54 138.224 54.6867 137.971 55.34C137.718 55.9933 137.358 56.5733 136.891 57.08C136.424 57.5733 135.851 57.9667 135.171 58.26C134.491 58.5533 133.724 58.7 132.871 58.7ZM130.131 53.28C130.131 53.7467 130.198 54.1733 130.331 54.56C130.478 54.9333 130.671 55.26 130.911 55.54C131.164 55.82 131.458 56.04 131.791 56.2C132.124 56.3467 132.484 56.42 132.871 56.42C133.258 56.42 133.618 56.3467 133.951 56.2C134.284 56.04 134.571 55.82 134.811 55.54C135.064 55.26 135.258 54.9267 135.391 54.54C135.538 54.1533 135.611 53.7267 135.611 53.26C135.611 52.8067 135.538 52.3867 135.391 52C135.258 51.6133 135.064 51.28 134.811 51C134.571 50.72 134.284 50.5067 133.951 50.36C133.618 50.2 133.258 50.12 132.871 50.12C132.484 50.12 132.124 50.2 131.791 50.36C131.458 50.52 131.164 50.74 130.911 51.02C130.671 51.3 130.478 51.6333 130.331 52.02C130.198 52.4067 130.131 52.8267 130.131 53.28ZM146.4 50.34C145.587 50.3533 144.86 50.5133 144.22 50.82C143.58 51.1133 143.12 51.56 142.84 52.16V58.5H140.16V48.02H142.62V50.26C142.807 49.9 143.027 49.58 143.28 49.3C143.533 49.0067 143.807 48.7533 144.1 48.54C144.393 48.3267 144.687 48.1667 144.98 48.06C145.287 47.94 145.58 47.88 145.86 47.88C146.007 47.88 146.113 47.88 146.18 47.88C146.26 47.88 146.333 47.8867 146.4 47.9V50.34ZM152.191 43.9H154.871V55.14C154.871 55.5267 154.964 55.8267 155.151 56.04C155.338 56.2533 155.604 56.36 155.951 56.36C156.111 56.36 156.284 56.3333 156.471 56.28C156.671 56.2267 156.858 56.16 157.031 56.08L157.391 58.12C157.031 58.2933 156.611 58.4267 156.131 58.52C155.651 58.6133 155.218 58.66 154.831 58.66C153.991 58.66 153.338 58.44 152.871 58C152.418 57.5467 152.191 56.9067 152.191 56.08V43.9ZM163.419 58.7C162.579 58.7 161.819 58.56 161.139 58.28C160.459 57.9867 159.879 57.5933 159.399 57.1C158.919 56.6067 158.545 56.0333 158.279 55.38C158.025 54.7267 157.899 54.04 157.899 53.32C157.899 52.5733 158.025 51.8733 158.279 51.22C158.532 50.5533 158.899 49.9733 159.379 49.48C159.859 48.9733 160.439 48.5733 161.119 48.28C161.812 47.9867 162.585 47.84 163.439 47.84C164.292 47.84 165.052 47.9867 165.719 48.28C166.399 48.5733 166.972 48.9667 167.439 49.46C167.919 49.9533 168.279 50.5267 168.519 51.18C168.772 51.8333 168.899 52.5133 168.899 53.22C168.899 53.3933 168.892 53.56 168.879 53.72C168.879 53.88 168.865 54.0133 168.839 54.12H160.739C160.779 54.5333 160.879 54.9 161.039 55.22C161.199 55.54 161.405 55.8133 161.659 56.04C161.912 56.2667 162.199 56.44 162.519 56.56C162.839 56.68 163.172 56.74 163.519 56.74C164.052 56.74 164.552 56.6133 165.019 56.36C165.499 56.0933 165.825 55.7467 165.999 55.32L168.299 55.96C167.912 56.76 167.292 57.42 166.439 57.94C165.599 58.4467 164.592 58.7 163.419 58.7ZM166.139 52.38C166.072 51.5933 165.779 50.9667 165.259 50.5C164.752 50.02 164.132 49.78 163.399 49.78C163.039 49.78 162.699 49.8467 162.379 49.98C162.072 50.1 161.799 50.2733 161.559 50.5C161.319 50.7267 161.119 51 160.959 51.32C160.812 51.64 160.725 51.9933 160.699 52.38H166.139ZM173.391 58.7C172.884 58.7 172.411 58.62 171.971 58.46C171.531 58.2867 171.151 58.0533 170.831 57.76C170.511 57.4533 170.258 57.1 170.071 56.7C169.898 56.3 169.811 55.86 169.811 55.38C169.811 54.8867 169.918 54.4333 170.131 54.02C170.358 53.5933 170.664 53.2333 171.051 52.94C171.451 52.6467 171.924 52.42 172.471 52.26C173.018 52.0867 173.618 52 174.271 52C174.738 52 175.191 52.04 175.631 52.12C176.084 52.2 176.484 52.3133 176.831 52.46V51.86C176.831 51.1667 176.631 50.6333 176.231 50.26C175.844 49.8867 175.264 49.7 174.491 49.7C173.931 49.7 173.384 49.8 172.851 50C172.318 50.2 171.771 50.4933 171.211 50.88L170.391 49.18C171.738 48.2867 173.191 47.84 174.751 47.84C176.258 47.84 177.424 48.2133 178.251 48.96C179.091 49.6933 179.511 50.76 179.511 52.16V55.42C179.511 55.7 179.558 55.9 179.651 56.02C179.758 56.14 179.924 56.2067 180.151 56.22V58.5C179.698 58.5933 179.304 58.64 178.971 58.64C178.464 58.64 178.071 58.5267 177.791 58.3C177.524 58.0733 177.358 57.7733 177.291 57.4L177.231 56.82C176.764 57.4333 176.198 57.9 175.531 58.22C174.864 58.54 174.151 58.7 173.391 58.7ZM174.151 56.74C174.604 56.74 175.031 56.66 175.431 56.5C175.844 56.34 176.164 56.1267 176.391 55.86C176.684 55.6333 176.831 55.38 176.831 55.1V53.9C176.511 53.78 176.164 53.6867 175.791 53.62C175.418 53.54 175.058 53.5 174.711 53.5C174.018 53.5 173.451 53.66 173.011 53.98C172.571 54.2867 172.351 54.68 172.351 55.16C172.351 55.6133 172.524 55.9933 172.871 56.3C173.218 56.5933 173.644 56.74 174.151 56.74ZM184.562 58.5L180.702 48.02H183.462L186.122 56.32L188.802 48.02H191.322L187.462 58.5H184.562ZM197.227 58.7C196.387 58.7 195.627 58.56 194.947 58.28C194.267 57.9867 193.687 57.5933 193.207 57.1C192.727 56.6067 192.354 56.0333 192.087 55.38C191.834 54.7267 191.707 54.04 191.707 53.32C191.707 52.5733 191.834 51.8733 192.087 51.22C192.34 50.5533 192.707 49.9733 193.187 49.48C193.667 48.9733 194.247 48.5733 194.927 48.28C195.62 47.9867 196.394 47.84 197.247 47.84C198.1 47.84 198.86 47.9867 199.527 48.28C200.207 48.5733 200.78 48.9667 201.247 49.46C201.727 49.9533 202.087 50.5267 202.327 51.18C202.58 51.8333 202.707 52.5133 202.707 53.22C202.707 53.3933 202.7 53.56 202.687 53.72C202.687 53.88 202.674 54.0133 202.647 54.12H194.547C194.587 54.5333 194.687 54.9 194.847 55.22C195.007 55.54 195.214 55.8133 195.467 56.04C195.72 56.2667 196.007 56.44 196.327 56.56C196.647 56.68 196.98 56.74 197.327 56.74C197.86 56.74 198.36 56.6133 198.827 56.36C199.307 56.0933 199.634 55.7467 199.807 55.32L202.107 55.96C201.72 56.76 201.1 57.42 200.247 57.94C199.407 58.4467 198.4 58.7 197.227 58.7ZM199.947 52.38C199.88 51.5933 199.587 50.9667 199.067 50.5C198.56 50.02 197.94 49.78 197.207 49.78C196.847 49.78 196.507 49.8467 196.187 49.98C195.88 50.1 195.607 50.2733 195.367 50.5C195.127 50.7267 194.927 51 194.767 51.32C194.62 51.64 194.534 51.9933 194.507 52.38H199.947Z" fill="black"/>
<path d="M63.1237 173.5H61.2838L61.2955 172.234H63.1237C63.6198 172.234 64.0358 172.125 64.3717 171.906C64.7076 171.684 64.9615 171.365 65.1334 170.951C65.3053 170.533 65.3912 170.033 65.3912 169.451V169.012C65.3912 168.562 65.3424 168.166 65.2448 167.822C65.1471 167.479 65.0026 167.189 64.8112 166.955C64.6237 166.721 64.3912 166.543 64.1139 166.422C63.8365 166.301 63.5182 166.24 63.1588 166.24H61.2487V164.969H63.1588C63.7291 164.969 64.2487 165.064 64.7174 165.256C65.1901 165.447 65.5983 165.723 65.942 166.082C66.2897 166.438 66.5553 166.863 66.7389 167.359C66.9264 167.855 67.0201 168.41 67.0201 169.023V169.451C67.0201 170.061 66.9264 170.615 66.7389 171.115C66.5553 171.611 66.2897 172.037 65.942 172.393C65.5983 172.748 65.1881 173.021 64.7115 173.213C64.235 173.404 63.7057 173.5 63.1237 173.5ZM62.1862 164.969V173.5H60.5748V164.969H62.1862ZM72.0475 171.994V167.16H73.6061V173.5H72.1412L72.0475 171.994ZM72.2467 170.682L72.7272 170.67C72.7272 171.096 72.6803 171.488 72.5865 171.848C72.4928 172.207 72.3463 172.52 72.1471 172.785C71.9518 173.047 71.7037 173.252 71.403 173.4C71.1022 173.545 70.7467 173.617 70.3365 173.617C70.024 173.617 69.7389 173.574 69.4811 173.488C69.2233 173.398 69.0006 173.26 68.8131 173.072C68.6295 172.881 68.4869 172.637 68.3854 172.34C68.2838 172.039 68.233 171.678 68.233 171.256V167.16H69.7799V171.268C69.7799 171.479 69.8033 171.654 69.8502 171.795C69.901 171.936 69.9694 172.051 70.0553 172.141C70.1451 172.227 70.2487 172.289 70.3658 172.328C70.4869 172.363 70.6158 172.381 70.7526 172.381C71.1276 172.381 71.4225 172.307 71.6373 172.158C71.8561 172.006 72.0123 171.803 72.1061 171.549C72.1998 171.291 72.2467 171.002 72.2467 170.682ZM76.524 168.455V173.5H74.9772V167.16H76.442L76.524 168.455ZM78.4518 167.119L78.4283 168.561C78.3424 168.545 78.2448 168.533 78.1354 168.525C78.0299 168.518 77.9303 168.514 77.8365 168.514C77.5983 168.514 77.3893 168.547 77.2096 168.613C77.0299 168.676 76.8795 168.768 76.7584 168.889C76.6412 169.01 76.5514 169.158 76.4889 169.334C76.4264 169.506 76.3912 169.701 76.3834 169.92L76.0494 169.879C76.0494 169.477 76.0905 169.104 76.1725 168.76C76.2545 168.416 76.3737 168.115 76.5299 167.857C76.6862 167.6 76.8815 167.4 77.1158 167.26C77.3541 167.115 77.6276 167.043 77.9362 167.043C78.0221 167.043 78.1139 167.051 78.2115 167.066C78.3131 167.078 78.3932 167.096 78.4518 167.119ZM82.5944 172.152V169.229C82.5944 169.014 82.5573 168.828 82.483 168.672C82.4088 168.516 82.2955 168.395 82.1432 168.309C81.9908 168.223 81.7975 168.18 81.5631 168.18C81.3561 168.18 81.1744 168.215 81.0182 168.285C80.8658 168.355 80.7487 168.455 80.6666 168.584C80.5846 168.709 80.5436 168.854 80.5436 169.018H78.9908C78.9908 168.756 79.0533 168.508 79.1783 168.273C79.3033 168.035 79.4811 167.824 79.7115 167.641C79.9459 167.453 80.2252 167.307 80.5494 167.201C80.8776 167.096 81.2448 167.043 81.651 167.043C82.1315 167.043 82.5592 167.125 82.9342 167.289C83.3131 167.449 83.61 167.691 83.8248 168.016C84.0436 168.34 84.153 168.748 84.153 169.24V172.006C84.153 172.322 84.1725 172.594 84.2115 172.82C84.2545 173.043 84.317 173.236 84.399 173.4V173.5H82.8229C82.7487 173.34 82.692 173.137 82.653 172.891C82.6139 172.641 82.5944 172.395 82.5944 172.152ZM82.8112 169.639L82.8229 170.559H81.8444C81.6022 170.559 81.3893 170.584 81.2057 170.635C81.0221 170.682 80.8717 170.752 80.7545 170.846C80.6373 170.936 80.5494 171.045 80.4908 171.174C80.4323 171.299 80.403 171.441 80.403 171.602C80.403 171.758 80.4381 171.898 80.5084 172.023C80.5826 172.148 80.6881 172.248 80.8248 172.322C80.9655 172.393 81.1295 172.428 81.317 172.428C81.5905 172.428 81.8287 172.373 82.0319 172.264C82.235 172.15 82.3932 172.014 82.5065 171.854C82.6198 171.693 82.6803 171.541 82.6881 171.396L83.1334 172.064C83.0787 172.225 82.9967 172.395 82.8873 172.574C82.778 172.754 82.6373 172.922 82.4655 173.078C82.2936 173.234 82.0865 173.363 81.8444 173.465C81.6022 173.566 81.3209 173.617 81.0006 173.617C80.5905 173.617 80.2233 173.535 79.899 173.371C79.5748 173.207 79.319 172.982 79.1315 172.697C78.944 172.412 78.8502 172.088 78.8502 171.725C78.8502 171.389 78.9127 171.092 79.0377 170.834C79.1627 170.576 79.3483 170.359 79.5944 170.184C79.8405 170.004 80.1451 169.869 80.5084 169.779C80.8756 169.686 81.2955 169.639 81.7682 169.639H82.8112ZM88.5475 167.16V168.273H84.9147V167.16H88.5475ZM85.8873 165.602H87.4401V171.672C87.4401 171.859 87.4655 172.004 87.5162 172.105C87.567 172.207 87.6432 172.275 87.7448 172.311C87.8463 172.346 87.9674 172.363 88.108 172.363C88.2096 172.363 88.3033 172.357 88.3893 172.346C88.4752 172.334 88.5475 172.322 88.6061 172.311L88.6119 173.471C88.483 173.514 88.3365 173.549 88.1725 173.576C88.0123 173.604 87.8307 173.617 87.6276 173.617C87.2799 173.617 86.9752 173.559 86.7135 173.441C86.4518 173.32 86.2487 173.127 86.1041 172.861C85.9596 172.592 85.8873 172.236 85.8873 171.795V165.602ZM91.2194 167.16V173.5H89.6666V167.16H91.2194ZM89.5612 165.502C89.5612 165.271 89.6393 165.08 89.7955 164.928C89.9557 164.775 90.1705 164.699 90.4401 164.699C90.7096 164.699 90.9225 164.775 91.0787 164.928C91.2389 165.08 91.319 165.271 91.319 165.502C91.319 165.729 91.2389 165.918 91.0787 166.07C90.9225 166.223 90.7096 166.299 90.4401 166.299C90.1705 166.299 89.9557 166.223 89.7955 166.07C89.6393 165.918 89.5612 165.729 89.5612 165.502ZM92.4205 170.395V170.271C92.4205 169.807 92.4869 169.379 92.6198 168.988C92.7526 168.594 92.9459 168.252 93.1998 167.963C93.4537 167.674 93.7643 167.449 94.1315 167.289C94.4987 167.125 94.9166 167.043 95.3854 167.043C95.8619 167.043 96.2838 167.125 96.651 167.289C97.0221 167.449 97.3346 167.674 97.5885 167.963C97.8424 168.252 98.0358 168.594 98.1686 168.988C98.3014 169.379 98.3678 169.807 98.3678 170.271V170.395C98.3678 170.855 98.3014 171.283 98.1686 171.678C98.0358 172.068 97.8424 172.41 97.5885 172.703C97.3346 172.992 97.024 173.217 96.6569 173.377C96.2897 173.537 95.8698 173.617 95.3971 173.617C94.9283 173.617 94.5084 173.537 94.1373 173.377C93.7662 173.217 93.4537 172.992 93.1998 172.703C92.9459 172.41 92.7526 172.068 92.6198 171.678C92.4869 171.283 92.4205 170.855 92.4205 170.395ZM93.9674 170.271V170.395C93.9674 170.672 93.9948 170.932 94.0494 171.174C94.1041 171.416 94.1881 171.629 94.3014 171.812C94.4147 171.996 94.5612 172.141 94.7408 172.246C94.9244 172.348 95.1432 172.398 95.3971 172.398C95.6471 172.398 95.8619 172.348 96.0416 172.246C96.2213 172.141 96.3678 171.996 96.4811 171.812C96.5983 171.629 96.6842 171.416 96.7389 171.174C96.7936 170.932 96.8209 170.672 96.8209 170.395V170.271C96.8209 169.998 96.7936 169.742 96.7389 169.504C96.6842 169.262 96.5983 169.049 96.4811 168.865C96.3678 168.678 96.2194 168.531 96.0358 168.426C95.8561 168.316 95.6393 168.262 95.3854 168.262C95.1354 168.262 94.9205 168.316 94.7408 168.426C94.5612 168.531 94.4147 168.678 94.3014 168.865C94.1881 169.049 94.1041 169.262 94.0494 169.504C93.9948 169.742 93.9674 169.998 93.9674 170.271ZM101.01 168.514V173.5H99.4635V167.16H100.917L101.01 168.514ZM100.764 170.102H100.307C100.311 169.641 100.374 169.223 100.495 168.848C100.616 168.473 100.786 168.15 101.005 167.881C101.227 167.611 101.491 167.404 101.796 167.26C102.1 167.115 102.44 167.043 102.815 167.043C103.12 167.043 103.395 167.086 103.641 167.172C103.887 167.258 104.098 167.395 104.274 167.582C104.454 167.77 104.59 168.016 104.684 168.32C104.782 168.621 104.831 168.992 104.831 169.434V173.5H103.272V169.422C103.272 169.133 103.229 168.904 103.143 168.736C103.061 168.568 102.94 168.449 102.78 168.379C102.624 168.309 102.43 168.273 102.2 168.273C101.962 168.273 101.753 168.322 101.573 168.42C101.397 168.514 101.249 168.645 101.128 168.812C101.01 168.98 100.921 169.174 100.858 169.393C100.796 169.611 100.764 169.848 100.764 170.102Z" fill="black"/>
<defs>
<filter id="filter0_d_845_4011" x="0.409058" y="0.37793" width="457.295" height="444" filterUnits="userSpaceOnUse" color-interpolation-filters="sRGB">
<feFlood flood-opacity="0" result="BackgroundImageFix"/>
<feColorMatrix in="SourceAlpha" type="matrix" values="0 0 0 0 0 0 0 0 0 0 0 0 0 0 0 0 0 0 127 0" result="hardAlpha"/>
<feOffset dy="4"/>
<feGaussianBlur stdDeviation="12"/>
<feComposite in2="hardAlpha" operator="out"/>
<feColorMatrix type="matrix" values="0 0 0 0 0 0 0 0 0 0 0 0 0 0 0 0 0 0 0.05 0"/>
<feBlend mode="normal" in2="BackgroundImageFix" result="effect1_dropShadow_845_4011"/>
<feBlend mode="normal" in="SourceGraphic" in2="effect1_dropShadow_845_4011" result="shape"/>
</filter>
<filter id="filter1_d_845_4011" x="209.556" y="348.378" width="111" height="74" filterUnits="userSpaceOnUse" color-interpolation-filters="sRGB">
<feFlood flood-opacity="0" result="BackgroundImageFix"/>
<feColorMatrix in="SourceAlpha" type="matrix" values="0 0 0 0 0 0 0 0 0 0 0 0 0 0 0 0 0 0 127 0" result="hardAlpha"/>
<feOffset dy="4"/>
<feGaussianBlur stdDeviation="12"/>
<feComposite in2="hardAlpha" operator="out"/>
<feColorMatrix type="matrix" values="0 0 0 0 0 0 0 0 0 0 0 0 0 0 0 0 0 0 0.05 0"/>
<feBlend mode="normal" in2="BackgroundImageFix" result="effect1_dropShadow_845_4011"/>
<feBlend mode="normal" in="SourceGraphic" in2="effect1_dropShadow_845_4011" result="shape"/>
</filter>
<filter id="filter2_d_845_4011" x="137.557" y="348.378" width="111" height="74" filterUnits="userSpaceOnUse" color-interpolation-filters="sRGB">
<feFlood flood-opacity="0" result="BackgroundImageFix"/>
<feColorMatrix in="SourceAlpha" type="matrix" values="0 0 0 0 0 0 0 0 0 0 0 0 0 0 0 0 0 0 127 0" result="hardAlpha"/>
<feOffset dy="4"/>
<feGaussianBlur stdDeviation="12"/>
<feComposite in2="hardAlpha" operator="out"/>
<feColorMatrix type="matrix" values="0 0 0 0 0 0 0 0 0 0 0 0 0 0 0 0 0 0 0.05 0"/>
<feBlend mode="normal" in2="BackgroundImageFix" result="effect1_dropShadow_845_4011"/>
<feBlend mode="normal" in="SourceGraphic" in2="effect1_dropShadow_845_4011" result="shape"/>
</filter>
</defs>
</svg>
