<svg width="884" height="227" viewBox="0 0 884 227" fill="none" xmlns="http://www.w3.org/2000/svg">
<g filter="url(#filter0_d_2885_5661)">
<rect x="24.3438" y="20.5" width="835.436" height="178.261" rx="10" fill="white"/>
</g>
<path d="M62.6657 165.528L829.877 165.528" stroke="#EDEDED" stroke-width="7" stroke-linecap="round" stroke-linejoin="round"/>
<path d="M341.164 165.528L558.568 165.528" stroke="#F1C025" stroke-width="7" stroke-linecap="round" stroke-linejoin="round"/>
<path d="M62.6657 165.528L436.11 165.528" stroke="#3BBCA0" stroke-width="7" stroke-linecap="round" stroke-linejoin="round"/>
<circle cx="83.6765" cy="87.5" r="25" fill="#E4F7F3"/>
<path d="M84.3365 85.1901C84.3365 84.6433 84.7797 84.2001 85.3265 84.2001H89.9464C90.4931 84.2001 90.9364 84.6433 90.9364 85.1901C90.9364 85.7368 90.4931 86.1801 89.9464 86.1801H85.3265C84.7797 86.1801 84.3365 85.7368 84.3365 85.1901ZM85.3265 91.46C84.7798 91.46 84.3366 91.9032 84.3366 92.4499C84.3366 92.9967 84.7798 93.4399 85.3265 93.4399H89.9463C90.493 93.4399 90.9363 92.9967 90.9363 92.4499C90.9363 91.9032 90.493 91.46 89.9463 91.46H85.3265ZM82.0666 84.5701C82.4532 84.1835 82.4532 83.5567 82.0666 83.1701C81.6799 82.7835 81.0531 82.7835 80.6665 83.1701L78.7266 85.11L78.1066 84.4901C77.72 84.1034 77.0932 84.1034 76.7066 84.4901C76.32 84.8767 76.32 85.5035 76.7066 85.8901L78.0266 87.2101C78.4132 87.5967 79.04 87.5967 79.4266 87.2101L82.0666 84.5701ZM82.0666 90.4299C82.4532 90.8166 82.4532 91.4434 82.0666 91.83L79.4266 94.4699C79.04 94.8565 78.4132 94.8565 78.0266 94.4699L76.7066 93.15C76.32 92.7633 76.32 92.1365 76.7066 91.7499C77.0932 91.3633 77.72 91.3633 78.1066 91.7499L78.7266 92.3699L80.6665 90.4299C81.0531 90.0433 81.6799 90.0433 82.0666 90.4299ZM88.9485 77.0518C88.8366 75.5135 87.5532 74.3003 85.9864 74.3003H81.3665C79.8381 74.3003 78.5793 75.4549 78.4148 76.9395L76.0866 76.9402C74.4464 76.9402 73.1167 78.2699 73.1167 79.9102V97.7298C73.1167 99.3701 74.4464 100.7 76.0866 100.7H91.2663C92.9066 100.7 94.2363 99.3701 94.2363 97.7298V79.9102C94.2363 78.2699 92.9066 76.9402 91.2663 76.9402L88.9382 76.9395C88.9423 76.9767 88.9457 77.0142 88.9485 77.0518ZM88.9495 77.0669L88.9564 77.2702C88.9564 77.2019 88.9541 77.1341 88.9495 77.0669ZM81.3665 80.2402H85.9864C87.0161 80.2402 87.9233 79.7162 88.4561 78.9204L91.2663 78.9202C91.8131 78.9202 92.2563 79.3634 92.2563 79.9102V97.7298C92.2563 98.2766 91.8131 98.7198 91.2663 98.7198H76.0866C75.5399 98.7198 75.0967 98.2766 75.0967 97.7298V79.9102C75.0967 79.3634 75.5399 78.9202 76.0866 78.9202L78.8969 78.9205C79.4297 79.7163 80.3369 80.2402 81.3665 80.2402ZM81.3665 76.2803H85.9864C86.5332 76.2803 86.9764 76.7235 86.9764 77.2702C86.9764 77.817 86.5332 78.2602 85.9864 78.2602H81.3665C80.8198 78.2602 80.3766 77.817 80.3766 77.2702C80.3766 76.7235 80.8198 76.2803 81.3665 76.2803Z" fill="#3BBCA0"/>
<path d="M130.42 70.2023L133.92 77.0423L137.48 70.2023H140.46L135.3 79.4423V84.4023H132.56V79.4023L127.42 70.2023H130.42ZM144.747 84.6023C143.894 84.6023 143.127 84.4557 142.447 84.1623C141.767 83.869 141.187 83.4757 140.707 82.9823C140.241 82.4757 139.881 81.8957 139.627 81.2423C139.374 80.589 139.247 79.9023 139.247 79.1823C139.247 78.449 139.374 77.7557 139.627 77.1023C139.881 76.449 140.241 75.8757 140.707 75.3823C141.187 74.8757 141.767 74.4757 142.447 74.1823C143.127 73.889 143.894 73.7423 144.747 73.7423C145.601 73.7423 146.361 73.889 147.027 74.1823C147.707 74.4757 148.281 74.8757 148.747 75.3823C149.227 75.8757 149.594 76.449 149.847 77.1023C150.101 77.7557 150.227 78.449 150.227 79.1823C150.227 79.9023 150.101 80.589 149.847 81.2423C149.594 81.8957 149.234 82.4757 148.767 82.9823C148.301 83.4757 147.727 83.869 147.047 84.1623C146.367 84.4557 145.601 84.6023 144.747 84.6023ZM142.007 79.1823C142.007 79.649 142.074 80.0757 142.207 80.4623C142.354 80.8357 142.547 81.1623 142.787 81.4423C143.041 81.7223 143.334 81.9423 143.667 82.1023C144.001 82.249 144.361 82.3223 144.747 82.3223C145.134 82.3223 145.494 82.249 145.827 82.1023C146.161 81.9423 146.447 81.7223 146.687 81.4423C146.941 81.1623 147.134 80.829 147.267 80.4423C147.414 80.0557 147.487 79.629 147.487 79.1623C147.487 78.709 147.414 78.289 147.267 77.9023C147.134 77.5157 146.941 77.1823 146.687 76.9023C146.447 76.6223 146.161 76.409 145.827 76.2623C145.494 76.1023 145.134 76.0223 144.747 76.0223C144.361 76.0223 144.001 76.1023 143.667 76.2623C143.334 76.4223 143.041 76.6423 142.787 76.9223C142.547 77.2023 142.354 77.5357 142.207 77.9223C142.074 78.309 142.007 78.729 142.007 79.1823ZM155.236 84.6023C154.156 84.6023 153.336 84.2557 152.776 83.5623C152.216 82.869 151.936 81.8423 151.936 80.4823V73.9223H154.616V79.9023C154.616 81.5157 155.196 82.3223 156.356 82.3223C156.876 82.3223 157.376 82.169 157.856 81.8623C158.349 81.5423 158.749 81.0623 159.056 80.4223V73.9223H161.736V81.3223C161.736 81.6023 161.783 81.8023 161.876 81.9223C161.983 82.0423 162.149 82.109 162.376 82.1223V84.4023C162.109 84.4557 161.883 84.489 161.696 84.5023C161.523 84.5157 161.363 84.5223 161.216 84.5223C160.736 84.5223 160.343 84.4157 160.036 84.2023C159.743 83.9757 159.569 83.669 159.516 83.2823L159.456 82.4423C158.989 83.1623 158.389 83.7023 157.656 84.0623C156.923 84.4223 156.116 84.6023 155.236 84.6023ZM172.064 84.6023C171.557 84.6023 171.084 84.5223 170.644 84.3623C170.204 84.189 169.824 83.9557 169.504 83.6623C169.184 83.3557 168.931 83.0023 168.744 82.6023C168.571 82.2023 168.484 81.7623 168.484 81.2823C168.484 80.789 168.591 80.3357 168.804 79.9223C169.031 79.4957 169.337 79.1357 169.724 78.8423C170.124 78.549 170.597 78.3223 171.144 78.1623C171.691 77.989 172.291 77.9023 172.944 77.9023C173.411 77.9023 173.864 77.9423 174.304 78.0223C174.757 78.1023 175.157 78.2157 175.504 78.3623V77.7623C175.504 77.069 175.304 76.5357 174.904 76.1623C174.517 75.789 173.937 75.6023 173.164 75.6023C172.604 75.6023 172.057 75.7023 171.524 75.9023C170.991 76.1023 170.444 76.3957 169.884 76.7823L169.064 75.0823C170.411 74.189 171.864 73.7423 173.424 73.7423C174.931 73.7423 176.097 74.1157 176.924 74.8623C177.764 75.5957 178.184 76.6623 178.184 78.0623V81.3223C178.184 81.6023 178.231 81.8023 178.324 81.9223C178.431 82.0423 178.597 82.109 178.824 82.1223V84.4023C178.371 84.4957 177.977 84.5423 177.644 84.5423C177.137 84.5423 176.744 84.429 176.464 84.2023C176.197 83.9757 176.031 83.6757 175.964 83.3023L175.904 82.7223C175.437 83.3357 174.871 83.8023 174.204 84.1223C173.537 84.4423 172.824 84.6023 172.064 84.6023ZM172.824 82.6423C173.277 82.6423 173.704 82.5623 174.104 82.4023C174.517 82.2423 174.837 82.029 175.064 81.7623C175.357 81.5357 175.504 81.2823 175.504 81.0023V79.8023C175.184 79.6823 174.837 79.589 174.464 79.5223C174.091 79.4423 173.731 79.4023 173.384 79.4023C172.691 79.4023 172.124 79.5623 171.684 79.8823C171.244 80.189 171.024 80.5823 171.024 81.0623C171.024 81.5157 171.197 81.8957 171.544 82.2023C171.891 82.4957 172.317 82.6423 172.824 82.6423ZM186.929 76.2423C186.115 76.2557 185.389 76.4157 184.749 76.7223C184.109 77.0157 183.649 77.4623 183.369 78.0623V84.4023H180.689V73.9223H183.149V76.1623C183.335 75.8023 183.555 75.4823 183.809 75.2023C184.062 74.909 184.335 74.6557 184.629 74.4423C184.922 74.229 185.215 74.069 185.509 73.9623C185.815 73.8423 186.109 73.7823 186.389 73.7823C186.535 73.7823 186.642 73.7823 186.709 73.7823C186.789 73.7823 186.862 73.789 186.929 73.8023V76.2423ZM192.756 84.6023C191.916 84.6023 191.156 84.4623 190.476 84.1823C189.796 83.889 189.216 83.4957 188.736 83.0023C188.256 82.509 187.882 81.9357 187.616 81.2823C187.362 80.629 187.236 79.9423 187.236 79.2223C187.236 78.4757 187.362 77.7757 187.616 77.1223C187.869 76.4557 188.236 75.8757 188.716 75.3823C189.196 74.8757 189.776 74.4757 190.456 74.1823C191.149 73.889 191.922 73.7423 192.776 73.7423C193.629 73.7423 194.389 73.889 195.056 74.1823C195.736 74.4757 196.309 74.869 196.776 75.3623C197.256 75.8557 197.616 76.429 197.856 77.0823C198.109 77.7357 198.236 78.4157 198.236 79.1223C198.236 79.2957 198.229 79.4623 198.216 79.6223C198.216 79.7823 198.202 79.9157 198.176 80.0223H190.076C190.116 80.4357 190.216 80.8023 190.376 81.1223C190.536 81.4423 190.742 81.7157 190.996 81.9423C191.249 82.169 191.536 82.3423 191.856 82.4623C192.176 82.5823 192.509 82.6423 192.856 82.6423C193.389 82.6423 193.889 82.5157 194.356 82.2623C194.836 81.9957 195.162 81.649 195.336 81.2223L197.636 81.8623C197.249 82.6623 196.629 83.3223 195.776 83.8423C194.936 84.349 193.929 84.6023 192.756 84.6023ZM195.476 78.2823C195.409 77.4957 195.116 76.869 194.596 76.4023C194.089 75.9223 193.469 75.6823 192.736 75.6823C192.376 75.6823 192.036 75.749 191.716 75.8823C191.409 76.0023 191.136 76.1757 190.896 76.4023C190.656 76.629 190.456 76.9023 190.296 77.2223C190.149 77.5423 190.062 77.8957 190.036 78.2823H195.476ZM209.513 84.6023C208.66 84.6023 207.893 84.4557 207.213 84.1623C206.533 83.869 205.953 83.4757 205.473 82.9823C205.006 82.4757 204.646 81.8957 204.393 81.2423C204.14 80.589 204.013 79.9023 204.013 79.1823C204.013 78.449 204.14 77.7557 204.393 77.1023C204.646 76.449 205.006 75.8757 205.473 75.3823C205.953 74.8757 206.533 74.4757 207.213 74.1823C207.893 73.889 208.66 73.7423 209.513 73.7423C210.366 73.7423 211.126 73.889 211.793 74.1823C212.473 74.4757 213.046 74.8757 213.513 75.3823C213.993 75.8757 214.36 76.449 214.613 77.1023C214.866 77.7557 214.993 78.449 214.993 79.1823C214.993 79.9023 214.866 80.589 214.613 81.2423C214.36 81.8957 214 82.4757 213.533 82.9823C213.066 83.4757 212.493 83.869 211.813 84.1623C211.133 84.4557 210.366 84.6023 209.513 84.6023ZM206.773 79.1823C206.773 79.649 206.84 80.0757 206.973 80.4623C207.12 80.8357 207.313 81.1623 207.553 81.4423C207.806 81.7223 208.1 81.9423 208.433 82.1023C208.766 82.249 209.126 82.3223 209.513 82.3223C209.9 82.3223 210.26 82.249 210.593 82.1023C210.926 81.9423 211.213 81.7223 211.453 81.4423C211.706 81.1623 211.9 80.829 212.033 80.4423C212.18 80.0557 212.253 79.629 212.253 79.1623C212.253 78.709 212.18 78.289 212.033 77.9023C211.9 77.5157 211.706 77.1823 211.453 76.9023C211.213 76.6223 210.926 76.409 210.593 76.2623C210.26 76.1023 209.9 76.0223 209.513 76.0223C209.126 76.0223 208.766 76.1023 208.433 76.2623C208.1 76.4223 207.806 76.6423 207.553 76.9223C207.313 77.2023 207.12 77.5357 206.973 77.9223C206.84 78.309 206.773 78.729 206.773 79.1823ZM226.542 84.4023H223.862V78.5223C223.862 77.6823 223.715 77.069 223.422 76.6823C223.128 76.2957 222.722 76.1023 222.202 76.1023C221.935 76.1023 221.662 76.1557 221.382 76.2623C221.102 76.369 220.835 76.5223 220.582 76.7223C220.342 76.909 220.122 77.1357 219.922 77.4023C219.722 77.669 219.575 77.9623 219.482 78.2823V84.4023H216.802V73.9223H219.222V75.8623C219.608 75.1957 220.168 74.6757 220.902 74.3023C221.635 73.929 222.462 73.7423 223.382 73.7423C224.035 73.7423 224.568 73.8623 224.982 74.1023C225.395 74.3423 225.715 74.6557 225.942 75.0423C226.168 75.429 226.322 75.869 226.402 76.3623C226.495 76.8557 226.542 77.3557 226.542 77.8623V84.4023ZM236.537 84.6023C236.03 84.6023 235.557 84.5223 235.117 84.3623C234.677 84.189 234.297 83.9557 233.977 83.6623C233.657 83.3557 233.403 83.0023 233.217 82.6023C233.043 82.2023 232.957 81.7623 232.957 81.2823C232.957 80.789 233.063 80.3357 233.277 79.9223C233.503 79.4957 233.81 79.1357 234.197 78.8423C234.597 78.549 235.07 78.3223 235.617 78.1623C236.163 77.989 236.763 77.9023 237.417 77.9023C237.883 77.9023 238.337 77.9423 238.777 78.0223C239.23 78.1023 239.63 78.2157 239.977 78.3623V77.7623C239.977 77.069 239.777 76.5357 239.377 76.1623C238.99 75.789 238.41 75.6023 237.637 75.6023C237.077 75.6023 236.53 75.7023 235.997 75.9023C235.463 76.1023 234.917 76.3957 234.357 76.7823L233.537 75.0823C234.883 74.189 236.337 73.7423 237.897 73.7423C239.403 73.7423 240.57 74.1157 241.397 74.8623C242.237 75.5957 242.657 76.6623 242.657 78.0623V81.3223C242.657 81.6023 242.703 81.8023 242.797 81.9223C242.903 82.0423 243.07 82.109 243.297 82.1223V84.4023C242.843 84.4957 242.45 84.5423 242.117 84.5423C241.61 84.5423 241.217 84.429 240.937 84.2023C240.67 83.9757 240.503 83.6757 240.437 83.3023L240.377 82.7223C239.91 83.3357 239.343 83.8023 238.677 84.1223C238.01 84.4423 237.297 84.6023 236.537 84.6023ZM237.297 82.6423C237.75 82.6423 238.177 82.5623 238.577 82.4023C238.99 82.2423 239.31 82.029 239.537 81.7623C239.83 81.5357 239.977 81.2823 239.977 81.0023V79.8023C239.657 79.6823 239.31 79.589 238.937 79.5223C238.563 79.4423 238.203 79.4023 237.857 79.4023C237.163 79.4023 236.597 79.5623 236.157 79.8823C235.717 80.189 235.497 80.5823 235.497 81.0623C235.497 81.5157 235.67 81.8957 236.017 82.2023C236.363 82.4957 236.79 82.6423 237.297 82.6423ZM255.926 84.6023C255.126 84.6023 254.413 84.4223 253.786 84.0623C253.159 83.7023 252.666 83.209 252.306 82.5823V84.4023H249.966V69.8023H252.646V75.7623C253.019 75.1223 253.506 74.629 254.106 74.2823C254.719 73.9223 255.433 73.7423 256.246 73.7423C256.926 73.7423 257.546 73.889 258.106 74.1823C258.666 74.4757 259.146 74.869 259.546 75.3623C259.959 75.8557 260.273 76.4357 260.486 77.1023C260.713 77.769 260.826 78.469 260.826 79.2023C260.826 79.9623 260.699 80.669 260.446 81.3223C260.206 81.9757 259.866 82.549 259.426 83.0423C258.986 83.5223 258.466 83.9023 257.866 84.1823C257.266 84.4623 256.619 84.6023 255.926 84.6023ZM255.186 82.3223C255.613 82.3223 256.006 82.2423 256.366 82.0823C256.726 81.909 257.033 81.6823 257.286 81.4023C257.539 81.1223 257.733 80.7957 257.866 80.4223C258.013 80.049 258.086 79.649 258.086 79.2223C258.086 78.7957 258.019 78.389 257.886 78.0023C257.753 77.6157 257.559 77.2757 257.306 76.9823C257.066 76.689 256.779 76.4557 256.446 76.2823C256.113 76.109 255.746 76.0223 255.346 76.0223C254.746 76.0223 254.206 76.2223 253.726 76.6223C253.259 77.009 252.899 77.489 252.646 78.0623V80.5623C252.739 80.829 252.873 81.069 253.046 81.2823C253.233 81.4957 253.439 81.6823 253.666 81.8423C253.893 81.989 254.139 82.109 254.406 82.2023C254.673 82.2823 254.933 82.3223 255.186 82.3223ZM268.882 76.2423C268.068 76.2557 267.342 76.4157 266.702 76.7223C266.062 77.0157 265.602 77.4623 265.322 78.0623V84.4023H262.642V73.9223H265.102V76.1623C265.288 75.8023 265.508 75.4823 265.762 75.2023C266.015 74.909 266.288 74.6557 266.582 74.4423C266.875 74.229 267.168 74.069 267.462 73.9623C267.768 73.8423 268.062 73.7823 268.342 73.7823C268.488 73.7823 268.595 73.7823 268.662 73.7823C268.742 73.7823 268.815 73.789 268.882 73.8023V76.2423ZM274.709 84.6023C273.869 84.6023 273.109 84.4623 272.429 84.1823C271.749 83.889 271.169 83.4957 270.689 83.0023C270.209 82.509 269.835 81.9357 269.569 81.2823C269.315 80.629 269.189 79.9423 269.189 79.2223C269.189 78.4757 269.315 77.7757 269.569 77.1223C269.822 76.4557 270.189 75.8757 270.669 75.3823C271.149 74.8757 271.729 74.4757 272.409 74.1823C273.102 73.889 273.875 73.7423 274.729 73.7423C275.582 73.7423 276.342 73.889 277.009 74.1823C277.689 74.4757 278.262 74.869 278.729 75.3623C279.209 75.8557 279.569 76.429 279.809 77.0823C280.062 77.7357 280.189 78.4157 280.189 79.1223C280.189 79.2957 280.182 79.4623 280.169 79.6223C280.169 79.7823 280.155 79.9157 280.129 80.0223H272.029C272.069 80.4357 272.169 80.8023 272.329 81.1223C272.489 81.4423 272.695 81.7157 272.949 81.9423C273.202 82.169 273.489 82.3423 273.809 82.4623C274.129 82.5823 274.462 82.6423 274.809 82.6423C275.342 82.6423 275.842 82.5157 276.309 82.2623C276.789 81.9957 277.115 81.649 277.289 81.2223L279.589 81.8623C279.202 82.6623 278.582 83.3223 277.729 83.8423C276.889 84.349 275.882 84.6023 274.709 84.6023ZM277.429 78.2823C277.362 77.4957 277.069 76.869 276.549 76.4023C276.042 75.9223 275.422 75.6823 274.689 75.6823C274.329 75.6823 273.989 75.749 273.669 75.8823C273.362 76.0023 273.089 76.1757 272.849 76.4023C272.609 76.629 272.409 76.9023 272.249 77.2223C272.102 77.5423 272.015 77.8957 271.989 78.2823H277.429ZM284.681 84.6023C284.175 84.6023 283.701 84.5223 283.261 84.3623C282.821 84.189 282.441 83.9557 282.121 83.6623C281.801 83.3557 281.548 83.0023 281.361 82.6023C281.188 82.2023 281.101 81.7623 281.101 81.2823C281.101 80.789 281.208 80.3357 281.421 79.9223C281.648 79.4957 281.955 79.1357 282.341 78.8423C282.741 78.549 283.215 78.3223 283.761 78.1623C284.308 77.989 284.908 77.9023 285.561 77.9023C286.028 77.9023 286.481 77.9423 286.921 78.0223C287.375 78.1023 287.775 78.2157 288.121 78.3623V77.7623C288.121 77.069 287.921 76.5357 287.521 76.1623C287.135 75.789 286.555 75.6023 285.781 75.6023C285.221 75.6023 284.675 75.7023 284.141 75.9023C283.608 76.1023 283.061 76.3957 282.501 76.7823L281.681 75.0823C283.028 74.189 284.481 73.7423 286.041 73.7423C287.548 73.7423 288.715 74.1157 289.541 74.8623C290.381 75.5957 290.801 76.6623 290.801 78.0623V81.3223C290.801 81.6023 290.848 81.8023 290.941 81.9223C291.048 82.0423 291.215 82.109 291.441 82.1223V84.4023C290.988 84.4957 290.595 84.5423 290.261 84.5423C289.755 84.5423 289.361 84.429 289.081 84.2023C288.815 83.9757 288.648 83.6757 288.581 83.3023L288.521 82.7223C288.055 83.3357 287.488 83.8023 286.821 84.1223C286.155 84.4423 285.441 84.6023 284.681 84.6023ZM285.441 82.6423C285.895 82.6423 286.321 82.5623 286.721 82.4023C287.135 82.2423 287.455 82.029 287.681 81.7623C287.975 81.5357 288.121 81.2823 288.121 81.0023V79.8023C287.801 79.6823 287.455 79.589 287.081 79.5223C286.708 79.4423 286.348 79.4023 286.001 79.4023C285.308 79.4023 284.741 79.5623 284.301 79.8823C283.861 80.189 283.641 80.5823 283.641 81.0623C283.641 81.5157 283.815 81.8957 284.161 82.2023C284.508 82.4957 284.935 82.6423 285.441 82.6423ZM300.466 84.4023L297.426 79.8623L295.986 81.2823V84.4023H293.306V69.8023H295.986V78.6623L300.186 73.9423H303.046L299.146 78.3823L303.326 84.4023H300.466Z" fill="black"/>
<path d="M62.1309 150.226H62.2422C62.8672 150.226 63.375 150.138 63.7656 149.962C64.1562 149.786 64.457 149.55 64.668 149.253C64.8789 148.956 65.0234 148.622 65.1016 148.251C65.1797 147.876 65.2188 147.491 65.2188 147.097V145.79C65.2188 145.403 65.1738 145.06 65.084 144.759C64.998 144.458 64.877 144.206 64.7207 144.003C64.5684 143.8 64.3945 143.646 64.1992 143.54C64.0039 143.435 63.7969 143.382 63.5781 143.382C63.3281 143.382 63.1035 143.433 62.9043 143.534C62.709 143.632 62.543 143.771 62.4062 143.95C62.2734 144.13 62.1719 144.341 62.1016 144.583C62.0312 144.825 61.9961 145.089 61.9961 145.374C61.9961 145.628 62.0273 145.874 62.0898 146.112C62.1523 146.351 62.248 146.565 62.377 146.757C62.5059 146.948 62.666 147.101 62.8574 147.214C63.0527 147.323 63.2812 147.378 63.543 147.378C63.7852 147.378 64.0117 147.331 64.2227 147.237C64.4375 147.14 64.627 147.009 64.791 146.845C64.959 146.677 65.0918 146.487 65.1895 146.276C65.291 146.065 65.3496 145.845 65.3652 145.614H65.8809C65.8809 145.938 65.8164 146.259 65.6875 146.575C65.5625 146.888 65.3867 147.173 65.1602 147.431C64.9336 147.688 64.668 147.896 64.3633 148.052C64.0586 148.204 63.7266 148.28 63.3672 148.28C62.9453 148.28 62.5801 148.198 62.2715 148.034C61.9629 147.87 61.709 147.651 61.5098 147.378C61.3145 147.104 61.168 146.8 61.0703 146.464C60.9766 146.124 60.9297 145.78 60.9297 145.433C60.9297 145.026 60.9863 144.646 61.0996 144.29C61.2129 143.935 61.3809 143.622 61.6035 143.353C61.8262 143.079 62.1016 142.866 62.4297 142.714C62.7617 142.562 63.1445 142.485 63.5781 142.485C64.0664 142.485 64.4824 142.583 64.8262 142.778C65.1699 142.974 65.4492 143.235 65.6641 143.563C65.8828 143.892 66.043 144.261 66.1445 144.671C66.2461 145.081 66.2969 145.503 66.2969 145.937V146.329C66.2969 146.771 66.2676 147.22 66.209 147.677C66.1543 148.13 66.0469 148.563 65.8867 148.978C65.7305 149.392 65.502 149.763 65.2012 150.091C64.9004 150.415 64.5078 150.673 64.0234 150.864C63.543 151.052 62.9492 151.146 62.2422 151.146H62.1309V150.226ZM67.873 150.56C67.873 150.376 67.9297 150.222 68.043 150.097C68.1602 149.968 68.3281 149.903 68.5469 149.903C68.7656 149.903 68.9316 149.968 69.0449 150.097C69.1621 150.222 69.2207 150.376 69.2207 150.56C69.2207 150.739 69.1621 150.892 69.0449 151.017C68.9316 151.142 68.7656 151.204 68.5469 151.204C68.3281 151.204 68.1602 151.142 68.043 151.017C67.9297 150.892 67.873 150.739 67.873 150.56ZM67.8789 145.386C67.8789 145.202 67.9355 145.048 68.0488 144.923C68.166 144.794 68.334 144.729 68.5527 144.729C68.7715 144.729 68.9375 144.794 69.0508 144.923C69.168 145.048 69.2266 145.202 69.2266 145.386C69.2266 145.565 69.168 145.718 69.0508 145.843C68.9375 145.968 68.7715 146.03 68.5527 146.03C68.334 146.03 68.166 145.968 68.0488 145.843C67.9355 145.718 67.8789 145.565 67.8789 145.386ZM72.291 146.335H73.0645C73.4434 146.335 73.7559 146.272 74.002 146.147C74.252 146.019 74.4375 145.845 74.5586 145.626C74.6836 145.403 74.7461 145.153 74.7461 144.876C74.7461 144.548 74.6914 144.272 74.582 144.05C74.4727 143.827 74.3086 143.659 74.0898 143.546C73.8711 143.433 73.5938 143.376 73.2578 143.376C72.9531 143.376 72.6836 143.437 72.4492 143.558C72.2188 143.675 72.0371 143.843 71.9043 144.062C71.7754 144.28 71.7109 144.538 71.7109 144.835H70.627C70.627 144.401 70.7363 144.007 70.9551 143.651C71.1738 143.296 71.4805 143.013 71.875 142.802C72.2734 142.591 72.7344 142.485 73.2578 142.485C73.7734 142.485 74.2246 142.577 74.6113 142.761C74.998 142.94 75.2988 143.21 75.5137 143.569C75.7285 143.925 75.8359 144.368 75.8359 144.899C75.8359 145.114 75.7852 145.345 75.6836 145.591C75.5859 145.833 75.4316 146.06 75.2207 146.271C75.0137 146.481 74.7441 146.655 74.4121 146.792C74.0801 146.925 73.6816 146.991 73.2168 146.991H72.291V146.335ZM72.291 147.226V146.575H73.2168C73.7598 146.575 74.209 146.64 74.5645 146.769C74.9199 146.897 75.1992 147.069 75.4023 147.284C75.6094 147.499 75.7539 147.735 75.8359 147.993C75.9219 148.247 75.9648 148.501 75.9648 148.755C75.9648 149.153 75.8965 149.507 75.7598 149.815C75.627 150.124 75.4375 150.386 75.1914 150.601C74.9492 150.815 74.6641 150.978 74.3359 151.087C74.0078 151.196 73.6504 151.251 73.2637 151.251C72.8926 151.251 72.543 151.198 72.2148 151.093C71.8906 150.987 71.6035 150.835 71.3535 150.636C71.1035 150.433 70.9082 150.185 70.7676 149.892C70.627 149.595 70.5566 149.257 70.5566 148.878H71.6406C71.6406 149.175 71.7051 149.435 71.834 149.657C71.9668 149.88 72.1543 150.054 72.3965 150.179C72.6426 150.3 72.9316 150.36 73.2637 150.36C73.5957 150.36 73.8809 150.304 74.1191 150.19C74.3613 150.073 74.5469 149.897 74.6758 149.663C74.8086 149.429 74.875 149.134 74.875 148.778C74.875 148.423 74.8008 148.132 74.6523 147.905C74.5039 147.675 74.293 147.505 74.0195 147.396C73.75 147.282 73.4316 147.226 73.0645 147.226H72.291ZM82.8145 146.188V147.489C82.8145 148.188 82.752 148.778 82.627 149.259C82.502 149.739 82.3223 150.126 82.0879 150.419C81.8535 150.712 81.5703 150.925 81.2383 151.058C80.9102 151.187 80.5391 151.251 80.125 151.251C79.7969 151.251 79.4941 151.21 79.2168 151.128C78.9395 151.046 78.6895 150.915 78.4668 150.735C78.248 150.552 78.0605 150.313 77.9043 150.021C77.748 149.728 77.6289 149.372 77.5469 148.954C77.4648 148.536 77.4238 148.048 77.4238 147.489V146.188C77.4238 145.489 77.4863 144.903 77.6113 144.431C77.7402 143.958 77.9219 143.579 78.1562 143.294C78.3906 143.005 78.6719 142.798 79 142.673C79.332 142.548 79.7031 142.485 80.1133 142.485C80.4453 142.485 80.75 142.526 81.0273 142.608C81.3086 142.687 81.5586 142.813 81.7773 142.989C81.9961 143.161 82.1816 143.392 82.334 143.681C82.4902 143.966 82.6094 144.315 82.6914 144.729C82.7734 145.144 82.8145 145.63 82.8145 146.188ZM81.7246 147.665V146.007C81.7246 145.624 81.7012 145.288 81.6543 144.999C81.6113 144.706 81.5469 144.456 81.4609 144.249C81.375 144.042 81.2656 143.874 81.1328 143.745C81.0039 143.616 80.8535 143.522 80.6816 143.464C80.5137 143.401 80.3242 143.37 80.1133 143.37C79.8555 143.37 79.627 143.419 79.4277 143.517C79.2285 143.61 79.0605 143.761 78.9238 143.968C78.791 144.175 78.6895 144.446 78.6191 144.782C78.5488 145.118 78.5137 145.526 78.5137 146.007V147.665C78.5137 148.048 78.5352 148.386 78.5781 148.679C78.625 148.972 78.6934 149.226 78.7832 149.44C78.873 149.651 78.9824 149.825 79.1113 149.962C79.2402 150.099 79.3887 150.2 79.5566 150.267C79.7285 150.329 79.918 150.36 80.125 150.36C80.3906 150.36 80.623 150.31 80.8223 150.208C81.0215 150.106 81.1875 149.948 81.3203 149.733C81.457 149.515 81.5586 149.235 81.625 148.896C81.6914 148.552 81.7246 148.142 81.7246 147.665ZM91.041 150.05V146.786C91.041 146.536 90.9902 146.319 90.8887 146.136C90.791 145.948 90.6426 145.804 90.4434 145.702C90.2441 145.601 89.998 145.55 89.7051 145.55C89.4316 145.55 89.1914 145.597 88.9844 145.69C88.7812 145.784 88.6211 145.907 88.5039 146.06C88.3906 146.212 88.334 146.376 88.334 146.552H87.25C87.25 146.325 87.3086 146.101 87.4258 145.878C87.543 145.655 87.7109 145.454 87.9297 145.274C88.1523 145.091 88.418 144.946 88.7266 144.841C89.0391 144.731 89.3867 144.677 89.7695 144.677C90.2305 144.677 90.6367 144.755 90.9883 144.911C91.3438 145.067 91.6211 145.304 91.8203 145.62C92.0234 145.933 92.125 146.325 92.125 146.798V149.751C92.125 149.962 92.1426 150.187 92.1777 150.425C92.2168 150.663 92.2734 150.868 92.3477 151.04V151.134H91.2168C91.1621 151.009 91.1191 150.843 91.0879 150.636C91.0566 150.425 91.041 150.229 91.041 150.05ZM91.2285 147.29L91.2402 148.052H90.1445C89.8359 148.052 89.5605 148.077 89.3184 148.128C89.0762 148.175 88.873 148.247 88.709 148.345C88.5449 148.442 88.4199 148.565 88.334 148.714C88.248 148.858 88.2051 149.028 88.2051 149.224C88.2051 149.423 88.25 149.604 88.3398 149.769C88.4297 149.933 88.5645 150.063 88.7441 150.161C88.9277 150.255 89.1523 150.302 89.418 150.302C89.75 150.302 90.043 150.231 90.2969 150.091C90.5508 149.95 90.752 149.778 90.9004 149.575C91.0527 149.372 91.1348 149.175 91.1465 148.983L91.6094 149.505C91.582 149.669 91.5078 149.851 91.3867 150.05C91.2656 150.249 91.1035 150.44 90.9004 150.624C90.7012 150.804 90.4629 150.954 90.1855 151.075C89.9121 151.192 89.6035 151.251 89.2598 151.251C88.8301 151.251 88.4531 151.167 88.1289 150.999C87.8086 150.831 87.5586 150.606 87.3789 150.325C87.2031 150.04 87.1152 149.722 87.1152 149.37C87.1152 149.03 87.1816 148.731 87.3145 148.474C87.4473 148.212 87.6387 147.995 87.8887 147.823C88.1387 147.647 88.4395 147.515 88.791 147.425C89.1426 147.335 89.5352 147.29 89.9688 147.29H91.2285ZM94.9082 146.054V151.134H93.8184V144.794H94.8496L94.9082 146.054ZM94.6855 147.724L94.1816 147.706C94.1855 147.272 94.2422 146.872 94.3516 146.505C94.4609 146.134 94.623 145.812 94.8379 145.538C95.0527 145.265 95.3203 145.054 95.6406 144.905C95.9609 144.753 96.332 144.677 96.7539 144.677C97.0508 144.677 97.3242 144.72 97.5742 144.806C97.8242 144.888 98.041 145.019 98.2246 145.198C98.4082 145.378 98.5508 145.608 98.6523 145.89C98.7539 146.171 98.8047 146.511 98.8047 146.909V151.134H97.7207V146.962C97.7207 146.63 97.6641 146.364 97.5508 146.165C97.4414 145.966 97.2852 145.821 97.082 145.731C96.8789 145.638 96.6406 145.591 96.3672 145.591C96.0469 145.591 95.7793 145.647 95.5645 145.761C95.3496 145.874 95.1777 146.03 95.0488 146.229C94.9199 146.429 94.8262 146.657 94.7676 146.915C94.7129 147.169 94.6855 147.438 94.6855 147.724ZM98.793 147.126L98.0664 147.349C98.0703 147.001 98.127 146.667 98.2363 146.347C98.3496 146.026 98.5117 145.741 98.7227 145.491C98.9375 145.241 99.2012 145.044 99.5137 144.899C99.8262 144.751 100.184 144.677 100.586 144.677C100.926 144.677 101.227 144.722 101.488 144.812C101.754 144.901 101.977 145.04 102.156 145.228C102.34 145.411 102.479 145.647 102.572 145.937C102.666 146.226 102.713 146.569 102.713 146.968V151.134H101.623V146.956C101.623 146.601 101.566 146.325 101.453 146.13C101.344 145.931 101.188 145.792 100.984 145.714C100.785 145.632 100.547 145.591 100.27 145.591C100.031 145.591 99.8203 145.632 99.6367 145.714C99.4531 145.796 99.2988 145.909 99.1738 146.054C99.0488 146.194 98.9531 146.356 98.8867 146.54C98.8242 146.724 98.793 146.919 98.793 147.126Z" fill="#BCBCBC"/>
<path d="M415.115 142.556V151.134H414.031V143.909L411.846 144.706V143.728L414.945 142.556H415.115ZM423.893 150.243V151.134H418.309V150.354L421.104 147.243C421.447 146.86 421.713 146.536 421.9 146.271C422.092 146.001 422.225 145.761 422.299 145.55C422.377 145.335 422.416 145.116 422.416 144.894C422.416 144.612 422.357 144.358 422.24 144.132C422.127 143.901 421.959 143.718 421.736 143.581C421.514 143.444 421.244 143.376 420.928 143.376C420.549 143.376 420.232 143.45 419.979 143.599C419.729 143.743 419.541 143.946 419.416 144.208C419.291 144.47 419.229 144.771 419.229 145.11H418.145C418.145 144.63 418.25 144.19 418.461 143.792C418.672 143.394 418.984 143.077 419.398 142.843C419.812 142.604 420.322 142.485 420.928 142.485C421.467 142.485 421.928 142.581 422.311 142.772C422.693 142.96 422.986 143.226 423.189 143.569C423.396 143.909 423.5 144.308 423.5 144.765C423.5 145.015 423.457 145.269 423.371 145.526C423.289 145.78 423.174 146.034 423.025 146.288C422.881 146.542 422.711 146.792 422.516 147.038C422.324 147.284 422.119 147.526 421.9 147.765L419.615 150.243H423.893ZM425.123 150.56C425.123 150.376 425.18 150.222 425.293 150.097C425.41 149.968 425.578 149.903 425.797 149.903C426.016 149.903 426.182 149.968 426.295 150.097C426.412 150.222 426.471 150.376 426.471 150.56C426.471 150.739 426.412 150.892 426.295 151.017C426.182 151.142 426.016 151.204 425.797 151.204C425.578 151.204 425.41 151.142 425.293 151.017C425.18 150.892 425.123 150.739 425.123 150.56ZM425.129 145.386C425.129 145.202 425.186 145.048 425.299 144.923C425.416 144.794 425.584 144.729 425.803 144.729C426.021 144.729 426.188 144.794 426.301 144.923C426.418 145.048 426.477 145.202 426.477 145.386C426.477 145.565 426.418 145.718 426.301 145.843C426.188 145.968 426.021 146.03 425.803 146.03C425.584 146.03 425.416 145.968 425.299 145.843C425.186 145.718 425.129 145.565 425.129 145.386ZM433.314 146.188V147.489C433.314 148.188 433.252 148.778 433.127 149.259C433.002 149.739 432.822 150.126 432.588 150.419C432.354 150.712 432.07 150.925 431.738 151.058C431.41 151.187 431.039 151.251 430.625 151.251C430.297 151.251 429.994 151.21 429.717 151.128C429.439 151.046 429.189 150.915 428.967 150.735C428.748 150.552 428.561 150.313 428.404 150.021C428.248 149.728 428.129 149.372 428.047 148.954C427.965 148.536 427.924 148.048 427.924 147.489V146.188C427.924 145.489 427.986 144.903 428.111 144.431C428.24 143.958 428.422 143.579 428.656 143.294C428.891 143.005 429.172 142.798 429.5 142.673C429.832 142.548 430.203 142.485 430.613 142.485C430.945 142.485 431.25 142.526 431.527 142.608C431.809 142.687 432.059 142.813 432.277 142.989C432.496 143.161 432.682 143.392 432.834 143.681C432.99 143.966 433.109 144.315 433.191 144.729C433.273 145.144 433.314 145.63 433.314 146.188ZM432.225 147.665V146.007C432.225 145.624 432.201 145.288 432.154 144.999C432.111 144.706 432.047 144.456 431.961 144.249C431.875 144.042 431.766 143.874 431.633 143.745C431.504 143.616 431.354 143.522 431.182 143.464C431.014 143.401 430.824 143.37 430.613 143.37C430.355 143.37 430.127 143.419 429.928 143.517C429.729 143.61 429.561 143.761 429.424 143.968C429.291 144.175 429.189 144.446 429.119 144.782C429.049 145.118 429.014 145.526 429.014 146.007V147.665C429.014 148.048 429.035 148.386 429.078 148.679C429.125 148.972 429.193 149.226 429.283 149.44C429.373 149.651 429.482 149.825 429.611 149.962C429.74 150.099 429.889 150.2 430.057 150.267C430.229 150.329 430.418 150.36 430.625 150.36C430.891 150.36 431.123 150.31 431.322 150.208C431.521 150.106 431.688 149.948 431.82 149.733C431.957 149.515 432.059 149.235 432.125 148.896C432.191 148.552 432.225 148.142 432.225 147.665ZM440.064 146.188V147.489C440.064 148.188 440.002 148.778 439.877 149.259C439.752 149.739 439.572 150.126 439.338 150.419C439.104 150.712 438.82 150.925 438.488 151.058C438.16 151.187 437.789 151.251 437.375 151.251C437.047 151.251 436.744 151.21 436.467 151.128C436.189 151.046 435.939 150.915 435.717 150.735C435.498 150.552 435.311 150.313 435.154 150.021C434.998 149.728 434.879 149.372 434.797 148.954C434.715 148.536 434.674 148.048 434.674 147.489V146.188C434.674 145.489 434.736 144.903 434.861 144.431C434.99 143.958 435.172 143.579 435.406 143.294C435.641 143.005 435.922 142.798 436.25 142.673C436.582 142.548 436.953 142.485 437.363 142.485C437.695 142.485 438 142.526 438.277 142.608C438.559 142.687 438.809 142.813 439.027 142.989C439.246 143.161 439.432 143.392 439.584 143.681C439.74 143.966 439.859 144.315 439.941 144.729C440.023 145.144 440.064 145.63 440.064 146.188ZM438.975 147.665V146.007C438.975 145.624 438.951 145.288 438.904 144.999C438.861 144.706 438.797 144.456 438.711 144.249C438.625 144.042 438.516 143.874 438.383 143.745C438.254 143.616 438.104 143.522 437.932 143.464C437.764 143.401 437.574 143.37 437.363 143.37C437.105 143.37 436.877 143.419 436.678 143.517C436.479 143.61 436.311 143.761 436.174 143.968C436.041 144.175 435.939 144.446 435.869 144.782C435.799 145.118 435.764 145.526 435.764 146.007V147.665C435.764 148.048 435.785 148.386 435.828 148.679C435.875 148.972 435.943 149.226 436.033 149.44C436.123 149.651 436.232 149.825 436.361 149.962C436.49 150.099 436.639 150.2 436.807 150.267C436.979 150.329 437.168 150.36 437.375 150.36C437.641 150.36 437.873 150.31 438.072 150.208C438.271 150.106 438.438 149.948 438.57 149.733C438.707 149.515 438.809 149.235 438.875 148.896C438.941 148.552 438.975 148.142 438.975 147.665ZM445.314 150.05V146.786C445.314 146.536 445.264 146.319 445.162 146.136C445.064 145.948 444.916 145.804 444.717 145.702C444.518 145.601 444.271 145.55 443.979 145.55C443.705 145.55 443.465 145.597 443.258 145.69C443.055 145.784 442.895 145.907 442.777 146.06C442.664 146.212 442.607 146.376 442.607 146.552H441.523C441.523 146.325 441.582 146.101 441.699 145.878C441.816 145.655 441.984 145.454 442.203 145.274C442.426 145.091 442.691 144.946 443 144.841C443.312 144.731 443.66 144.677 444.043 144.677C444.504 144.677 444.91 144.755 445.262 144.911C445.617 145.067 445.895 145.304 446.094 145.62C446.297 145.933 446.398 146.325 446.398 146.798V149.751C446.398 149.962 446.416 150.187 446.451 150.425C446.49 150.663 446.547 150.868 446.621 151.04V151.134H445.49C445.436 151.009 445.393 150.843 445.361 150.636C445.33 150.425 445.314 150.229 445.314 150.05ZM445.502 147.29L445.514 148.052H444.418C444.109 148.052 443.834 148.077 443.592 148.128C443.35 148.175 443.146 148.247 442.982 148.345C442.818 148.442 442.693 148.565 442.607 148.714C442.521 148.858 442.479 149.028 442.479 149.224C442.479 149.423 442.523 149.604 442.613 149.769C442.703 149.933 442.838 150.063 443.018 150.161C443.201 150.255 443.426 150.302 443.691 150.302C444.023 150.302 444.316 150.231 444.57 150.091C444.824 149.95 445.025 149.778 445.174 149.575C445.326 149.372 445.408 149.175 445.42 148.983L445.883 149.505C445.855 149.669 445.781 149.851 445.66 150.05C445.539 150.249 445.377 150.44 445.174 150.624C444.975 150.804 444.736 150.954 444.459 151.075C444.186 151.192 443.877 151.251 443.533 151.251C443.104 151.251 442.727 151.167 442.402 150.999C442.082 150.831 441.832 150.606 441.652 150.325C441.477 150.04 441.389 149.722 441.389 149.37C441.389 149.03 441.455 148.731 441.588 148.474C441.721 148.212 441.912 147.995 442.162 147.823C442.412 147.647 442.713 147.515 443.064 147.425C443.416 147.335 443.809 147.29 444.242 147.29H445.502ZM449.182 146.054V151.134H448.092V144.794H449.123L449.182 146.054ZM448.959 147.724L448.455 147.706C448.459 147.272 448.516 146.872 448.625 146.505C448.734 146.134 448.896 145.812 449.111 145.538C449.326 145.265 449.594 145.054 449.914 144.905C450.234 144.753 450.605 144.677 451.027 144.677C451.324 144.677 451.598 144.72 451.848 144.806C452.098 144.888 452.314 145.019 452.498 145.198C452.682 145.378 452.824 145.608 452.926 145.89C453.027 146.171 453.078 146.511 453.078 146.909V151.134H451.994V146.962C451.994 146.63 451.938 146.364 451.824 146.165C451.715 145.966 451.559 145.821 451.355 145.731C451.152 145.638 450.914 145.591 450.641 145.591C450.32 145.591 450.053 145.647 449.838 145.761C449.623 145.874 449.451 146.03 449.322 146.229C449.193 146.429 449.1 146.657 449.041 146.915C448.986 147.169 448.959 147.438 448.959 147.724ZM453.066 147.126L452.34 147.349C452.344 147.001 452.4 146.667 452.51 146.347C452.623 146.026 452.785 145.741 452.996 145.491C453.211 145.241 453.475 145.044 453.787 144.899C454.1 144.751 454.457 144.677 454.859 144.677C455.199 144.677 455.5 144.722 455.762 144.812C456.027 144.901 456.25 145.04 456.43 145.228C456.613 145.411 456.752 145.647 456.846 145.937C456.939 146.226 456.986 146.569 456.986 146.968V151.134H455.896V146.956C455.896 146.601 455.84 146.325 455.727 146.13C455.617 145.931 455.461 145.792 455.258 145.714C455.059 145.632 454.82 145.591 454.543 145.591C454.305 145.591 454.094 145.632 453.91 145.714C453.727 145.796 453.572 145.909 453.447 146.054C453.322 146.194 453.227 146.356 453.16 146.54C453.098 146.724 453.066 146.919 453.066 147.126Z" fill="#BCBCBC"/>
<path d="M131.853 107.334V97.3945H135.969C136.399 97.3945 136.791 97.4831 137.145 97.6605C137.509 97.8378 137.822 98.0805 138.083 98.3885C138.345 98.6871 138.55 99.0231 138.699 99.3965C138.849 99.7605 138.923 100.134 138.923 100.516C138.923 101.058 138.802 101.571 138.559 102.056C138.326 102.532 137.995 102.92 137.565 103.218C137.136 103.517 136.632 103.666 136.053 103.666H132.833V107.334H131.853ZM132.833 102.798H136.011C136.403 102.798 136.744 102.691 137.033 102.476C137.323 102.262 137.547 101.982 137.705 101.636C137.864 101.291 137.943 100.918 137.943 100.516C137.943 100.106 137.85 99.7278 137.663 99.3825C137.477 99.0371 137.229 98.7665 136.921 98.5705C136.623 98.3651 136.291 98.2625 135.927 98.2625H132.833V102.798ZM140.296 104.324V100.04H141.248V104.156C141.248 104.987 141.388 105.608 141.668 106.018C141.957 106.429 142.382 106.634 142.942 106.634C143.315 106.634 143.675 106.555 144.02 106.396C144.375 106.228 144.687 105.995 144.958 105.696C145.229 105.388 145.434 105.034 145.574 104.632V100.04H146.526V106.186C146.526 106.317 146.554 106.415 146.61 106.48C146.666 106.536 146.75 106.569 146.862 106.578V107.334C146.75 107.344 146.661 107.348 146.596 107.348C146.531 107.358 146.47 107.362 146.414 107.362C146.227 107.344 146.064 107.269 145.924 107.138C145.793 107.008 145.723 106.849 145.714 106.662L145.686 105.682C145.369 106.242 144.935 106.681 144.384 106.998C143.843 107.316 143.255 107.474 142.62 107.474C141.855 107.474 141.276 107.208 140.884 106.676C140.492 106.144 140.296 105.36 140.296 104.324ZM154.811 107.334H153.859V103.26C153.859 102.402 153.733 101.776 153.481 101.384C153.229 100.983 152.832 100.782 152.291 100.782C151.917 100.782 151.549 100.876 151.185 101.062C150.821 101.24 150.499 101.487 150.219 101.804C149.948 102.112 149.752 102.467 149.631 102.868V107.334H148.679V100.04H149.547V101.692C149.743 101.338 149.999 101.03 150.317 100.768C150.634 100.498 150.993 100.288 151.395 100.138C151.796 99.9891 152.211 99.9145 152.641 99.9145C153.042 99.9145 153.383 99.9891 153.663 100.138C153.943 100.288 154.167 100.502 154.335 100.782C154.503 101.053 154.624 101.384 154.699 101.776C154.773 102.159 154.811 102.588 154.811 103.064V107.334ZM160.005 107.474C159.473 107.474 158.983 107.376 158.535 107.18C158.096 106.975 157.709 106.695 157.373 106.34C157.046 105.986 156.789 105.58 156.603 105.122C156.425 104.665 156.337 104.18 156.337 103.666C156.337 102.976 156.491 102.346 156.799 101.776C157.107 101.207 157.536 100.754 158.087 100.418C158.637 100.082 159.272 99.9145 159.991 99.9145C160.672 99.9145 161.274 100.073 161.797 100.39C162.319 100.698 162.707 101.118 162.959 101.65L162.035 101.944C161.829 101.571 161.54 101.282 161.167 101.076C160.803 100.862 160.397 100.754 159.949 100.754C159.463 100.754 159.02 100.88 158.619 101.132C158.217 101.384 157.895 101.73 157.653 102.168C157.419 102.607 157.303 103.106 157.303 103.666C157.303 104.217 157.424 104.716 157.667 105.164C157.909 105.612 158.231 105.972 158.633 106.242C159.034 106.504 159.477 106.634 159.963 106.634C160.28 106.634 160.583 106.578 160.873 106.466C161.171 106.354 161.428 106.205 161.643 106.018C161.867 105.822 162.016 105.612 162.091 105.388L163.029 105.668C162.898 106.014 162.679 106.326 162.371 106.606C162.072 106.877 161.717 107.092 161.307 107.25C160.905 107.4 160.471 107.474 160.005 107.474ZM170.656 107.334H169.704V103.26C169.704 102.439 169.56 101.823 169.27 101.412C168.981 100.992 168.566 100.782 168.024 100.782C167.67 100.782 167.315 100.876 166.96 101.062C166.615 101.24 166.307 101.487 166.036 101.804C165.775 102.112 165.588 102.467 165.476 102.868V107.334H164.524V97.1145H165.476V101.692C165.766 101.151 166.167 100.722 166.68 100.404C167.203 100.078 167.758 99.9145 168.346 99.9145C168.766 99.9145 169.121 99.9891 169.41 100.138C169.709 100.288 169.947 100.507 170.124 100.796C170.311 101.076 170.446 101.408 170.53 101.79C170.614 102.164 170.656 102.588 170.656 103.064V107.334ZM175.836 107.474C175.314 107.474 174.828 107.376 174.38 107.18C173.932 106.975 173.545 106.7 173.218 106.354C172.892 106 172.635 105.594 172.448 105.136C172.271 104.679 172.182 104.189 172.182 103.666C172.182 102.985 172.336 102.36 172.644 101.79C172.962 101.221 173.396 100.768 173.946 100.432C174.497 100.087 175.122 99.9145 175.822 99.9145C176.541 99.9145 177.166 100.087 177.698 100.432C178.24 100.778 178.664 101.235 178.972 101.804C179.28 102.364 179.434 102.98 179.434 103.652C179.434 103.727 179.434 103.802 179.434 103.876C179.434 103.942 179.43 103.993 179.42 104.03H173.176C173.223 104.553 173.368 105.02 173.61 105.43C173.862 105.832 174.184 106.154 174.576 106.396C174.978 106.63 175.412 106.746 175.878 106.746C176.354 106.746 176.802 106.625 177.222 106.382C177.652 106.14 177.95 105.822 178.118 105.43L178.944 105.654C178.795 106 178.566 106.312 178.258 106.592C177.95 106.872 177.586 107.092 177.166 107.25C176.756 107.4 176.312 107.474 175.836 107.474ZM173.148 103.344H178.538C178.501 102.812 178.356 102.346 178.104 101.944C177.862 101.543 177.54 101.23 177.138 101.006C176.746 100.773 176.312 100.656 175.836 100.656C175.36 100.656 174.926 100.773 174.534 101.006C174.142 101.23 173.82 101.548 173.568 101.958C173.326 102.36 173.186 102.822 173.148 103.344ZM180.413 103.708C180.413 103.018 180.553 102.388 180.833 101.818C181.123 101.24 181.519 100.778 182.023 100.432C182.527 100.087 183.101 99.9145 183.745 99.9145C184.352 99.9145 184.893 100.078 185.369 100.404C185.855 100.722 186.233 101.109 186.503 101.566V97.1145H187.455V106.186C187.455 106.317 187.483 106.415 187.539 106.48C187.595 106.536 187.679 106.569 187.791 106.578V107.334C187.605 107.362 187.46 107.372 187.357 107.362C187.161 107.353 186.989 107.274 186.839 107.124C186.69 106.975 186.615 106.812 186.615 106.634V105.92C186.326 106.396 185.934 106.774 185.439 107.054C184.945 107.334 184.431 107.474 183.899 107.474C183.395 107.474 182.929 107.372 182.499 107.166C182.079 106.961 181.711 106.681 181.393 106.326C181.085 105.972 180.843 105.57 180.665 105.122C180.497 104.665 180.413 104.194 180.413 103.708ZM186.503 104.828V102.574C186.382 102.238 186.186 101.935 185.915 101.664C185.645 101.384 185.337 101.165 184.991 101.006C184.655 100.838 184.319 100.754 183.983 100.754C183.591 100.754 183.237 100.838 182.919 101.006C182.602 101.165 182.327 101.384 182.093 101.664C181.869 101.944 181.697 102.262 181.575 102.616C181.454 102.971 181.393 103.335 181.393 103.708C181.393 104.1 181.459 104.474 181.589 104.828C181.729 105.183 181.925 105.5 182.177 105.78C182.429 106.051 182.719 106.261 183.045 106.41C183.372 106.56 183.727 106.634 184.109 106.634C184.352 106.634 184.604 106.588 184.865 106.494C185.127 106.401 185.374 106.275 185.607 106.116C185.85 105.948 186.051 105.752 186.209 105.528C186.368 105.304 186.466 105.071 186.503 104.828ZM193.181 107.334V100.04H194.133V107.334H193.181ZM193.181 98.5145V97.1145H194.133V98.5145H193.181ZM202.361 107.334H201.409V103.26C201.409 102.402 201.283 101.776 201.031 101.384C200.779 100.983 200.383 100.782 199.841 100.782C199.468 100.782 199.099 100.876 198.735 101.062C198.371 101.24 198.049 101.487 197.769 101.804C197.499 102.112 197.303 102.467 197.181 102.868V107.334H196.229V100.04H197.097V101.692C197.293 101.338 197.55 101.03 197.867 100.768C198.185 100.498 198.544 100.288 198.945 100.138C199.347 99.9891 199.762 99.9145 200.191 99.9145C200.593 99.9145 200.933 99.9891 201.213 100.138C201.493 100.288 201.717 100.502 201.885 100.782C202.053 101.053 202.175 101.384 202.249 101.776C202.324 102.159 202.361 102.588 202.361 103.064V107.334ZM208.31 107.334V100.796H207.302V100.04H208.31V99.8445C208.31 99.2471 208.394 98.7338 208.562 98.3045C208.739 97.8751 208.987 97.5485 209.304 97.3245C209.631 97.0911 210.013 96.9745 210.452 96.9745C210.741 96.9745 211.021 97.0165 211.292 97.1005C211.563 97.1845 211.796 97.2965 211.992 97.4365L211.698 98.1225C211.577 98.0198 211.418 97.9405 211.222 97.8845C211.026 97.8285 210.83 97.8005 210.634 97.8005C210.195 97.8005 209.855 97.9731 209.612 98.3185C209.379 98.6638 209.262 99.1631 209.262 99.8165V100.04H211.278V100.796H209.262V107.334H208.31ZM215.457 107.474C214.934 107.474 214.449 107.376 214.001 107.18C213.562 106.975 213.179 106.7 212.853 106.354C212.535 106 212.288 105.598 212.111 105.15C211.933 104.693 211.845 104.212 211.845 103.708C211.845 103.186 211.933 102.7 212.111 102.252C212.288 101.795 212.54 101.394 212.867 101.048C213.193 100.694 213.576 100.418 214.015 100.222C214.463 100.017 214.948 99.9145 215.471 99.9145C215.993 99.9145 216.474 100.017 216.913 100.222C217.351 100.418 217.734 100.694 218.061 101.048C218.387 101.394 218.639 101.795 218.817 102.252C218.994 102.7 219.083 103.186 219.083 103.708C219.083 104.212 218.994 104.693 218.817 105.15C218.639 105.598 218.387 106 218.061 106.354C217.743 106.7 217.361 106.975 216.913 107.18C216.474 107.376 215.989 107.474 215.457 107.474ZM212.811 103.722C212.811 104.264 212.927 104.758 213.161 105.206C213.403 105.645 213.725 105.995 214.127 106.256C214.528 106.508 214.971 106.634 215.457 106.634C215.942 106.634 216.385 106.504 216.787 106.242C217.188 105.981 217.51 105.626 217.753 105.178C217.995 104.721 218.117 104.226 218.117 103.694C218.117 103.153 217.995 102.658 217.753 102.21C217.51 101.762 217.188 101.408 216.787 101.146C216.385 100.885 215.942 100.754 215.457 100.754C214.971 100.754 214.528 100.89 214.127 101.16C213.735 101.431 213.417 101.79 213.175 102.238C212.932 102.677 212.811 103.172 212.811 103.722ZM224.315 100.88C223.68 100.899 223.12 101.076 222.635 101.412C222.159 101.748 221.823 102.21 221.627 102.798V107.334H220.675V100.04H221.571V101.79C221.823 101.277 222.154 100.862 222.565 100.544C222.985 100.227 223.428 100.05 223.895 100.012C223.988 100.003 224.067 99.9985 224.133 99.9985C224.207 99.9985 224.268 100.003 224.315 100.012V100.88ZM233.023 107.334V104.674H228.137V103.82L233.317 97.3945H233.975V103.806H235.207V104.674H233.975V107.334H233.023ZM229.159 103.806H233.107V98.8785L229.159 103.806ZM246.494 107.334H245.542V103.26C245.542 102.439 245.398 101.823 245.108 101.412C244.819 100.992 244.404 100.782 243.862 100.782C243.508 100.782 243.153 100.876 242.798 101.062C242.453 101.24 242.145 101.487 241.874 101.804C241.613 102.112 241.426 102.467 241.314 102.868V107.334H240.362V97.1145H241.314V101.692C241.604 101.151 242.005 100.722 242.518 100.404C243.041 100.078 243.596 99.9145 244.184 99.9145C244.604 99.9145 244.959 99.9891 245.248 100.138C245.547 100.288 245.785 100.507 245.962 100.796C246.149 101.076 246.284 101.408 246.368 101.79C246.452 102.164 246.494 102.588 246.494 103.064V107.334ZM252.164 100.88C251.53 100.899 250.97 101.076 250.484 101.412C250.008 101.748 249.672 102.21 249.476 102.798V107.334H248.524V100.04H249.42V101.79C249.672 101.277 250.004 100.862 250.414 100.544C250.834 100.227 251.278 100.05 251.744 100.012C251.838 100.003 251.917 99.9985 251.982 99.9985C252.057 99.9985 252.118 100.003 252.164 100.012V100.88ZM255.827 107.474C255.229 107.474 254.674 107.376 254.161 107.18C253.647 106.984 253.204 106.686 252.831 106.284L253.223 105.612C253.633 105.995 254.044 106.275 254.455 106.452C254.875 106.62 255.318 106.704 255.785 106.704C256.354 106.704 256.816 106.592 257.171 106.368C257.525 106.135 257.703 105.804 257.703 105.374C257.703 105.085 257.614 104.866 257.437 104.716C257.269 104.558 257.021 104.432 256.695 104.338C256.377 104.236 255.995 104.128 255.547 104.016C255.043 103.876 254.618 103.732 254.273 103.582C253.937 103.424 253.68 103.228 253.503 102.994C253.335 102.752 253.251 102.439 253.251 102.056C253.251 101.58 253.367 101.188 253.601 100.88C253.843 100.563 254.17 100.325 254.581 100.166C255.001 99.9985 255.467 99.9145 255.981 99.9145C256.541 99.9145 257.035 100.003 257.465 100.18C257.894 100.358 258.244 100.605 258.515 100.922L258.053 101.566C257.791 101.268 257.479 101.048 257.115 100.908C256.76 100.759 256.363 100.684 255.925 100.684C255.626 100.684 255.341 100.726 255.071 100.81C254.8 100.885 254.576 101.016 254.399 101.202C254.231 101.38 254.147 101.627 254.147 101.944C254.147 102.206 254.212 102.411 254.343 102.56C254.473 102.7 254.669 102.822 254.931 102.924C255.192 103.018 255.514 103.12 255.897 103.232C256.447 103.382 256.928 103.536 257.339 103.694C257.749 103.844 258.067 104.04 258.291 104.282C258.515 104.525 258.627 104.866 258.627 105.304C258.627 105.986 258.37 106.518 257.857 106.9C257.343 107.283 256.667 107.474 255.827 107.474Z" fill="black"/>
<g filter="url(#filter1_d_2885_5661)">
<rect x="443.877" y="71.668" width="110" height="32.3052" rx="3" fill="white"/>
<rect x="444.377" y="72.168" width="109" height="31.3052" rx="2.5" stroke="#3BBCA0"/>
</g>
<path d="M461.266 93.0449V83.1049H465.438C465.886 83.1049 466.297 83.1983 466.67 83.3849C467.044 83.5716 467.37 83.8189 467.65 84.1269C467.93 84.4349 468.145 84.7803 468.294 85.1629C468.444 85.5456 468.518 85.9376 468.518 86.3389C468.518 86.8896 468.392 87.4169 468.14 87.9209C467.898 88.4156 467.548 88.8169 467.09 89.1249C466.642 89.4329 466.12 89.5869 465.522 89.5869H462.834V93.0449H461.266ZM462.834 88.2009H465.424C465.723 88.2009 465.984 88.1216 466.208 87.9629C466.432 87.7949 466.605 87.5709 466.726 87.2909C466.857 87.0109 466.922 86.6936 466.922 86.3389C466.922 85.9749 466.848 85.6529 466.698 85.3729C466.549 85.0929 466.353 84.8783 466.11 84.7289C465.877 84.5703 465.62 84.4909 465.34 84.4909H462.834V88.2009ZM469.723 90.2029V85.7229H471.263V89.8949C471.263 90.5483 471.38 91.0429 471.613 91.3789C471.856 91.7056 472.206 91.8689 472.663 91.8689C472.952 91.8689 473.232 91.8083 473.503 91.6869C473.783 91.5656 474.035 91.3883 474.259 91.1549C474.492 90.9123 474.679 90.6229 474.819 90.2869V85.7229H476.359V91.3089C476.359 91.4863 476.392 91.6123 476.457 91.6869C476.522 91.7616 476.63 91.8036 476.779 91.8129V93.0449C476.62 93.0729 476.49 93.0916 476.387 93.1009C476.284 93.1103 476.186 93.1149 476.093 93.1149C475.813 93.1149 475.58 93.0403 475.393 92.8909C475.206 92.7323 475.099 92.5316 475.071 92.2889L475.043 91.5609C474.716 92.0929 474.292 92.4989 473.769 92.7789C473.246 93.0496 472.672 93.1849 472.047 93.1849C471.282 93.1849 470.703 92.9329 470.311 92.4289C469.919 91.9249 469.723 91.1829 469.723 90.2029ZM484.89 93.0449H483.35V88.9429C483.35 88.2616 483.238 87.7623 483.014 87.4449C482.8 87.1276 482.478 86.9689 482.048 86.9689C481.75 86.9689 481.451 87.0436 481.152 87.1929C480.863 87.3423 480.602 87.5476 480.368 87.8089C480.135 88.0609 479.967 88.3549 479.864 88.6909V93.0449H478.324V85.7229H479.724V87.1929C479.911 86.8663 480.154 86.5863 480.452 86.3529C480.76 86.1103 481.106 85.9236 481.488 85.7929C481.871 85.6623 482.277 85.5969 482.706 85.5969C483.145 85.5969 483.504 85.6763 483.784 85.8349C484.074 85.9936 484.298 86.2129 484.456 86.4929C484.624 86.7636 484.736 87.0809 484.792 87.4449C484.858 87.7996 484.89 88.1776 484.89 88.5789V93.0449ZM489.996 93.1849C489.426 93.1849 488.908 93.0869 488.442 92.8909C487.984 92.6856 487.588 92.4056 487.252 92.0509C486.916 91.6963 486.654 91.2903 486.468 90.8329C486.29 90.3756 486.202 89.8903 486.202 89.3769C486.202 88.6863 486.356 88.0563 486.664 87.4869C486.981 86.9176 487.42 86.4603 487.98 86.1149C488.549 85.7696 489.221 85.5969 489.996 85.5969C490.742 85.5969 491.391 85.7649 491.942 86.1009C492.502 86.4276 492.912 86.8663 493.174 87.4169L491.676 87.8929C491.508 87.5849 491.27 87.3469 490.962 87.1789C490.663 87.0016 490.332 86.9129 489.968 86.9129C489.557 86.9129 489.184 87.0203 488.848 87.2349C488.521 87.4403 488.26 87.7296 488.064 88.1029C487.877 88.4669 487.784 88.8916 487.784 89.3769C487.784 89.8436 487.882 90.2683 488.078 90.6509C488.274 91.0243 488.535 91.3229 488.862 91.5469C489.198 91.7616 489.571 91.8689 489.982 91.8689C490.234 91.8689 490.476 91.8269 490.71 91.7429C490.952 91.6496 491.162 91.5283 491.34 91.3789C491.517 91.2203 491.643 91.0476 491.718 90.8609L493.23 91.3089C493.071 91.6729 492.833 91.9949 492.516 92.2749C492.208 92.5549 491.839 92.7789 491.41 92.9469C490.99 93.1056 490.518 93.1849 489.996 93.1849ZM501.064 93.0449H499.524V88.9429C499.524 88.2803 499.403 87.7856 499.16 87.4589C498.917 87.1323 498.577 86.9689 498.138 86.9689C497.867 86.9689 497.587 87.0436 497.298 87.1929C497.009 87.3423 496.752 87.5476 496.528 87.8089C496.304 88.0609 496.141 88.3549 496.038 88.6909V93.0449H494.498V82.8249H496.038V87.1929C496.318 86.6983 496.701 86.3109 497.186 86.0309C497.671 85.7416 498.194 85.5969 498.754 85.5969C499.211 85.5969 499.589 85.6763 499.888 85.8349C500.187 85.9936 500.42 86.2129 500.588 86.4929C500.765 86.7636 500.887 87.0809 500.952 87.4449C501.027 87.7996 501.064 88.1776 501.064 88.5789V93.0449ZM506.507 93.0449V83.1049H508.075V93.0449H506.507ZM516.691 93.0449H515.151V88.9429C515.151 88.2616 515.039 87.7623 514.815 87.4449C514.6 87.1276 514.278 86.9689 513.849 86.9689C513.55 86.9689 513.252 87.0436 512.953 87.1929C512.664 87.3423 512.402 87.5476 512.169 87.8089C511.936 88.0609 511.768 88.3549 511.665 88.6909V93.0449H510.125V85.7229H511.525V87.1929C511.712 86.8663 511.954 86.5863 512.253 86.3529C512.561 86.1103 512.906 85.9236 513.289 85.7929C513.672 85.6623 514.078 85.5969 514.507 85.5969C514.946 85.5969 515.305 85.6763 515.585 85.8349C515.874 85.9936 516.098 86.2129 516.257 86.4929C516.425 86.7636 516.537 87.0809 516.593 87.4449C516.658 87.7996 516.691 88.1776 516.691 88.5789V93.0449Z" fill="#3BBCA0"/>
<path d="M533.382 87.3373L533.382 91.9127M533.382 91.9127L537.958 91.9127M533.382 91.9127L539.762 85.5326" stroke="#3BBCA0" stroke-width="2" stroke-linecap="round" stroke-linejoin="round"/>
<g filter="url(#filter2_d_2885_5661)">
<rect x="719.877" y="71.668" width="110" height="32.3052" rx="3" fill="white"/>
<rect x="720.377" y="72.168" width="109" height="31.3052" rx="2.5" stroke="#626262"/>
</g>
<path d="M731.257 93.0449V83.1049H735.429C735.877 83.1049 736.288 83.1983 736.661 83.3849C737.035 83.5716 737.361 83.8189 737.641 84.1269C737.921 84.4349 738.136 84.7803 738.285 85.1629C738.435 85.5456 738.509 85.9376 738.509 86.3389C738.509 86.8896 738.383 87.4169 738.131 87.9209C737.889 88.4156 737.539 88.8169 737.081 89.1249C736.633 89.4329 736.111 89.5869 735.513 89.5869H732.825V93.0449H731.257ZM732.825 88.2009H735.415C735.714 88.2009 735.975 88.1216 736.199 87.9629C736.423 87.7949 736.596 87.5709 736.717 87.2909C736.848 87.0109 736.913 86.6936 736.913 86.3389C736.913 85.9749 736.839 85.6529 736.689 85.3729C736.54 85.0929 736.344 84.8783 736.101 84.7289C735.868 84.5703 735.611 84.4909 735.331 84.4909H732.825V88.2009ZM739.714 90.2029V85.7229H741.254V89.8949C741.254 90.5483 741.371 91.0429 741.604 91.3789C741.847 91.7056 742.197 91.8689 742.654 91.8689C742.943 91.8689 743.223 91.8083 743.494 91.6869C743.774 91.5656 744.026 91.3883 744.25 91.1549C744.483 90.9123 744.67 90.6229 744.81 90.2869V85.7229H746.35V91.3089C746.35 91.4863 746.383 91.6123 746.448 91.6869C746.513 91.7616 746.621 91.8036 746.77 91.8129V93.0449C746.611 93.0729 746.481 93.0916 746.378 93.1009C746.275 93.1103 746.177 93.1149 746.084 93.1149C745.804 93.1149 745.571 93.0403 745.384 92.8909C745.197 92.7323 745.09 92.5316 745.062 92.2889L745.034 91.5609C744.707 92.0929 744.283 92.4989 743.76 92.7789C743.237 93.0496 742.663 93.1849 742.038 93.1849C741.273 93.1849 740.694 92.9329 740.302 92.4289C739.91 91.9249 739.714 91.1829 739.714 90.2029ZM754.881 93.0449H753.341V88.9429C753.341 88.2616 753.229 87.7623 753.005 87.4449C752.791 87.1276 752.469 86.9689 752.039 86.9689C751.741 86.9689 751.442 87.0436 751.143 87.1929C750.854 87.3423 750.593 87.5476 750.359 87.8089C750.126 88.0609 749.958 88.3549 749.855 88.6909V93.0449H748.315V85.7229H749.715V87.1929C749.902 86.8663 750.145 86.5863 750.443 86.3529C750.751 86.1103 751.097 85.9236 751.479 85.7929C751.862 85.6623 752.268 85.5969 752.697 85.5969C753.136 85.5969 753.495 85.6763 753.775 85.8349C754.065 85.9936 754.289 86.2129 754.447 86.4929C754.615 86.7636 754.727 87.0809 754.783 87.4449C754.849 87.7996 754.881 88.1776 754.881 88.5789V93.0449ZM759.987 93.1849C759.417 93.1849 758.899 93.0869 758.433 92.8909C757.975 92.6856 757.579 92.4056 757.243 92.0509C756.907 91.6963 756.645 91.2903 756.459 90.8329C756.281 90.3756 756.193 89.8903 756.193 89.3769C756.193 88.6863 756.347 88.0563 756.655 87.4869C756.972 86.9176 757.411 86.4603 757.971 86.1149C758.54 85.7696 759.212 85.5969 759.987 85.5969C760.733 85.5969 761.382 85.7649 761.933 86.1009C762.493 86.4276 762.903 86.8663 763.165 87.4169L761.667 87.8929C761.499 87.5849 761.261 87.3469 760.953 87.1789C760.654 87.0016 760.323 86.9129 759.959 86.9129C759.548 86.9129 759.175 87.0203 758.839 87.2349C758.512 87.4403 758.251 87.7296 758.055 88.1029C757.868 88.4669 757.775 88.8916 757.775 89.3769C757.775 89.8436 757.873 90.2683 758.069 90.6509C758.265 91.0243 758.526 91.3229 758.853 91.5469C759.189 91.7616 759.562 91.8689 759.973 91.8689C760.225 91.8689 760.467 91.8269 760.701 91.7429C760.943 91.6496 761.153 91.5283 761.331 91.3789C761.508 91.2203 761.634 91.0476 761.709 90.8609L763.221 91.3089C763.062 91.6729 762.824 91.9949 762.507 92.2749C762.199 92.5549 761.83 92.7789 761.401 92.9469C760.981 93.1056 760.509 93.1849 759.987 93.1849ZM771.055 93.0449H769.515V88.9429C769.515 88.2803 769.394 87.7856 769.151 87.4589C768.908 87.1323 768.568 86.9689 768.129 86.9689C767.858 86.9689 767.578 87.0436 767.289 87.1929C767 87.3423 766.743 87.5476 766.519 87.8089C766.295 88.0609 766.132 88.3549 766.029 88.6909V93.0449H764.489V82.8249H766.029V87.1929C766.309 86.6983 766.692 86.3109 767.177 86.0309C767.662 85.7416 768.185 85.5969 768.745 85.5969C769.202 85.5969 769.58 85.6763 769.879 85.8349C770.178 85.9936 770.411 86.2129 770.579 86.4929C770.756 86.7636 770.878 87.0809 770.943 87.4449C771.018 87.7996 771.055 88.1776 771.055 88.5789V93.0449ZM780.628 93.1149C779.909 93.1149 779.26 92.9749 778.682 92.6949C778.103 92.4149 777.604 92.0369 777.184 91.5609C776.764 91.0756 776.437 90.5343 776.204 89.9369C775.98 89.3303 775.868 88.7096 775.868 88.0749C775.868 87.4123 775.989 86.7823 776.232 86.1849C776.474 85.5783 776.81 85.0416 777.24 84.5749C777.669 84.0989 778.173 83.7256 778.752 83.4549C779.34 83.1749 779.974 83.0349 780.656 83.0349C781.365 83.0349 782.009 83.1796 782.588 83.4689C783.176 83.7583 783.675 84.1456 784.086 84.6309C784.506 85.1163 784.828 85.6576 785.052 86.2549C785.285 86.8523 785.402 87.4636 785.402 88.0889C785.402 88.7516 785.28 89.3863 785.038 89.9929C784.804 90.5903 784.473 91.1269 784.044 91.6029C783.614 92.0696 783.106 92.4383 782.518 92.7089C781.939 92.9796 781.309 93.1149 780.628 93.1149ZM777.464 88.0749C777.464 88.5416 777.538 88.9943 777.688 89.4329C777.837 89.8716 778.047 90.2636 778.318 90.6089C778.598 90.9449 778.934 91.2109 779.326 91.4069C779.718 91.6029 780.156 91.7009 780.642 91.7009C781.146 91.7009 781.594 91.5983 781.986 91.3929C782.378 91.1876 782.704 90.9123 782.966 90.5669C783.236 90.2123 783.442 89.8203 783.582 89.3909C783.722 88.9523 783.792 88.5136 783.792 88.0749C783.792 87.6083 783.717 87.1603 783.568 86.7309C783.428 86.2923 783.218 85.9049 782.938 85.5689C782.658 85.2236 782.322 84.9529 781.93 84.7569C781.547 84.5609 781.118 84.4629 780.642 84.4629C780.138 84.4629 779.69 84.5656 779.298 84.7709C778.906 84.9763 778.574 85.2516 778.304 85.5969C778.033 85.9423 777.823 86.3296 777.674 86.7589C777.534 87.1883 777.464 87.6269 777.464 88.0749ZM786.759 90.2029V85.7229H788.299V89.8949C788.299 90.5483 788.416 91.0429 788.649 91.3789C788.892 91.7056 789.242 91.8689 789.699 91.8689C789.988 91.8689 790.268 91.8083 790.539 91.6869C790.819 91.5656 791.071 91.3883 791.295 91.1549C791.528 90.9123 791.715 90.6229 791.855 90.2869V85.7229H793.395V91.3089C793.395 91.4863 793.428 91.6123 793.493 91.6869C793.558 91.7616 793.666 91.8036 793.815 91.8129V93.0449C793.656 93.0729 793.526 93.0916 793.423 93.1009C793.32 93.1103 793.222 93.1149 793.129 93.1149C792.849 93.1149 792.616 93.0403 792.429 92.8909C792.242 92.7323 792.135 92.5316 792.107 92.2889L792.079 91.5609C791.752 92.0929 791.328 92.4989 790.805 92.7789C790.282 93.0496 789.708 93.1849 789.083 93.1849C788.318 93.1849 787.739 92.9329 787.347 92.4289C786.955 91.9249 786.759 91.1829 786.759 90.2029ZM799.421 92.6669C799.29 92.7323 799.127 92.8023 798.931 92.8769C798.735 92.9516 798.511 93.0169 798.259 93.0729C798.016 93.1289 797.764 93.1569 797.503 93.1569C797.185 93.1569 796.891 93.1009 796.621 92.9889C796.35 92.8769 796.131 92.6996 795.963 92.4569C795.804 92.2049 795.725 91.8829 795.725 91.4909V86.9129H794.759V85.7229H795.725V83.3149H797.265V85.7229H798.861V86.9129H797.265V91.0009C797.283 91.2529 797.363 91.4396 797.503 91.5609C797.652 91.6823 797.834 91.7429 798.049 91.7429C798.263 91.7429 798.469 91.7056 798.665 91.6309C798.861 91.5563 799.005 91.4956 799.099 91.4489L799.421 92.6669Z" fill="#626262"/>
<path d="M819.667 85.5321L813.287 91.9122L819.667 85.5321Z" fill="#626262"/>
<path d="M819.667 90.1075L819.667 85.5321M819.667 85.5321L815.092 85.5321M819.667 85.5321L813.287 91.9122" stroke="#626262" stroke-width="2" stroke-linecap="round" stroke-linejoin="round"/>
<g filter="url(#filter3_d_2885_5661)">
<rect x="581.877" y="71.668" width="110" height="32.3052" rx="3" fill="white"/>
<rect x="582.377" y="72.168" width="109" height="31.3052" rx="2.5" stroke="#F1C025"/>
</g>
<rect x="671.483" y="82.9209" width="3.42313" height="9.79955" rx="0.3" fill="#F1C025"/>
<rect x="677.406" y="82.9209" width="3.42313" height="9.79955" rx="0.3" fill="#F1C025"/>
<path d="M604.692 90.2583C604.692 90.7903 604.552 91.2476 604.272 91.6303C604.002 92.013 603.633 92.307 603.166 92.5123C602.7 92.7176 602.186 92.8203 601.626 92.8203H596.88V82.8803H602.004C602.471 82.8803 602.872 83.0063 603.208 83.2583C603.554 83.501 603.815 83.8183 603.992 84.2103C604.179 84.593 604.272 84.9943 604.272 85.4143C604.272 85.8996 604.146 86.357 603.894 86.7863C603.652 87.2063 603.302 87.519 602.844 87.7243C603.414 87.8923 603.862 88.2003 604.188 88.6483C604.524 89.087 604.692 89.6236 604.692 90.2583ZM603.082 89.9643C603.082 89.6843 603.022 89.4323 602.9 89.2083C602.788 88.975 602.63 88.7883 602.424 88.6483C602.228 88.499 601.995 88.4243 601.724 88.4243H598.448V91.4623H601.626C601.906 91.4623 602.154 91.397 602.368 91.2663C602.592 91.1263 602.765 90.9443 602.886 90.7203C603.017 90.487 603.082 90.235 603.082 89.9643ZM598.448 84.2383V87.1643H601.332C601.594 87.1643 601.827 87.1036 602.032 86.9823C602.238 86.8516 602.401 86.679 602.522 86.4643C602.644 86.2403 602.704 85.9883 602.704 85.7083C602.704 85.419 602.648 85.167 602.536 84.9523C602.424 84.7283 602.27 84.5556 602.074 84.4343C601.888 84.3036 601.668 84.2383 601.416 84.2383H598.448ZM610.248 86.8283C609.65 86.8376 609.118 86.973 608.652 87.2343C608.194 87.4956 607.868 87.8643 607.672 88.3403V92.8203H606.132V85.4983H607.56V87.1363C607.812 86.6323 608.143 86.231 608.554 85.9323C608.964 85.6243 609.398 85.4563 609.856 85.4283C609.949 85.4283 610.024 85.4283 610.08 85.4283C610.145 85.4283 610.201 85.433 610.248 85.4423V86.8283ZM614.549 92.9603C613.98 92.9603 613.462 92.8623 612.995 92.6663C612.538 92.461 612.141 92.1856 611.805 91.8403C611.469 91.4856 611.208 91.0843 611.021 90.6363C610.844 90.179 610.755 89.6936 610.755 89.1803C610.755 88.4896 610.914 87.8596 611.231 87.2903C611.549 86.7116 611.992 86.2496 612.561 85.9043C613.131 85.5496 613.798 85.3723 614.563 85.3723C615.329 85.3723 615.987 85.5496 616.537 85.9043C617.097 86.2496 617.531 86.707 617.839 87.2763C618.147 87.8456 618.301 88.457 618.301 89.1103C618.301 89.2223 618.297 89.3296 618.287 89.4323C618.278 89.5256 618.269 89.605 618.259 89.6703H612.393C612.421 90.0996 612.538 90.4776 612.743 90.8043C612.958 91.1216 613.229 91.3736 613.555 91.5603C613.882 91.7376 614.232 91.8263 614.605 91.8263C615.016 91.8263 615.403 91.7236 615.767 91.5183C616.141 91.313 616.393 91.0423 616.523 90.7063L617.839 91.0843C617.681 91.439 617.438 91.761 617.111 92.0503C616.794 92.3303 616.416 92.5543 615.977 92.7223C615.539 92.881 615.063 92.9603 614.549 92.9603ZM612.351 88.6483H616.775C616.747 88.2283 616.626 87.8596 616.411 87.5423C616.206 87.2156 615.94 86.9636 615.613 86.7863C615.296 86.5996 614.941 86.5063 614.549 86.5063C614.167 86.5063 613.812 86.5996 613.485 86.7863C613.168 86.9636 612.907 87.2156 612.701 87.5423C612.496 87.8596 612.379 88.2283 612.351 88.6483ZM619.026 90.6783C619.026 90.2116 619.156 89.8056 619.418 89.4603C619.688 89.1056 620.057 88.835 620.524 88.6483C620.99 88.4523 621.532 88.3543 622.148 88.3543C622.474 88.3543 622.806 88.3776 623.142 88.4243C623.487 88.471 623.79 88.5456 624.052 88.6483V88.1863C624.052 87.673 623.898 87.2716 623.59 86.9823C623.282 86.693 622.838 86.5483 622.26 86.5483C621.849 86.5483 621.462 86.623 621.098 86.7723C620.734 86.9123 620.346 87.113 619.936 87.3743L619.418 86.3383C619.903 86.0116 620.388 85.769 620.874 85.6103C621.368 85.4516 621.886 85.3723 622.428 85.3723C623.408 85.3723 624.178 85.6336 624.738 86.1563C625.307 86.6696 625.592 87.4023 625.592 88.3543V91.0843C625.592 91.2616 625.62 91.3876 625.676 91.4623C625.741 91.537 625.848 91.579 625.998 91.5883V92.8203C625.858 92.8483 625.732 92.867 625.62 92.8763C625.508 92.8856 625.414 92.8903 625.34 92.8903C625.013 92.8903 624.766 92.811 624.598 92.6523C624.43 92.4936 624.332 92.307 624.304 92.0923L624.262 91.6723C623.944 92.083 623.538 92.4003 623.044 92.6243C622.549 92.8483 622.05 92.9603 621.546 92.9603C621.06 92.9603 620.626 92.8623 620.244 92.6663C619.861 92.461 619.562 92.1856 619.348 91.8403C619.133 91.495 619.026 91.1076 619.026 90.6783ZM623.688 91.1263C623.8 91.005 623.888 90.8836 623.954 90.7623C624.019 90.641 624.052 90.5336 624.052 90.4403V89.6003C623.79 89.4976 623.515 89.423 623.226 89.3763C622.936 89.3203 622.652 89.2923 622.372 89.2923C621.812 89.2923 621.354 89.4043 621 89.6283C620.654 89.8523 620.482 90.1603 620.482 90.5523C620.482 90.767 620.538 90.9723 620.65 91.1683C620.771 91.3643 620.939 91.523 621.154 91.6443C621.378 91.7656 621.653 91.8263 621.98 91.8263C622.316 91.8263 622.638 91.761 622.946 91.6303C623.254 91.4996 623.501 91.3316 623.688 91.1263ZM632.556 92.8203L630.204 89.4463L629 90.5943V92.8203H627.46V82.6003H629V89.0403L632.388 85.5123H634.04L631.198 88.5783L634.194 92.8203H632.556Z" fill="#F1C025"/>
<defs>
<filter id="filter0_d_2885_5661" x="0.34375" y="0.5" width="883.436" height="226.262" filterUnits="userSpaceOnUse" color-interpolation-filters="sRGB">
<feFlood flood-opacity="0" result="BackgroundImageFix"/>
<feColorMatrix in="SourceAlpha" type="matrix" values="0 0 0 0 0 0 0 0 0 0 0 0 0 0 0 0 0 0 127 0" result="hardAlpha"/>
<feOffset dy="4"/>
<feGaussianBlur stdDeviation="12"/>
<feComposite in2="hardAlpha" operator="out"/>
<feColorMatrix type="matrix" values="0 0 0 0 0 0 0 0 0 0 0 0 0 0 0 0 0 0 0.05 0"/>
<feBlend mode="normal" in2="BackgroundImageFix" result="effect1_dropShadow_2885_5661"/>
<feBlend mode="normal" in="SourceGraphic" in2="effect1_dropShadow_2885_5661" result="shape"/>
</filter>
<filter id="filter1_d_2885_5661" x="430.877" y="63.668" width="136" height="58.3052" filterUnits="userSpaceOnUse" color-interpolation-filters="sRGB">
<feFlood flood-opacity="0" result="BackgroundImageFix"/>
<feColorMatrix in="SourceAlpha" type="matrix" values="0 0 0 0 0 0 0 0 0 0 0 0 0 0 0 0 0 0 127 0" result="hardAlpha"/>
<feMorphology radius="3" operator="erode" in="SourceAlpha" result="effect1_dropShadow_2885_5661"/>
<feOffset dy="5"/>
<feGaussianBlur stdDeviation="8"/>
<feComposite in2="hardAlpha" operator="out"/>
<feColorMatrix type="matrix" values="0 0 0 0 0 0 0 0 0 0 0 0 0 0 0 0 0 0 0.15 0"/>
<feBlend mode="normal" in2="BackgroundImageFix" result="effect1_dropShadow_2885_5661"/>
<feBlend mode="normal" in="SourceGraphic" in2="effect1_dropShadow_2885_5661" result="shape"/>
</filter>
<filter id="filter2_d_2885_5661" x="706.877" y="63.668" width="136" height="58.3052" filterUnits="userSpaceOnUse" color-interpolation-filters="sRGB">
<feFlood flood-opacity="0" result="BackgroundImageFix"/>
<feColorMatrix in="SourceAlpha" type="matrix" values="0 0 0 0 0 0 0 0 0 0 0 0 0 0 0 0 0 0 127 0" result="hardAlpha"/>
<feMorphology radius="3" operator="erode" in="SourceAlpha" result="effect1_dropShadow_2885_5661"/>
<feOffset dy="5"/>
<feGaussianBlur stdDeviation="8"/>
<feComposite in2="hardAlpha" operator="out"/>
<feColorMatrix type="matrix" values="0 0 0 0 0 0 0 0 0 0 0 0 0 0 0 0 0 0 0.15 0"/>
<feBlend mode="normal" in2="BackgroundImageFix" result="effect1_dropShadow_2885_5661"/>
<feBlend mode="normal" in="SourceGraphic" in2="effect1_dropShadow_2885_5661" result="shape"/>
</filter>
<filter id="filter3_d_2885_5661" x="568.877" y="63.668" width="136" height="58.3052" filterUnits="userSpaceOnUse" color-interpolation-filters="sRGB">
<feFlood flood-opacity="0" result="BackgroundImageFix"/>
<feColorMatrix in="SourceAlpha" type="matrix" values="0 0 0 0 0 0 0 0 0 0 0 0 0 0 0 0 0 0 127 0" result="hardAlpha"/>
<feMorphology radius="3" operator="erode" in="SourceAlpha" result="effect1_dropShadow_2885_5661"/>
<feOffset dy="5"/>
<feGaussianBlur stdDeviation="8"/>
<feComposite in2="hardAlpha" operator="out"/>
<feColorMatrix type="matrix" values="0 0 0 0 0 0 0 0 0 0 0 0 0 0 0 0 0 0 0.15 0"/>
<feBlend mode="normal" in2="BackgroundImageFix" result="effect1_dropShadow_2885_5661"/>
<feBlend mode="normal" in="SourceGraphic" in2="effect1_dropShadow_2885_5661" result="shape"/>
</filter>
</defs>
</svg>
