<svg width="458" height="445" viewBox="0 0 458 445" fill="none" xmlns="http://www.w3.org/2000/svg">
<path fill-rule="evenodd" clip-rule="evenodd" d="M282.385 380.231C282.189 380.427 281.873 380.427 281.677 380.231L277.031 375.585L272.385 380.231C272.189 380.427 271.873 380.427 271.677 380.231C271.482 380.036 271.482 379.72 271.677 379.524L276.677 374.524C276.873 374.329 277.189 374.329 277.385 374.524L282.385 379.524C282.58 379.72 282.58 380.036 282.385 380.231Z" fill="white" stroke="white" stroke-linecap="round" stroke-linejoin="round"/>
<g filter="url(#filter0_d_2885_5662)">
<rect x="24.3438" y="20.3779" width="409.295" height="396" rx="10" fill="white"/>
</g>
<rect x="56.1658" y="343.825" width="4" height="39.1055" rx="2" fill="#7B61FF"/>
<path d="M70.6404 344.425V354.378H69.321V344.425H70.6404ZM76.6492 344.425L72.5134 349.066L70.1892 351.479L69.9705 350.071L71.7205 348.144L75.0632 344.425H76.6492ZM75.3777 354.378L71.6931 349.524L72.4792 348.479L76.95 354.378H75.3777ZM80.8123 354.515C80.2973 354.515 79.8302 354.428 79.4109 354.255C78.9962 354.077 78.6384 353.829 78.3376 353.51C78.0414 353.191 77.8136 352.812 77.6541 352.375C77.4945 351.938 77.4148 351.459 77.4148 350.939V350.652C77.4148 350.051 77.5037 349.515 77.6814 349.046C77.8591 348.572 78.1007 348.171 78.406 347.843C78.7113 347.515 79.0577 347.266 79.4451 347.098C79.8324 346.929 80.2335 346.845 80.6482 346.845C81.1768 346.845 81.6326 346.936 82.0154 347.118C82.4028 347.3 82.7195 347.556 82.9656 347.884C83.2117 348.207 83.394 348.59 83.5125 349.032C83.6309 349.47 83.6902 349.948 83.6902 350.468V351.035H78.1667V350.003H82.4255V349.907C82.4073 349.579 82.3389 349.26 82.2205 348.95C82.1065 348.64 81.9242 348.385 81.6736 348.185C81.4229 347.984 81.0811 347.884 80.6482 347.884C80.3611 347.884 80.0968 347.945 79.8552 348.068C79.6137 348.187 79.4063 348.365 79.2332 348.602C79.06 348.839 78.9255 349.128 78.8298 349.47C78.7341 349.812 78.6863 350.206 78.6863 350.652V350.939C78.6863 351.29 78.7341 351.621 78.8298 351.931C78.9301 352.236 79.0736 352.505 79.2605 352.737C79.4519 352.97 79.682 353.152 79.9509 353.284C80.2244 353.416 80.5343 353.482 80.8806 353.482C81.3272 353.482 81.7055 353.391 82.0154 353.209C82.3253 353.027 82.5964 352.783 82.8289 352.478L83.5945 353.086C83.435 353.327 83.2322 353.558 82.9861 353.776C82.74 353.995 82.4369 354.173 82.0769 354.31C81.7214 354.446 81.2999 354.515 80.8123 354.515ZM89.4734 352.416C89.4734 352.234 89.4324 352.065 89.3503 351.91C89.2729 351.751 89.1111 351.607 88.865 351.479C88.6235 351.347 88.2589 351.233 87.7712 351.138C87.3611 351.051 86.9897 350.949 86.657 350.83C86.3289 350.712 86.0486 350.568 85.8162 350.399C85.5883 350.231 85.4128 350.033 85.2898 349.805C85.1667 349.577 85.1052 349.31 85.1052 349.005C85.1052 348.713 85.169 348.438 85.2966 348.178C85.4288 347.918 85.6134 347.688 85.8503 347.487C86.0919 347.287 86.3813 347.13 86.7185 347.016C87.0557 346.902 87.4317 346.845 87.8464 346.845C88.4389 346.845 88.9447 346.95 89.364 347.159C89.7833 347.369 90.1046 347.649 90.3279 348C90.5512 348.346 90.6628 348.731 90.6628 349.155H89.3982C89.3982 348.95 89.3367 348.752 89.2136 348.561C89.0951 348.365 88.9197 348.203 88.6873 348.075C88.4594 347.948 88.1791 347.884 87.8464 347.884C87.4955 347.884 87.2107 347.938 86.9919 348.048C86.7778 348.153 86.6205 348.287 86.5203 348.451C86.4246 348.615 86.3767 348.788 86.3767 348.971C86.3767 349.107 86.3995 349.23 86.4451 349.34C86.4952 349.445 86.5818 349.543 86.7048 349.634C86.8279 349.72 87.0011 349.802 87.2244 349.88C87.4477 349.957 87.7325 350.035 88.0789 350.112C88.685 350.249 89.184 350.413 89.5759 350.604C89.9679 350.796 90.2595 351.031 90.4509 351.309C90.6423 351.587 90.738 351.924 90.738 352.32C90.738 352.644 90.6697 352.94 90.533 353.209C90.4008 353.478 90.2071 353.71 89.9519 353.906C89.7013 354.098 89.4005 354.248 89.0496 354.357C88.7032 354.462 88.3136 354.515 87.8806 354.515C87.2289 354.515 86.6775 354.398 86.2263 354.166C85.7751 353.934 85.4333 353.633 85.2009 353.264C84.9685 352.895 84.8523 352.505 84.8523 352.095H86.1238C86.142 352.441 86.2423 352.717 86.4246 352.922C86.6069 353.122 86.8302 353.266 87.0945 353.353C87.3588 353.435 87.6208 353.476 87.8806 353.476C88.227 353.476 88.5164 353.43 88.7488 353.339C88.9858 353.248 89.1658 353.122 89.2888 352.963C89.4119 352.803 89.4734 352.621 89.4734 352.416ZM93.6638 343.878V354.378H92.3992V343.878H93.6638ZM93.363 350.399L92.8367 350.379C92.8412 349.873 92.9164 349.406 93.0623 348.978C93.2081 348.545 93.4132 348.169 93.6775 347.85C93.9418 347.531 94.2563 347.285 94.6208 347.111C94.99 346.934 95.3979 346.845 95.8445 346.845C96.2091 346.845 96.5372 346.895 96.8289 346.995C97.1205 347.091 97.3689 347.246 97.574 347.46C97.7836 347.674 97.9431 347.952 98.0525 348.294C98.1619 348.631 98.2166 349.044 98.2166 349.531V354.378H96.9451V349.518C96.9451 349.13 96.8881 348.82 96.7742 348.588C96.6602 348.351 96.4939 348.18 96.2751 348.075C96.0564 347.966 95.7875 347.911 95.4685 347.911C95.1541 347.911 94.8669 347.977 94.6072 348.109C94.352 348.242 94.1309 348.424 93.9441 348.656C93.7618 348.889 93.6182 349.155 93.5134 349.456C93.4132 349.752 93.363 350.067 93.363 350.399ZM103.179 354.515C102.664 354.515 102.197 354.428 101.778 354.255C101.363 354.077 101.006 353.829 100.705 353.51C100.409 353.191 100.181 352.812 100.021 352.375C99.8617 351.938 99.782 351.459 99.782 350.939V350.652C99.782 350.051 99.8708 349.515 100.049 349.046C100.226 348.572 100.468 348.171 100.773 347.843C101.079 347.515 101.425 347.266 101.812 347.098C102.2 346.929 102.601 346.845 103.015 346.845C103.544 346.845 104 346.936 104.383 347.118C104.77 347.3 105.087 347.556 105.333 347.884C105.579 348.207 105.761 348.59 105.88 349.032C105.998 349.47 106.057 349.948 106.057 350.468V351.035H100.534V350.003H104.793V349.907C104.774 349.579 104.706 349.26 104.588 348.95C104.474 348.64 104.291 348.385 104.041 348.185C103.79 347.984 103.448 347.884 103.015 347.884C102.728 347.884 102.464 347.945 102.222 348.068C101.981 348.187 101.774 348.365 101.6 348.602C101.427 348.839 101.293 349.128 101.197 349.47C101.101 349.812 101.053 350.206 101.053 350.652V350.939C101.053 351.29 101.101 351.621 101.197 351.931C101.297 352.236 101.441 352.505 101.628 352.737C101.819 352.97 102.049 353.152 102.318 353.284C102.592 353.416 102.901 353.482 103.248 353.482C103.694 353.482 104.073 353.391 104.383 353.209C104.692 353.027 104.964 352.783 105.196 352.478L105.962 353.086C105.802 353.327 105.599 353.558 105.353 353.776C105.107 353.995 104.804 354.173 104.444 354.31C104.089 354.446 103.667 354.515 103.179 354.515ZM108.799 348.144V354.378H107.534V346.981H108.764L108.799 348.144ZM111.109 346.94L111.102 348.116C110.997 348.093 110.897 348.08 110.802 348.075C110.71 348.066 110.606 348.062 110.487 348.062C110.195 348.062 109.938 348.107 109.715 348.198C109.491 348.289 109.302 348.417 109.147 348.581C108.992 348.745 108.869 348.941 108.778 349.169C108.691 349.392 108.635 349.638 108.607 349.907L108.252 350.112C108.252 349.666 108.295 349.246 108.382 348.854C108.473 348.463 108.612 348.116 108.799 347.815C108.985 347.51 109.222 347.273 109.51 347.104C109.801 346.931 110.148 346.845 110.549 346.845C110.64 346.845 110.745 346.856 110.863 346.879C110.982 346.897 111.064 346.918 111.109 346.94Z" fill="black"/>
<path d="M76.3689 364.042H76.7205V366.122H76.5544C75.7667 366.122 75.0733 366.243 74.4744 366.483C73.8819 366.724 73.3871 367.063 72.99 367.499C72.5994 367.929 72.3031 368.44 72.1013 369.032C71.8995 369.618 71.7986 370.259 71.7986 370.956V373.261C71.7986 373.801 71.8539 374.276 71.9646 374.687C72.0818 375.09 72.2413 375.432 72.4431 375.712C72.6514 375.985 72.8923 376.19 73.1658 376.327C73.4457 376.464 73.7517 376.532 74.0837 376.532C74.4158 376.532 74.7153 376.464 74.9822 376.327C75.2491 376.19 75.477 375.998 75.6658 375.751C75.8611 375.497 76.0076 375.201 76.1052 374.862C76.2094 374.524 76.2615 374.153 76.2615 373.749C76.2615 373.352 76.2126 372.984 76.115 372.646C76.0173 372.307 75.8741 372.011 75.6853 371.757C75.4965 371.496 75.2621 371.298 74.9822 371.161C74.7087 371.018 74.3962 370.946 74.0447 370.946C73.5889 370.946 73.182 371.054 72.824 371.269C72.4659 371.477 72.1827 371.75 71.9744 372.089C71.766 372.427 71.6521 372.785 71.6326 373.163L70.7634 372.733C70.796 372.18 70.9132 371.672 71.115 371.21C71.3233 370.748 71.6 370.344 71.9451 369.999C72.2966 369.654 72.71 369.387 73.1853 369.198C73.6671 369.009 74.2009 368.915 74.7869 368.915C75.4639 368.915 76.0564 369.045 76.5642 369.306C77.072 369.56 77.4919 369.908 77.824 370.351C78.1625 370.793 78.4164 371.304 78.5857 371.884C78.755 372.457 78.8396 373.062 78.8396 373.7C78.8396 374.384 78.7289 375.022 78.5076 375.614C78.2927 376.207 77.9802 376.724 77.5701 377.167C77.1599 377.61 76.6651 377.955 76.0857 378.202C75.5063 378.45 74.8552 378.573 74.1326 378.573C73.3708 378.573 72.6873 378.43 72.0818 378.144C71.4828 377.857 70.9685 377.46 70.5388 376.952C70.1091 376.444 69.7804 375.852 69.5525 375.175C69.3246 374.498 69.2107 373.765 69.2107 372.978V371.942C69.2107 370.829 69.3637 369.794 69.6697 368.837C69.9757 367.88 70.4281 367.043 71.0271 366.327C71.6326 365.604 72.3813 365.045 73.2732 364.647C74.1651 364.244 75.197 364.042 76.3689 364.042ZM90.0505 374.491C90.0505 375.377 89.8422 376.125 89.4255 376.737C89.0154 377.343 88.4522 377.802 87.7361 378.114C87.0264 378.42 86.2192 378.573 85.3142 378.573C84.4158 378.573 83.6052 378.42 82.8826 378.114C82.1664 377.802 81.5968 377.343 81.1736 376.737C80.7569 376.125 80.5486 375.377 80.5486 374.491C80.5486 373.899 80.6658 373.362 80.9001 372.88C81.141 372.398 81.4731 371.985 81.8962 371.64C82.3194 371.288 82.8207 371.021 83.4001 370.839C83.9796 370.65 84.6111 370.556 85.2947 370.556C86.2061 370.556 87.0199 370.722 87.7361 371.054C88.4587 371.379 89.0251 371.838 89.4353 372.431C89.8455 373.017 90.0505 373.703 90.0505 374.491ZM87.4529 374.335C87.4529 373.879 87.3617 373.485 87.1794 373.153C87.0037 372.815 86.753 372.554 86.4275 372.372C86.102 372.19 85.7244 372.099 85.2947 372.099C84.8585 372.099 84.4776 372.19 84.1521 372.372C83.8331 372.554 83.5824 372.815 83.4001 373.153C83.2244 373.485 83.1365 373.879 83.1365 374.335C83.1365 374.797 83.2244 375.194 83.4001 375.526C83.5824 375.852 83.8363 376.103 84.1619 376.278C84.4874 376.454 84.8715 376.542 85.3142 376.542C85.7569 376.542 86.1378 376.454 86.4568 376.278C86.7758 376.103 87.0199 375.852 87.1892 375.526C87.365 375.194 87.4529 374.797 87.4529 374.335ZM89.738 367.909C89.738 368.625 89.5492 369.263 89.1716 369.823C88.794 370.377 88.2699 370.81 87.5994 371.122C86.9353 371.435 86.1736 371.591 85.3142 371.591C84.4548 371.591 83.6866 371.435 83.0095 371.122C82.3389 370.81 81.8116 370.377 81.4275 369.823C81.0499 369.263 80.8611 368.625 80.8611 367.909C80.8611 367.063 81.0531 366.347 81.4373 365.761C81.8214 365.168 82.3455 364.719 83.0095 364.413C83.6801 364.107 84.4418 363.954 85.2947 363.954C86.1606 363.954 86.9288 364.107 87.5994 364.413C88.2699 364.719 88.794 365.168 89.1716 365.761C89.5492 366.347 89.738 367.063 89.738 367.909ZM87.1599 368.017C87.1599 367.613 87.085 367.261 86.9353 366.962C86.7856 366.656 86.5707 366.418 86.2908 366.249C86.0173 366.08 85.6853 365.995 85.2947 365.995C84.9171 365.995 84.5916 366.076 84.3181 366.239C84.0447 366.402 83.8331 366.636 83.6833 366.942C83.5336 367.242 83.4587 367.6 83.4587 368.017C83.4587 368.427 83.5336 368.785 83.6833 369.091C83.8331 369.397 84.0447 369.638 84.3181 369.813C84.5981 369.983 84.9301 370.067 85.3142 370.067C85.6983 370.067 86.0271 369.983 86.3005 369.813C86.574 369.638 86.7856 369.397 86.9353 369.091C87.085 368.785 87.1599 368.427 87.1599 368.017Z" fill="#1D2129"/>
<path d="M95.1698 373.282C95.1698 373.098 95.1818 372.906 95.2058 372.706C95.2298 372.498 95.2778 372.31 95.3498 372.142C95.4298 371.966 95.5378 371.822 95.6738 371.71C95.8098 371.59 95.9898 371.53 96.2138 371.53C96.4458 371.53 96.6258 371.59 96.7538 371.71C96.8898 371.822 96.9938 371.966 97.0658 372.142C97.1378 372.31 97.1818 372.498 97.1978 372.706C97.2218 372.906 97.2338 373.094 97.2338 373.27C97.2338 373.454 97.2218 373.65 97.1978 373.858C97.1738 374.066 97.1218 374.258 97.0418 374.434C96.9698 374.602 96.8658 374.742 96.7298 374.854C96.5938 374.966 96.4098 375.022 96.1778 375.022C95.9538 375.022 95.7738 374.966 95.6378 374.854C95.5098 374.734 95.4098 374.59 95.3378 374.422C95.2658 374.246 95.2178 374.058 95.1938 373.858C95.1778 373.65 95.1698 373.458 95.1698 373.282ZM94.2698 373.306C94.2698 373.634 94.3018 373.942 94.3658 374.23C94.4378 374.518 94.5498 374.77 94.7018 374.986C94.8538 375.202 95.0538 375.374 95.3018 375.502C95.5498 375.622 95.8538 375.682 96.2138 375.682C96.5658 375.682 96.8618 375.614 97.1018 375.478C97.3418 375.342 97.5378 375.166 97.6898 374.95C97.8498 374.726 97.9618 374.47 98.0258 374.182C98.0978 373.886 98.1338 373.582 98.1338 373.27C98.1338 372.942 98.1018 372.634 98.0378 372.346C97.9818 372.05 97.8778 371.794 97.7258 371.578C97.5818 371.362 97.3858 371.19 97.1378 371.062C96.8978 370.934 96.5898 370.87 96.2138 370.87C95.8458 370.87 95.5378 370.938 95.2898 371.074C95.0418 371.202 94.8418 371.378 94.6898 371.602C94.5378 371.826 94.4298 372.086 94.3658 372.382C94.3018 372.67 94.2698 372.978 94.2698 373.306ZM101.098 377.122C101.098 376.938 101.11 376.746 101.134 376.546C101.158 376.338 101.206 376.15 101.278 375.982C101.358 375.806 101.466 375.662 101.602 375.55C101.738 375.43 101.918 375.37 102.142 375.37C102.374 375.37 102.554 375.43 102.682 375.55C102.818 375.662 102.922 375.806 102.994 375.982C103.066 376.15 103.11 376.338 103.126 376.546C103.15 376.746 103.162 376.934 103.162 377.11C103.162 377.294 103.15 377.49 103.126 377.698C103.102 377.906 103.05 378.098 102.97 378.274C102.898 378.442 102.794 378.582 102.658 378.694C102.522 378.806 102.338 378.862 102.106 378.862C101.882 378.862 101.702 378.806 101.566 378.694C101.438 378.574 101.338 378.43 101.266 378.262C101.194 378.086 101.146 377.898 101.122 377.698C101.106 377.49 101.098 377.298 101.098 377.122ZM100.198 377.146C100.198 377.474 100.23 377.782 100.294 378.07C100.366 378.358 100.478 378.61 100.63 378.826C100.782 379.034 100.982 379.202 101.23 379.33C101.478 379.45 101.782 379.51 102.142 379.51C102.494 379.51 102.79 379.446 103.03 379.318C103.27 379.182 103.466 379.006 103.618 378.79C103.778 378.566 103.89 378.31 103.954 378.022C104.026 377.726 104.062 377.422 104.062 377.11C104.062 376.782 104.03 376.474 103.966 376.186C103.91 375.89 103.806 375.634 103.654 375.418C103.51 375.202 103.314 375.03 103.066 374.902C102.826 374.774 102.518 374.71 102.142 374.71C101.774 374.71 101.466 374.778 101.218 374.914C100.97 375.042 100.77 375.218 100.618 375.442C100.466 375.666 100.358 375.926 100.294 376.222C100.23 376.51 100.198 376.818 100.198 377.146ZM101.878 370.714L95.4218 379.63H96.4538L102.898 370.714H101.878Z" fill="#86909C"/>
<rect x="192.991" y="346.378" width="4" height="44" rx="2" fill="#6412C1"/>
<path d="M208.765 356.37L210.74 349.425H211.697L211.144 352.125L209.018 359.378H208.067L208.765 356.37ZM206.721 349.425L208.293 356.233L208.765 359.378H207.821L205.408 349.425H206.721ZM214.254 356.227L215.792 349.425H217.111L214.705 359.378H213.762L214.254 356.227ZM211.841 349.425L213.762 356.37L214.459 359.378H213.509L211.458 352.125L210.897 349.425H211.841ZM219.757 351.981V359.378H218.485V351.981H219.757ZM218.39 350.02C218.39 349.814 218.451 349.641 218.574 349.5C218.702 349.359 218.889 349.288 219.135 349.288C219.376 349.288 219.561 349.359 219.688 349.5C219.821 349.641 219.887 349.814 219.887 350.02C219.887 350.215 219.821 350.384 219.688 350.525C219.561 350.662 219.376 350.73 219.135 350.73C218.889 350.73 218.702 350.662 218.574 350.525C218.451 350.384 218.39 350.215 218.39 350.02ZM223.052 353.561V359.378H221.787V351.981H222.983L223.052 353.561ZM222.751 355.399L222.225 355.379C222.229 354.873 222.304 354.406 222.45 353.978C222.596 353.545 222.801 353.169 223.065 352.85C223.33 352.531 223.644 352.285 224.009 352.111C224.378 351.934 224.786 351.845 225.232 351.845C225.597 351.845 225.925 351.895 226.217 351.995C226.508 352.091 226.757 352.246 226.962 352.46C227.172 352.674 227.331 352.952 227.44 353.294C227.55 353.631 227.604 354.044 227.604 354.531V359.378H226.333V354.518C226.333 354.13 226.276 353.82 226.162 353.588C226.048 353.351 225.882 353.18 225.663 353.075C225.444 352.966 225.175 352.911 224.856 352.911C224.542 352.911 224.255 352.977 223.995 353.109C223.74 353.242 223.519 353.424 223.332 353.656C223.15 353.889 223.006 354.155 222.901 354.456C222.801 354.752 222.751 355.067 222.751 355.399ZM232.595 359.515C232.08 359.515 231.613 359.428 231.193 359.255C230.779 359.077 230.421 358.829 230.12 358.51C229.824 358.191 229.596 357.812 229.437 357.375C229.277 356.938 229.197 356.459 229.197 355.939V355.652C229.197 355.051 229.286 354.515 229.464 354.046C229.642 353.572 229.883 353.171 230.188 352.843C230.494 352.515 230.84 352.266 231.228 352.098C231.615 351.929 232.016 351.845 232.431 351.845C232.959 351.845 233.415 351.936 233.798 352.118C234.185 352.3 234.502 352.556 234.748 352.884C234.994 353.207 235.176 353.59 235.295 354.032C235.413 354.47 235.473 354.948 235.473 355.468V356.035H229.949V355.003H234.208V354.907C234.19 354.579 234.121 354.26 234.003 353.95C233.889 353.64 233.707 353.385 233.456 353.185C233.205 352.984 232.864 352.884 232.431 352.884C232.144 352.884 231.879 352.945 231.638 353.068C231.396 353.187 231.189 353.365 231.016 353.602C230.842 353.839 230.708 354.128 230.612 354.47C230.517 354.812 230.469 355.206 230.469 355.652V355.939C230.469 356.29 230.517 356.621 230.612 356.931C230.713 357.236 230.856 357.505 231.043 357.737C231.234 357.97 231.465 358.152 231.733 358.284C232.007 358.416 232.317 358.482 232.663 358.482C233.11 358.482 233.488 358.391 233.798 358.209C234.108 358.027 234.379 357.783 234.611 357.478L235.377 358.086C235.217 358.327 235.015 358.558 234.769 358.776C234.522 358.995 234.219 359.173 233.859 359.31C233.504 359.446 233.082 359.515 232.595 359.515ZM238.207 353.451V359.378H236.936V351.981H238.139L238.207 353.451ZM237.947 355.399L237.359 355.379C237.364 354.873 237.43 354.406 237.558 353.978C237.685 353.545 237.874 353.169 238.125 352.85C238.376 352.531 238.688 352.285 239.062 352.111C239.435 351.934 239.868 351.845 240.36 351.845C240.707 351.845 241.026 351.895 241.317 351.995C241.609 352.091 241.862 352.243 242.076 352.453C242.29 352.663 242.457 352.932 242.575 353.26C242.694 353.588 242.753 353.984 242.753 354.449V359.378H241.488V354.511C241.488 354.123 241.422 353.813 241.29 353.581C241.162 353.349 240.98 353.18 240.743 353.075C240.506 352.966 240.228 352.911 239.909 352.911C239.535 352.911 239.223 352.977 238.973 353.109C238.722 353.242 238.521 353.424 238.371 353.656C238.221 353.889 238.111 354.155 238.043 354.456C237.979 354.752 237.947 355.067 237.947 355.399ZM242.739 354.702L241.892 354.962C241.896 354.556 241.962 354.167 242.09 353.793C242.222 353.419 242.411 353.087 242.657 352.795C242.908 352.503 243.215 352.273 243.58 352.104C243.945 351.931 244.362 351.845 244.831 351.845C245.228 351.845 245.578 351.897 245.884 352.002C246.194 352.107 246.453 352.269 246.663 352.487C246.877 352.701 247.039 352.977 247.148 353.314C247.258 353.652 247.312 354.053 247.312 354.518V359.378H246.041V354.504C246.041 354.089 245.975 353.768 245.843 353.54C245.715 353.308 245.533 353.146 245.296 353.055C245.063 352.959 244.785 352.911 244.462 352.911C244.184 352.911 243.938 352.959 243.724 353.055C243.509 353.15 243.329 353.283 243.184 353.451C243.038 353.615 242.926 353.804 242.849 354.019C242.776 354.233 242.739 354.461 242.739 354.702ZM248.892 355.762V355.604C248.892 355.071 248.969 354.577 249.124 354.121C249.279 353.661 249.502 353.262 249.794 352.925C250.086 352.583 250.439 352.319 250.854 352.132C251.268 351.94 251.733 351.845 252.248 351.845C252.768 351.845 253.235 351.94 253.649 352.132C254.069 352.319 254.424 352.583 254.716 352.925C255.012 353.262 255.238 353.661 255.393 354.121C255.548 354.577 255.625 355.071 255.625 355.604V355.762C255.625 356.295 255.548 356.789 255.393 357.245C255.238 357.701 255.012 358.1 254.716 358.441C254.424 358.779 254.071 359.043 253.656 359.234C253.246 359.421 252.781 359.515 252.262 359.515C251.742 359.515 251.275 359.421 250.86 359.234C250.446 359.043 250.09 358.779 249.794 358.441C249.502 358.1 249.279 357.701 249.124 357.245C248.969 356.789 248.892 356.295 248.892 355.762ZM250.156 355.604V355.762C250.156 356.131 250.2 356.479 250.286 356.808C250.373 357.131 250.503 357.418 250.676 357.669C250.854 357.92 251.075 358.118 251.339 358.264C251.603 358.405 251.911 358.476 252.262 358.476C252.608 358.476 252.911 358.405 253.171 358.264C253.435 358.118 253.654 357.92 253.827 357.669C254 357.418 254.13 357.131 254.217 356.808C254.308 356.479 254.354 356.131 254.354 355.762V355.604C254.354 355.24 254.308 354.896 254.217 354.572C254.13 354.244 253.998 353.955 253.82 353.704C253.647 353.449 253.428 353.248 253.164 353.103C252.904 352.957 252.599 352.884 252.248 352.884C251.902 352.884 251.596 352.957 251.332 353.103C251.072 353.248 250.854 353.449 250.676 353.704C250.503 353.955 250.373 354.244 250.286 354.572C250.2 354.896 250.156 355.24 250.156 355.604ZM258.476 353.561V359.378H257.211V351.981H258.407L258.476 353.561ZM258.175 355.399L257.648 355.379C257.653 354.873 257.728 354.406 257.874 353.978C258.02 353.545 258.225 353.169 258.489 352.85C258.754 352.531 259.068 352.285 259.433 352.111C259.802 351.934 260.21 351.845 260.656 351.845C261.021 351.845 261.349 351.895 261.641 351.995C261.932 352.091 262.181 352.246 262.386 352.46C262.595 352.674 262.755 352.952 262.864 353.294C262.974 353.631 263.028 354.044 263.028 354.531V359.378H261.757V354.518C261.757 354.13 261.7 353.82 261.586 353.588C261.472 353.351 261.306 353.18 261.087 353.075C260.868 352.966 260.599 352.911 260.28 352.911C259.966 352.911 259.679 352.977 259.419 353.109C259.164 353.242 258.943 353.424 258.756 353.656C258.574 353.889 258.43 354.155 258.325 354.456C258.225 354.752 258.175 355.067 258.175 355.399ZM269.741 351.981H270.89V359.221C270.89 359.872 270.757 360.428 270.493 360.889C270.229 361.349 269.86 361.698 269.386 361.935C268.916 362.176 268.374 362.297 267.759 362.297C267.504 362.297 267.203 362.256 266.856 362.174C266.515 362.096 266.177 361.962 265.845 361.771C265.517 361.584 265.241 361.331 265.018 361.012L265.681 360.26C265.991 360.633 266.314 360.893 266.651 361.039C266.993 361.185 267.33 361.258 267.663 361.258C268.064 361.258 268.41 361.183 268.702 361.032C268.994 360.882 269.219 360.659 269.379 360.362C269.543 360.071 269.625 359.711 269.625 359.282V353.608L269.741 351.981ZM264.648 355.762V355.618C264.648 355.053 264.715 354.54 264.847 354.08C264.983 353.615 265.177 353.216 265.428 352.884C265.683 352.551 265.991 352.296 266.351 352.118C266.711 351.936 267.116 351.845 267.567 351.845C268.032 351.845 268.438 351.927 268.784 352.091C269.135 352.25 269.431 352.485 269.673 352.795C269.919 353.1 270.113 353.469 270.254 353.902C270.395 354.335 270.493 354.825 270.548 355.372V356.001C270.498 356.543 270.4 357.031 270.254 357.464C270.113 357.897 269.919 358.266 269.673 358.571C269.431 358.877 269.135 359.111 268.784 359.275C268.433 359.435 268.023 359.515 267.554 359.515C267.112 359.515 266.711 359.421 266.351 359.234C265.995 359.048 265.69 358.785 265.435 358.448C265.179 358.111 264.983 357.715 264.847 357.259C264.715 356.799 264.648 356.299 264.648 355.762ZM265.913 355.618V355.762C265.913 356.131 265.95 356.477 266.022 356.801C266.1 357.124 266.216 357.409 266.371 357.655C266.531 357.901 266.733 358.095 266.979 358.236C267.226 358.373 267.52 358.441 267.861 358.441C268.281 358.441 268.627 358.353 268.9 358.175C269.174 357.997 269.39 357.762 269.55 357.471C269.714 357.179 269.841 356.862 269.933 356.521V354.873C269.882 354.622 269.805 354.381 269.7 354.148C269.6 353.911 269.468 353.702 269.304 353.52C269.144 353.333 268.946 353.185 268.709 353.075C268.472 352.966 268.194 352.911 267.875 352.911C267.529 352.911 267.23 352.984 266.979 353.13C266.733 353.271 266.531 353.467 266.371 353.718C266.216 353.964 266.1 354.251 266.022 354.579C265.95 354.903 265.913 355.249 265.913 355.618ZM275.88 359.515C275.365 359.515 274.898 359.428 274.479 359.255C274.064 359.077 273.706 358.829 273.405 358.51C273.109 358.191 272.881 357.812 272.722 357.375C272.562 356.938 272.482 356.459 272.482 355.939V355.652C272.482 355.051 272.571 354.515 272.749 354.046C272.927 353.572 273.168 353.171 273.474 352.843C273.779 352.515 274.125 352.266 274.513 352.098C274.9 351.929 275.301 351.845 275.716 351.845C276.244 351.845 276.7 351.936 277.083 352.118C277.47 352.3 277.787 352.556 278.033 352.884C278.279 353.207 278.462 353.59 278.58 354.032C278.699 354.47 278.758 354.948 278.758 355.468V356.035H273.234V355.003H277.493V354.907C277.475 354.579 277.407 354.26 277.288 353.95C277.174 353.64 276.992 353.385 276.741 353.185C276.491 352.984 276.149 352.884 275.716 352.884C275.429 352.884 275.164 352.945 274.923 353.068C274.681 353.187 274.474 353.365 274.301 353.602C274.128 353.839 273.993 354.128 273.897 354.47C273.802 354.812 273.754 355.206 273.754 355.652V355.939C273.754 356.29 273.802 356.621 273.897 356.931C273.998 357.236 274.141 357.505 274.328 357.737C274.52 357.97 274.75 358.152 275.019 358.284C275.292 358.416 275.602 358.482 275.948 358.482C276.395 358.482 276.773 358.391 277.083 358.209C277.393 358.027 277.664 357.783 277.896 357.478L278.662 358.086C278.503 358.327 278.3 358.558 278.054 358.776C277.808 358.995 277.505 359.173 277.145 359.31C276.789 359.446 276.368 359.515 275.88 359.515ZM281.499 353.144V359.378H280.234V351.981H281.465L281.499 353.144ZM283.81 351.94L283.803 353.116C283.698 353.093 283.598 353.08 283.502 353.075C283.411 353.066 283.306 353.062 283.188 353.062C282.896 353.062 282.638 353.107 282.415 353.198C282.192 353.289 282.003 353.417 281.848 353.581C281.693 353.745 281.57 353.941 281.479 354.169C281.392 354.392 281.335 354.638 281.308 354.907L280.952 355.112C280.952 354.666 280.995 354.246 281.082 353.854C281.173 353.463 281.312 353.116 281.499 352.815C281.686 352.51 281.923 352.273 282.21 352.104C282.502 351.931 282.848 351.845 283.249 351.845C283.34 351.845 283.445 351.856 283.563 351.879C283.682 351.897 283.764 351.918 283.81 351.94Z" fill="black"/>
<path d="M208.839 375.126H210.294C210.808 375.126 211.231 375.038 211.563 374.862C211.902 374.68 212.153 374.433 212.315 374.12C212.485 373.801 212.569 373.433 212.569 373.017C212.569 372.606 212.494 372.252 212.345 371.952C212.195 371.646 211.967 371.412 211.661 371.249C211.362 371.08 210.978 370.995 210.509 370.995C210.131 370.995 209.783 371.07 209.464 371.22C209.151 371.369 208.901 371.584 208.712 371.864C208.53 372.138 208.438 372.466 208.438 372.851H205.851C205.851 372.082 206.052 371.409 206.456 370.829C206.866 370.243 207.42 369.784 208.116 369.452C208.813 369.12 209.591 368.954 210.45 368.954C211.388 368.954 212.208 369.11 212.911 369.423C213.621 369.729 214.171 370.181 214.562 370.78C214.959 371.379 215.157 372.121 215.157 373.007C215.157 373.43 215.056 373.853 214.854 374.276C214.659 374.693 214.369 375.071 213.985 375.409C213.608 375.741 213.142 376.011 212.589 376.22C212.042 376.422 211.414 376.522 210.704 376.522H208.839V375.126ZM208.839 377.118V375.741H210.704C211.505 375.741 212.198 375.836 212.784 376.024C213.377 376.207 213.865 376.467 214.249 376.806C214.633 377.138 214.916 377.525 215.099 377.968C215.287 378.41 215.382 378.886 215.382 379.394C215.382 380.058 215.258 380.65 215.011 381.171C214.763 381.685 214.415 382.121 213.966 382.479C213.523 382.838 213.002 383.111 212.403 383.3C211.804 383.482 211.157 383.573 210.46 383.573C209.854 383.573 209.265 383.492 208.692 383.329C208.126 383.16 207.615 382.909 207.159 382.577C206.703 382.239 206.342 381.815 206.075 381.308C205.808 380.793 205.675 380.198 205.675 379.521H208.263C208.263 379.911 208.357 380.259 208.546 380.565C208.741 380.871 209.008 381.112 209.347 381.288C209.692 381.457 210.079 381.542 210.509 381.542C210.984 381.542 211.391 381.457 211.729 381.288C212.075 381.112 212.338 380.865 212.521 380.546C212.703 380.22 212.794 379.833 212.794 379.384C212.794 378.85 212.693 378.417 212.491 378.085C212.289 377.753 212 377.509 211.622 377.353C211.251 377.196 210.808 377.118 210.294 377.118H208.839ZM226.856 375.048V377.44C226.856 378.534 226.746 379.468 226.524 380.243C226.303 381.018 225.984 381.653 225.567 382.147C225.151 382.636 224.653 382.997 224.073 383.231C223.494 383.459 222.849 383.573 222.14 383.573C221.573 383.573 221.046 383.502 220.558 383.358C220.069 383.209 219.63 382.981 219.239 382.675C218.855 382.362 218.523 381.965 218.243 381.483C217.97 381.002 217.758 380.425 217.608 379.755C217.465 379.084 217.394 378.313 217.394 377.44V375.048C217.394 373.954 217.504 373.023 217.726 372.255C217.953 371.487 218.276 370.858 218.692 370.37C219.109 369.882 219.607 369.527 220.187 369.306C220.766 369.078 221.41 368.964 222.12 368.964C222.693 368.964 223.22 369.035 223.702 369.179C224.19 369.322 224.627 369.547 225.011 369.853C225.401 370.152 225.733 370.543 226.007 371.024C226.28 371.5 226.489 372.073 226.632 372.743C226.782 373.407 226.856 374.175 226.856 375.048ZM224.278 377.792V374.687C224.278 374.14 224.246 373.664 224.181 373.261C224.122 372.851 224.034 372.502 223.917 372.216C223.8 371.929 223.653 371.698 223.478 371.522C223.302 371.34 223.1 371.207 222.872 371.122C222.644 371.037 222.394 370.995 222.12 370.995C221.782 370.995 221.479 371.063 221.212 371.2C220.945 371.33 220.72 371.539 220.538 371.825C220.356 372.112 220.216 372.493 220.118 372.968C220.027 373.437 219.981 374.009 219.981 374.687V377.792C219.981 378.339 220.011 378.817 220.069 379.228C220.134 379.638 220.226 379.989 220.343 380.282C220.466 380.575 220.613 380.816 220.782 381.005C220.958 381.187 221.16 381.324 221.388 381.415C221.616 381.5 221.866 381.542 222.14 381.542C222.485 381.542 222.787 381.474 223.048 381.337C223.315 381.2 223.539 380.985 223.722 380.692C223.904 380.393 224.041 380.006 224.132 379.53C224.229 379.049 224.278 378.469 224.278 377.792Z" fill="#1D2129"/>
<path d="M231.995 378.282C231.995 378.098 232.007 377.906 232.031 377.706C232.055 377.498 232.103 377.31 232.175 377.142C232.255 376.966 232.363 376.822 232.499 376.71C232.635 376.59 232.815 376.53 233.039 376.53C233.271 376.53 233.451 376.59 233.579 376.71C233.715 376.822 233.819 376.966 233.891 377.142C233.963 377.31 234.007 377.498 234.023 377.706C234.047 377.906 234.059 378.094 234.059 378.27C234.059 378.454 234.047 378.65 234.023 378.858C233.999 379.066 233.947 379.258 233.867 379.434C233.795 379.602 233.691 379.742 233.555 379.854C233.419 379.966 233.235 380.022 233.003 380.022C232.779 380.022 232.599 379.966 232.463 379.854C232.335 379.734 232.235 379.59 232.163 379.422C232.091 379.246 232.043 379.058 232.019 378.858C232.003 378.65 231.995 378.458 231.995 378.282ZM231.095 378.306C231.095 378.634 231.127 378.942 231.191 379.23C231.263 379.518 231.375 379.77 231.527 379.986C231.679 380.202 231.879 380.374 232.127 380.502C232.375 380.622 232.679 380.682 233.039 380.682C233.391 380.682 233.687 380.614 233.927 380.478C234.167 380.342 234.363 380.166 234.515 379.95C234.675 379.726 234.787 379.47 234.851 379.182C234.923 378.886 234.959 378.582 234.959 378.27C234.959 377.942 234.927 377.634 234.863 377.346C234.807 377.05 234.703 376.794 234.551 376.578C234.407 376.362 234.211 376.19 233.963 376.062C233.723 375.934 233.415 375.87 233.039 375.87C232.671 375.87 232.363 375.938 232.115 376.074C231.867 376.202 231.667 376.378 231.515 376.602C231.363 376.826 231.255 377.086 231.191 377.382C231.127 377.67 231.095 377.978 231.095 378.306ZM237.923 382.122C237.923 381.938 237.935 381.746 237.959 381.546C237.983 381.338 238.031 381.15 238.103 380.982C238.183 380.806 238.291 380.662 238.427 380.55C238.563 380.43 238.743 380.37 238.967 380.37C239.199 380.37 239.379 380.43 239.507 380.55C239.643 380.662 239.747 380.806 239.819 380.982C239.891 381.15 239.935 381.338 239.951 381.546C239.975 381.746 239.987 381.934 239.987 382.11C239.987 382.294 239.975 382.49 239.951 382.698C239.927 382.906 239.875 383.098 239.795 383.274C239.723 383.442 239.619 383.582 239.483 383.694C239.347 383.806 239.163 383.862 238.931 383.862C238.707 383.862 238.527 383.806 238.391 383.694C238.263 383.574 238.163 383.43 238.091 383.262C238.019 383.086 237.971 382.898 237.947 382.698C237.931 382.49 237.923 382.298 237.923 382.122ZM237.023 382.146C237.023 382.474 237.055 382.782 237.119 383.07C237.191 383.358 237.303 383.61 237.455 383.826C237.607 384.034 237.807 384.202 238.055 384.33C238.303 384.45 238.607 384.51 238.967 384.51C239.319 384.51 239.615 384.446 239.855 384.318C240.095 384.182 240.291 384.006 240.443 383.79C240.603 383.566 240.715 383.31 240.779 383.022C240.851 382.726 240.887 382.422 240.887 382.11C240.887 381.782 240.855 381.474 240.791 381.186C240.735 380.89 240.631 380.634 240.479 380.418C240.335 380.202 240.139 380.03 239.891 379.902C239.651 379.774 239.343 379.71 238.967 379.71C238.599 379.71 238.291 379.778 238.043 379.914C237.795 380.042 237.595 380.218 237.443 380.442C237.291 380.666 237.183 380.926 237.119 381.222C237.055 381.51 237.023 381.818 237.023 382.146ZM238.703 375.714L232.247 384.63H233.279L239.723 375.714H238.703Z" fill="#86909C"/>
<rect x="338.166" y="341.378" width="4" height="44" rx="2" fill="#102A43"/>
<path d="M352.64 344.425V354.378H351.321V344.425H352.64ZM358.649 344.425L354.513 349.066L352.189 351.479L351.97 350.071L353.72 348.144L357.063 344.425H358.649ZM357.378 354.378L353.693 349.524L354.479 348.479L358.95 354.378H357.378ZM362.812 354.515C362.297 354.515 361.83 354.428 361.411 354.255C360.996 354.077 360.638 353.829 360.338 353.51C360.041 353.191 359.814 352.812 359.654 352.375C359.495 351.938 359.415 351.459 359.415 350.939V350.652C359.415 350.051 359.504 349.515 359.681 349.046C359.859 348.572 360.101 348.171 360.406 347.843C360.711 347.515 361.058 347.266 361.445 347.098C361.832 346.929 362.233 346.845 362.648 346.845C363.177 346.845 363.633 346.936 364.015 347.118C364.403 347.3 364.719 347.556 364.966 347.884C365.212 348.207 365.394 348.59 365.512 349.032C365.631 349.47 365.69 349.948 365.69 350.468V351.035H360.167V350.003H364.426V349.907C364.407 349.579 364.339 349.26 364.22 348.95C364.107 348.64 363.924 348.385 363.674 348.185C363.423 347.984 363.081 347.884 362.648 347.884C362.361 347.884 362.097 347.945 361.855 348.068C361.614 348.187 361.406 348.365 361.233 348.602C361.06 348.839 360.926 349.128 360.83 349.47C360.734 349.812 360.686 350.206 360.686 350.652V350.939C360.686 351.29 360.734 351.621 360.83 351.931C360.93 352.236 361.074 352.505 361.26 352.737C361.452 352.97 361.682 353.152 361.951 353.284C362.224 353.416 362.534 353.482 362.881 353.482C363.327 353.482 363.705 353.391 364.015 353.209C364.325 353.027 364.596 352.783 364.829 352.478L365.594 353.086C365.435 353.327 365.232 353.558 364.986 353.776C364.74 353.995 364.437 354.173 364.077 354.31C363.721 354.446 363.3 354.515 362.812 354.515ZM371.473 352.416C371.473 352.234 371.432 352.065 371.35 351.91C371.273 351.751 371.111 351.607 370.865 351.479C370.623 351.347 370.259 351.233 369.771 351.138C369.361 351.051 368.99 350.949 368.657 350.83C368.329 350.712 368.049 350.568 367.816 350.399C367.588 350.231 367.413 350.033 367.29 349.805C367.167 349.577 367.105 349.31 367.105 349.005C367.105 348.713 367.169 348.438 367.297 348.178C367.429 347.918 367.613 347.688 367.85 347.487C368.092 347.287 368.381 347.13 368.719 347.016C369.056 346.902 369.432 346.845 369.846 346.845C370.439 346.845 370.945 346.95 371.364 347.159C371.783 347.369 372.105 347.649 372.328 348C372.551 348.346 372.663 348.731 372.663 349.155H371.398C371.398 348.95 371.337 348.752 371.214 348.561C371.095 348.365 370.92 348.203 370.687 348.075C370.459 347.948 370.179 347.884 369.846 347.884C369.496 347.884 369.211 347.938 368.992 348.048C368.778 348.153 368.621 348.287 368.52 348.451C368.425 348.615 368.377 348.788 368.377 348.971C368.377 349.107 368.399 349.23 368.445 349.34C368.495 349.445 368.582 349.543 368.705 349.634C368.828 349.72 369.001 349.802 369.224 349.88C369.448 349.957 369.733 350.035 370.079 350.112C370.685 350.249 371.184 350.413 371.576 350.604C371.968 350.796 372.26 351.031 372.451 351.309C372.642 351.587 372.738 351.924 372.738 352.32C372.738 352.644 372.67 352.94 372.533 353.209C372.401 353.478 372.207 353.71 371.952 353.906C371.701 354.098 371.4 354.248 371.05 354.357C370.703 354.462 370.314 354.515 369.881 354.515C369.229 354.515 368.677 354.398 368.226 354.166C367.775 353.934 367.433 353.633 367.201 353.264C366.969 352.895 366.852 352.505 366.852 352.095H368.124C368.142 352.441 368.242 352.717 368.425 352.922C368.607 353.122 368.83 353.266 369.094 353.353C369.359 353.435 369.621 353.476 369.881 353.476C370.227 353.476 370.516 353.43 370.749 353.339C370.986 353.248 371.166 353.122 371.289 352.963C371.412 352.803 371.473 352.621 371.473 352.416ZM375.664 343.878V354.378H374.399V343.878H375.664ZM375.363 350.399L374.837 350.379C374.841 349.873 374.916 349.406 375.062 348.978C375.208 348.545 375.413 348.169 375.677 347.85C375.942 347.531 376.256 347.285 376.621 347.111C376.99 346.934 377.398 346.845 377.844 346.845C378.209 346.845 378.537 346.895 378.829 346.995C379.121 347.091 379.369 347.246 379.574 347.46C379.784 347.674 379.943 347.952 380.052 348.294C380.162 348.631 380.217 349.044 380.217 349.531V354.378H378.945V349.518C378.945 349.13 378.888 348.82 378.774 348.588C378.66 348.351 378.494 348.18 378.275 348.075C378.056 347.966 377.788 347.911 377.469 347.911C377.154 347.911 376.867 347.977 376.607 348.109C376.352 348.242 376.131 348.424 375.944 348.656C375.762 348.889 375.618 349.155 375.513 349.456C375.413 349.752 375.363 350.067 375.363 350.399ZM385.179 354.515C384.664 354.515 384.197 354.428 383.778 354.255C383.363 354.077 383.006 353.829 382.705 353.51C382.409 353.191 382.181 352.812 382.021 352.375C381.862 351.938 381.782 351.459 381.782 350.939V350.652C381.782 350.051 381.871 349.515 382.049 349.046C382.226 348.572 382.468 348.171 382.773 347.843C383.079 347.515 383.425 347.266 383.812 347.098C384.2 346.929 384.601 346.845 385.015 346.845C385.544 346.845 386 346.936 386.383 347.118C386.77 347.3 387.087 347.556 387.333 347.884C387.579 348.207 387.761 348.59 387.88 349.032C387.998 349.47 388.057 349.948 388.057 350.468V351.035H382.534V350.003H386.793V349.907C386.774 349.579 386.706 349.26 386.588 348.95C386.474 348.64 386.291 348.385 386.041 348.185C385.79 347.984 385.448 347.884 385.015 347.884C384.728 347.884 384.464 347.945 384.222 348.068C383.981 348.187 383.774 348.365 383.6 348.602C383.427 348.839 383.293 349.128 383.197 349.47C383.101 349.812 383.053 350.206 383.053 350.652V350.939C383.053 351.29 383.101 351.621 383.197 351.931C383.297 352.236 383.441 352.505 383.628 352.737C383.819 352.97 384.049 353.152 384.318 353.284C384.592 353.416 384.901 353.482 385.248 353.482C385.694 353.482 386.073 353.391 386.383 353.209C386.692 353.027 386.964 352.783 387.196 352.478L387.962 353.086C387.802 353.327 387.599 353.558 387.353 353.776C387.107 353.995 386.804 354.173 386.444 354.31C386.089 354.446 385.667 354.515 385.179 354.515ZM390.799 348.144V354.378H389.534V346.981H390.764L390.799 348.144ZM393.109 346.94L393.102 348.116C392.997 348.093 392.897 348.08 392.802 348.075C392.71 348.066 392.606 348.062 392.487 348.062C392.195 348.062 391.938 348.107 391.715 348.198C391.491 348.289 391.302 348.417 391.147 348.581C390.992 348.745 390.869 348.941 390.778 349.169C390.691 349.392 390.635 349.638 390.607 349.907L390.252 350.112C390.252 349.666 390.295 349.246 390.382 348.854C390.473 348.463 390.612 348.116 390.799 347.815C390.985 347.51 391.222 347.273 391.51 347.104C391.801 346.931 392.148 346.845 392.549 346.845C392.64 346.845 392.745 346.856 392.863 346.879C392.982 346.897 393.064 346.918 393.109 346.94Z" fill="black"/>
<path d="M354.013 370.126H355.469C355.983 370.126 356.406 370.038 356.738 369.862C357.077 369.68 357.327 369.433 357.49 369.12C357.659 368.801 357.744 368.433 357.744 368.017C357.744 367.606 357.669 367.252 357.519 366.952C357.37 366.646 357.142 366.412 356.836 366.249C356.536 366.08 356.152 365.995 355.683 365.995C355.306 365.995 354.957 366.07 354.638 366.22C354.326 366.369 354.075 366.584 353.886 366.864C353.704 367.138 353.613 367.466 353.613 367.851H351.025C351.025 367.082 351.227 366.409 351.631 365.829C352.041 365.243 352.594 364.784 353.291 364.452C353.987 364.12 354.765 363.954 355.625 363.954C356.562 363.954 357.383 364.11 358.086 364.423C358.795 364.729 359.345 365.181 359.736 365.78C360.133 366.379 360.332 367.121 360.332 368.007C360.332 368.43 360.231 368.853 360.029 369.276C359.834 369.693 359.544 370.071 359.16 370.409C358.782 370.741 358.317 371.011 357.763 371.22C357.217 371.422 356.588 371.522 355.879 371.522H354.013V370.126ZM354.013 372.118V370.741H355.879C356.679 370.741 357.373 370.836 357.959 371.024C358.551 371.207 359.039 371.467 359.424 371.806C359.808 372.138 360.091 372.525 360.273 372.968C360.462 373.41 360.556 373.886 360.556 374.394C360.556 375.058 360.433 375.65 360.185 376.171C359.938 376.685 359.59 377.121 359.14 377.479C358.698 377.838 358.177 378.111 357.578 378.3C356.979 378.482 356.331 378.573 355.635 378.573C355.029 378.573 354.44 378.492 353.867 378.329C353.301 378.16 352.789 377.909 352.334 377.577C351.878 377.239 351.517 376.815 351.25 376.308C350.983 375.793 350.849 375.198 350.849 374.521H353.437C353.437 374.911 353.532 375.259 353.72 375.565C353.916 375.871 354.183 376.112 354.521 376.288C354.866 376.457 355.254 376.542 355.683 376.542C356.159 376.542 356.566 376.457 356.904 376.288C357.249 376.112 357.513 375.865 357.695 375.546C357.877 375.22 357.969 374.833 357.969 374.384C357.969 373.85 357.868 373.417 357.666 373.085C357.464 372.753 357.174 372.509 356.797 372.353C356.426 372.196 355.983 372.118 355.469 372.118H354.013ZM372.031 370.048V372.44C372.031 373.534 371.92 374.468 371.699 375.243C371.478 376.018 371.159 376.653 370.742 377.147C370.325 377.636 369.827 377.997 369.248 378.231C368.668 378.459 368.024 378.573 367.314 378.573C366.748 378.573 366.22 378.502 365.732 378.358C365.244 378.209 364.804 377.981 364.414 377.675C364.03 377.362 363.698 376.965 363.418 376.483C363.144 376.002 362.933 375.425 362.783 374.755C362.64 374.084 362.568 373.313 362.568 372.44V370.048C362.568 368.954 362.679 368.023 362.9 367.255C363.128 366.487 363.45 365.858 363.867 365.37C364.284 364.882 364.782 364.527 365.361 364.306C365.941 364.078 366.585 363.964 367.295 363.964C367.868 363.964 368.395 364.035 368.877 364.179C369.365 364.322 369.801 364.547 370.185 364.853C370.576 365.152 370.908 365.543 371.181 366.024C371.455 366.5 371.663 367.073 371.806 367.743C371.956 368.407 372.031 369.175 372.031 370.048ZM369.453 372.792V369.687C369.453 369.14 369.42 368.664 369.355 368.261C369.297 367.851 369.209 367.502 369.092 367.216C368.974 366.929 368.828 366.698 368.652 366.522C368.476 366.34 368.274 366.207 368.047 366.122C367.819 366.037 367.568 365.995 367.295 365.995C366.956 365.995 366.653 366.063 366.386 366.2C366.12 366.33 365.895 366.539 365.713 366.825C365.53 367.112 365.39 367.493 365.293 367.968C365.202 368.437 365.156 369.009 365.156 369.687V372.792C365.156 373.339 365.185 373.817 365.244 374.228C365.309 374.638 365.4 374.989 365.517 375.282C365.641 375.575 365.788 375.816 365.957 376.005C366.133 376.187 366.334 376.324 366.562 376.415C366.79 376.5 367.041 376.542 367.314 376.542C367.659 376.542 367.962 376.474 368.222 376.337C368.489 376.2 368.714 375.985 368.896 375.692C369.079 375.393 369.215 375.006 369.306 374.53C369.404 374.049 369.453 373.469 369.453 372.792Z" fill="#1D2129"/>
<path d="M377.17 373.282C377.17 373.098 377.182 372.906 377.206 372.706C377.23 372.498 377.278 372.31 377.35 372.142C377.43 371.966 377.538 371.822 377.674 371.71C377.81 371.59 377.99 371.53 378.214 371.53C378.446 371.53 378.626 371.59 378.754 371.71C378.89 371.822 378.994 371.966 379.066 372.142C379.138 372.31 379.182 372.498 379.198 372.706C379.222 372.906 379.234 373.094 379.234 373.27C379.234 373.454 379.222 373.65 379.198 373.858C379.174 374.066 379.122 374.258 379.042 374.434C378.97 374.602 378.866 374.742 378.73 374.854C378.594 374.966 378.41 375.022 378.178 375.022C377.954 375.022 377.774 374.966 377.638 374.854C377.51 374.734 377.41 374.59 377.338 374.422C377.266 374.246 377.218 374.058 377.194 373.858C377.178 373.65 377.17 373.458 377.17 373.282ZM376.27 373.306C376.27 373.634 376.302 373.942 376.366 374.23C376.438 374.518 376.55 374.77 376.702 374.986C376.854 375.202 377.054 375.374 377.302 375.502C377.55 375.622 377.854 375.682 378.214 375.682C378.566 375.682 378.862 375.614 379.102 375.478C379.342 375.342 379.538 375.166 379.69 374.95C379.85 374.726 379.962 374.47 380.026 374.182C380.098 373.886 380.134 373.582 380.134 373.27C380.134 372.942 380.102 372.634 380.038 372.346C379.982 372.05 379.878 371.794 379.726 371.578C379.582 371.362 379.386 371.19 379.138 371.062C378.898 370.934 378.59 370.87 378.214 370.87C377.846 370.87 377.538 370.938 377.29 371.074C377.042 371.202 376.842 371.378 376.69 371.602C376.538 371.826 376.43 372.086 376.366 372.382C376.302 372.67 376.27 372.978 376.27 373.306ZM383.098 377.122C383.098 376.938 383.11 376.746 383.134 376.546C383.158 376.338 383.206 376.15 383.278 375.982C383.358 375.806 383.466 375.662 383.602 375.55C383.738 375.43 383.918 375.37 384.142 375.37C384.374 375.37 384.554 375.43 384.682 375.55C384.818 375.662 384.922 375.806 384.994 375.982C385.066 376.15 385.11 376.338 385.126 376.546C385.15 376.746 385.162 376.934 385.162 377.11C385.162 377.294 385.15 377.49 385.126 377.698C385.102 377.906 385.05 378.098 384.97 378.274C384.898 378.442 384.794 378.582 384.658 378.694C384.522 378.806 384.338 378.862 384.106 378.862C383.882 378.862 383.702 378.806 383.566 378.694C383.438 378.574 383.338 378.43 383.266 378.262C383.194 378.086 383.146 377.898 383.122 377.698C383.106 377.49 383.098 377.298 383.098 377.122ZM382.198 377.146C382.198 377.474 382.23 377.782 382.294 378.07C382.366 378.358 382.478 378.61 382.63 378.826C382.782 379.034 382.982 379.202 383.23 379.33C383.478 379.45 383.782 379.51 384.142 379.51C384.494 379.51 384.79 379.446 385.03 379.318C385.27 379.182 385.466 379.006 385.618 378.79C385.778 378.566 385.89 378.31 385.954 378.022C386.026 377.726 386.062 377.422 386.062 377.11C386.062 376.782 386.03 376.474 385.966 376.186C385.91 375.89 385.806 375.634 385.654 375.418C385.51 375.202 385.314 375.03 385.066 374.902C384.826 374.774 384.518 374.71 384.142 374.71C383.774 374.71 383.466 374.778 383.218 374.914C382.97 375.042 382.77 375.218 382.618 375.442C382.466 375.666 382.358 375.926 382.294 376.222C382.23 376.51 382.198 376.818 382.198 377.146ZM383.878 370.714L377.422 379.63H378.454L384.898 370.714H383.878Z" fill="#86909C"/>
<path d="M161.567 100.194C175.539 89.7832 191.794 82.8572 208.981 79.9913C226.167 77.1254 243.79 78.4023 260.384 83.716C276.978 89.0296 292.065 98.2265 304.39 110.542C316.715 122.859 325.924 137.938 331.25 154.528L310.398 161.222C306.137 147.95 298.771 135.887 288.91 126.034C279.05 116.181 266.981 108.824 253.706 104.573C240.43 100.322 226.332 99.3003 212.583 101.593C198.833 103.886 185.83 109.427 174.652 117.755L161.567 100.194Z" fill="#6412C1"/>
<path d="M331.143 154.198C338.282 176.193 338.274 199.883 331.12 221.873C323.967 243.863 310.036 263.024 291.324 276.609L278.457 258.887C293.427 248.019 304.572 232.69 310.295 215.098C316.017 197.506 316.024 178.554 310.313 160.958L331.143 154.198Z" fill="#102A43"/>
<path d="M291.352 276.589C267.856 293.658 238.543 300.695 209.859 296.151C181.176 291.608 155.472 275.856 138.402 252.36C121.333 228.865 114.296 199.551 118.84 170.868C123.383 142.184 139.136 116.481 162.631 99.4112L175.503 117.129C156.707 130.784 144.105 151.347 140.47 174.294C136.835 197.241 142.465 220.692 156.12 239.488C169.776 258.285 190.339 270.886 213.286 274.521C236.232 278.156 259.683 272.527 278.48 258.871L291.352 276.589Z" fill="#7B61FF"/>
<path d="M219.497 164.883H216.067V173.703H214.807V164.883H211.377V163.763H219.497V164.883ZM222.366 173.843C221.815 173.843 221.311 173.74 220.854 173.535C220.406 173.33 220.018 173.054 219.692 172.709C219.374 172.364 219.127 171.962 218.95 171.505C218.772 171.048 218.684 170.567 218.684 170.063C218.684 169.55 218.772 169.064 218.95 168.607C219.136 168.15 219.388 167.748 219.706 167.403C220.032 167.058 220.42 166.782 220.868 166.577C221.325 166.372 221.824 166.269 222.366 166.269C222.907 166.269 223.406 166.372 223.864 166.577C224.321 166.782 224.708 167.058 225.026 167.403C225.352 167.748 225.604 168.15 225.782 168.607C225.968 169.064 226.062 169.55 226.062 170.063C226.062 170.567 225.973 171.048 225.796 171.505C225.618 171.962 225.366 172.364 225.04 172.709C224.713 173.054 224.321 173.33 223.864 173.535C223.416 173.74 222.916 173.843 222.366 173.843ZM219.944 170.077C219.944 170.46 220.004 170.814 220.126 171.141C220.256 171.468 220.429 171.752 220.644 171.995C220.868 172.238 221.124 172.429 221.414 172.569C221.712 172.709 222.03 172.779 222.366 172.779C222.702 172.779 223.014 172.709 223.304 172.569C223.602 172.429 223.864 172.238 224.088 171.995C224.312 171.743 224.484 171.454 224.606 171.127C224.736 170.791 224.802 170.432 224.802 170.049C224.802 169.676 224.736 169.326 224.606 168.999C224.484 168.663 224.312 168.374 224.088 168.131C223.864 167.879 223.602 167.683 223.304 167.543C223.014 167.403 222.702 167.333 222.366 167.333C222.03 167.333 221.712 167.408 221.414 167.557C221.124 167.697 220.868 167.893 220.644 168.145C220.429 168.388 220.256 168.677 220.126 169.013C220.004 169.34 219.944 169.694 219.944 170.077ZM231.225 173.339C231.151 173.376 231.053 173.423 230.931 173.479C230.81 173.526 230.67 173.577 230.511 173.633C230.362 173.68 230.194 173.717 230.007 173.745C229.83 173.782 229.643 173.801 229.447 173.801C228.999 173.801 228.612 173.68 228.285 173.437C227.959 173.185 227.795 172.798 227.795 172.275V167.361H226.801V166.395H227.795V163.959H229.027V166.395H230.665V167.361H229.027V171.897C229.046 172.168 229.135 172.364 229.293 172.485C229.452 172.606 229.639 172.667 229.853 172.667C230.096 172.667 230.315 172.63 230.511 172.555C230.717 172.471 230.857 172.406 230.931 172.359L231.225 173.339ZM234.243 173.843C233.898 173.843 233.576 173.787 233.277 173.675C232.978 173.554 232.717 173.39 232.493 173.185C232.278 172.98 232.106 172.742 231.975 172.471C231.854 172.191 231.793 171.888 231.793 171.561C231.793 171.225 231.868 170.922 232.017 170.651C232.166 170.371 232.376 170.133 232.647 169.937C232.927 169.741 233.254 169.587 233.627 169.475C234.01 169.363 234.425 169.307 234.873 169.307C235.228 169.307 235.587 169.34 235.951 169.405C236.315 169.47 236.637 169.559 236.917 169.671V169.083C236.917 168.486 236.749 168.019 236.413 167.683C236.077 167.338 235.601 167.165 234.985 167.165C234.248 167.165 233.473 167.45 232.661 168.019L232.255 167.221C233.198 166.586 234.145 166.269 235.097 166.269C236.058 166.269 236.805 166.526 237.337 167.039C237.878 167.552 238.149 168.276 238.149 169.209V172.191C238.149 172.48 238.28 172.63 238.541 172.639V173.703C238.41 173.722 238.303 173.736 238.219 173.745C238.135 173.754 238.046 173.759 237.953 173.759C237.71 173.759 237.514 173.689 237.365 173.549C237.225 173.4 237.141 173.222 237.113 173.017L237.085 172.499C236.758 172.938 236.343 173.274 235.839 173.507C235.344 173.731 234.812 173.843 234.243 173.843ZM234.565 172.919C235.004 172.919 235.41 172.84 235.783 172.681C236.166 172.513 236.455 172.294 236.651 172.023C236.828 171.846 236.917 171.664 236.917 171.477V170.399C236.32 170.166 235.699 170.049 235.055 170.049C234.439 170.049 233.935 170.18 233.543 170.441C233.16 170.702 232.969 171.043 232.969 171.463C232.969 171.668 233.006 171.86 233.081 172.037C233.165 172.214 233.277 172.368 233.417 172.499C233.566 172.63 233.739 172.732 233.935 172.807C234.131 172.882 234.341 172.919 234.565 172.919ZM240.147 163.483H241.379V171.813C241.379 172.084 241.449 172.298 241.589 172.457C241.738 172.606 241.944 172.681 242.205 172.681C242.308 172.681 242.429 172.667 242.569 172.639C242.709 172.602 242.84 172.56 242.961 172.513L243.157 173.507C242.952 173.591 242.709 173.661 242.429 173.717C242.149 173.773 241.902 173.801 241.687 173.801C241.211 173.801 240.833 173.666 240.553 173.395C240.282 173.124 240.147 172.746 240.147 172.261V163.483Z" fill="black"/>
<path d="M198.748 186.953V189.375L189.951 209.703H185.201L193.998 190.469H182.67V186.953H198.748ZM217.232 206.188V209.703H201.67V206.703L209.029 198.812C209.769 197.99 210.352 197.266 210.779 196.641C211.206 196.005 211.514 195.438 211.701 194.938C211.899 194.427 211.998 193.943 211.998 193.484C211.998 192.797 211.883 192.208 211.654 191.719C211.425 191.219 211.087 190.833 210.639 190.562C210.201 190.292 209.66 190.156 209.014 190.156C208.326 190.156 207.732 190.323 207.232 190.656C206.743 190.99 206.368 191.453 206.107 192.047C205.857 192.641 205.732 193.312 205.732 194.062H201.217C201.217 192.708 201.54 191.469 202.186 190.344C202.831 189.208 203.743 188.307 204.92 187.641C206.097 186.964 207.493 186.625 209.107 186.625C210.701 186.625 212.045 186.885 213.139 187.406C214.243 187.917 215.076 188.656 215.639 189.625C216.212 190.583 216.498 191.729 216.498 193.062C216.498 193.812 216.378 194.547 216.139 195.266C215.899 195.974 215.555 196.682 215.107 197.391C214.67 198.089 214.139 198.797 213.514 199.516C212.889 200.234 212.196 200.979 211.436 201.75L207.482 206.188H217.232ZM232.592 185.703V209.703H228.092V185.703H232.592ZM231.951 200.656H230.717C230.727 199.479 230.883 198.396 231.186 197.406C231.488 196.406 231.92 195.542 232.482 194.812C233.045 194.073 233.717 193.5 234.498 193.094C235.29 192.688 236.165 192.484 237.123 192.484C237.956 192.484 238.712 192.604 239.389 192.844C240.076 193.073 240.665 193.448 241.154 193.969C241.654 194.479 242.04 195.151 242.311 195.984C242.581 196.818 242.717 197.828 242.717 199.016V209.703H238.186V198.984C238.186 198.234 238.076 197.646 237.857 197.219C237.649 196.781 237.342 196.474 236.936 196.297C236.54 196.109 236.05 196.016 235.467 196.016C234.821 196.016 234.269 196.135 233.811 196.375C233.363 196.615 233.003 196.948 232.732 197.375C232.462 197.792 232.264 198.281 232.139 198.844C232.014 199.406 231.951 200.01 231.951 200.656ZM250.639 196.484V209.703H246.139V192.797H250.373L250.639 196.484ZM255.732 192.688L255.654 196.859C255.436 196.828 255.17 196.802 254.857 196.781C254.555 196.75 254.279 196.734 254.029 196.734C253.394 196.734 252.842 196.818 252.373 196.984C251.915 197.141 251.529 197.375 251.217 197.688C250.915 198 250.686 198.38 250.529 198.828C250.383 199.276 250.3 199.786 250.279 200.359L249.373 200.078C249.373 198.984 249.482 197.979 249.701 197.062C249.92 196.135 250.238 195.328 250.654 194.641C251.081 193.953 251.602 193.422 252.217 193.047C252.831 192.672 253.535 192.484 254.326 192.484C254.576 192.484 254.831 192.505 255.092 192.547C255.352 192.578 255.566 192.625 255.732 192.688ZM266.998 205.031C266.998 204.708 266.904 204.417 266.717 204.156C266.529 203.896 266.18 203.656 265.67 203.438C265.17 203.208 264.446 203 263.498 202.812C262.644 202.625 261.847 202.391 261.107 202.109C260.378 201.818 259.743 201.469 259.201 201.062C258.67 200.656 258.253 200.177 257.951 199.625C257.649 199.062 257.498 198.422 257.498 197.703C257.498 196.995 257.649 196.328 257.951 195.703C258.264 195.078 258.706 194.526 259.279 194.047C259.863 193.557 260.571 193.177 261.404 192.906C262.248 192.625 263.196 192.484 264.248 192.484C265.717 192.484 266.977 192.719 268.029 193.188C269.092 193.656 269.904 194.302 270.467 195.125C271.04 195.938 271.326 196.865 271.326 197.906H266.826C266.826 197.469 266.732 197.078 266.545 196.734C266.368 196.38 266.087 196.104 265.701 195.906C265.326 195.698 264.837 195.594 264.232 195.594C263.732 195.594 263.3 195.682 262.936 195.859C262.571 196.026 262.29 196.255 262.092 196.547C261.904 196.828 261.811 197.141 261.811 197.484C261.811 197.745 261.863 197.979 261.967 198.188C262.081 198.385 262.264 198.568 262.514 198.734C262.764 198.901 263.087 199.057 263.482 199.203C263.889 199.339 264.389 199.464 264.982 199.578C266.201 199.828 267.29 200.156 268.248 200.562C269.206 200.958 269.967 201.5 270.529 202.188C271.092 202.865 271.373 203.755 271.373 204.859C271.373 205.609 271.206 206.297 270.873 206.922C270.54 207.547 270.061 208.094 269.436 208.562C268.811 209.021 268.061 209.38 267.186 209.641C266.321 209.891 265.347 210.016 264.264 210.016C262.691 210.016 261.357 209.734 260.264 209.172C259.18 208.609 258.357 207.896 257.795 207.031C257.243 206.156 256.967 205.26 256.967 204.344H261.232C261.253 204.958 261.41 205.453 261.701 205.828C262.003 206.203 262.383 206.474 262.842 206.641C263.311 206.807 263.816 206.891 264.357 206.891C264.941 206.891 265.425 206.812 265.811 206.656C266.196 206.49 266.488 206.271 266.686 206C266.894 205.719 266.998 205.396 266.998 205.031Z" fill="#1D2129"/>
<path d="M57.6458 54.5V40.3H63.6658C64.3191 40.3 64.9191 40.44 65.4658 40.72C66.0258 40.9867 66.5058 41.3467 66.9058 41.8C67.3058 42.24 67.6191 42.7467 67.8458 43.32C68.0724 43.88 68.1858 44.4467 68.1858 45.02C68.1858 45.62 68.0791 46.2067 67.8658 46.78C67.6524 47.34 67.3524 47.84 66.9658 48.28C66.5791 48.72 66.1124 49.0733 65.5658 49.34C65.0191 49.6067 64.4191 49.74 63.7658 49.74H60.4058V54.5H57.6458ZM60.4058 47.32H63.6058C64.1124 47.32 64.5324 47.1133 64.8658 46.7C65.2124 46.2867 65.3858 45.7267 65.3858 45.02C65.3858 44.66 65.3324 44.34 65.2258 44.06C65.1191 43.7667 64.9791 43.52 64.8058 43.32C64.6324 43.12 64.4258 42.9733 64.1858 42.88C63.9591 42.7733 63.7258 42.72 63.4858 42.72H60.4058V47.32ZM76.0867 46.34C75.2734 46.3533 74.5467 46.5133 73.9067 46.82C73.2667 47.1133 72.8067 47.56 72.5267 48.16V54.5H69.8467V44.02H72.3067V46.26C72.4934 45.9 72.7134 45.58 72.9667 45.3C73.22 45.0067 73.4934 44.7533 73.7867 44.54C74.08 44.3267 74.3734 44.1667 74.6667 44.06C74.9734 43.94 75.2667 43.88 75.5467 43.88C75.6934 43.88 75.8 43.88 75.8667 43.88C75.9467 43.88 76.02 43.8867 76.0867 43.9V46.34ZM81.8937 54.7C81.0404 54.7 80.2737 54.5533 79.5937 54.26C78.9137 53.9667 78.3337 53.5733 77.8537 53.08C77.3871 52.5733 77.0271 51.9933 76.7737 51.34C76.5204 50.6867 76.3937 50 76.3937 49.28C76.3937 48.5467 76.5204 47.8533 76.7737 47.2C77.0271 46.5467 77.3871 45.9733 77.8537 45.48C78.3337 44.9733 78.9137 44.5733 79.5937 44.28C80.2737 43.9867 81.0404 43.84 81.8937 43.84C82.7471 43.84 83.5071 43.9867 84.1737 44.28C84.8537 44.5733 85.4271 44.9733 85.8937 45.48C86.3737 45.9733 86.7404 46.5467 86.9937 47.2C87.2471 47.8533 87.3737 48.5467 87.3737 49.28C87.3737 50 87.2471 50.6867 86.9937 51.34C86.7404 51.9933 86.3804 52.5733 85.9137 53.08C85.4471 53.5733 84.8737 53.9667 84.1937 54.26C83.5137 54.5533 82.7471 54.7 81.8937 54.7ZM79.1537 49.28C79.1537 49.7467 79.2204 50.1733 79.3537 50.56C79.5004 50.9333 79.6937 51.26 79.9337 51.54C80.1871 51.82 80.4804 52.04 80.8137 52.2C81.1471 52.3467 81.5071 52.42 81.8937 52.42C82.2804 52.42 82.6404 52.3467 82.9737 52.2C83.3071 52.04 83.5937 51.82 83.8337 51.54C84.0871 51.26 84.2804 50.9267 84.4137 50.54C84.5604 50.1533 84.6337 49.7267 84.6337 49.26C84.6337 48.8067 84.5604 48.3867 84.4137 48C84.2804 47.6133 84.0871 47.28 83.8337 47C83.5937 46.72 83.3071 46.5067 82.9737 46.36C82.6404 46.2 82.2804 46.12 81.8937 46.12C81.5071 46.12 81.1471 46.2 80.8137 46.36C80.4804 46.52 80.1871 46.74 79.9337 47.02C79.6937 47.3 79.5004 47.6333 79.3537 48.02C79.2204 48.4067 79.1537 48.8267 79.1537 49.28ZM88.3226 58.42C87.816 58.42 87.336 58.34 86.8826 58.18C86.4293 58.0333 86.0226 57.8 85.6626 57.48L86.8226 55.66C86.9693 55.8067 87.1493 55.9133 87.3626 55.98C87.576 56.06 87.7893 56.1 88.0026 56.1C88.3493 56.1 88.6493 55.9733 88.9026 55.72C89.156 55.48 89.2826 55.1667 89.2826 54.78V44.02H91.9626V54.58C91.9626 55.14 91.8693 55.6533 91.6826 56.12C91.496 56.6 91.236 57.0067 90.9026 57.34C90.5826 57.6867 90.196 57.9533 89.7426 58.14C89.3026 58.3267 88.8293 58.42 88.3226 58.42ZM89.2826 42.56V39.9H91.9626V42.56H89.2826ZM99.2575 54.7C98.4175 54.7 97.6575 54.56 96.9775 54.28C96.2975 53.9867 95.7175 53.5933 95.2375 53.1C94.7575 52.6067 94.3842 52.0333 94.1175 51.38C93.8642 50.7267 93.7375 50.04 93.7375 49.32C93.7375 48.5733 93.8642 47.8733 94.1175 47.22C94.3708 46.5533 94.7375 45.9733 95.2175 45.48C95.6975 44.9733 96.2775 44.5733 96.9575 44.28C97.6508 43.9867 98.4242 43.84 99.2775 43.84C100.131 43.84 100.891 43.9867 101.557 44.28C102.237 44.5733 102.811 44.9667 103.277 45.46C103.757 45.9533 104.117 46.5267 104.357 47.18C104.611 47.8333 104.737 48.5133 104.737 49.22C104.737 49.3933 104.731 49.56 104.717 49.72C104.717 49.88 104.704 50.0133 104.677 50.12H96.5775C96.6175 50.5333 96.7175 50.9 96.8775 51.22C97.0375 51.54 97.2442 51.8133 97.4975 52.04C97.7508 52.2667 98.0375 52.44 98.3575 52.56C98.6775 52.68 99.0108 52.74 99.3575 52.74C99.8908 52.74 100.391 52.6133 100.857 52.36C101.337 52.0933 101.664 51.7467 101.837 51.32L104.137 51.96C103.751 52.76 103.131 53.42 102.277 53.94C101.437 54.4467 100.431 54.7 99.2575 54.7ZM101.977 48.38C101.911 47.5933 101.617 46.9667 101.097 46.5C100.591 46.02 99.9708 45.78 99.2375 45.78C98.8775 45.78 98.5375 45.8467 98.2175 45.98C97.9108 46.1 97.6375 46.2733 97.3975 46.5C97.1575 46.7267 96.9575 47 96.7975 47.32C96.6508 47.64 96.5642 47.9933 96.5375 48.38H101.977ZM105.71 49.26C105.71 48.5267 105.837 47.8333 106.09 47.18C106.343 46.5267 106.71 45.9533 107.19 45.46C107.67 44.9667 108.25 44.5733 108.93 44.28C109.61 43.9867 110.377 43.84 111.23 43.84C112.377 43.84 113.35 44.0867 114.15 44.58C114.963 45.0733 115.57 45.72 115.97 46.52L113.35 47.32C113.123 46.9333 112.823 46.64 112.45 46.44C112.077 46.2267 111.663 46.12 111.21 46.12C110.823 46.12 110.463 46.2 110.13 46.36C109.797 46.5067 109.503 46.72 109.25 47C109.01 47.2667 108.817 47.5933 108.67 47.98C108.537 48.3667 108.47 48.7933 108.47 49.26C108.47 49.7267 108.543 50.1533 108.69 50.54C108.837 50.9267 109.03 51.26 109.27 51.54C109.523 51.82 109.817 52.04 110.15 52.2C110.483 52.3467 110.837 52.42 111.21 52.42C111.69 52.42 112.13 52.3 112.53 52.06C112.943 51.82 113.23 51.5267 113.39 51.18L116.01 51.98C115.65 52.78 115.057 53.4333 114.23 53.94C113.403 54.4467 112.41 54.7 111.25 54.7C110.397 54.7 109.63 54.5533 108.95 54.26C108.27 53.9667 107.69 53.5733 107.21 53.08C106.73 52.5733 106.357 51.9933 106.09 51.34C105.837 50.6733 105.71 49.98 105.71 49.26ZM123.939 53.96C123.579 54.12 123.139 54.28 122.619 54.44C122.099 54.6 121.553 54.68 120.979 54.68C120.606 54.68 120.253 54.6333 119.919 54.54C119.599 54.4467 119.313 54.3 119.059 54.1C118.819 53.8867 118.626 53.62 118.479 53.3C118.333 52.9667 118.259 52.5667 118.259 52.1V46.08H116.879V44.02H118.259V40.62H120.939V44.02H123.139V46.08H120.939V51.2C120.939 51.5733 121.033 51.84 121.219 52C121.419 52.1467 121.659 52.22 121.939 52.22C122.219 52.22 122.493 52.1733 122.759 52.08C123.026 51.9867 123.239 51.9067 123.399 51.84L123.939 53.96ZM129.295 54.7C128.415 54.7 127.555 54.56 126.715 54.28C125.875 54 125.155 53.6 124.555 53.08L125.555 51.4C126.195 51.8533 126.815 52.2 127.415 52.44C128.028 52.6667 128.635 52.78 129.235 52.78C129.768 52.78 130.188 52.68 130.495 52.48C130.802 52.28 130.955 51.9933 130.955 51.62C130.955 51.2467 130.775 50.9733 130.415 50.8C130.055 50.6267 129.468 50.4267 128.655 50.2C127.975 50.0133 127.395 49.8333 126.915 49.66C126.435 49.4867 126.048 49.2933 125.755 49.08C125.462 48.8533 125.248 48.6 125.115 48.32C124.982 48.0267 124.915 47.68 124.915 47.28C124.915 46.7467 125.015 46.2667 125.215 45.84C125.428 45.4133 125.722 45.0533 126.095 44.76C126.468 44.4533 126.902 44.22 127.395 44.06C127.902 43.9 128.448 43.82 129.035 43.82C129.822 43.82 130.555 43.9333 131.235 44.16C131.928 44.3867 132.562 44.7533 133.135 45.26L132.055 46.88C131.522 46.48 131.002 46.1867 130.495 46C130.002 45.8133 129.508 45.72 129.015 45.72C128.562 45.72 128.182 45.8133 127.875 46C127.568 46.1867 127.415 46.4867 127.415 46.9C127.415 47.0867 127.448 47.24 127.515 47.36C127.595 47.48 127.715 47.5867 127.875 47.68C128.035 47.7733 128.242 47.8667 128.495 47.96C128.762 48.04 129.088 48.1267 129.475 48.22C130.195 48.4067 130.808 48.5933 131.315 48.78C131.835 48.9667 132.255 49.18 132.575 49.42C132.908 49.66 133.148 49.94 133.295 50.26C133.455 50.5667 133.535 50.94 133.535 51.38C133.535 52.4067 133.155 53.22 132.395 53.82C131.635 54.4067 130.602 54.7 129.295 54.7Z" fill="black"/>
<defs>
<filter id="filter0_d_2885_5662" x="0.34375" y="0.37793" width="457.295" height="444" filterUnits="userSpaceOnUse" color-interpolation-filters="sRGB">
<feFlood flood-opacity="0" result="BackgroundImageFix"/>
<feColorMatrix in="SourceAlpha" type="matrix" values="0 0 0 0 0 0 0 0 0 0 0 0 0 0 0 0 0 0 127 0" result="hardAlpha"/>
<feOffset dy="4"/>
<feGaussianBlur stdDeviation="12"/>
<feComposite in2="hardAlpha" operator="out"/>
<feColorMatrix type="matrix" values="0 0 0 0 0 0 0 0 0 0 0 0 0 0 0 0 0 0 0.05 0"/>
<feBlend mode="normal" in2="BackgroundImageFix" result="effect1_dropShadow_2885_5662"/>
<feBlend mode="normal" in="SourceGraphic" in2="effect1_dropShadow_2885_5662" result="shape"/>
</filter>
</defs>
</svg>
