<svg width="14" height="12" viewBox="0 0 14 12" fill="none" xmlns="http://www.w3.org/2000/svg">
<path d="M5.5 6C5.22386 6 5 6.22386 5 6.5C5 6.77614 5.22386 7 5.5 7H8.5C8.77614 7 9 6.77614 9 6.5C9 6.22386 8.77614 6 8.5 6H5.5ZM0 1.5C0 0.671573 0.671573 0 1.5 0H12.5C13.3284 0 14 0.671573 14 1.5V2.5C14 3.15311 13.5826 3.70873 13 3.91465V9.5C13 10.8807 11.8807 12 10.5 12H3.5C2.11929 12 1 10.8807 1 9.5V3.91465C0.417404 3.70873 0 3.15311 0 2.5V1.5ZM1.5 1C1.22386 1 1 1.22386 1 1.5V2.5C1 2.77614 1.22386 3 1.5 3H12.5C12.7761 3 13 2.77614 13 2.5V1.5C13 1.22386 12.7761 1 12.5 1H1.5ZM2 4V9.5C2 10.3284 2.67157 11 3.5 11H10.5C11.3284 11 12 10.3284 12 9.5V4H2Z" fill="#676767"/>
</svg>
