<svg width="21" height="19" viewBox="0 0 21 19" fill="none" xmlns="http://www.w3.org/2000/svg">
<path d="M15.1246 3.40795L17.3751 5.52495L15.1246 3.40795ZM16.5718 1.54295L10.4865 7.26995C10.1721 7.56545 9.95766 7.94193 9.87023 8.35195L9.30814 10.9999L12.1218 10.4699C12.5574 10.3879 12.957 10.1869 13.2715 9.89095L19.3568 4.16395C19.5396 3.99185 19.6847 3.78754 19.7836 3.56269C19.8826 3.33783 19.9335 3.09683 19.9335 2.85345C19.9335 2.61007 19.8826 2.36907 19.7836 2.14421C19.6847 1.91936 19.5396 1.71505 19.3568 1.54295C19.1739 1.37085 18.9568 1.23434 18.7179 1.1412C18.479 1.04806 18.2229 1.00012 17.9643 1.00012C17.7057 1.00012 17.4496 1.04806 17.2107 1.1412C16.9717 1.23434 16.7547 1.37085 16.5718 1.54295V1.54295Z" stroke="#3BBCA0" stroke-width="2" stroke-linecap="round" stroke-linejoin="round"/>
<path d="M17.8086 13V16C17.8086 16.5304 17.5847 17.0391 17.1862 17.4142C16.7876 17.7893 16.2471 18 15.6835 18H3.99535C3.43173 18 2.8912 17.7893 2.49266 17.4142C2.09413 17.0391 1.87023 16.5304 1.87023 16V5C1.87023 4.46957 2.09413 3.96086 2.49266 3.58579C2.8912 3.21071 3.43173 3 3.99535 3H7.18302" stroke="#3BBCA0" stroke-width="2" stroke-linecap="round" stroke-linejoin="round"/>
</svg>
