<svg width="248" height="267" viewBox="0 0 248 267" fill="none" xmlns="http://www.w3.org/2000/svg">
<g filter="url(#filter0_d_1149_4385)">
<path d="M24 30.5C24 24.9772 28.4772 20.5 34 20.5H214C219.523 20.5 224 24.9772 224 30.5V228.5C224 234.023 219.523 238.5 214 238.5H34C28.4772 238.5 24 234.023 24 228.5V30.5Z" fill="white"/>
</g>
<path d="M86.332 64.5V51.738H88.816V64.5H86.332ZM101.778 61.206C101.778 61.746 101.67 62.22 101.454 62.628C101.238 63.036 100.938 63.378 100.554 63.654C100.182 63.93 99.7444 64.14 99.2404 64.284C98.7484 64.428 98.2204 64.5 97.6564 64.5H91.4824V51.72H98.3224C98.7664 51.72 99.1684 51.816 99.5284 52.008C99.8884 52.2 100.194 52.452 100.446 52.764C100.698 53.064 100.89 53.412 101.022 53.808C101.166 54.192 101.238 54.582 101.238 54.978C101.238 55.602 101.082 56.19 100.77 56.742C100.458 57.282 100.002 57.684 99.4024 57.948C100.134 58.164 100.71 58.554 101.13 59.118C101.562 59.67 101.778 60.366 101.778 61.206ZM99.2764 60.738C99.2764 60.51 99.2344 60.294 99.1504 60.09C99.0784 59.874 98.9764 59.688 98.8444 59.532C98.7124 59.376 98.5564 59.256 98.3764 59.172C98.1964 59.076 97.9984 59.028 97.7824 59.028H93.9664V62.394H97.6564C97.8844 62.394 98.0944 62.352 98.2864 62.268C98.4904 62.184 98.6644 62.07 98.8084 61.926C98.9524 61.77 99.0664 61.59 99.1504 61.386C99.2344 61.182 99.2764 60.966 99.2764 60.738ZM93.9664 53.844V57.066H97.2784C97.6984 57.066 98.0524 56.922 98.3404 56.634C98.6404 56.346 98.7904 55.95 98.7904 55.446C98.7904 54.954 98.6524 54.564 98.3764 54.276C98.1124 53.988 97.7824 53.844 97.3864 53.844H93.9664ZM111.349 55.068C111.265 54.984 111.109 54.87 110.881 54.726C110.665 54.582 110.395 54.444 110.071 54.312C109.759 54.168 109.417 54.048 109.045 53.952C108.673 53.856 108.295 53.808 107.911 53.808C107.227 53.808 106.717 53.934 106.381 54.186C106.045 54.438 105.877 54.792 105.877 55.248C105.877 55.512 105.937 55.734 106.057 55.914C106.189 56.082 106.375 56.232 106.615 56.364C106.855 56.496 107.155 56.616 107.515 56.724C107.887 56.832 108.313 56.946 108.793 57.066C109.417 57.234 109.981 57.414 110.485 57.606C111.001 57.798 111.433 58.038 111.781 58.326C112.141 58.614 112.417 58.962 112.609 59.37C112.801 59.766 112.897 60.258 112.897 60.846C112.897 61.53 112.765 62.118 112.501 62.61C112.249 63.09 111.907 63.48 111.475 63.78C111.043 64.08 110.539 64.302 109.963 64.446C109.387 64.578 108.787 64.644 108.163 64.644C107.203 64.644 106.255 64.5 105.319 64.212C104.383 63.924 103.543 63.516 102.799 62.988L103.897 60.846C104.005 60.954 104.197 61.098 104.473 61.278C104.761 61.446 105.097 61.62 105.481 61.8C105.865 61.968 106.291 62.112 106.759 62.232C107.227 62.352 107.707 62.412 108.199 62.412C109.567 62.412 110.251 61.974 110.251 61.098C110.251 60.81 110.173 60.57 110.017 60.378C109.861 60.186 109.639 60.018 109.351 59.874C109.063 59.73 108.715 59.598 108.307 59.478C107.899 59.358 107.443 59.232 106.939 59.1C106.327 58.932 105.793 58.752 105.337 58.56C104.893 58.356 104.521 58.122 104.221 57.858C103.921 57.594 103.693 57.282 103.537 56.922C103.393 56.562 103.321 56.136 103.321 55.644C103.321 54.996 103.441 54.42 103.681 53.916C103.921 53.412 104.251 52.992 104.671 52.656C105.103 52.32 105.601 52.068 106.165 51.9C106.729 51.72 107.335 51.63 107.983 51.63C108.883 51.63 109.711 51.774 110.467 52.062C111.223 52.338 111.883 52.668 112.447 53.052L111.349 55.068ZM119.098 64.5V51.72H124.75C125.338 51.72 125.878 51.846 126.37 52.098C126.874 52.338 127.306 52.662 127.666 53.07C128.026 53.466 128.308 53.922 128.512 54.438C128.716 54.942 128.818 55.452 128.818 55.968C128.818 56.796 128.608 57.552 128.188 58.236C127.78 58.908 127.222 59.394 126.514 59.694L129.52 64.5H126.712L124.03 60.216H121.582V64.5H119.098ZM121.582 58.038H124.696C124.924 58.038 125.134 57.984 125.326 57.876C125.53 57.768 125.704 57.624 125.848 57.444C125.992 57.252 126.106 57.03 126.19 56.778C126.274 56.526 126.316 56.256 126.316 55.968C126.316 55.668 126.268 55.392 126.172 55.14C126.076 54.888 125.944 54.672 125.776 54.492C125.62 54.3 125.434 54.156 125.218 54.06C125.014 53.952 124.804 53.898 124.588 53.898H121.582V58.038ZM135.367 64.68C134.611 64.68 133.927 64.554 133.315 64.302C132.703 64.038 132.181 63.684 131.749 63.24C131.317 62.796 130.981 62.28 130.741 61.692C130.513 61.104 130.399 60.486 130.399 59.838C130.399 59.166 130.513 58.536 130.741 57.948C130.969 57.348 131.299 56.826 131.731 56.382C132.163 55.926 132.685 55.566 133.297 55.302C133.921 55.038 134.617 54.906 135.385 54.906C136.153 54.906 136.837 55.038 137.437 55.302C138.049 55.566 138.565 55.92 138.985 56.364C139.417 56.808 139.741 57.324 139.957 57.912C140.185 58.5 140.299 59.112 140.299 59.748C140.299 59.904 140.293 60.054 140.281 60.198C140.281 60.342 140.269 60.462 140.245 60.558H132.955C132.991 60.93 133.081 61.26 133.225 61.548C133.369 61.836 133.555 62.082 133.783 62.286C134.011 62.49 134.269 62.646 134.557 62.754C134.845 62.862 135.145 62.916 135.457 62.916C135.937 62.916 136.387 62.802 136.807 62.574C137.239 62.334 137.533 62.022 137.689 61.638L139.759 62.214C139.411 62.934 138.853 63.528 138.085 63.996C137.329 64.452 136.423 64.68 135.367 64.68ZM137.815 58.992C137.755 58.284 137.491 57.72 137.023 57.3C136.567 56.868 136.009 56.652 135.349 56.652C135.025 56.652 134.719 56.712 134.431 56.832C134.155 56.94 133.909 57.096 133.693 57.3C133.477 57.504 133.297 57.75 133.153 58.038C133.021 58.326 132.943 58.644 132.919 58.992H137.815ZM147.35 64.014C147.026 64.158 146.624 64.302 146.144 64.446C145.676 64.59 145.184 64.662 144.668 64.662C144.332 64.662 144.014 64.62 143.714 64.536C143.426 64.452 143.168 64.32 142.94 64.14C142.724 63.948 142.55 63.708 142.418 63.42C142.286 63.12 142.22 62.76 142.22 62.34V56.922H140.996V55.068H142.22V52.008H144.632V55.068H146.63V56.922H144.632V61.53C144.632 61.866 144.722 62.106 144.902 62.25C145.082 62.382 145.298 62.448 145.55 62.448C145.802 62.448 146.048 62.406 146.288 62.322C146.528 62.238 146.72 62.166 146.864 62.106L147.35 64.014ZM151.145 64.68C150.689 64.68 150.263 64.608 149.867 64.464C149.471 64.308 149.129 64.098 148.841 63.834C148.553 63.558 148.325 63.24 148.157 62.88C148.001 62.52 147.923 62.124 147.923 61.692C147.923 61.248 148.019 60.84 148.211 60.468C148.415 60.084 148.691 59.76 149.039 59.496C149.399 59.232 149.825 59.028 150.317 58.884C150.809 58.728 151.349 58.65 151.937 58.65C152.357 58.65 152.765 58.686 153.161 58.758C153.569 58.83 153.929 58.932 154.241 59.064V58.524C154.241 57.9 154.061 57.42 153.701 57.084C153.353 56.748 152.831 56.58 152.135 56.58C151.631 56.58 151.139 56.67 150.659 56.85C150.179 57.03 149.687 57.294 149.183 57.642L148.445 56.112C149.657 55.308 150.965 54.906 152.369 54.906C153.725 54.906 154.775 55.242 155.519 55.914C156.275 56.574 156.653 57.534 156.653 58.794V61.728C156.653 61.98 156.701 62.16 156.797 62.268C156.893 62.376 157.061 62.436 157.301 62.448V64.5C157.073 64.548 156.857 64.578 156.653 64.59C156.461 64.614 156.293 64.626 156.149 64.626C155.693 64.614 155.345 64.512 155.105 64.32C154.865 64.116 154.715 63.846 154.655 63.51L154.601 62.988C154.181 63.54 153.671 63.96 153.071 64.248C152.471 64.536 151.829 64.68 151.145 64.68ZM151.829 62.916C152.237 62.916 152.621 62.844 152.981 62.7C153.353 62.556 153.641 62.364 153.845 62.124C154.109 61.92 154.241 61.692 154.241 61.44V60.36C153.953 60.252 153.641 60.168 153.305 60.108C152.969 60.036 152.645 60 152.333 60C151.709 60 151.199 60.144 150.803 60.432C150.407 60.708 150.209 61.062 150.209 61.494C150.209 61.902 150.365 62.244 150.677 62.52C150.989 62.784 151.373 62.916 151.829 62.916ZM158.959 64.5V55.068H161.371V64.5H158.959ZM158.959 53.754V51.36H161.371V53.754H158.959ZM163.494 51.36H165.906V61.368C165.906 62.1 166.236 62.466 166.896 62.466C167.028 62.466 167.178 62.442 167.346 62.394C167.526 62.346 167.694 62.292 167.85 62.232L168.174 64.158C167.85 64.314 167.472 64.434 167.04 64.518C166.608 64.602 166.218 64.644 165.87 64.644C165.114 64.644 164.526 64.446 164.106 64.05C163.698 63.642 163.494 63.066 163.494 62.322V51.36Z" fill="black"/>
<path d="M51.5703 97.5469V107.5H50.251V97.5469H51.5703ZM55.043 101.683V107.5H53.7783V100.104H54.9746L55.043 101.683ZM54.7422 103.521L54.2158 103.501C54.2204 102.995 54.2956 102.528 54.4414 102.1C54.5872 101.667 54.7923 101.291 55.0566 100.972C55.321 100.653 55.6354 100.407 56 100.233C56.3691 100.056 56.777 99.9668 57.2236 99.9668C57.5882 99.9668 57.9163 100.017 58.208 100.117C58.4997 100.213 58.748 100.368 58.9531 100.582C59.1628 100.796 59.3223 101.074 59.4316 101.416C59.541 101.753 59.5957 102.166 59.5957 102.653V107.5H58.3242V102.64C58.3242 102.252 58.2673 101.942 58.1533 101.71C58.0394 101.473 57.873 101.302 57.6543 101.197C57.4355 101.088 57.1667 101.033 56.8477 101.033C56.5332 101.033 56.2461 101.099 55.9863 101.231C55.7311 101.364 55.5101 101.546 55.3232 101.778C55.141 102.011 54.9974 102.277 54.8926 102.578C54.7923 102.874 54.7422 103.189 54.7422 103.521Z" fill="#A6A6A6"/>
<path d="M57.8184 137.209V137.838C57.8184 138.585 57.7249 139.255 57.5381 139.848C57.3512 140.44 57.0824 140.944 56.7314 141.358C56.3805 141.773 55.959 142.09 55.4668 142.309C54.9792 142.527 54.4323 142.637 53.8262 142.637C53.2383 142.637 52.6982 142.527 52.2061 142.309C51.7184 142.09 51.2946 141.773 50.9346 141.358C50.5791 140.944 50.3034 140.44 50.1074 139.848C49.9115 139.255 49.8135 138.585 49.8135 137.838V137.209C49.8135 136.462 49.9092 135.794 50.1006 135.206C50.2965 134.614 50.5723 134.11 50.9277 133.695C51.2832 133.276 51.7048 132.957 52.1924 132.738C52.6846 132.52 53.2246 132.41 53.8125 132.41C54.4186 132.41 54.9655 132.52 55.4531 132.738C55.9453 132.957 56.3669 133.276 56.7178 133.695C57.0732 134.11 57.3444 134.614 57.5312 135.206C57.7227 135.794 57.8184 136.462 57.8184 137.209ZM56.5127 137.838V137.195C56.5127 136.603 56.4512 136.079 56.3281 135.623C56.2096 135.167 56.0342 134.785 55.8018 134.475C55.5693 134.165 55.2845 133.93 54.9473 133.771C54.6146 133.611 54.2363 133.531 53.8125 133.531C53.4023 133.531 53.0309 133.611 52.6982 133.771C52.3701 133.93 52.0876 134.165 51.8506 134.475C51.6182 134.785 51.4382 135.167 51.3105 135.623C51.1829 136.079 51.1191 136.603 51.1191 137.195V137.838C51.1191 138.435 51.1829 138.964 51.3105 139.424C51.4382 139.88 51.6204 140.265 51.8574 140.579C52.099 140.889 52.3838 141.124 52.7119 141.283C53.0446 141.443 53.416 141.522 53.8262 141.522C54.2546 141.522 54.6351 141.443 54.9678 141.283C55.3005 141.124 55.5807 140.889 55.8086 140.579C56.041 140.265 56.2165 139.88 56.335 139.424C56.4535 138.964 56.5127 138.435 56.5127 137.838ZM64.1279 140.791V135.104H65.3994V142.5H64.1895L64.1279 140.791ZM64.3672 139.232L64.8936 139.219C64.8936 139.711 64.8411 140.167 64.7363 140.586C64.6361 141.001 64.472 141.361 64.2441 141.666C64.0163 141.971 63.7178 142.211 63.3486 142.384C62.9795 142.552 62.5306 142.637 62.002 142.637C61.6419 142.637 61.3115 142.584 61.0107 142.479C60.7145 142.375 60.4593 142.213 60.2451 141.994C60.0309 141.775 59.8646 141.491 59.7461 141.14C59.6322 140.789 59.5752 140.367 59.5752 139.875V135.104H60.8398V139.889C60.8398 140.221 60.8763 140.497 60.9492 140.716C61.0267 140.93 61.1292 141.101 61.2568 141.229C61.389 141.352 61.5348 141.438 61.6943 141.488C61.8584 141.538 62.027 141.563 62.2002 141.563C62.738 141.563 63.1641 141.461 63.4785 141.256C63.793 141.046 64.0186 140.766 64.1553 140.415C64.2965 140.06 64.3672 139.665 64.3672 139.232ZM70.4238 135.104V136.074H66.4248V135.104H70.4238ZM67.7783 133.306H69.043V140.668C69.043 140.919 69.0817 141.108 69.1592 141.235C69.2367 141.363 69.3369 141.447 69.46 141.488C69.583 141.529 69.7152 141.55 69.8564 141.55C69.9613 141.55 70.0706 141.541 70.1846 141.522C70.3031 141.5 70.3919 141.481 70.4512 141.468L70.458 142.5C70.3577 142.532 70.2256 142.562 70.0615 142.589C69.902 142.621 69.7083 142.637 69.4805 142.637C69.1706 142.637 68.8857 142.575 68.626 142.452C68.3662 142.329 68.1589 142.124 68.0039 141.837C67.8535 141.545 67.7783 141.153 67.7783 140.661V133.306Z" fill="#A6A6A6"/>
<path d="M53.7031 172.845H51.1807L51.167 171.785H53.457C53.8353 171.785 54.1657 171.721 54.4482 171.594C54.7308 171.466 54.9495 171.284 55.1045 171.047C55.264 170.805 55.3438 170.518 55.3438 170.186C55.3438 169.821 55.2731 169.525 55.1318 169.297C54.9951 169.064 54.7832 168.896 54.4961 168.791C54.2135 168.682 53.8535 168.627 53.416 168.627H51.4746V177.5H50.1553V167.547H53.416C53.9264 167.547 54.3822 167.599 54.7832 167.704C55.1842 167.804 55.5238 167.964 55.8018 168.183C56.0843 168.397 56.2985 168.67 56.4443 169.003C56.5902 169.336 56.6631 169.734 56.6631 170.199C56.6631 170.609 56.5583 170.981 56.3486 171.313C56.139 171.642 55.8473 171.91 55.4736 172.12C55.1045 172.33 54.6715 172.464 54.1748 172.523L53.7031 172.845ZM53.6416 177.5H50.6611L51.4062 176.427H53.6416C54.0609 176.427 54.4163 176.354 54.708 176.208C55.0042 176.062 55.2298 175.857 55.3848 175.593C55.5397 175.324 55.6172 175.007 55.6172 174.643C55.6172 174.273 55.5511 173.954 55.4189 173.686C55.2868 173.417 55.0794 173.209 54.7969 173.063C54.5143 172.918 54.1497 172.845 53.7031 172.845H51.8232L51.8369 171.785H54.4072L54.6875 172.168C55.166 172.209 55.5716 172.346 55.9043 172.578C56.237 172.806 56.4899 173.098 56.6631 173.453C56.8408 173.809 56.9297 174.201 56.9297 174.629C56.9297 175.249 56.793 175.773 56.5195 176.201C56.2507 176.625 55.8701 176.949 55.3779 177.172C54.8857 177.391 54.307 177.5 53.6416 177.5ZM59.9512 171.266V177.5H58.6865V170.104H59.917L59.9512 171.266ZM62.2617 170.062L62.2549 171.238C62.1501 171.215 62.0498 171.202 61.9541 171.197C61.863 171.188 61.7581 171.184 61.6396 171.184C61.348 171.184 61.0905 171.229 60.8672 171.32C60.6439 171.411 60.4548 171.539 60.2998 171.703C60.1449 171.867 60.0218 172.063 59.9307 172.291C59.8441 172.514 59.7871 172.76 59.7598 173.029L59.4043 173.234C59.4043 172.788 59.4476 172.368 59.5342 171.977C59.6253 171.585 59.7643 171.238 59.9512 170.938C60.138 170.632 60.375 170.395 60.6621 170.227C60.9538 170.053 61.3001 169.967 61.7012 169.967C61.7923 169.967 61.8971 169.978 62.0156 170.001C62.1341 170.019 62.2161 170.04 62.2617 170.062ZM66.3633 177.637C65.8483 177.637 65.3812 177.55 64.9619 177.377C64.5472 177.199 64.1895 176.951 63.8887 176.632C63.5924 176.313 63.3646 175.935 63.2051 175.497C63.0456 175.06 62.9658 174.581 62.9658 174.062V173.774C62.9658 173.173 63.0547 172.637 63.2324 172.168C63.4102 171.694 63.6517 171.293 63.957 170.965C64.2624 170.637 64.6087 170.388 64.9961 170.22C65.3835 170.051 65.7845 169.967 66.1992 169.967C66.7279 169.967 67.1836 170.058 67.5664 170.24C67.9538 170.423 68.2705 170.678 68.5166 171.006C68.7627 171.329 68.945 171.712 69.0635 172.154C69.182 172.592 69.2412 173.07 69.2412 173.59V174.157H63.7178V173.125H67.9766V173.029C67.9583 172.701 67.89 172.382 67.7715 172.072C67.6576 171.762 67.4753 171.507 67.2246 171.307C66.974 171.106 66.6322 171.006 66.1992 171.006C65.9121 171.006 65.6478 171.067 65.4062 171.19C65.1647 171.309 64.9574 171.487 64.7842 171.724C64.611 171.961 64.4766 172.25 64.3809 172.592C64.2852 172.934 64.2373 173.328 64.2373 173.774V174.062C64.2373 174.412 64.2852 174.743 64.3809 175.053C64.4811 175.358 64.6247 175.627 64.8115 175.859C65.0029 176.092 65.2331 176.274 65.502 176.406C65.7754 176.538 66.0853 176.604 66.4316 176.604C66.8783 176.604 67.2565 176.513 67.5664 176.331C67.8763 176.149 68.1475 175.905 68.3799 175.6L69.1455 176.208C68.986 176.45 68.7832 176.68 68.5371 176.898C68.291 177.117 67.988 177.295 67.6279 177.432C67.2725 177.568 66.8509 177.637 66.3633 177.637ZM75.0791 176.235V172.428C75.0791 172.136 75.0199 171.883 74.9014 171.669C74.7874 171.45 74.6143 171.282 74.3818 171.163C74.1494 171.045 73.8623 170.985 73.5205 170.985C73.2015 170.985 72.9212 171.04 72.6797 171.149C72.4427 171.259 72.2559 171.402 72.1191 171.58C71.987 171.758 71.9209 171.949 71.9209 172.154H70.6562C70.6562 171.89 70.7246 171.628 70.8613 171.368C70.998 171.108 71.194 170.874 71.4492 170.664C71.709 170.45 72.0189 170.281 72.3789 170.158C72.7435 170.031 73.1491 169.967 73.5957 169.967C74.1335 169.967 74.6074 170.058 75.0176 170.24C75.4323 170.423 75.7559 170.698 75.9883 171.067C76.2253 171.432 76.3438 171.89 76.3438 172.441V175.887C76.3438 176.133 76.3643 176.395 76.4053 176.673C76.4508 176.951 76.5169 177.19 76.6035 177.391V177.5H75.2842C75.2204 177.354 75.1702 177.16 75.1338 176.919C75.0973 176.673 75.0791 176.445 75.0791 176.235ZM75.2979 173.016L75.3115 173.904H74.0332C73.6732 173.904 73.3519 173.934 73.0693 173.993C72.7868 174.048 72.5498 174.132 72.3584 174.246C72.167 174.36 72.0212 174.504 71.9209 174.677C71.8206 174.845 71.7705 175.044 71.7705 175.271C71.7705 175.504 71.8229 175.716 71.9277 175.907C72.0326 176.099 72.1898 176.251 72.3994 176.365C72.6136 176.475 72.8757 176.529 73.1855 176.529C73.5729 176.529 73.9147 176.447 74.2109 176.283C74.5072 176.119 74.7419 175.919 74.915 175.682C75.0928 175.445 75.1885 175.215 75.2021 174.991L75.7422 175.6C75.7103 175.791 75.6237 176.003 75.4824 176.235C75.3411 176.468 75.152 176.691 74.915 176.905C74.6826 177.115 74.4046 177.29 74.0811 177.432C73.762 177.568 73.402 177.637 73.001 177.637C72.4997 177.637 72.0599 177.539 71.6816 177.343C71.3079 177.147 71.0163 176.885 70.8066 176.557C70.6016 176.224 70.499 175.853 70.499 175.442C70.499 175.046 70.5765 174.697 70.7314 174.396C70.8864 174.091 71.1097 173.838 71.4014 173.638C71.693 173.433 72.0439 173.278 72.4541 173.173C72.8643 173.068 73.3223 173.016 73.8281 173.016H75.2979ZM79.6045 167V177.5H78.333V167H79.6045ZM84.123 170.104L80.8965 173.556L79.0918 175.429L78.9893 174.082L80.2812 172.537L82.5781 170.104H84.123ZM82.9678 177.5L80.3291 173.973L80.9854 172.845L84.458 177.5H82.9678Z" fill="#A6A6A6"/>
<path d="M50.5723 202.547H51.8506L55.1113 210.661L58.3652 202.547H59.6504L55.6035 212.5H54.6055L50.5723 202.547ZM50.1553 202.547H51.2832L51.4678 208.617V212.5H50.1553V202.547ZM58.9326 202.547H60.0605V212.5H58.748V208.617L58.9326 202.547ZM65.2559 212.637C64.7409 212.637 64.2738 212.55 63.8545 212.377C63.4398 212.199 63.082 211.951 62.7812 211.632C62.485 211.313 62.2572 210.935 62.0977 210.497C61.9382 210.06 61.8584 209.581 61.8584 209.062V208.774C61.8584 208.173 61.9473 207.637 62.125 207.168C62.3027 206.694 62.5443 206.293 62.8496 205.965C63.1549 205.637 63.5013 205.388 63.8887 205.22C64.276 205.051 64.6771 204.967 65.0918 204.967C65.6204 204.967 66.0762 205.058 66.459 205.24C66.8464 205.423 67.1631 205.678 67.4092 206.006C67.6553 206.329 67.8376 206.712 67.9561 207.154C68.0745 207.592 68.1338 208.07 68.1338 208.59V209.157H62.6104V208.125H66.8691V208.029C66.8509 207.701 66.7826 207.382 66.6641 207.072C66.5501 206.762 66.3678 206.507 66.1172 206.307C65.8665 206.106 65.5247 206.006 65.0918 206.006C64.8047 206.006 64.5404 206.067 64.2988 206.19C64.0573 206.309 63.8499 206.487 63.6768 206.724C63.5036 206.961 63.3691 207.25 63.2734 207.592C63.1777 207.934 63.1299 208.328 63.1299 208.774V209.062C63.1299 209.412 63.1777 209.743 63.2734 210.053C63.3737 210.358 63.5173 210.627 63.7041 210.859C63.8955 211.092 64.1257 211.274 64.3945 211.406C64.668 211.538 64.9779 211.604 65.3242 211.604C65.7708 211.604 66.1491 211.513 66.459 211.331C66.7689 211.149 67.04 210.905 67.2725 210.6L68.0381 211.208C67.8786 211.45 67.6758 211.68 67.4297 211.898C67.1836 212.117 66.8805 212.295 66.5205 212.432C66.165 212.568 65.7435 212.637 65.2559 212.637ZM70.8682 206.573V212.5H69.5967V205.104H70.7998L70.8682 206.573ZM70.6084 208.521L70.0205 208.501C70.0251 207.995 70.0911 207.528 70.2188 207.1C70.3464 206.667 70.5355 206.291 70.7861 205.972C71.0368 205.653 71.349 205.407 71.7227 205.233C72.0964 205.056 72.5293 204.967 73.0215 204.967C73.3678 204.967 73.6868 205.017 73.9785 205.117C74.2702 205.213 74.5231 205.366 74.7373 205.575C74.9515 205.785 75.1178 206.054 75.2363 206.382C75.3548 206.71 75.4141 207.106 75.4141 207.571V212.5H74.1494V207.633C74.1494 207.245 74.0833 206.936 73.9512 206.703C73.8236 206.471 73.6413 206.302 73.4043 206.197C73.1673 206.088 72.8893 206.033 72.5703 206.033C72.1966 206.033 71.8844 206.099 71.6338 206.231C71.3831 206.364 71.1826 206.546 71.0322 206.778C70.8818 207.011 70.7725 207.277 70.7041 207.578C70.6403 207.874 70.6084 208.189 70.6084 208.521ZM75.4004 207.824L74.5527 208.084C74.5573 207.678 74.6234 207.289 74.751 206.915C74.8831 206.541 75.0723 206.209 75.3184 205.917C75.569 205.625 75.8766 205.395 76.2412 205.227C76.6058 205.053 77.0228 204.967 77.4922 204.967C77.8887 204.967 78.2396 205.019 78.5449 205.124C78.8548 205.229 79.1146 205.391 79.3242 205.609C79.5384 205.824 79.7002 206.099 79.8096 206.437C79.9189 206.774 79.9736 207.175 79.9736 207.64V212.5H78.7021V207.626C78.7021 207.211 78.6361 206.89 78.5039 206.662C78.3763 206.43 78.194 206.268 77.957 206.177C77.7246 206.081 77.4466 206.033 77.123 206.033C76.8451 206.033 76.599 206.081 76.3848 206.177C76.1706 206.272 75.9906 206.405 75.8447 206.573C75.6989 206.737 75.5872 206.926 75.5098 207.141C75.4368 207.355 75.4004 207.583 75.4004 207.824ZM81.8809 202H83.1523V211.064L83.043 212.5H81.8809V202ZM88.1494 208.74V208.884C88.1494 209.422 88.0856 209.921 87.958 210.381C87.8304 210.837 87.6436 211.233 87.3975 211.57C87.1514 211.908 86.8506 212.17 86.4951 212.356C86.1396 212.543 85.7318 212.637 85.2715 212.637C84.8021 212.637 84.3896 212.557 84.0342 212.397C83.6833 212.233 83.387 211.999 83.1455 211.693C82.904 211.388 82.7103 211.019 82.5645 210.586C82.4232 210.153 82.3252 209.665 82.2705 209.123V208.494C82.3252 207.947 82.4232 207.457 82.5645 207.024C82.7103 206.591 82.904 206.222 83.1455 205.917C83.387 205.607 83.6833 205.372 84.0342 205.213C84.3851 205.049 84.793 204.967 85.2578 204.967C85.7227 204.967 86.1351 205.058 86.4951 205.24C86.8551 205.418 87.1559 205.673 87.3975 206.006C87.6436 206.339 87.8304 206.737 87.958 207.202C88.0856 207.662 88.1494 208.175 88.1494 208.74ZM86.8779 208.884V208.74C86.8779 208.371 86.8438 208.025 86.7754 207.701C86.707 207.373 86.5977 207.086 86.4473 206.84C86.2969 206.589 86.0986 206.393 85.8525 206.252C85.6064 206.106 85.3034 206.033 84.9434 206.033C84.6243 206.033 84.3464 206.088 84.1094 206.197C83.877 206.307 83.6787 206.455 83.5146 206.642C83.3506 206.824 83.2161 207.034 83.1113 207.271C83.0111 207.503 82.9359 207.744 82.8857 207.995V209.643C82.9587 209.962 83.0771 210.269 83.2412 210.565C83.4098 210.857 83.6331 211.096 83.9111 211.283C84.1937 211.47 84.5423 211.563 84.957 211.563C85.2988 211.563 85.5905 211.495 85.832 211.358C86.0781 211.217 86.2764 211.023 86.4268 210.777C86.5817 210.531 86.6956 210.246 86.7686 209.923C86.8415 209.599 86.8779 209.253 86.8779 208.884ZM92.8184 212.637C92.3034 212.637 91.8363 212.55 91.417 212.377C91.0023 212.199 90.6445 211.951 90.3438 211.632C90.0475 211.313 89.8197 210.935 89.6602 210.497C89.5007 210.06 89.4209 209.581 89.4209 209.062V208.774C89.4209 208.173 89.5098 207.637 89.6875 207.168C89.8652 206.694 90.1068 206.293 90.4121 205.965C90.7174 205.637 91.0638 205.388 91.4512 205.22C91.8385 205.051 92.2396 204.967 92.6543 204.967C93.1829 204.967 93.6387 205.058 94.0215 205.24C94.4089 205.423 94.7256 205.678 94.9717 206.006C95.2178 206.329 95.4001 206.712 95.5186 207.154C95.637 207.592 95.6963 208.07 95.6963 208.59V209.157H90.1729V208.125H94.4316V208.029C94.4134 207.701 94.3451 207.382 94.2266 207.072C94.1126 206.762 93.9303 206.507 93.6797 206.307C93.429 206.106 93.0872 206.006 92.6543 206.006C92.3672 206.006 92.1029 206.067 91.8613 206.19C91.6198 206.309 91.4124 206.487 91.2393 206.724C91.0661 206.961 90.9316 207.25 90.8359 207.592C90.7402 207.934 90.6924 208.328 90.6924 208.774V209.062C90.6924 209.412 90.7402 209.743 90.8359 210.053C90.9362 210.358 91.0798 210.627 91.2666 210.859C91.458 211.092 91.6882 211.274 91.957 211.406C92.2305 211.538 92.5404 211.604 92.8867 211.604C93.3333 211.604 93.7116 211.513 94.0215 211.331C94.3314 211.149 94.6025 210.905 94.835 210.6L95.6006 211.208C95.4411 211.45 95.2383 211.68 94.9922 211.898C94.7461 212.117 94.443 212.295 94.083 212.432C93.7275 212.568 93.306 212.637 92.8184 212.637ZM98.4375 206.266V212.5H97.1729V205.104H98.4033L98.4375 206.266ZM100.748 205.062L100.741 206.238C100.636 206.215 100.536 206.202 100.44 206.197C100.349 206.188 100.244 206.184 100.126 206.184C99.8343 206.184 99.5768 206.229 99.3535 206.32C99.1302 206.411 98.9411 206.539 98.7861 206.703C98.6312 206.867 98.5081 207.063 98.417 207.291C98.3304 207.514 98.2734 207.76 98.2461 208.029L97.8906 208.234C97.8906 207.788 97.9339 207.368 98.0205 206.977C98.1117 206.585 98.2507 206.238 98.4375 205.938C98.6243 205.632 98.8613 205.395 99.1484 205.227C99.4401 205.053 99.7865 204.967 100.188 204.967C100.279 204.967 100.383 204.978 100.502 205.001C100.62 205.019 100.702 205.04 100.748 205.062ZM106.224 210.538C106.224 210.356 106.183 210.187 106.101 210.032C106.023 209.873 105.861 209.729 105.615 209.602C105.374 209.469 105.009 209.355 104.521 209.26C104.111 209.173 103.74 209.071 103.407 208.952C103.079 208.834 102.799 208.69 102.566 208.521C102.339 208.353 102.163 208.155 102.04 207.927C101.917 207.699 101.855 207.432 101.855 207.127C101.855 206.835 101.919 206.56 102.047 206.3C102.179 206.04 102.364 205.81 102.601 205.609C102.842 205.409 103.132 205.252 103.469 205.138C103.806 205.024 104.182 204.967 104.597 204.967C105.189 204.967 105.695 205.072 106.114 205.281C106.534 205.491 106.855 205.771 107.078 206.122C107.301 206.468 107.413 206.854 107.413 207.277H106.148C106.148 207.072 106.087 206.874 105.964 206.683C105.845 206.487 105.67 206.325 105.438 206.197C105.21 206.07 104.929 206.006 104.597 206.006C104.246 206.006 103.961 206.061 103.742 206.17C103.528 206.275 103.371 206.409 103.271 206.573C103.175 206.737 103.127 206.91 103.127 207.093C103.127 207.229 103.15 207.353 103.195 207.462C103.245 207.567 103.332 207.665 103.455 207.756C103.578 207.842 103.751 207.924 103.975 208.002C104.198 208.079 104.483 208.157 104.829 208.234C105.435 208.371 105.934 208.535 106.326 208.727C106.718 208.918 107.01 209.153 107.201 209.431C107.393 209.709 107.488 210.046 107.488 210.442C107.488 210.766 107.42 211.062 107.283 211.331C107.151 211.6 106.957 211.832 106.702 212.028C106.451 212.22 106.151 212.37 105.8 212.479C105.453 212.584 105.064 212.637 104.631 212.637C103.979 212.637 103.428 212.521 102.977 212.288C102.525 212.056 102.184 211.755 101.951 211.386C101.719 211.017 101.603 210.627 101.603 210.217H102.874C102.892 210.563 102.993 210.839 103.175 211.044C103.357 211.244 103.58 211.388 103.845 211.475C104.109 211.557 104.371 211.598 104.631 211.598C104.977 211.598 105.267 211.552 105.499 211.461C105.736 211.37 105.916 211.244 106.039 211.085C106.162 210.925 106.224 210.743 106.224 210.538Z" fill="#A6A6A6"/>
<path d="M199.742 98.4648H199.988V99.9209H199.872C199.321 99.9209 198.835 100.005 198.416 100.174C198.001 100.342 197.655 100.579 197.377 100.885C197.104 101.186 196.896 101.543 196.755 101.958C196.614 102.368 196.543 102.817 196.543 103.305V104.918C196.543 105.296 196.582 105.629 196.659 105.916C196.741 106.199 196.853 106.438 196.994 106.634C197.14 106.825 197.309 106.969 197.5 107.064C197.696 107.16 197.91 107.208 198.143 107.208C198.375 107.208 198.585 107.16 198.771 107.064C198.958 106.969 199.118 106.834 199.25 106.661C199.387 106.483 199.489 106.276 199.558 106.039C199.631 105.802 199.667 105.542 199.667 105.26C199.667 104.982 199.633 104.724 199.564 104.487C199.496 104.25 199.396 104.043 199.264 103.865C199.132 103.683 198.967 103.544 198.771 103.448C198.58 103.348 198.361 103.298 198.115 103.298C197.796 103.298 197.511 103.373 197.261 103.523C197.01 103.669 196.812 103.861 196.666 104.098C196.52 104.335 196.44 104.585 196.427 104.85L195.818 104.549C195.841 104.161 195.923 103.806 196.064 103.482C196.21 103.159 196.404 102.876 196.646 102.635C196.892 102.393 197.181 102.206 197.514 102.074C197.851 101.942 198.225 101.876 198.635 101.876C199.109 101.876 199.523 101.967 199.879 102.149C200.234 102.327 200.528 102.571 200.761 102.881C200.998 103.191 201.175 103.549 201.294 103.954C201.412 104.355 201.472 104.779 201.472 105.226C201.472 105.704 201.394 106.151 201.239 106.565C201.089 106.98 200.87 107.342 200.583 107.652C200.296 107.962 199.95 108.204 199.544 108.377C199.138 108.55 198.683 108.637 198.177 108.637C197.644 108.637 197.165 108.536 196.741 108.336C196.322 108.135 195.962 107.857 195.661 107.502C195.36 107.146 195.13 106.732 194.971 106.258C194.811 105.784 194.731 105.271 194.731 104.72V103.995C194.731 103.216 194.839 102.491 195.053 101.821C195.267 101.151 195.584 100.566 196.003 100.064C196.427 99.5586 196.951 99.1667 197.575 98.8887C198.2 98.6061 198.922 98.4648 199.742 98.4648Z" fill="black"/>
<path d="M196.509 137.92L195.066 137.571L195.62 132.547H201.096V134.044H197.117L196.857 136.368C196.999 136.282 197.204 136.195 197.473 136.108C197.746 136.017 198.054 135.972 198.396 135.972C198.869 135.972 199.293 136.049 199.667 136.204C200.041 136.354 200.357 136.573 200.617 136.86C200.882 137.147 201.08 137.498 201.212 137.913C201.349 138.323 201.417 138.788 201.417 139.308C201.417 139.763 201.349 140.192 201.212 140.593C201.08 140.989 200.877 141.342 200.604 141.652C200.33 141.958 199.986 142.199 199.571 142.377C199.157 142.55 198.669 142.637 198.108 142.637C197.685 142.637 197.277 142.575 196.885 142.452C196.497 142.325 196.149 142.14 195.839 141.898C195.529 141.652 195.281 141.352 195.094 140.996C194.911 140.641 194.811 140.233 194.793 139.772H196.577C196.609 140.078 196.691 140.338 196.823 140.552C196.955 140.766 197.129 140.93 197.343 141.044C197.562 141.158 197.814 141.215 198.102 141.215C198.361 141.215 198.585 141.167 198.771 141.071C198.963 140.971 199.12 140.832 199.243 140.654C199.366 140.477 199.457 140.267 199.517 140.025C199.576 139.784 199.605 139.52 199.605 139.232C199.605 138.954 199.571 138.701 199.503 138.474C199.435 138.241 199.33 138.041 199.188 137.872C199.047 137.703 198.869 137.574 198.655 137.482C198.446 137.391 198.2 137.346 197.917 137.346C197.539 137.346 197.247 137.403 197.042 137.517C196.841 137.631 196.664 137.765 196.509 137.92Z" fill="black"/>
<path d="M199.366 167.52V177.5H197.555V169.632L195.155 170.425V168.962L199.161 167.52H199.366Z" fill="black"/>
<path d="M195.366 203.52V213.5H193.555V205.632L191.155 206.425V204.962L195.161 203.52H195.366ZM205.456 212.078V213.5H198.716V212.283L201.949 208.79C202.286 208.407 202.553 208.075 202.749 207.792C202.945 207.509 203.084 207.254 203.166 207.026C203.253 206.794 203.296 206.573 203.296 206.363C203.296 206.058 203.241 205.791 203.132 205.563C203.022 205.331 202.863 205.151 202.653 205.023C202.448 204.896 202.195 204.832 201.895 204.832C201.562 204.832 201.277 204.91 201.04 205.064C200.808 205.215 200.63 205.424 200.507 205.693C200.388 205.962 200.329 206.27 200.329 206.616H198.518C198.518 206.028 198.654 205.493 198.928 205.01C199.201 204.522 199.593 204.132 200.104 203.841C200.614 203.549 201.22 203.403 201.922 203.403C202.605 203.403 203.184 203.517 203.658 203.745C204.132 203.968 204.492 204.287 204.738 204.702C204.984 205.117 205.107 205.611 205.107 206.186C205.107 206.505 205.055 206.819 204.95 207.129C204.845 207.439 204.697 207.746 204.506 208.052C204.319 208.353 204.096 208.658 203.836 208.968C203.576 209.278 203.287 209.594 202.968 209.918L201.026 212.078H205.456Z" fill="black"/>
<circle cx="164" cy="103.5" r="3" fill="#00A52E"/>
<circle cx="164" cy="137.5" r="3" fill="#FF0707"/>
<circle cx="164" cy="172.5" r="3" fill="#FFAF75"/>
<circle cx="164" cy="208.5" r="3" fill="#408BFF"/>
<defs>
<filter id="filter0_d_1149_4385" x="0" y="0.5" width="248" height="266" filterUnits="userSpaceOnUse" color-interpolation-filters="sRGB">
<feFlood flood-opacity="0" result="BackgroundImageFix"/>
<feColorMatrix in="SourceAlpha" type="matrix" values="0 0 0 0 0 0 0 0 0 0 0 0 0 0 0 0 0 0 127 0" result="hardAlpha"/>
<feOffset dy="4"/>
<feGaussianBlur stdDeviation="12"/>
<feComposite in2="hardAlpha" operator="out"/>
<feColorMatrix type="matrix" values="0 0 0 0 0 0 0 0 0 0 0 0 0 0 0 0 0 0 0.05 0"/>
<feBlend mode="normal" in2="BackgroundImageFix" result="effect1_dropShadow_1149_4385"/>
<feBlend mode="normal" in="SourceGraphic" in2="effect1_dropShadow_1149_4385" result="shape"/>
</filter>
</defs>
</svg>
