<svg width="51" height="51" viewBox="0 0 51 51" fill="none" xmlns="http://www.w3.org/2000/svg">
<circle cx="25.1714" cy="25.4429" r="25" fill="#FFF6DB"/>
<path d="M34.8544 27.8385V21.067C34.8842 20.5366 34.8056 20.0057 34.6231 19.5067C34.4407 19.0077 34.1584 18.5512 33.7935 18.1652C33.4285 17.7791 32.9886 17.4715 32.5007 17.2614C32.0128 17.0512 31.4871 16.9427 30.9558 16.9427C30.4246 16.9427 29.8989 17.0512 29.411 17.2614C28.923 17.4715 28.4832 17.7791 28.1182 18.1652C27.7533 18.5512 27.4709 19.0077 27.2885 19.5067C27.1061 20.0057 27.0274 20.5366 27.0573 21.067V22.7599C27.0003 21.4641 26.5084 20.2253 25.6609 19.2434C24.8135 18.2614 23.66 17.5936 22.3865 17.3477C22.1214 17.2958 21.853 17.2627 21.5833 17.2488H20.9407C19.4666 17.331 18.0801 17.9751 17.0664 19.0485C16.0528 20.1219 15.4891 21.543 15.4914 23.0194C15.4791 23.1839 15.4791 23.3491 15.4914 23.5137V30.1122C15.5475 31.1082 15.9827 32.0449 16.7077 32.7302C17.4326 33.4155 18.3924 33.7973 19.39 33.7973C20.3875 33.7973 21.3473 33.4155 22.0723 32.7302C22.7972 32.0449 23.2324 31.1082 23.2885 30.1122V30.038V28.4193C23.3433 29.7157 23.8345 30.9557 24.6823 31.938C25.5301 32.9204 26.6848 33.5876 27.9593 33.8315C28.3211 33.9065 28.6896 33.9437 29.0591 33.9427C29.8179 33.9427 30.5693 33.7931 31.2702 33.5023C31.9712 33.2115 32.6079 32.7854 33.1439 32.2482C33.6799 31.711 34.1047 31.0734 34.394 30.3719C34.6832 29.6703 34.8313 28.9186 34.8297 28.1598C34.8443 28.0533 34.8526 27.946 34.8544 27.8385Z" fill="#F1C025"/>
</svg>
