<svg width="248" height="211" viewBox="0 0 248 211" fill="none" xmlns="http://www.w3.org/2000/svg">
<g filter="url(#filter0_d_1149_4549)">
<rect x="24" y="20.9192" width="200" height="162" rx="10" fill="white"/>
</g>
<path d="M64.2 157.32C62.5787 157.298 61.1493 156.936 59.912 156.232C58.696 155.506 57.672 154.589 56.84 153.48C56.008 152.349 55.3787 151.112 54.952 149.768C54.5467 148.402 54.344 147.08 54.344 145.8C54.344 144.434 54.568 143.069 55.016 141.704C55.4853 140.317 56.1467 139.08 57 137.992C57.8533 136.882 58.888 135.986 60.104 135.304C61.32 134.621 62.6853 134.28 64.2 134.28C65.8213 134.28 67.2507 134.653 68.488 135.4C69.7253 136.125 70.76 137.053 71.592 138.184C72.424 139.314 73.0427 140.562 73.448 141.928C73.8747 143.272 74.088 144.562 74.088 145.8C74.088 147.186 73.8533 148.562 73.384 149.928C72.936 151.293 72.2853 152.53 71.432 153.64C70.5787 154.728 69.544 155.613 68.328 156.296C67.112 156.978 65.736 157.32 64.2 157.32ZM58.792 145.8C58.8133 146.696 58.9307 147.592 59.144 148.488C59.3787 149.384 59.7093 150.205 60.136 150.952C60.584 151.677 61.1387 152.274 61.8 152.744C62.4827 153.192 63.2827 153.416 64.2 153.416C65.16 153.416 65.9813 153.17 66.664 152.68C67.3467 152.189 67.9013 151.57 68.328 150.824C68.776 150.056 69.1067 149.234 69.32 148.36C69.5333 147.464 69.64 146.61 69.64 145.8C69.64 144.904 69.5227 144.008 69.288 143.112C69.0533 142.216 68.712 141.405 68.264 140.68C67.816 139.933 67.2507 139.336 66.568 138.888C65.8853 138.418 65.096 138.184 64.2 138.184C63.2613 138.184 62.4507 138.429 61.768 138.92C61.0853 139.41 60.52 140.04 60.072 140.808C59.6453 141.554 59.3253 142.376 59.112 143.272C58.8987 144.168 58.792 145.01 58.792 145.8ZM85.9545 138.184H75.6505V134.28H92.7385L81.4425 157H76.5785L85.9545 138.184Z" fill="#2C2C2C"/>
<path d="M59 119.58C58.2 119.58 57.4747 119.42 56.824 119.1C56.1733 118.78 55.6133 118.348 55.144 117.804C54.6747 117.249 54.312 116.631 54.056 115.948C53.8 115.255 53.672 114.545 53.672 113.82C53.672 113.063 53.8053 112.343 54.072 111.66C54.3387 110.967 54.712 110.353 55.192 109.82C55.6827 109.276 56.2533 108.849 56.904 108.54C57.5547 108.22 58.2587 108.06 59.016 108.06C59.816 108.06 60.5413 108.225 61.192 108.556C61.8427 108.887 62.3973 109.329 62.856 109.884C63.3253 110.439 63.688 111.057 63.944 111.74C64.2 112.423 64.328 113.121 64.328 113.836C64.328 114.593 64.1947 115.319 63.928 116.012C63.6613 116.695 63.288 117.308 62.808 117.852C62.328 118.385 61.7627 118.807 61.112 119.116C60.4613 119.425 59.7573 119.58 59 119.58ZM54.792 113.82C54.792 114.439 54.8933 115.036 55.096 115.612C55.2987 116.177 55.5867 116.684 55.96 117.132C56.3333 117.569 56.776 117.921 57.288 118.188C57.8107 118.444 58.3813 118.572 59 118.572C59.6507 118.572 60.232 118.439 60.744 118.172C61.2667 117.895 61.7093 117.532 62.072 117.084C62.4453 116.625 62.728 116.113 62.92 115.548C63.112 114.983 63.208 114.407 63.208 113.82C63.208 113.201 63.1067 112.609 62.904 112.044C62.7013 111.479 62.408 110.972 62.024 110.524C61.6507 110.076 61.208 109.724 60.696 109.468C60.184 109.212 59.6187 109.084 59 109.084C58.36 109.084 57.7787 109.217 57.256 109.484C56.744 109.751 56.3013 110.113 55.928 110.572C55.5653 111.02 55.2827 111.527 55.08 112.092C54.888 112.657 54.792 113.233 54.792 113.82ZM73.1611 119.5H72.0731V114.844C72.0731 113.863 71.9291 113.148 71.6411 112.7C71.3531 112.241 70.8998 112.012 70.2811 112.012C69.8545 112.012 69.4331 112.119 69.0171 112.332C68.6011 112.535 68.2331 112.817 67.9131 113.18C67.6038 113.532 67.3798 113.937 67.2411 114.396V119.5H66.1531V111.164H67.1451V113.052C67.3691 112.647 67.6625 112.295 68.0251 111.996C68.3878 111.687 68.7985 111.447 69.2571 111.276C69.7158 111.105 70.1905 111.02 70.6811 111.02C71.1398 111.02 71.5291 111.105 71.8491 111.276C72.1691 111.447 72.4251 111.692 72.6171 112.012C72.8091 112.321 72.9478 112.7 73.0331 113.148C73.1185 113.585 73.1611 114.076 73.1611 114.62V119.5ZM78.8253 119.612C78.2599 119.612 77.7373 119.495 77.2573 119.26C76.7773 119.025 76.3613 118.711 76.0093 118.316C75.6679 117.911 75.4013 117.452 75.2093 116.94C75.0173 116.428 74.9213 115.9 74.9213 115.356C74.9213 114.769 75.0119 114.22 75.1933 113.708C75.3853 113.185 75.6519 112.721 75.9933 112.316C76.3453 111.911 76.7559 111.596 77.2253 111.372C77.6946 111.137 78.2173 111.02 78.7933 111.02C79.5079 111.02 80.1266 111.201 80.6493 111.564C81.1826 111.927 81.6306 112.375 81.9933 112.908V111.164H82.9693V119.532C82.9693 120.3 82.7826 120.945 82.4093 121.468C82.0466 122.001 81.5506 122.401 80.9213 122.668C80.3026 122.935 79.6253 123.068 78.8893 123.068C77.9399 123.068 77.1719 122.897 76.5853 122.556C75.9986 122.215 75.5186 121.756 75.1453 121.18L75.8173 120.652C76.1479 121.175 76.5853 121.564 77.1293 121.82C77.6839 122.076 78.2706 122.204 78.8893 122.204C79.4333 122.204 79.9293 122.103 80.3773 121.9C80.8359 121.708 81.1986 121.415 81.4653 121.02C81.7426 120.625 81.8813 120.129 81.8813 119.532V117.884C81.5613 118.407 81.1239 118.828 80.5693 119.148C80.0146 119.457 79.4333 119.612 78.8253 119.612ZM79.1293 118.7C79.4599 118.7 79.7746 118.641 80.0733 118.524C80.3826 118.407 80.6653 118.252 80.9213 118.06C81.1773 117.857 81.3906 117.633 81.5613 117.388C81.7319 117.143 81.8386 116.892 81.8813 116.636V114.06C81.7213 113.655 81.4919 113.297 81.1933 112.988C80.8946 112.668 80.5533 112.423 80.1693 112.252C79.7959 112.071 79.4066 111.98 79.0013 111.98C78.5319 111.98 78.1106 112.081 77.7373 112.284C77.3746 112.476 77.0653 112.737 76.8093 113.068C76.5639 113.388 76.3719 113.751 76.2333 114.156C76.0946 114.561 76.0253 114.967 76.0253 115.372C76.0253 115.82 76.1053 116.247 76.2653 116.652C76.4253 117.047 76.6439 117.404 76.9213 117.724C77.2093 118.033 77.5399 118.273 77.9133 118.444C78.2973 118.615 78.7026 118.7 79.1293 118.7ZM88.9239 119.66C88.3265 119.66 87.7719 119.548 87.2599 119.324C86.7585 119.089 86.3212 118.775 85.9479 118.38C85.5852 117.975 85.3025 117.516 85.0999 117.004C84.8972 116.481 84.7959 115.932 84.7959 115.356C84.7959 114.759 84.8972 114.204 85.0999 113.692C85.3025 113.169 85.5905 112.711 85.9639 112.316C86.3372 111.911 86.7745 111.596 87.2759 111.372C87.7879 111.137 88.3425 111.02 88.9399 111.02C89.5372 111.02 90.0865 111.137 90.5879 111.372C91.0892 111.596 91.5265 111.911 91.8999 112.316C92.2732 112.711 92.5612 113.169 92.7639 113.692C92.9665 114.204 93.0679 114.759 93.0679 115.356C93.0679 115.932 92.9665 116.481 92.7639 117.004C92.5612 117.516 92.2732 117.975 91.8999 118.38C91.5372 118.775 91.0999 119.089 90.5879 119.324C90.0865 119.548 89.5319 119.66 88.9239 119.66ZM85.8999 115.372C85.8999 115.991 86.0332 116.556 86.2999 117.068C86.5772 117.569 86.9452 117.969 87.4039 118.268C87.8625 118.556 88.3692 118.7 88.9239 118.7C89.4785 118.7 89.9852 118.551 90.4439 118.252C90.9025 117.953 91.2705 117.548 91.5479 117.036C91.8252 116.513 91.9639 115.948 91.9639 115.34C91.9639 114.721 91.8252 114.156 91.5479 113.644C91.2705 113.132 90.9025 112.727 90.4439 112.428C89.9852 112.129 89.4785 111.98 88.9239 111.98C88.3692 111.98 87.8625 112.135 87.4039 112.444C86.9559 112.753 86.5932 113.164 86.3159 113.676C86.0385 114.177 85.8999 114.743 85.8999 115.372ZM94.8875 119.5V111.164H95.9755V119.5H94.8875ZM94.8875 109.42V107.82H95.9755V109.42H94.8875ZM105.38 119.5H104.292V114.844C104.292 113.863 104.148 113.148 103.86 112.7C103.572 112.241 103.119 112.012 102.5 112.012C102.073 112.012 101.652 112.119 101.236 112.332C100.82 112.535 100.452 112.817 100.132 113.18C99.8225 113.532 99.5985 113.937 99.4599 114.396V119.5H98.3719V111.164H99.3639V113.052C99.5879 112.647 99.8812 112.295 100.244 111.996C100.607 111.687 101.017 111.447 101.476 111.276C101.935 111.105 102.409 111.02 102.9 111.02C103.359 111.02 103.748 111.105 104.068 111.276C104.388 111.447 104.644 111.692 104.836 112.012C105.028 112.321 105.167 112.7 105.252 113.148C105.337 113.585 105.38 114.076 105.38 114.62V119.5ZM111.044 119.612C110.479 119.612 109.956 119.495 109.476 119.26C108.996 119.025 108.58 118.711 108.228 118.316C107.887 117.911 107.62 117.452 107.428 116.94C107.236 116.428 107.14 115.9 107.14 115.356C107.14 114.769 107.231 114.22 107.412 113.708C107.604 113.185 107.871 112.721 108.212 112.316C108.564 111.911 108.975 111.596 109.444 111.372C109.913 111.137 110.436 111.02 111.012 111.02C111.727 111.02 112.345 111.201 112.868 111.564C113.401 111.927 113.849 112.375 114.212 112.908V111.164H115.188V119.532C115.188 120.3 115.001 120.945 114.628 121.468C114.265 122.001 113.769 122.401 113.14 122.668C112.521 122.935 111.844 123.068 111.108 123.068C110.159 123.068 109.391 122.897 108.804 122.556C108.217 122.215 107.737 121.756 107.364 121.18L108.036 120.652C108.367 121.175 108.804 121.564 109.348 121.82C109.903 122.076 110.489 122.204 111.108 122.204C111.652 122.204 112.148 122.103 112.596 121.9C113.055 121.708 113.417 121.415 113.684 121.02C113.961 120.625 114.1 120.129 114.1 119.532V117.884C113.78 118.407 113.343 118.828 112.788 119.148C112.233 119.457 111.652 119.612 111.044 119.612ZM111.348 118.7C111.679 118.7 111.993 118.641 112.292 118.524C112.601 118.407 112.884 118.252 113.14 118.06C113.396 117.857 113.609 117.633 113.78 117.388C113.951 117.143 114.057 116.892 114.1 116.636V114.06C113.94 113.655 113.711 113.297 113.412 112.988C113.113 112.668 112.772 112.423 112.388 112.252C112.015 112.071 111.625 111.98 111.22 111.98C110.751 111.98 110.329 112.081 109.956 112.284C109.593 112.476 109.284 112.737 109.028 113.068C108.783 113.388 108.591 113.751 108.452 114.156C108.313 114.561 108.244 114.967 108.244 115.372C108.244 115.82 108.324 116.247 108.484 116.652C108.644 117.047 108.863 117.404 109.14 117.724C109.428 118.033 109.759 118.273 110.132 118.444C110.516 118.615 110.921 118.7 111.348 118.7ZM121.893 119.5V108.14H126.597C127.087 108.14 127.535 108.241 127.941 108.444C128.357 108.647 128.714 108.924 129.013 109.276C129.311 109.617 129.546 110.001 129.717 110.428C129.887 110.844 129.973 111.271 129.973 111.708C129.973 112.327 129.834 112.913 129.557 113.468C129.29 114.012 128.911 114.455 128.421 114.796C127.93 115.137 127.354 115.308 126.693 115.308H123.013V119.5H121.893ZM123.013 114.316H126.645C127.093 114.316 127.482 114.193 127.813 113.948C128.143 113.703 128.399 113.383 128.581 112.988C128.762 112.593 128.853 112.167 128.853 111.708C128.853 111.239 128.746 110.807 128.533 110.412C128.319 110.017 128.037 109.708 127.685 109.484C127.343 109.249 126.965 109.132 126.549 109.132H123.013V114.316ZM135.782 112.124C135.057 112.145 134.417 112.348 133.862 112.732C133.318 113.116 132.934 113.644 132.71 114.316V119.5H131.622V111.164H132.646V113.164C132.934 112.577 133.313 112.103 133.782 111.74C134.262 111.377 134.769 111.175 135.302 111.132C135.409 111.121 135.499 111.116 135.574 111.116C135.659 111.116 135.729 111.121 135.782 111.132V112.124ZM140.518 119.66C139.92 119.66 139.366 119.548 138.854 119.324C138.352 119.089 137.915 118.775 137.542 118.38C137.179 117.975 136.896 117.516 136.694 117.004C136.491 116.481 136.39 115.932 136.39 115.356C136.39 114.759 136.491 114.204 136.694 113.692C136.896 113.169 137.184 112.711 137.558 112.316C137.931 111.911 138.368 111.596 138.87 111.372C139.382 111.137 139.936 111.02 140.534 111.02C141.131 111.02 141.68 111.137 142.182 111.372C142.683 111.596 143.12 111.911 143.494 112.316C143.867 112.711 144.155 113.169 144.358 113.692C144.56 114.204 144.662 114.759 144.662 115.356C144.662 115.932 144.56 116.481 144.358 117.004C144.155 117.516 143.867 117.975 143.494 118.38C143.131 118.775 142.694 119.089 142.182 119.324C141.68 119.548 141.126 119.66 140.518 119.66ZM137.494 115.372C137.494 115.991 137.627 116.556 137.894 117.068C138.171 117.569 138.539 117.969 138.998 118.268C139.456 118.556 139.963 118.7 140.518 118.7C141.072 118.7 141.579 118.551 142.038 118.252C142.496 117.953 142.864 117.548 143.142 117.036C143.419 116.513 143.558 115.948 143.558 115.34C143.558 114.721 143.419 114.156 143.142 113.644C142.864 113.132 142.496 112.727 142.038 112.428C141.579 112.129 141.072 111.98 140.518 111.98C139.963 111.98 139.456 112.135 138.998 112.444C138.55 112.753 138.187 113.164 137.91 113.676C137.632 114.177 137.494 114.743 137.494 115.372ZM145.233 122.396C144.881 122.396 144.551 122.348 144.241 122.252C143.921 122.156 143.644 121.996 143.409 121.772L143.937 121.036C144.097 121.185 144.284 121.287 144.497 121.34C144.7 121.393 144.903 121.42 145.105 121.42C145.361 121.42 145.601 121.356 145.825 121.228C146.049 121.1 146.231 120.919 146.369 120.684C146.519 120.46 146.593 120.209 146.593 119.932V111.164H147.681V119.868C147.681 120.359 147.564 120.796 147.329 121.18C147.095 121.564 146.791 121.863 146.417 122.076C146.044 122.289 145.649 122.396 145.233 122.396ZM146.593 109.42V107.82H147.681V109.42H146.593ZM153.675 119.66C153.078 119.66 152.523 119.548 152.011 119.324C151.499 119.089 151.056 118.775 150.683 118.38C150.31 117.975 150.016 117.511 149.803 116.988C149.6 116.465 149.499 115.905 149.499 115.308C149.499 114.529 149.675 113.815 150.027 113.164C150.39 112.513 150.886 111.996 151.515 111.612C152.144 111.217 152.859 111.02 153.659 111.02C154.48 111.02 155.195 111.217 155.803 111.612C156.422 112.007 156.907 112.529 157.259 113.18C157.611 113.82 157.787 114.524 157.787 115.292C157.787 115.377 157.787 115.463 157.787 115.548C157.787 115.623 157.782 115.681 157.771 115.724H150.635C150.688 116.321 150.854 116.855 151.131 117.324C151.419 117.783 151.787 118.151 152.235 118.428C152.694 118.695 153.19 118.828 153.723 118.828C154.267 118.828 154.779 118.689 155.259 118.412C155.75 118.135 156.091 117.772 156.283 117.324L157.227 117.58C157.056 117.975 156.795 118.332 156.443 118.652C156.091 118.972 155.675 119.223 155.195 119.404C154.726 119.575 154.219 119.66 153.675 119.66ZM150.603 114.94H156.763C156.72 114.332 156.555 113.799 156.267 113.34C155.99 112.881 155.622 112.524 155.163 112.268C154.715 112.001 154.219 111.868 153.675 111.868C153.131 111.868 152.635 112.001 152.187 112.268C151.739 112.524 151.371 112.887 151.083 113.356C150.806 113.815 150.646 114.343 150.603 114.94ZM163.082 119.66C162.474 119.66 161.914 119.548 161.402 119.324C160.9 119.089 160.458 118.769 160.074 118.364C159.7 117.959 159.407 117.495 159.194 116.972C158.991 116.449 158.89 115.895 158.89 115.308C158.89 114.519 159.066 113.799 159.418 113.148C159.77 112.497 160.26 111.98 160.89 111.596C161.519 111.212 162.244 111.02 163.066 111.02C163.844 111.02 164.532 111.201 165.13 111.564C165.727 111.916 166.17 112.396 166.458 113.004L165.402 113.34C165.167 112.913 164.836 112.583 164.41 112.348C163.994 112.103 163.53 111.98 163.018 111.98C162.463 111.98 161.956 112.124 161.498 112.412C161.039 112.7 160.671 113.095 160.394 113.596C160.127 114.097 159.994 114.668 159.994 115.308C159.994 115.937 160.132 116.508 160.41 117.02C160.687 117.532 161.055 117.943 161.514 118.252C161.972 118.551 162.479 118.7 163.034 118.7C163.396 118.7 163.743 118.636 164.074 118.508C164.415 118.38 164.708 118.209 164.954 117.996C165.21 117.772 165.38 117.532 165.466 117.276L166.538 117.596C166.388 117.991 166.138 118.348 165.786 118.668C165.444 118.977 165.039 119.223 164.57 119.404C164.111 119.575 163.615 119.66 163.082 119.66ZM172.247 119.1C172.162 119.132 172.028 119.191 171.847 119.276C171.666 119.361 171.447 119.436 171.191 119.5C170.935 119.564 170.658 119.596 170.359 119.596C170.05 119.596 169.756 119.537 169.479 119.42C169.212 119.303 168.999 119.127 168.839 118.892C168.679 118.647 168.599 118.348 168.599 117.996V112.028H167.447V111.164H168.599V108.348H169.687V111.164H171.607V112.028H169.687V117.692C169.708 117.991 169.815 118.215 170.007 118.364C170.21 118.513 170.439 118.588 170.695 118.588C170.994 118.588 171.266 118.54 171.511 118.444C171.756 118.337 171.906 118.263 171.959 118.22L172.247 119.1ZM176.342 119.66C175.66 119.66 175.025 119.548 174.438 119.324C173.852 119.1 173.345 118.759 172.918 118.3L173.366 117.532C173.836 117.969 174.305 118.289 174.774 118.492C175.254 118.684 175.761 118.78 176.294 118.78C176.945 118.78 177.473 118.652 177.878 118.396C178.284 118.129 178.486 117.751 178.486 117.26C178.486 116.929 178.385 116.679 178.182 116.508C177.99 116.327 177.708 116.183 177.334 116.076C176.972 115.959 176.534 115.836 176.022 115.708C175.446 115.548 174.961 115.383 174.566 115.212C174.182 115.031 173.889 114.807 173.686 114.54C173.494 114.263 173.398 113.905 173.398 113.468C173.398 112.924 173.532 112.476 173.798 112.124C174.076 111.761 174.449 111.489 174.918 111.308C175.398 111.116 175.932 111.02 176.518 111.02C177.158 111.02 177.724 111.121 178.214 111.324C178.705 111.527 179.105 111.809 179.414 112.172L178.886 112.908C178.588 112.567 178.23 112.316 177.814 112.156C177.409 111.985 176.956 111.9 176.454 111.9C176.113 111.9 175.788 111.948 175.478 112.044C175.169 112.129 174.913 112.279 174.71 112.492C174.518 112.695 174.422 112.977 174.422 113.34C174.422 113.639 174.497 113.873 174.646 114.044C174.796 114.204 175.02 114.343 175.318 114.46C175.617 114.567 175.985 114.684 176.422 114.812C177.052 114.983 177.601 115.159 178.07 115.34C178.54 115.511 178.902 115.735 179.158 116.012C179.414 116.289 179.542 116.679 179.542 117.18C179.542 117.959 179.249 118.567 178.662 119.004C178.076 119.441 177.302 119.66 176.342 119.66Z" fill="black"/>
<circle cx="76.1992" cy="64.4707" r="25" fill="#E9E5FF"/>
<path d="M84.0192 55.9707H68.3792C68.0031 55.9707 67.6992 56.2746 67.6992 56.6507V72.2907C67.6992 72.6668 68.0031 72.9707 68.3792 72.9707H84.0192C84.3953 72.9707 84.6992 72.6668 84.6992 72.2907V56.6507C84.6992 56.2746 84.3953 55.9707 84.0192 55.9707ZM73.1392 69.4007C73.1392 69.4942 73.0627 69.5707 72.9692 69.5707H71.2692C71.1757 69.5707 71.0992 69.4942 71.0992 69.4007V59.5407C71.0992 59.4472 71.1757 59.3707 71.2692 59.3707H72.9692C73.0627 59.3707 73.1392 59.4472 73.1392 59.5407V69.4007ZM77.2192 63.4507C77.2192 63.5442 77.1427 63.6207 77.0492 63.6207H75.3492C75.2557 63.6207 75.1792 63.5442 75.1792 63.4507V59.5407C75.1792 59.4472 75.2557 59.3707 75.3492 59.3707H77.0492C77.1427 59.3707 77.2192 59.4472 77.2192 59.5407V63.4507ZM81.2992 64.9807C81.2992 65.0742 81.2227 65.1507 81.1292 65.1507H79.4292C79.3357 65.1507 79.2592 65.0742 79.2592 64.9807V59.5407C79.2592 59.4472 79.3357 59.3707 79.4292 59.3707H81.1292C81.2227 59.3707 81.2992 59.4472 81.2992 59.5407V64.9807Z" fill="#7B61FF"/>
<defs>
<filter id="filter0_d_1149_4549" x="0" y="0.919189" width="248" height="210" filterUnits="userSpaceOnUse" color-interpolation-filters="sRGB">
<feFlood flood-opacity="0" result="BackgroundImageFix"/>
<feColorMatrix in="SourceAlpha" type="matrix" values="0 0 0 0 0 0 0 0 0 0 0 0 0 0 0 0 0 0 127 0" result="hardAlpha"/>
<feOffset dy="4"/>
<feGaussianBlur stdDeviation="12"/>
<feComposite in2="hardAlpha" operator="out"/>
<feColorMatrix type="matrix" values="0 0 0 0 0 0 0 0 0 0 0 0 0 0 0 0 0 0 0.05 0"/>
<feBlend mode="normal" in2="BackgroundImageFix" result="effect1_dropShadow_1149_4549"/>
<feBlend mode="normal" in="SourceGraphic" in2="effect1_dropShadow_1149_4549" result="shape"/>
</filter>
</defs>
</svg>
