<svg width="462" height="210" viewBox="0 0 462 210" fill="none" xmlns="http://www.w3.org/2000/svg">
<g filter="url(#filter0_d_2855_4776)">
<rect x="24" y="20" width="414" height="162" rx="10" fill="white"/>
</g>
<path d="M92.4906 152.085V155.957H79.6266V152.085H84.0426V137.301C83.8719 137.557 83.5839 137.845 83.1786 138.165C82.7946 138.463 82.3466 138.762 81.8346 139.061C81.3439 139.338 80.8319 139.573 80.2986 139.765C79.7866 139.957 79.3173 140.053 78.8906 140.053V136.085C79.4666 136.085 80.0533 135.935 80.6506 135.637C81.2479 135.317 81.7919 134.975 82.2826 134.613C82.7946 134.229 83.2106 133.877 83.5306 133.557C83.8506 133.237 84.0213 133.055 84.0426 133.013H88.4266V152.085H92.4906ZM94.4821 140.981C94.4821 139.871 94.6954 138.837 95.1221 137.877C95.5488 136.917 96.1354 136.085 96.8821 135.381C97.6288 134.655 98.5034 134.09 99.5061 133.685C100.53 133.279 101.629 133.077 102.802 133.077C104.082 133.077 105.234 133.311 106.258 133.781C107.303 134.25 108.178 134.933 108.882 135.829C109.607 136.703 110.162 137.791 110.546 139.093C110.951 140.373 111.154 141.834 111.154 143.477C111.154 145.546 110.941 147.381 110.514 148.981C110.109 150.559 109.522 151.893 108.754 152.981C108.007 154.069 107.09 154.89 106.002 155.445C104.914 155.999 103.698 156.277 102.354 156.277C100.925 156.277 99.6021 155.967 98.3861 155.349C97.1914 154.709 96.1781 153.813 95.3461 152.661L97.8101 149.973C98.3221 150.783 98.9728 151.413 99.7621 151.861C100.573 152.309 101.458 152.533 102.418 152.533C103.847 152.533 104.989 151.967 105.842 150.837C106.695 149.706 107.143 148.106 107.186 146.037C106.738 146.805 106.098 147.413 105.266 147.861C104.434 148.309 103.485 148.533 102.418 148.533C101.287 148.533 100.242 148.341 99.2821 147.957C98.3221 147.573 97.4794 147.039 96.7541 146.357C96.0501 145.674 95.4954 144.874 95.0901 143.957C94.6848 143.039 94.4821 142.047 94.4821 140.981ZM102.77 136.661C102.194 136.661 101.65 136.778 101.138 137.013C100.647 137.247 100.21 137.557 99.8261 137.941C99.4634 138.325 99.1648 138.783 98.9301 139.317C98.7168 139.829 98.6101 140.373 98.6101 140.949C98.6101 141.525 98.7168 142.069 98.9301 142.581C99.1648 143.071 99.4634 143.509 99.8261 143.893C100.21 144.277 100.658 144.575 101.17 144.789C101.682 145.002 102.226 145.109 102.802 145.109C103.378 145.109 103.922 145.002 104.434 144.789C104.946 144.575 105.383 144.287 105.746 143.925C106.13 143.541 106.429 143.103 106.642 142.613C106.877 142.101 106.994 141.557 106.994 140.981C106.994 140.405 106.877 139.861 106.642 139.349C106.429 138.815 106.13 138.357 105.746 137.973C105.362 137.567 104.914 137.247 104.402 137.013C103.89 136.778 103.346 136.661 102.77 136.661Z" fill="#2C2C2C"/>
<path d="M89.8528 118.457V107.097H90.9728V118.457H89.8528ZM100.606 118.457H99.5176V113.801C99.5176 112.82 99.3736 112.105 99.0856 111.657C98.7976 111.198 98.3442 110.969 97.7256 110.969C97.2989 110.969 96.8776 111.076 96.4616 111.289C96.0456 111.492 95.6776 111.774 95.3576 112.137C95.0482 112.489 94.8242 112.894 94.6856 113.353V118.457H93.5976V110.121H94.5896V112.009C94.8136 111.604 95.1069 111.252 95.4696 110.953C95.8322 110.644 96.2429 110.404 96.7016 110.233C97.1602 110.062 97.6349 109.977 98.1256 109.977C98.5842 109.977 98.9736 110.062 99.2936 110.233C99.6136 110.404 99.8696 110.649 100.062 110.969C100.254 111.278 100.392 111.657 100.478 112.105C100.563 112.542 100.606 113.033 100.606 113.577V118.457Z" fill="black"/>
<circle cx="95.2964" cy="63.8311" r="25" fill="#DBFFE5"/>
<path d="M89.7583 59.842V69.15M89.7583 69.15H99.0663M89.7583 69.15L100.396 58.5123" stroke="#00A52E" stroke-width="2.5" stroke-linecap="round" stroke-linejoin="round"/>
<path d="M357.17 156.277C355.548 156.255 354.119 155.893 352.882 155.189C351.666 154.463 350.642 153.546 349.81 152.437C348.978 151.306 348.348 150.069 347.922 148.725C347.516 147.359 347.314 146.037 347.314 144.757C347.314 143.391 347.538 142.026 347.986 140.661C348.455 139.274 349.116 138.037 349.97 136.949C350.823 135.839 351.858 134.943 353.074 134.261C354.29 133.578 355.655 133.237 357.17 133.237C358.791 133.237 360.22 133.61 361.458 134.357C362.695 135.082 363.73 136.01 364.562 137.141C365.394 138.271 366.012 139.519 366.418 140.885C366.844 142.229 367.058 143.519 367.058 144.757C367.058 146.143 366.823 147.519 366.354 148.885C365.906 150.25 365.255 151.487 364.402 152.597C363.548 153.685 362.514 154.57 361.298 155.253C360.082 155.935 358.706 156.277 357.17 156.277ZM351.762 144.757C351.783 145.653 351.9 146.549 352.114 147.445C352.348 148.341 352.679 149.162 353.106 149.909C353.554 150.634 354.108 151.231 354.77 151.701C355.452 152.149 356.252 152.373 357.17 152.373C358.13 152.373 358.951 152.127 359.634 151.637C360.316 151.146 360.871 150.527 361.298 149.781C361.746 149.013 362.076 148.191 362.29 147.317C362.503 146.421 362.61 145.567 362.61 144.757C362.61 143.861 362.492 142.965 362.258 142.069C362.023 141.173 361.682 140.362 361.234 139.637C360.786 138.89 360.22 138.293 359.538 137.845C358.855 137.375 358.066 137.141 357.17 137.141C356.231 137.141 355.42 137.386 354.738 137.877C354.055 138.367 353.49 138.997 353.042 139.765C352.615 140.511 352.295 141.333 352.082 142.229C351.868 143.125 351.762 143.967 351.762 144.757ZM369.719 155.957C369.719 154.485 369.815 153.205 370.007 152.117C370.22 151.007 370.551 150.037 370.999 149.205C371.468 148.373 372.076 147.647 372.823 147.029C373.57 146.41 374.487 145.834 375.575 145.301C376.279 144.959 376.972 144.639 377.655 144.341C378.338 144.021 378.956 143.658 379.511 143.253C380.066 142.847 380.514 142.389 380.855 141.877C381.196 141.343 381.367 140.703 381.367 139.957C381.367 138.997 381.068 138.239 380.471 137.685C379.895 137.109 379.074 136.821 378.007 136.821C377.41 136.821 376.834 136.906 376.279 137.077C375.746 137.247 375.244 137.471 374.775 137.749C374.306 138.005 373.879 138.293 373.495 138.613C373.111 138.933 372.78 139.242 372.503 139.541L369.815 136.725C370.092 136.383 370.498 135.999 371.031 135.573C371.564 135.125 372.194 134.709 372.919 134.325C373.666 133.941 374.508 133.621 375.447 133.365C376.386 133.087 377.42 132.949 378.551 132.949C379.788 132.949 380.876 133.119 381.815 133.461C382.775 133.802 383.575 134.282 384.215 134.901C384.876 135.498 385.367 136.223 385.687 137.077C386.028 137.93 386.199 138.869 386.199 139.893C386.199 140.874 386.05 141.727 385.751 142.453C385.452 143.157 385.047 143.786 384.535 144.341C384.044 144.895 383.458 145.386 382.775 145.813C382.114 146.218 381.399 146.602 380.631 146.965C379.82 147.37 379.084 147.765 378.423 148.149C377.783 148.511 377.228 148.895 376.759 149.301C376.311 149.706 375.959 150.133 375.703 150.581C375.468 151.029 375.351 151.53 375.351 152.085H386.231V155.957H369.719Z" fill="#2C2C2C"/>
<path d="M359.485 118.537C358.685 118.537 357.96 118.377 357.309 118.057C356.659 117.737 356.099 117.305 355.629 116.761C355.16 116.206 354.797 115.588 354.541 114.905C354.285 114.212 354.157 113.502 354.157 112.777C354.157 112.02 354.291 111.3 354.557 110.617C354.824 109.924 355.197 109.31 355.677 108.777C356.168 108.233 356.739 107.806 357.389 107.497C358.04 107.177 358.744 107.017 359.501 107.017C360.301 107.017 361.027 107.182 361.677 107.513C362.328 107.844 362.883 108.286 363.341 108.841C363.811 109.396 364.173 110.014 364.429 110.697C364.685 111.38 364.813 112.078 364.813 112.793C364.813 113.55 364.68 114.276 364.413 114.969C364.147 115.652 363.773 116.265 363.293 116.809C362.813 117.342 362.248 117.764 361.597 118.073C360.947 118.382 360.243 118.537 359.485 118.537ZM355.277 112.777C355.277 113.396 355.379 113.993 355.581 114.569C355.784 115.134 356.072 115.641 356.445 116.089C356.819 116.526 357.261 116.878 357.773 117.145C358.296 117.401 358.867 117.529 359.485 117.529C360.136 117.529 360.717 117.396 361.229 117.129C361.752 116.852 362.195 116.489 362.557 116.041C362.931 115.582 363.213 115.07 363.405 114.505C363.597 113.94 363.693 113.364 363.693 112.777C363.693 112.158 363.592 111.566 363.389 111.001C363.187 110.436 362.893 109.929 362.509 109.481C362.136 109.033 361.693 108.681 361.181 108.425C360.669 108.169 360.104 108.041 359.485 108.041C358.845 108.041 358.264 108.174 357.741 108.441C357.229 108.708 356.787 109.07 356.413 109.529C356.051 109.977 355.768 110.484 355.565 111.049C355.373 111.614 355.277 112.19 355.277 112.777ZM366.621 115.017V110.121H367.709V114.825C367.709 115.774 367.869 116.484 368.189 116.953C368.519 117.422 369.005 117.657 369.645 117.657C370.071 117.657 370.482 117.566 370.877 117.385C371.282 117.193 371.639 116.926 371.949 116.585C372.258 116.233 372.493 115.828 372.653 115.369V110.121H373.741V117.145C373.741 117.294 373.773 117.406 373.837 117.481C373.901 117.545 373.997 117.582 374.125 117.593V118.457C373.997 118.468 373.895 118.473 373.821 118.473C373.746 118.484 373.677 118.489 373.613 118.489C373.399 118.468 373.213 118.382 373.053 118.233C372.903 118.084 372.823 117.902 372.813 117.689L372.781 116.569C372.418 117.209 371.922 117.71 371.293 118.073C370.674 118.436 370.002 118.617 369.277 118.617C368.402 118.617 367.741 118.313 367.293 117.705C366.845 117.097 366.621 116.201 366.621 115.017ZM380.201 118.057C380.115 118.089 379.982 118.148 379.801 118.233C379.619 118.318 379.401 118.393 379.145 118.457C378.889 118.521 378.611 118.553 378.313 118.553C378.003 118.553 377.71 118.494 377.433 118.377C377.166 118.26 376.953 118.084 376.793 117.849C376.633 117.604 376.553 117.305 376.553 116.953V110.985H375.401V110.121H376.553V107.305H377.641V110.121H379.561V110.985H377.641V116.649C377.662 116.948 377.769 117.172 377.961 117.321C378.163 117.47 378.393 117.545 378.649 117.545C378.947 117.545 379.219 117.497 379.465 117.401C379.71 117.294 379.859 117.22 379.913 117.177L380.201 118.057Z" fill="black"/>
<circle cx="368.577" cy="63.8312" r="25" fill="#F5F5F5"/>
<path d="M373.346 67.8203L373.346 58.5123M373.346 58.5123L364.038 58.5123M373.346 58.5123L362.708 69.15" stroke="black" stroke-width="2.5" stroke-linecap="round" stroke-linejoin="round"/>
<path d="M221.276 156.658C219.655 156.637 218.226 156.274 216.988 155.57C215.772 154.845 214.748 153.927 213.916 152.818C213.084 151.687 212.455 150.45 212.028 149.106C211.623 147.741 211.42 146.418 211.42 145.138C211.42 143.773 211.644 142.407 212.092 141.042C212.562 139.655 213.223 138.418 214.076 137.33C214.93 136.221 215.964 135.325 217.18 134.642C218.396 133.959 219.762 133.618 221.276 133.618C222.898 133.618 224.327 133.991 225.564 134.738C226.802 135.463 227.836 136.391 228.668 137.522C229.5 138.653 230.119 139.901 230.524 141.266C230.951 142.61 231.164 143.901 231.164 145.138C231.164 146.525 230.93 147.901 230.46 149.266C230.012 150.631 229.362 151.869 228.508 152.978C227.655 154.066 226.62 154.951 225.404 155.634C224.188 156.317 222.812 156.658 221.276 156.658ZM215.868 145.138C215.89 146.034 216.007 146.93 216.22 147.826C216.455 148.722 216.786 149.543 217.212 150.29C217.66 151.015 218.215 151.613 218.876 152.082C219.559 152.53 220.359 152.754 221.276 152.754C222.236 152.754 223.058 152.509 223.74 152.018C224.423 151.527 224.978 150.909 225.404 150.162C225.852 149.394 226.183 148.573 226.396 147.698C226.61 146.802 226.716 145.949 226.716 145.138C226.716 144.242 226.599 143.346 226.364 142.45C226.13 141.554 225.788 140.743 225.34 140.018C224.892 139.271 224.327 138.674 223.644 138.226C222.962 137.757 222.172 137.522 221.276 137.522C220.338 137.522 219.527 137.767 218.844 138.258C218.162 138.749 217.596 139.378 217.148 140.146C216.722 140.893 216.402 141.714 216.188 142.61C215.975 143.506 215.868 144.349 215.868 145.138ZM241.25 156.626C239.394 156.626 237.815 156.242 236.514 155.474C235.234 154.706 234.338 153.607 233.826 152.178L236.098 149.362C236.162 149.661 236.311 150.002 236.546 150.386C236.781 150.749 237.101 151.111 237.506 151.474C237.933 151.815 238.445 152.103 239.042 152.338C239.661 152.573 240.375 152.69 241.186 152.69C241.741 152.69 242.263 152.626 242.754 152.498C243.266 152.349 243.714 152.146 244.098 151.89C244.482 151.634 244.781 151.325 244.994 150.962C245.229 150.578 245.346 150.141 245.346 149.65C245.346 148.562 244.77 147.751 243.618 147.218C242.466 146.685 240.855 146.418 238.786 146.418H237.73V142.834H238.786C239.639 142.834 240.429 142.781 241.154 142.674C241.879 142.546 242.509 142.365 243.042 142.13C243.575 141.874 243.991 141.554 244.29 141.17C244.589 140.786 244.738 140.327 244.738 139.794C244.738 139.325 244.631 138.919 244.418 138.578C244.226 138.237 243.97 137.959 243.65 137.746C243.33 137.533 242.967 137.373 242.562 137.266C242.178 137.159 241.794 137.106 241.41 137.106C240.77 137.106 240.183 137.191 239.65 137.362C239.117 137.511 238.647 137.714 238.242 137.97C237.837 138.205 237.485 138.482 237.186 138.802C236.909 139.101 236.685 139.399 236.514 139.698L233.762 136.594C234.125 136.082 234.583 135.623 235.138 135.218C235.693 134.813 236.311 134.471 236.994 134.194C237.677 133.917 238.391 133.703 239.138 133.554C239.885 133.405 240.631 133.33 241.378 133.33C242.53 133.33 243.586 133.49 244.546 133.81C245.527 134.13 246.37 134.578 247.074 135.154C247.778 135.709 248.322 136.37 248.706 137.138C249.111 137.885 249.314 138.695 249.314 139.57C249.314 140.85 248.93 141.906 248.162 142.738C247.394 143.549 246.349 144.103 245.026 144.402C245.751 144.53 246.402 144.775 246.978 145.138C247.575 145.479 248.077 145.917 248.482 146.45C248.909 146.962 249.229 147.549 249.442 148.21C249.677 148.85 249.794 149.522 249.794 150.226C249.794 151.314 249.549 152.263 249.058 153.074C248.567 153.863 247.917 154.525 247.106 155.058C246.317 155.57 245.41 155.965 244.386 156.242C243.362 156.498 242.317 156.626 241.25 156.626Z" fill="#2C2C2C"/>
<path d="M215.781 118.838V107.478H216.901V117.846H223.461V118.838H215.781ZM224.214 116.438C224.214 115.915 224.363 115.467 224.662 115.094C224.96 114.71 225.371 114.417 225.894 114.214C226.427 114.001 227.04 113.894 227.734 113.894C228.139 113.894 228.56 113.926 228.998 113.99C229.435 114.054 229.824 114.15 230.166 114.278V113.574C230.166 112.87 229.958 112.31 229.542 111.894C229.126 111.478 228.55 111.27 227.814 111.27C227.366 111.27 226.923 111.355 226.486 111.526C226.059 111.686 225.611 111.926 225.142 112.246L224.726 111.478C225.27 111.105 225.803 110.827 226.326 110.646C226.848 110.454 227.382 110.358 227.926 110.358C228.95 110.358 229.76 110.651 230.358 111.238C230.955 111.825 231.254 112.635 231.254 113.67V117.526C231.254 117.675 231.286 117.787 231.35 117.862C231.414 117.926 231.515 117.963 231.654 117.974V118.838C231.536 118.849 231.435 118.859 231.35 118.87C231.264 118.881 231.2 118.881 231.158 118.87C230.891 118.859 230.688 118.774 230.55 118.614C230.411 118.454 230.336 118.283 230.326 118.102L230.31 117.494C229.936 117.974 229.451 118.347 228.854 118.614C228.256 118.87 227.648 118.998 227.03 118.998C226.496 118.998 226.011 118.886 225.574 118.662C225.147 118.427 224.811 118.118 224.566 117.734C224.331 117.339 224.214 116.907 224.214 116.438ZM229.798 117.078C229.915 116.929 230.006 116.785 230.07 116.646C230.134 116.507 230.166 116.385 230.166 116.278V115.062C229.803 114.923 229.424 114.817 229.03 114.742C228.646 114.667 228.256 114.63 227.862 114.63C227.083 114.63 226.454 114.785 225.974 115.094C225.494 115.403 225.254 115.825 225.254 116.358C225.254 116.667 225.334 116.961 225.494 117.238C225.654 117.505 225.888 117.729 226.198 117.91C226.507 118.081 226.87 118.166 227.286 118.166C227.808 118.166 228.294 118.065 228.742 117.862C229.2 117.659 229.552 117.398 229.798 117.078ZM237.542 118.438C237.457 118.47 237.323 118.529 237.142 118.614C236.961 118.699 236.742 118.774 236.486 118.838C236.23 118.902 235.953 118.934 235.654 118.934C235.345 118.934 235.051 118.875 234.774 118.758C234.507 118.641 234.294 118.465 234.134 118.23C233.974 117.985 233.894 117.686 233.894 117.334V111.366H232.742V110.502H233.894V107.686H234.982V110.502H236.902V111.366H234.982V117.03C235.003 117.329 235.11 117.553 235.302 117.702C235.505 117.851 235.734 117.926 235.99 117.926C236.289 117.926 236.561 117.878 236.806 117.782C237.051 117.675 237.201 117.601 237.254 117.558L237.542 118.438ZM242.361 118.998C241.763 118.998 241.209 118.886 240.697 118.662C240.185 118.427 239.742 118.113 239.369 117.718C238.995 117.313 238.702 116.849 238.489 116.326C238.286 115.803 238.185 115.243 238.185 114.646C238.185 113.867 238.361 113.153 238.713 112.502C239.075 111.851 239.571 111.334 240.201 110.95C240.83 110.555 241.545 110.358 242.345 110.358C243.166 110.358 243.881 110.555 244.489 110.95C245.107 111.345 245.593 111.867 245.945 112.518C246.297 113.158 246.473 113.862 246.473 114.63C246.473 114.715 246.473 114.801 246.473 114.886C246.473 114.961 246.467 115.019 246.457 115.062H239.321C239.374 115.659 239.539 116.193 239.817 116.662C240.105 117.121 240.473 117.489 240.921 117.766C241.379 118.033 241.875 118.166 242.409 118.166C242.953 118.166 243.465 118.027 243.945 117.75C244.435 117.473 244.777 117.11 244.969 116.662L245.913 116.918C245.742 117.313 245.481 117.67 245.129 117.99C244.777 118.31 244.361 118.561 243.881 118.742C243.411 118.913 242.905 118.998 242.361 118.998ZM239.289 114.278H245.449C245.406 113.67 245.241 113.137 244.953 112.678C244.675 112.219 244.307 111.862 243.849 111.606C243.401 111.339 242.905 111.206 242.361 111.206C241.817 111.206 241.321 111.339 240.873 111.606C240.425 111.862 240.057 112.225 239.769 112.694C239.491 113.153 239.331 113.681 239.289 114.278Z" fill="black"/>
<circle cx="230.874" cy="64" r="25" fill="#FFECEC"/>
<rect x="232.405" y="66.929" width="3.50081" height="11.6479" rx="1.75041" transform="rotate(-180 232.405 66.929)" fill="#FF0707"/>
<circle cx="230.655" cy="70.5305" r="1.75037" transform="rotate(-180 230.655 70.5305)" fill="#FF0707"/>
<defs>
<filter id="filter0_d_2855_4776" x="0" y="0" width="462" height="210" filterUnits="userSpaceOnUse" color-interpolation-filters="sRGB">
<feFlood flood-opacity="0" result="BackgroundImageFix"/>
<feColorMatrix in="SourceAlpha" type="matrix" values="0 0 0 0 0 0 0 0 0 0 0 0 0 0 0 0 0 0 127 0" result="hardAlpha"/>
<feOffset dy="4"/>
<feGaussianBlur stdDeviation="12"/>
<feComposite in2="hardAlpha" operator="out"/>
<feColorMatrix type="matrix" values="0 0 0 0 0 0 0 0 0 0 0 0 0 0 0 0 0 0 0.05 0"/>
<feBlend mode="normal" in2="BackgroundImageFix" result="effect1_dropShadow_2855_4776"/>
<feBlend mode="normal" in="SourceGraphic" in2="effect1_dropShadow_2855_4776" result="shape"/>
</filter>
</defs>
</svg>
