<svg width="248" height="267" viewBox="0 0 248 267" fill="none" xmlns="http://www.w3.org/2000/svg">
<g filter="url(#filter0_d_1149_4405)">
<path d="M24 30.5C24 24.9772 28.4772 20.5 34 20.5H214C219.523 20.5 224 24.9772 224 30.5V228.5C224 234.023 219.523 238.5 214 238.5H34C28.4772 238.5 24 234.023 24 228.5V30.5Z" fill="white"/>
</g>
<path d="M95.89 53.898H91.822V64.5H89.338V53.898H85.252V51.72H95.89V53.898ZM100.017 64.68C99.2485 64.68 98.5585 64.548 97.9465 64.284C97.3345 64.02 96.8125 63.666 96.3805 63.222C95.9605 62.766 95.6365 62.244 95.4085 61.656C95.1805 61.068 95.0665 60.45 95.0665 59.802C95.0665 59.142 95.1805 58.518 95.4085 57.93C95.6365 57.342 95.9605 56.826 96.3805 56.382C96.8125 55.926 97.3345 55.566 97.9465 55.302C98.5585 55.038 99.2485 54.906 100.017 54.906C100.785 54.906 101.469 55.038 102.069 55.302C102.681 55.566 103.197 55.926 103.617 56.382C104.049 56.826 104.379 57.342 104.607 57.93C104.835 58.518 104.949 59.142 104.949 59.802C104.949 60.45 104.835 61.068 104.607 61.656C104.379 62.244 104.055 62.766 103.635 63.222C103.215 63.666 102.699 64.02 102.087 64.284C101.475 64.548 100.785 64.68 100.017 64.68ZM97.5505 59.802C97.5505 60.222 97.6105 60.606 97.7305 60.954C97.8625 61.29 98.0365 61.584 98.2525 61.836C98.4805 62.088 98.7445 62.286 99.0445 62.43C99.3445 62.562 99.6685 62.628 100.017 62.628C100.365 62.628 100.689 62.562 100.989 62.43C101.289 62.286 101.547 62.088 101.763 61.836C101.991 61.584 102.165 61.284 102.285 60.936C102.417 60.588 102.483 60.204 102.483 59.784C102.483 59.376 102.417 58.998 102.285 58.65C102.165 58.302 101.991 58.002 101.763 57.75C101.547 57.498 101.289 57.306 100.989 57.174C100.689 57.03 100.365 56.958 100.017 56.958C99.6685 56.958 99.3445 57.03 99.0445 57.174C98.7445 57.318 98.4805 57.516 98.2525 57.768C98.0365 58.02 97.8625 58.32 97.7305 58.668C97.6105 59.016 97.5505 59.394 97.5505 59.802ZM115.685 53.232C115.193 53.232 114.833 53.4 114.605 53.736C114.389 54.072 114.281 54.462 114.281 54.906V56.166H116.765V58.02H114.281V64.5H111.869V58.02H109.565V64.5H107.153V58.02H105.929V56.166H107.153V55.59C107.153 55.062 107.225 54.57 107.369 54.114C107.513 53.646 107.717 53.244 107.981 52.908C108.257 52.572 108.593 52.308 108.989 52.116C109.397 51.924 109.853 51.828 110.357 51.828C110.765 51.828 111.161 51.876 111.545 51.972C111.941 52.068 112.319 52.194 112.679 52.35C112.967 51.99 113.315 51.708 113.723 51.504C114.131 51.288 114.623 51.18 115.199 51.18C115.655 51.18 116.063 51.24 116.423 51.36C116.795 51.48 117.143 51.606 117.467 51.738L116.981 53.556C116.813 53.472 116.621 53.4 116.405 53.34C116.201 53.268 115.961 53.232 115.685 53.232ZM111.869 55.23C111.869 55.182 111.869 55.11 111.869 55.014C111.881 54.906 111.893 54.798 111.905 54.69C111.917 54.57 111.935 54.462 111.959 54.366C111.983 54.27 112.007 54.192 112.031 54.132C111.851 54.036 111.653 53.97 111.437 53.934C111.221 53.898 111.023 53.88 110.843 53.88C110.603 53.88 110.399 53.928 110.231 54.024C110.075 54.12 109.949 54.246 109.853 54.402C109.757 54.546 109.685 54.72 109.637 54.924C109.589 55.116 109.565 55.308 109.565 55.5V56.166H111.869V55.23ZM122.693 64.68C121.937 64.68 121.253 64.554 120.641 64.302C120.029 64.038 119.507 63.684 119.075 63.24C118.643 62.796 118.307 62.28 118.067 61.692C117.839 61.104 117.725 60.486 117.725 59.838C117.725 59.166 117.839 58.536 118.067 57.948C118.295 57.348 118.625 56.826 119.057 56.382C119.489 55.926 120.011 55.566 120.623 55.302C121.247 55.038 121.943 54.906 122.711 54.906C123.479 54.906 124.163 55.038 124.763 55.302C125.375 55.566 125.891 55.92 126.311 56.364C126.743 56.808 127.067 57.324 127.283 57.912C127.511 58.5 127.625 59.112 127.625 59.748C127.625 59.904 127.619 60.054 127.607 60.198C127.607 60.342 127.595 60.462 127.571 60.558H120.281C120.317 60.93 120.407 61.26 120.551 61.548C120.695 61.836 120.881 62.082 121.109 62.286C121.337 62.49 121.595 62.646 121.883 62.754C122.171 62.862 122.471 62.916 122.783 62.916C123.263 62.916 123.713 62.802 124.133 62.574C124.565 62.334 124.859 62.022 125.015 61.638L127.085 62.214C126.737 62.934 126.179 63.528 125.411 63.996C124.655 64.452 123.749 64.68 122.693 64.68ZM125.141 58.992C125.081 58.284 124.817 57.72 124.349 57.3C123.893 56.868 123.335 56.652 122.675 56.652C122.351 56.652 122.045 56.712 121.757 56.832C121.481 56.94 121.235 57.096 121.019 57.3C120.803 57.504 120.623 57.75 120.479 58.038C120.347 58.326 120.269 58.644 120.245 58.992H125.141ZM133.486 64.68C132.73 64.68 132.046 64.554 131.434 64.302C130.822 64.038 130.3 63.684 129.868 63.24C129.436 62.796 129.1 62.28 128.86 61.692C128.632 61.104 128.518 60.486 128.518 59.838C128.518 59.166 128.632 58.536 128.86 57.948C129.088 57.348 129.418 56.826 129.85 56.382C130.282 55.926 130.804 55.566 131.416 55.302C132.04 55.038 132.736 54.906 133.504 54.906C134.272 54.906 134.956 55.038 135.556 55.302C136.168 55.566 136.684 55.92 137.104 56.364C137.536 56.808 137.86 57.324 138.076 57.912C138.304 58.5 138.418 59.112 138.418 59.748C138.418 59.904 138.412 60.054 138.4 60.198C138.4 60.342 138.388 60.462 138.364 60.558H131.074C131.11 60.93 131.2 61.26 131.344 61.548C131.488 61.836 131.674 62.082 131.902 62.286C132.13 62.49 132.388 62.646 132.676 62.754C132.964 62.862 133.264 62.916 133.576 62.916C134.056 62.916 134.506 62.802 134.926 62.574C135.358 62.334 135.652 62.022 135.808 61.638L137.878 62.214C137.53 62.934 136.972 63.528 136.204 63.996C135.448 64.452 134.542 64.68 133.486 64.68ZM135.934 58.992C135.874 58.284 135.61 57.72 135.142 57.3C134.686 56.868 134.128 56.652 133.468 56.652C133.144 56.652 132.838 56.712 132.55 56.832C132.274 56.94 132.028 57.096 131.812 57.3C131.596 57.504 131.416 57.75 131.272 58.038C131.14 58.326 131.062 58.644 131.038 58.992H135.934ZM140.139 64.5V51.72H145.791C146.379 51.72 146.919 51.846 147.411 52.098C147.915 52.338 148.347 52.662 148.707 53.07C149.067 53.466 149.349 53.922 149.553 54.438C149.757 54.942 149.859 55.452 149.859 55.968C149.859 56.796 149.649 57.552 149.229 58.236C148.821 58.908 148.263 59.394 147.555 59.694L150.561 64.5H147.753L145.071 60.216H142.623V64.5H140.139ZM142.623 58.038H145.737C145.965 58.038 146.175 57.984 146.367 57.876C146.571 57.768 146.745 57.624 146.889 57.444C147.033 57.252 147.147 57.03 147.231 56.778C147.315 56.526 147.357 56.256 147.357 55.968C147.357 55.668 147.309 55.392 147.213 55.14C147.117 54.888 146.985 54.672 146.817 54.492C146.661 54.3 146.475 54.156 146.259 54.06C146.055 53.952 145.845 53.898 145.629 53.898H142.623V58.038ZM151.893 64.5V55.068H154.305V64.5H151.893ZM151.893 53.754V51.36H154.305V53.754H151.893ZM160.351 64.68C159.703 64.68 159.103 64.554 158.551 64.302C158.011 64.05 157.543 63.702 157.147 63.258C156.751 62.814 156.439 62.298 156.211 61.71C155.995 61.11 155.887 60.468 155.887 59.784C155.887 59.1 155.989 58.464 156.193 57.876C156.409 57.288 156.703 56.772 157.075 56.328C157.447 55.884 157.891 55.536 158.407 55.284C158.923 55.032 159.487 54.906 160.099 54.906C160.783 54.906 161.401 55.074 161.953 55.41C162.517 55.746 162.955 56.184 163.267 56.724V51.36H165.679V61.728C165.679 61.98 165.727 62.16 165.823 62.268C165.919 62.376 166.087 62.436 166.327 62.448V64.5C165.871 64.584 165.487 64.626 165.175 64.626C164.731 64.614 164.383 64.512 164.131 64.32C163.891 64.128 163.741 63.858 163.681 63.51L163.627 62.862C163.279 63.462 162.811 63.918 162.223 64.23C161.635 64.53 161.011 64.68 160.351 64.68ZM160.981 62.628C161.209 62.628 161.443 62.592 161.683 62.52C161.923 62.436 162.145 62.322 162.349 62.178C162.553 62.034 162.739 61.866 162.907 61.674C163.075 61.482 163.201 61.272 163.285 61.044V58.794C163.081 58.266 162.745 57.828 162.277 57.48C161.821 57.132 161.341 56.958 160.837 56.958C160.477 56.958 160.141 57.036 159.829 57.192C159.529 57.348 159.271 57.564 159.055 57.84C158.839 58.104 158.671 58.41 158.551 58.758C158.431 59.106 158.371 59.466 158.371 59.838C158.371 60.234 158.437 60.6 158.569 60.936C158.701 61.272 158.881 61.566 159.109 61.818C159.349 62.07 159.625 62.268 159.937 62.412C160.261 62.556 160.609 62.628 160.981 62.628ZM172.527 64.68C171.771 64.68 171.087 64.554 170.475 64.302C169.863 64.038 169.341 63.684 168.909 63.24C168.477 62.796 168.141 62.28 167.901 61.692C167.673 61.104 167.559 60.486 167.559 59.838C167.559 59.166 167.673 58.536 167.901 57.948C168.129 57.348 168.459 56.826 168.891 56.382C169.323 55.926 169.845 55.566 170.457 55.302C171.081 55.038 171.777 54.906 172.545 54.906C173.313 54.906 173.997 55.038 174.597 55.302C175.209 55.566 175.725 55.92 176.145 56.364C176.577 56.808 176.901 57.324 177.117 57.912C177.345 58.5 177.459 59.112 177.459 59.748C177.459 59.904 177.453 60.054 177.441 60.198C177.441 60.342 177.429 60.462 177.405 60.558H170.115C170.151 60.93 170.241 61.26 170.385 61.548C170.529 61.836 170.715 62.082 170.943 62.286C171.171 62.49 171.429 62.646 171.717 62.754C172.005 62.862 172.305 62.916 172.617 62.916C173.097 62.916 173.547 62.802 173.967 62.574C174.399 62.334 174.693 62.022 174.849 61.638L176.919 62.214C176.571 62.934 176.013 63.528 175.245 63.996C174.489 64.452 173.583 64.68 172.527 64.68ZM174.975 58.992C174.915 58.284 174.651 57.72 174.183 57.3C173.727 56.868 173.169 56.652 172.509 56.652C172.185 56.652 171.879 56.712 171.591 56.832C171.315 56.94 171.069 57.096 170.853 57.3C170.637 57.504 170.457 57.75 170.313 58.038C170.181 58.326 170.103 58.644 170.079 58.992H174.975Z" fill="black"/>
<path d="M51.5703 97.5469V107.5H50.251V97.5469H51.5703ZM55.043 101.683V107.5H53.7783V100.104H54.9746L55.043 101.683ZM54.7422 103.521L54.2158 103.501C54.2204 102.995 54.2956 102.528 54.4414 102.1C54.5872 101.667 54.7923 101.291 55.0566 100.972C55.321 100.653 55.6354 100.407 56 100.233C56.3691 100.056 56.777 99.9668 57.2236 99.9668C57.5882 99.9668 57.9163 100.017 58.208 100.117C58.4997 100.213 58.748 100.368 58.9531 100.582C59.1628 100.796 59.3223 101.074 59.4316 101.416C59.541 101.753 59.5957 102.166 59.5957 102.653V107.5H58.3242V102.64C58.3242 102.252 58.2673 101.942 58.1533 101.71C58.0394 101.473 57.873 101.302 57.6543 101.197C57.4355 101.088 57.1667 101.033 56.8477 101.033C56.5332 101.033 56.2461 101.099 55.9863 101.231C55.7311 101.364 55.5101 101.546 55.3232 101.778C55.141 102.011 54.9974 102.277 54.8926 102.578C54.7923 102.874 54.7422 103.189 54.7422 103.521Z" fill="#A6A6A6"/>
<path d="M57.8184 137.209V137.838C57.8184 138.585 57.7249 139.255 57.5381 139.848C57.3512 140.44 57.0824 140.944 56.7314 141.358C56.3805 141.773 55.959 142.09 55.4668 142.309C54.9792 142.527 54.4323 142.637 53.8262 142.637C53.2383 142.637 52.6982 142.527 52.2061 142.309C51.7184 142.09 51.2946 141.773 50.9346 141.358C50.5791 140.944 50.3034 140.44 50.1074 139.848C49.9115 139.255 49.8135 138.585 49.8135 137.838V137.209C49.8135 136.462 49.9092 135.794 50.1006 135.206C50.2965 134.614 50.5723 134.11 50.9277 133.695C51.2832 133.276 51.7048 132.957 52.1924 132.738C52.6846 132.52 53.2246 132.41 53.8125 132.41C54.4186 132.41 54.9655 132.52 55.4531 132.738C55.9453 132.957 56.3669 133.276 56.7178 133.695C57.0732 134.11 57.3444 134.614 57.5312 135.206C57.7227 135.794 57.8184 136.462 57.8184 137.209ZM56.5127 137.838V137.195C56.5127 136.603 56.4512 136.079 56.3281 135.623C56.2096 135.167 56.0342 134.785 55.8018 134.475C55.5693 134.165 55.2845 133.93 54.9473 133.771C54.6146 133.611 54.2363 133.531 53.8125 133.531C53.4023 133.531 53.0309 133.611 52.6982 133.771C52.3701 133.93 52.0876 134.165 51.8506 134.475C51.6182 134.785 51.4382 135.167 51.3105 135.623C51.1829 136.079 51.1191 136.603 51.1191 137.195V137.838C51.1191 138.435 51.1829 138.964 51.3105 139.424C51.4382 139.88 51.6204 140.265 51.8574 140.579C52.099 140.889 52.3838 141.124 52.7119 141.283C53.0446 141.443 53.416 141.522 53.8262 141.522C54.2546 141.522 54.6351 141.443 54.9678 141.283C55.3005 141.124 55.5807 140.889 55.8086 140.579C56.041 140.265 56.2165 139.88 56.335 139.424C56.4535 138.964 56.5127 138.435 56.5127 137.838ZM64.1279 140.791V135.104H65.3994V142.5H64.1895L64.1279 140.791ZM64.3672 139.232L64.8936 139.219C64.8936 139.711 64.8411 140.167 64.7363 140.586C64.6361 141.001 64.472 141.361 64.2441 141.666C64.0163 141.971 63.7178 142.211 63.3486 142.384C62.9795 142.552 62.5306 142.637 62.002 142.637C61.6419 142.637 61.3115 142.584 61.0107 142.479C60.7145 142.375 60.4593 142.213 60.2451 141.994C60.0309 141.775 59.8646 141.491 59.7461 141.14C59.6322 140.789 59.5752 140.367 59.5752 139.875V135.104H60.8398V139.889C60.8398 140.221 60.8763 140.497 60.9492 140.716C61.0267 140.93 61.1292 141.101 61.2568 141.229C61.389 141.352 61.5348 141.438 61.6943 141.488C61.8584 141.538 62.027 141.563 62.2002 141.563C62.738 141.563 63.1641 141.461 63.4785 141.256C63.793 141.046 64.0186 140.766 64.1553 140.415C64.2965 140.06 64.3672 139.665 64.3672 139.232ZM70.4238 135.104V136.074H66.4248V135.104H70.4238ZM67.7783 133.306H69.043V140.668C69.043 140.919 69.0817 141.108 69.1592 141.235C69.2367 141.363 69.3369 141.447 69.46 141.488C69.583 141.529 69.7152 141.55 69.8564 141.55C69.9613 141.55 70.0706 141.541 70.1846 141.522C70.3031 141.5 70.3919 141.481 70.4512 141.468L70.458 142.5C70.3577 142.532 70.2256 142.562 70.0615 142.589C69.902 142.621 69.7083 142.637 69.4805 142.637C69.1706 142.637 68.8857 142.575 68.626 142.452C68.3662 142.329 68.1589 142.124 68.0039 141.837C67.8535 141.545 67.7783 141.153 67.7783 140.661V133.306Z" fill="#A6A6A6"/>
<path d="M53.7031 172.845H51.1807L51.167 171.785H53.457C53.8353 171.785 54.1657 171.721 54.4482 171.594C54.7308 171.466 54.9495 171.284 55.1045 171.047C55.264 170.805 55.3438 170.518 55.3438 170.186C55.3438 169.821 55.2731 169.525 55.1318 169.297C54.9951 169.064 54.7832 168.896 54.4961 168.791C54.2135 168.682 53.8535 168.627 53.416 168.627H51.4746V177.5H50.1553V167.547H53.416C53.9264 167.547 54.3822 167.599 54.7832 167.704C55.1842 167.804 55.5238 167.964 55.8018 168.183C56.0843 168.397 56.2985 168.67 56.4443 169.003C56.5902 169.336 56.6631 169.734 56.6631 170.199C56.6631 170.609 56.5583 170.981 56.3486 171.313C56.139 171.642 55.8473 171.91 55.4736 172.12C55.1045 172.33 54.6715 172.464 54.1748 172.523L53.7031 172.845ZM53.6416 177.5H50.6611L51.4062 176.427H53.6416C54.0609 176.427 54.4163 176.354 54.708 176.208C55.0042 176.062 55.2298 175.857 55.3848 175.593C55.5397 175.324 55.6172 175.007 55.6172 174.643C55.6172 174.273 55.5511 173.954 55.4189 173.686C55.2868 173.417 55.0794 173.209 54.7969 173.063C54.5143 172.918 54.1497 172.845 53.7031 172.845H51.8232L51.8369 171.785H54.4072L54.6875 172.168C55.166 172.209 55.5716 172.346 55.9043 172.578C56.237 172.806 56.4899 173.098 56.6631 173.453C56.8408 173.809 56.9297 174.201 56.9297 174.629C56.9297 175.249 56.793 175.773 56.5195 176.201C56.2507 176.625 55.8701 176.949 55.3779 177.172C54.8857 177.391 54.307 177.5 53.6416 177.5ZM59.9512 171.266V177.5H58.6865V170.104H59.917L59.9512 171.266ZM62.2617 170.062L62.2549 171.238C62.1501 171.215 62.0498 171.202 61.9541 171.197C61.863 171.188 61.7581 171.184 61.6396 171.184C61.348 171.184 61.0905 171.229 60.8672 171.32C60.6439 171.411 60.4548 171.539 60.2998 171.703C60.1449 171.867 60.0218 172.063 59.9307 172.291C59.8441 172.514 59.7871 172.76 59.7598 173.029L59.4043 173.234C59.4043 172.788 59.4476 172.368 59.5342 171.977C59.6253 171.585 59.7643 171.238 59.9512 170.938C60.138 170.632 60.375 170.395 60.6621 170.227C60.9538 170.053 61.3001 169.967 61.7012 169.967C61.7923 169.967 61.8971 169.978 62.0156 170.001C62.1341 170.019 62.2161 170.04 62.2617 170.062ZM66.3633 177.637C65.8483 177.637 65.3812 177.55 64.9619 177.377C64.5472 177.199 64.1895 176.951 63.8887 176.632C63.5924 176.313 63.3646 175.935 63.2051 175.497C63.0456 175.06 62.9658 174.581 62.9658 174.062V173.774C62.9658 173.173 63.0547 172.637 63.2324 172.168C63.4102 171.694 63.6517 171.293 63.957 170.965C64.2624 170.637 64.6087 170.388 64.9961 170.22C65.3835 170.051 65.7845 169.967 66.1992 169.967C66.7279 169.967 67.1836 170.058 67.5664 170.24C67.9538 170.423 68.2705 170.678 68.5166 171.006C68.7627 171.329 68.945 171.712 69.0635 172.154C69.182 172.592 69.2412 173.07 69.2412 173.59V174.157H63.7178V173.125H67.9766V173.029C67.9583 172.701 67.89 172.382 67.7715 172.072C67.6576 171.762 67.4753 171.507 67.2246 171.307C66.974 171.106 66.6322 171.006 66.1992 171.006C65.9121 171.006 65.6478 171.067 65.4062 171.19C65.1647 171.309 64.9574 171.487 64.7842 171.724C64.611 171.961 64.4766 172.25 64.3809 172.592C64.2852 172.934 64.2373 173.328 64.2373 173.774V174.062C64.2373 174.412 64.2852 174.743 64.3809 175.053C64.4811 175.358 64.6247 175.627 64.8115 175.859C65.0029 176.092 65.2331 176.274 65.502 176.406C65.7754 176.538 66.0853 176.604 66.4316 176.604C66.8783 176.604 67.2565 176.513 67.5664 176.331C67.8763 176.149 68.1475 175.905 68.3799 175.6L69.1455 176.208C68.986 176.45 68.7832 176.68 68.5371 176.898C68.291 177.117 67.988 177.295 67.6279 177.432C67.2725 177.568 66.8509 177.637 66.3633 177.637ZM75.0791 176.235V172.428C75.0791 172.136 75.0199 171.883 74.9014 171.669C74.7874 171.45 74.6143 171.282 74.3818 171.163C74.1494 171.045 73.8623 170.985 73.5205 170.985C73.2015 170.985 72.9212 171.04 72.6797 171.149C72.4427 171.259 72.2559 171.402 72.1191 171.58C71.987 171.758 71.9209 171.949 71.9209 172.154H70.6562C70.6562 171.89 70.7246 171.628 70.8613 171.368C70.998 171.108 71.194 170.874 71.4492 170.664C71.709 170.45 72.0189 170.281 72.3789 170.158C72.7435 170.031 73.1491 169.967 73.5957 169.967C74.1335 169.967 74.6074 170.058 75.0176 170.24C75.4323 170.423 75.7559 170.698 75.9883 171.067C76.2253 171.432 76.3438 171.89 76.3438 172.441V175.887C76.3438 176.133 76.3643 176.395 76.4053 176.673C76.4508 176.951 76.5169 177.19 76.6035 177.391V177.5H75.2842C75.2204 177.354 75.1702 177.16 75.1338 176.919C75.0973 176.673 75.0791 176.445 75.0791 176.235ZM75.2979 173.016L75.3115 173.904H74.0332C73.6732 173.904 73.3519 173.934 73.0693 173.993C72.7868 174.048 72.5498 174.132 72.3584 174.246C72.167 174.36 72.0212 174.504 71.9209 174.677C71.8206 174.845 71.7705 175.044 71.7705 175.271C71.7705 175.504 71.8229 175.716 71.9277 175.907C72.0326 176.099 72.1898 176.251 72.3994 176.365C72.6136 176.475 72.8757 176.529 73.1855 176.529C73.5729 176.529 73.9147 176.447 74.2109 176.283C74.5072 176.119 74.7419 175.919 74.915 175.682C75.0928 175.445 75.1885 175.215 75.2021 174.991L75.7422 175.6C75.7103 175.791 75.6237 176.003 75.4824 176.235C75.3411 176.468 75.152 176.691 74.915 176.905C74.6826 177.115 74.4046 177.29 74.0811 177.432C73.762 177.568 73.402 177.637 73.001 177.637C72.4997 177.637 72.0599 177.539 71.6816 177.343C71.3079 177.147 71.0163 176.885 70.8066 176.557C70.6016 176.224 70.499 175.853 70.499 175.442C70.499 175.046 70.5765 174.697 70.7314 174.396C70.8864 174.091 71.1097 173.838 71.4014 173.638C71.693 173.433 72.0439 173.278 72.4541 173.173C72.8643 173.068 73.3223 173.016 73.8281 173.016H75.2979ZM79.6045 167V177.5H78.333V167H79.6045ZM84.123 170.104L80.8965 173.556L79.0918 175.429L78.9893 174.082L80.2812 172.537L82.5781 170.104H84.123ZM82.9678 177.5L80.3291 173.973L80.9854 172.845L84.458 177.5H82.9678Z" fill="#A6A6A6"/>
<path d="M50.5723 202.547H51.8506L55.1113 210.661L58.3652 202.547H59.6504L55.6035 212.5H54.6055L50.5723 202.547ZM50.1553 202.547H51.2832L51.4678 208.617V212.5H50.1553V202.547ZM58.9326 202.547H60.0605V212.5H58.748V208.617L58.9326 202.547ZM65.2559 212.637C64.7409 212.637 64.2738 212.55 63.8545 212.377C63.4398 212.199 63.082 211.951 62.7812 211.632C62.485 211.313 62.2572 210.935 62.0977 210.497C61.9382 210.06 61.8584 209.581 61.8584 209.062V208.774C61.8584 208.173 61.9473 207.637 62.125 207.168C62.3027 206.694 62.5443 206.293 62.8496 205.965C63.1549 205.637 63.5013 205.388 63.8887 205.22C64.276 205.051 64.6771 204.967 65.0918 204.967C65.6204 204.967 66.0762 205.058 66.459 205.24C66.8464 205.423 67.1631 205.678 67.4092 206.006C67.6553 206.329 67.8376 206.712 67.9561 207.154C68.0745 207.592 68.1338 208.07 68.1338 208.59V209.157H62.6104V208.125H66.8691V208.029C66.8509 207.701 66.7826 207.382 66.6641 207.072C66.5501 206.762 66.3678 206.507 66.1172 206.307C65.8665 206.106 65.5247 206.006 65.0918 206.006C64.8047 206.006 64.5404 206.067 64.2988 206.19C64.0573 206.309 63.8499 206.487 63.6768 206.724C63.5036 206.961 63.3691 207.25 63.2734 207.592C63.1777 207.934 63.1299 208.328 63.1299 208.774V209.062C63.1299 209.412 63.1777 209.743 63.2734 210.053C63.3737 210.358 63.5173 210.627 63.7041 210.859C63.8955 211.092 64.1257 211.274 64.3945 211.406C64.668 211.538 64.9779 211.604 65.3242 211.604C65.7708 211.604 66.1491 211.513 66.459 211.331C66.7689 211.149 67.04 210.905 67.2725 210.6L68.0381 211.208C67.8786 211.45 67.6758 211.68 67.4297 211.898C67.1836 212.117 66.8805 212.295 66.5205 212.432C66.165 212.568 65.7435 212.637 65.2559 212.637ZM70.8682 206.573V212.5H69.5967V205.104H70.7998L70.8682 206.573ZM70.6084 208.521L70.0205 208.501C70.0251 207.995 70.0911 207.528 70.2188 207.1C70.3464 206.667 70.5355 206.291 70.7861 205.972C71.0368 205.653 71.349 205.407 71.7227 205.233C72.0964 205.056 72.5293 204.967 73.0215 204.967C73.3678 204.967 73.6868 205.017 73.9785 205.117C74.2702 205.213 74.5231 205.366 74.7373 205.575C74.9515 205.785 75.1178 206.054 75.2363 206.382C75.3548 206.71 75.4141 207.106 75.4141 207.571V212.5H74.1494V207.633C74.1494 207.245 74.0833 206.936 73.9512 206.703C73.8236 206.471 73.6413 206.302 73.4043 206.197C73.1673 206.088 72.8893 206.033 72.5703 206.033C72.1966 206.033 71.8844 206.099 71.6338 206.231C71.3831 206.364 71.1826 206.546 71.0322 206.778C70.8818 207.011 70.7725 207.277 70.7041 207.578C70.6403 207.874 70.6084 208.189 70.6084 208.521ZM75.4004 207.824L74.5527 208.084C74.5573 207.678 74.6234 207.289 74.751 206.915C74.8831 206.541 75.0723 206.209 75.3184 205.917C75.569 205.625 75.8766 205.395 76.2412 205.227C76.6058 205.053 77.0228 204.967 77.4922 204.967C77.8887 204.967 78.2396 205.019 78.5449 205.124C78.8548 205.229 79.1146 205.391 79.3242 205.609C79.5384 205.824 79.7002 206.099 79.8096 206.437C79.9189 206.774 79.9736 207.175 79.9736 207.64V212.5H78.7021V207.626C78.7021 207.211 78.6361 206.89 78.5039 206.662C78.3763 206.43 78.194 206.268 77.957 206.177C77.7246 206.081 77.4466 206.033 77.123 206.033C76.8451 206.033 76.599 206.081 76.3848 206.177C76.1706 206.272 75.9906 206.405 75.8447 206.573C75.6989 206.737 75.5872 206.926 75.5098 207.141C75.4368 207.355 75.4004 207.583 75.4004 207.824ZM81.8809 202H83.1523V211.064L83.043 212.5H81.8809V202ZM88.1494 208.74V208.884C88.1494 209.422 88.0856 209.921 87.958 210.381C87.8304 210.837 87.6436 211.233 87.3975 211.57C87.1514 211.908 86.8506 212.17 86.4951 212.356C86.1396 212.543 85.7318 212.637 85.2715 212.637C84.8021 212.637 84.3896 212.557 84.0342 212.397C83.6833 212.233 83.387 211.999 83.1455 211.693C82.904 211.388 82.7103 211.019 82.5645 210.586C82.4232 210.153 82.3252 209.665 82.2705 209.123V208.494C82.3252 207.947 82.4232 207.457 82.5645 207.024C82.7103 206.591 82.904 206.222 83.1455 205.917C83.387 205.607 83.6833 205.372 84.0342 205.213C84.3851 205.049 84.793 204.967 85.2578 204.967C85.7227 204.967 86.1351 205.058 86.4951 205.24C86.8551 205.418 87.1559 205.673 87.3975 206.006C87.6436 206.339 87.8304 206.737 87.958 207.202C88.0856 207.662 88.1494 208.175 88.1494 208.74ZM86.8779 208.884V208.74C86.8779 208.371 86.8438 208.025 86.7754 207.701C86.707 207.373 86.5977 207.086 86.4473 206.84C86.2969 206.589 86.0986 206.393 85.8525 206.252C85.6064 206.106 85.3034 206.033 84.9434 206.033C84.6243 206.033 84.3464 206.088 84.1094 206.197C83.877 206.307 83.6787 206.455 83.5146 206.642C83.3506 206.824 83.2161 207.034 83.1113 207.271C83.0111 207.503 82.9359 207.744 82.8857 207.995V209.643C82.9587 209.962 83.0771 210.269 83.2412 210.565C83.4098 210.857 83.6331 211.096 83.9111 211.283C84.1937 211.47 84.5423 211.563 84.957 211.563C85.2988 211.563 85.5905 211.495 85.832 211.358C86.0781 211.217 86.2764 211.023 86.4268 210.777C86.5817 210.531 86.6956 210.246 86.7686 209.923C86.8415 209.599 86.8779 209.253 86.8779 208.884ZM92.8184 212.637C92.3034 212.637 91.8363 212.55 91.417 212.377C91.0023 212.199 90.6445 211.951 90.3438 211.632C90.0475 211.313 89.8197 210.935 89.6602 210.497C89.5007 210.06 89.4209 209.581 89.4209 209.062V208.774C89.4209 208.173 89.5098 207.637 89.6875 207.168C89.8652 206.694 90.1068 206.293 90.4121 205.965C90.7174 205.637 91.0638 205.388 91.4512 205.22C91.8385 205.051 92.2396 204.967 92.6543 204.967C93.1829 204.967 93.6387 205.058 94.0215 205.24C94.4089 205.423 94.7256 205.678 94.9717 206.006C95.2178 206.329 95.4001 206.712 95.5186 207.154C95.637 207.592 95.6963 208.07 95.6963 208.59V209.157H90.1729V208.125H94.4316V208.029C94.4134 207.701 94.3451 207.382 94.2266 207.072C94.1126 206.762 93.9303 206.507 93.6797 206.307C93.429 206.106 93.0872 206.006 92.6543 206.006C92.3672 206.006 92.1029 206.067 91.8613 206.19C91.6198 206.309 91.4124 206.487 91.2393 206.724C91.0661 206.961 90.9316 207.25 90.8359 207.592C90.7402 207.934 90.6924 208.328 90.6924 208.774V209.062C90.6924 209.412 90.7402 209.743 90.8359 210.053C90.9362 210.358 91.0798 210.627 91.2666 210.859C91.458 211.092 91.6882 211.274 91.957 211.406C92.2305 211.538 92.5404 211.604 92.8867 211.604C93.3333 211.604 93.7116 211.513 94.0215 211.331C94.3314 211.149 94.6025 210.905 94.835 210.6L95.6006 211.208C95.4411 211.45 95.2383 211.68 94.9922 211.898C94.7461 212.117 94.443 212.295 94.083 212.432C93.7275 212.568 93.306 212.637 92.8184 212.637ZM98.4375 206.266V212.5H97.1729V205.104H98.4033L98.4375 206.266ZM100.748 205.062L100.741 206.238C100.636 206.215 100.536 206.202 100.44 206.197C100.349 206.188 100.244 206.184 100.126 206.184C99.8343 206.184 99.5768 206.229 99.3535 206.32C99.1302 206.411 98.9411 206.539 98.7861 206.703C98.6312 206.867 98.5081 207.063 98.417 207.291C98.3304 207.514 98.2734 207.76 98.2461 208.029L97.8906 208.234C97.8906 207.788 97.9339 207.368 98.0205 206.977C98.1117 206.585 98.2507 206.238 98.4375 205.938C98.6243 205.632 98.8613 205.395 99.1484 205.227C99.4401 205.053 99.7865 204.967 100.188 204.967C100.279 204.967 100.383 204.978 100.502 205.001C100.62 205.019 100.702 205.04 100.748 205.062ZM106.224 210.538C106.224 210.356 106.183 210.187 106.101 210.032C106.023 209.873 105.861 209.729 105.615 209.602C105.374 209.469 105.009 209.355 104.521 209.26C104.111 209.173 103.74 209.071 103.407 208.952C103.079 208.834 102.799 208.69 102.566 208.521C102.339 208.353 102.163 208.155 102.04 207.927C101.917 207.699 101.855 207.432 101.855 207.127C101.855 206.835 101.919 206.56 102.047 206.3C102.179 206.04 102.364 205.81 102.601 205.609C102.842 205.409 103.132 205.252 103.469 205.138C103.806 205.024 104.182 204.967 104.597 204.967C105.189 204.967 105.695 205.072 106.114 205.281C106.534 205.491 106.855 205.771 107.078 206.122C107.301 206.468 107.413 206.854 107.413 207.277H106.148C106.148 207.072 106.087 206.874 105.964 206.683C105.845 206.487 105.67 206.325 105.438 206.197C105.21 206.07 104.929 206.006 104.597 206.006C104.246 206.006 103.961 206.061 103.742 206.17C103.528 206.275 103.371 206.409 103.271 206.573C103.175 206.737 103.127 206.91 103.127 207.093C103.127 207.229 103.15 207.353 103.195 207.462C103.245 207.567 103.332 207.665 103.455 207.756C103.578 207.842 103.751 207.924 103.975 208.002C104.198 208.079 104.483 208.157 104.829 208.234C105.435 208.371 105.934 208.535 106.326 208.727C106.718 208.918 107.01 209.153 107.201 209.431C107.393 209.709 107.488 210.046 107.488 210.442C107.488 210.766 107.42 211.062 107.283 211.331C107.151 211.6 106.957 211.832 106.702 212.028C106.451 212.22 106.151 212.37 105.8 212.479C105.453 212.584 105.064 212.637 104.631 212.637C103.979 212.637 103.428 212.521 102.977 212.288C102.525 212.056 102.184 211.755 101.951 211.386C101.719 211.017 101.603 210.627 101.603 210.217H102.874C102.892 210.563 102.993 210.839 103.175 211.044C103.357 211.244 103.58 211.388 103.845 211.475C104.109 211.557 104.371 211.598 104.631 211.598C104.977 211.598 105.267 211.552 105.499 211.461C105.736 211.37 105.916 211.244 106.039 211.085C106.162 210.925 106.224 210.743 106.224 210.538Z" fill="#A6A6A6"/>
<path d="M201.629 104.87V106.292H194.458L194.383 105.198L198.601 98.5469H200.043L198.484 101.192L196.222 104.87H201.629ZM200.446 98.5469V108.5H198.635V98.5469H200.446Z" fill="black"/>
<path d="M201.308 136.669V138.344C201.308 139.109 201.23 139.763 201.075 140.306C200.92 140.848 200.697 141.292 200.405 141.639C200.114 141.98 199.765 142.233 199.359 142.397C198.954 142.557 198.503 142.637 198.006 142.637C197.609 142.637 197.24 142.587 196.898 142.486C196.557 142.382 196.249 142.222 195.976 142.008C195.707 141.789 195.474 141.511 195.278 141.174C195.087 140.837 194.939 140.433 194.834 139.964C194.734 139.494 194.684 138.954 194.684 138.344V136.669C194.684 135.903 194.761 135.252 194.916 134.714C195.076 134.176 195.301 133.736 195.593 133.395C195.884 133.053 196.233 132.804 196.639 132.649C197.044 132.49 197.495 132.41 197.992 132.41C198.393 132.41 198.762 132.46 199.1 132.561C199.441 132.661 199.747 132.818 200.016 133.032C200.289 133.242 200.521 133.515 200.713 133.853C200.904 134.185 201.05 134.586 201.15 135.056C201.255 135.521 201.308 136.058 201.308 136.669ZM199.503 138.59V136.416C199.503 136.033 199.48 135.701 199.435 135.418C199.394 135.131 199.332 134.887 199.25 134.687C199.168 134.486 199.065 134.324 198.942 134.201C198.819 134.074 198.678 133.98 198.519 133.921C198.359 133.862 198.184 133.832 197.992 133.832C197.755 133.832 197.543 133.88 197.356 133.976C197.17 134.067 197.012 134.213 196.885 134.413C196.757 134.614 196.659 134.88 196.591 135.213C196.527 135.541 196.495 135.942 196.495 136.416V138.59C196.495 138.973 196.516 139.308 196.557 139.595C196.602 139.882 196.666 140.128 196.748 140.333C196.835 140.538 196.937 140.707 197.056 140.839C197.179 140.966 197.32 141.062 197.479 141.126C197.639 141.185 197.814 141.215 198.006 141.215C198.247 141.215 198.459 141.167 198.642 141.071C198.828 140.976 198.986 140.825 199.113 140.62C199.241 140.41 199.337 140.139 199.4 139.807C199.469 139.469 199.503 139.064 199.503 138.59Z" fill="black"/>
<path d="M201.308 171.669V173.344C201.308 174.109 201.23 174.763 201.075 175.306C200.92 175.848 200.697 176.292 200.405 176.639C200.114 176.98 199.765 177.233 199.359 177.397C198.954 177.557 198.503 177.637 198.006 177.637C197.609 177.637 197.24 177.587 196.898 177.486C196.557 177.382 196.249 177.222 195.976 177.008C195.707 176.789 195.474 176.511 195.278 176.174C195.087 175.837 194.939 175.433 194.834 174.964C194.734 174.494 194.684 173.954 194.684 173.344V171.669C194.684 170.903 194.761 170.252 194.916 169.714C195.076 169.176 195.301 168.736 195.593 168.395C195.884 168.053 196.233 167.804 196.639 167.649C197.044 167.49 197.495 167.41 197.992 167.41C198.393 167.41 198.762 167.46 199.1 167.561C199.441 167.661 199.747 167.818 200.016 168.032C200.289 168.242 200.521 168.515 200.713 168.853C200.904 169.185 201.05 169.586 201.15 170.056C201.255 170.521 201.308 171.058 201.308 171.669ZM199.503 173.59V171.416C199.503 171.033 199.48 170.701 199.435 170.418C199.394 170.131 199.332 169.887 199.25 169.687C199.168 169.486 199.065 169.324 198.942 169.201C198.819 169.074 198.678 168.98 198.519 168.921C198.359 168.862 198.184 168.832 197.992 168.832C197.755 168.832 197.543 168.88 197.356 168.976C197.17 169.067 197.012 169.213 196.885 169.413C196.757 169.614 196.659 169.88 196.591 170.213C196.527 170.541 196.495 170.942 196.495 171.416V173.59C196.495 173.973 196.516 174.308 196.557 174.595C196.602 174.882 196.666 175.128 196.748 175.333C196.835 175.538 196.937 175.707 197.056 175.839C197.179 175.966 197.32 176.062 197.479 176.126C197.639 176.185 197.814 176.215 198.006 176.215C198.247 176.215 198.459 176.167 198.642 176.071C198.828 175.976 198.986 175.825 199.113 175.62C199.241 175.41 199.337 175.139 199.4 174.807C199.469 174.469 199.503 174.064 199.503 173.59Z" fill="black"/>
<path d="M201.629 209.87V211.292H194.458L194.383 210.198L198.601 203.547H200.043L198.484 206.192L196.222 209.87H201.629ZM200.446 203.547V213.5H198.635V203.547H200.446Z" fill="black"/>
<circle cx="164" cy="103.5" r="3" fill="#00A52E"/>
<circle cx="164" cy="137.5" r="3" fill="#FF0707"/>
<circle cx="164" cy="172.5" r="3" fill="#FFAF75"/>
<circle cx="164" cy="208.5" r="3" fill="#408BFF"/>
<defs>
<filter id="filter0_d_1149_4405" x="0" y="0.5" width="248" height="266" filterUnits="userSpaceOnUse" color-interpolation-filters="sRGB">
<feFlood flood-opacity="0" result="BackgroundImageFix"/>
<feColorMatrix in="SourceAlpha" type="matrix" values="0 0 0 0 0 0 0 0 0 0 0 0 0 0 0 0 0 0 127 0" result="hardAlpha"/>
<feOffset dy="4"/>
<feGaussianBlur stdDeviation="12"/>
<feComposite in2="hardAlpha" operator="out"/>
<feColorMatrix type="matrix" values="0 0 0 0 0 0 0 0 0 0 0 0 0 0 0 0 0 0 0.05 0"/>
<feBlend mode="normal" in2="BackgroundImageFix" result="effect1_dropShadow_1149_4405"/>
<feBlend mode="normal" in="SourceGraphic" in2="effect1_dropShadow_1149_4405" result="shape"/>
</filter>
</defs>
</svg>
