<svg width="97" height="97" viewBox="0 0 97 97" fill="none" xmlns="http://www.w3.org/2000/svg">
<path d="M62.1687 62.1687C58.5431 65.7931 53.6265 67.8292 48.5 67.8292C43.3735 67.8292 38.4569 65.7931 34.8313 62.1687M34 38.8333H34.0483M63 38.8333H63.0483M92 48.5C92 54.2125 90.8748 59.8691 88.6888 65.1467C86.5027 70.4244 83.2985 75.2198 79.2591 79.2591C75.2198 83.2985 70.4244 86.5027 65.1467 88.6888C59.8691 90.8748 54.2125 92 48.5 92C42.7875 92 37.1309 90.8748 31.8533 88.6888C26.5756 86.5027 21.7802 83.2985 17.7409 79.2591C13.7015 75.2198 10.4973 70.4244 8.31124 65.1467C6.12516 59.8691 5 54.2125 5 48.5C5 36.9631 9.58302 25.8987 17.7409 17.7409C25.8987 9.58302 36.9631 5 48.5 5C60.0369 5 71.1013 9.58302 79.2591 17.7409C87.417 25.8987 92 36.9631 92 48.5Z" stroke="#71DA57" stroke-width="9" stroke-linecap="round" stroke-linejoin="round"/>
</svg>
