<svg width="27" height="31" viewBox="0 0 27 31" fill="none" xmlns="http://www.w3.org/2000/svg">
<path d="M11.7636 30.4797C12.4132 30.4639 13.0366 30.2064 13.5234 29.7526C14.0103 29.2988 14.3293 28.678 14.4241 28H9C9.09742 28.6964 9.43137 29.3318 9.93973 29.7879C10.4481 30.244 11.0962 30.4899 11.7636 30.4797Z" fill="black"/>
<path d="M20.8074 22.5797C20.9904 22.7499 21.0943 22.9886 21.0943 23.2385V25.0669C21.0943 25.564 20.6913 25.9669 20.1943 25.9669H1.87488C1.37782 25.9669 0.974878 25.564 0.974878 25.0669V23.2385C0.974878 22.9886 1.0788 22.7499 1.26175 22.5797L1.46603 22.3896C1.98039 21.8965 2.43253 21.3336 2.81033 20.7146C3.2155 19.8671 3.46116 18.9426 3.53222 17.993V14.8237V14.8227H4.43222C4.42836 13.1306 5.00508 11.4941 6.0559 10.2154C7.10671 8.93673 8.56067 8.10216 10.1493 7.8658L20.8074 22.5797ZM20.8074 22.5797L20.6016 22.3881C20.6011 22.3877 20.6006 22.3873 20.6002 22.3868C20.0776 21.8955 19.6177 21.3325 19.233 20.7119C18.8286 19.8652 18.5833 18.9417 18.5124 17.993L18.5124 14.8227L18.5123 14.817C18.5078 14.1029 18.1696 13.277 17.7638 12.5297C17.3383 11.7461 16.7604 10.9102 16.1272 10.138C15.4945 9.36637 14.7871 8.63459 14.0927 8.0697C13.6605 7.71804 13.1807 7.38696 12.6907 7.17167V7.01644C12.6907 6.56319 12.5204 6.11949 12.2034 5.78516C11.8849 5.44919 11.4423 5.25088 10.97 5.25088C10.4977 5.25088 10.0552 5.4492 9.73662 5.78516C9.41962 6.11949 9.24935 6.56319 9.24935 7.01644V7.13266L20.8074 22.5797Z" stroke="black" stroke-width="1.8" stroke-linecap="round" stroke-linejoin="round"/>
<path d="M22.1309 8.77697C24.2168 8.77697 25.9078 7.08597 25.9078 5C25.9078 2.91403 24.2168 1.22302 22.1309 1.22302C20.0449 1.22302 18.3539 2.91403 18.3539 5C18.3539 7.08597 20.0449 8.77697 22.1309 8.77697Z" fill="#3BBCA0" stroke="white"/>
</svg>
