<svg width="22" height="22" viewBox="0 0 22 22" fill="none" xmlns="http://www.w3.org/2000/svg">
<path d="M22 6.5V18.75C22 20.5449 20.5449 22 18.75 22H3.25C1.45507 22 0 20.5449 0 18.75V6.5H22ZM5.74125 14.5014C5.0509 14.5014 4.49125 15.0611 4.49125 15.7514C4.49125 16.4418 5.0509 17.0014 5.74125 17.0014C6.43161 17.0014 6.99125 16.4418 6.99125 15.7514C6.99125 15.0611 6.43161 14.5014 5.74125 14.5014ZM10.9957 14.5014C10.3054 14.5014 9.74573 15.0611 9.74573 15.7514C9.74573 16.4418 10.3054 17.0014 10.9957 17.0014C11.6861 17.0014 12.2457 16.4418 12.2457 15.7514C12.2457 15.0611 11.6861 14.5014 10.9957 14.5014ZM5.74125 9.50141C5.0509 9.50141 4.49125 10.0611 4.49125 10.7514C4.49125 11.4418 5.0509 12.0014 5.74125 12.0014C6.43161 12.0014 6.99125 11.4418 6.99125 10.7514C6.99125 10.0611 6.43161 9.50141 5.74125 9.50141ZM10.9957 9.50141C10.3054 9.50141 9.74573 10.0611 9.74573 10.7514C9.74573 11.4418 10.3054 12.0014 10.9957 12.0014C11.6861 12.0014 12.2457 11.4418 12.2457 10.7514C12.2457 10.0611 11.6861 9.50141 10.9957 9.50141ZM16.2502 9.50141C15.5599 9.50141 15.0002 10.0611 15.0002 10.7514C15.0002 11.4418 15.5599 12.0014 16.2502 12.0014C16.9406 12.0014 17.5002 11.4418 17.5002 10.7514C17.5002 10.0611 16.9406 9.50141 16.2502 9.50141ZM18.75 0C20.5449 0 22 1.45507 22 3.25V5H0V3.25C0 1.45507 1.45507 0 3.25 0H18.75Z" fill="#3BBCA0"/>
</svg>
