<svg width="24" height="24" viewBox="0 0 24 24" fill="none" xmlns="http://www.w3.org/2000/svg">
<path d="M23.1 4.25C23.1 2.39985 21.6002 0.9 19.75 0.9H4.25C2.39985 0.9 0.9 2.39985 0.9 4.25V19.75C0.9 21.6002 2.39985 23.1 4.25 23.1H19.75C21.6002 23.1 23.1 21.6002 23.1 19.75V4.25ZM2.6 19.75V7.603H21.4V19.75C21.4 20.6613 20.6613 21.4 19.75 21.4H4.25C3.33873 21.4 2.6 20.6613 2.6 19.75ZM8.09878 16.7514C8.09878 16.0058 7.49436 15.4014 6.74878 15.4014C6.00319 15.4014 5.39878 16.0058 5.39878 16.7514C5.39878 17.497 6.00319 18.1014 6.74878 18.1014C7.49436 18.1014 8.09878 17.497 8.09878 16.7514ZM13.3533 16.7514C13.3533 16.0058 12.7488 15.4014 12.0033 15.4014C11.2577 15.4014 10.6533 16.0058 10.6533 16.7514C10.6533 17.497 11.2577 18.1014 12.0033 18.1014C12.7488 18.1014 13.3533 17.497 13.3533 16.7514ZM8.09878 11.7514C8.09878 11.0058 7.49436 10.4014 6.74878 10.4014C6.00319 10.4014 5.39878 11.0058 5.39878 11.7514C5.39878 12.497 6.00319 13.1014 6.74878 13.1014C7.49436 13.1014 8.09878 12.497 8.09878 11.7514ZM13.3533 11.7514C13.3533 11.0058 12.7488 10.4014 12.0033 10.4014C11.2577 10.4014 10.6533 11.0058 10.6533 11.7514C10.6533 12.497 11.2577 13.1014 12.0033 13.1014C12.7488 13.1014 13.3533 12.497 13.3533 11.7514ZM18.6077 11.7514C18.6077 11.0058 18.0033 10.4014 17.2577 10.4014C16.5122 10.4014 15.9077 11.0058 15.9077 11.7514C15.9077 12.497 16.5122 13.1014 17.2577 13.1014C18.0033 13.1014 18.6077 12.497 18.6077 11.7514ZM4.25 2.6H19.75C20.6613 2.6 21.4 3.33873 21.4 4.25V5.903H2.6V4.25C2.6 3.33873 3.33873 2.6 4.25 2.6Z" fill="#212121" stroke="black" stroke-width="0.2"/>
</svg>
