<svg width="24" height="24" viewBox="0 0 24 24" fill="none" xmlns="http://www.w3.org/2000/svg">
<path d="M8 23H2.66667C1.75228 23 1 22.2477 1 21.3333V2.66667C1 1.75228 1.75228 1 2.66667 1H8C8.91438 1 9.66667 1.75228 9.66667 2.66667V21.3333C9.66667 22.2477 8.91438 23 8 23ZM21.3333 23H16C15.0856 23 14.3333 22.2477 14.3333 21.3333V14.6667C14.3333 13.7523 15.0856 13 16 13H21.3333C22.2477 13 23 13.7523 23 14.6667V21.3333C23 22.2477 22.2477 23 21.3333 23ZM23 2.66667V6.66667C23 7.58105 22.2477 8.33333 21.3333 8.33333H16C15.0856 8.33333 14.3333 7.58105 14.3333 6.66667V2.66667C14.3333 1.75228 15.0856 1 16 1H21.3333C22.2477 1 23 1.75228 23 2.66667Z" stroke="black" stroke-width="2"/>
</svg>
