<svg width="24" height="19" viewBox="0 0 24 19" fill="none" xmlns="http://www.w3.org/2000/svg">
<path d="M0 6.124L10.6541 11.6654C10.871 11.7782 11.1293 11.7782 11.3462 11.6654L18.934 7.71995C19.4217 7.90105 19.9494 8 20.5002 8C21.0264 8 21.5315 7.90968 22.0008 7.7437L22.0002 15.75C22.0002 17.483 20.6437 18.8992 18.9346 18.9949L18.7502 19H3.25015C1.51712 19 0.100909 17.6435 0.00529957 15.9344L0 15.75V6.124ZM3.25015 1L16.7576 1.00047C16.2792 1.71543 16.0002 2.57513 16.0002 3.5C16.0002 4.80587 16.5564 5.98182 17.4449 6.80384L11.0002 10.1547L0 4.434V4.25C0 2.51697 1.35661 1.10075 3.06573 1.00514L3.25015 1ZM20.5002 0C22.4332 0 24.0002 1.567 24.0002 3.5C24.0002 5.433 22.4332 7 20.5002 7C18.5672 7 17.0002 5.433 17.0002 3.5C17.0002 1.567 18.5672 0 20.5002 0Z" fill="#3BBCA0"/>
</svg>
