<svg width="26" height="21" viewBox="0 0 26 21" fill="none" xmlns="http://www.w3.org/2000/svg">
<path d="M4.25 2L17.7575 2.00047C17.4568 2.44975 17.2349 2.95619 17.1115 3.50004L4.25 3.5C3.33183 3.5 2.57881 4.20711 2.5058 5.10647L2.5 5.25V6.214L12 11.1547L18.4447 7.80384C18.8727 8.1998 19.3777 8.51364 19.9348 8.72032L12.346 12.6654C12.1653 12.7594 11.9558 12.7751 11.7655 12.7124L11.654 12.6654L2.5 7.905V16.75C2.5 17.6682 3.20711 18.4212 4.10647 18.4942L4.25 18.5H19.75C20.6682 18.5 21.4212 17.7929 21.4942 16.8935L21.5 16.75V9C22.0264 9 22.5316 8.90963 23.0011 8.74356L23 16.75C23 18.483 21.6435 19.8992 19.9344 19.9949L19.75 20H4.25C2.51697 20 1.10075 18.6435 1.00514 16.9344L1 16.75V5.25C1 3.51697 2.35645 2.10075 4.06558 2.00514L4.25 2ZM21.5 1C23.433 1 25 2.567 25 4.5C25 6.433 23.433 8 21.5 8C19.567 8 18 6.433 18 4.5C18 2.567 19.567 1 21.5 1Z" fill="#212121" stroke="black" stroke-width="0.3"/>
</svg>
