<svg width="23" height="23" viewBox="0 0 23 23" fill="none" xmlns="http://www.w3.org/2000/svg">
<path d="M8.89378 22C8.37928 20.3226 7.60333 19.0715 6.5654 18.2478C5.00878 17.0125 2.5355 17.7806 1.622 16.5059C0.708504 15.2312 2.26198 12.8876 2.80693 11.5047C3.3524 10.1219 0.717428 9.6331 1.02508 9.2404C1.22983 8.97842 2.56175 8.22347 5.0198 6.9745C5.71805 2.99185 8.29738 1 12.7588 1C19.4505 1 21.9999 6.67315 21.9999 10.282C21.9999 13.8898 18.9129 17.7769 14.5155 18.6153C14.1223 19.1876 14.6893 20.3163 16.2165 22" stroke="black" stroke-width="1.5" stroke-linecap="round" stroke-linejoin="round"/>
<path d="M9.13705 6.51246C8.7937 7.84281 8.89555 8.77731 9.44312 9.31543C9.99017 9.85303 10.9226 10.2053 12.2403 10.3707C11.9411 12.0869 12.3059 12.8917 13.3339 12.7857C14.3618 12.6802 14.9798 12.2528 15.1871 11.5047C16.7936 11.9562 17.6646 11.5782 17.7995 10.3707C18.0017 8.55943 17.0252 7.11516 16.6246 7.11516C16.2245 7.11516 15.1871 7.06633 15.1871 6.51246C15.1871 5.95858 13.9754 5.64621 12.8819 5.64621C11.7883 5.64621 12.4461 4.90858 10.9446 5.19996C9.94345 5.39421 9.34075 5.83153 9.13705 6.51246V6.51246Z" stroke="black" stroke-width="1.5" stroke-linejoin="round"/>
<path d="M14.9127 12.2875C14.3788 12.6188 13.6464 13.1695 13.3377 13.6C12.5665 14.6762 11.9412 15.3314 11.8047 16.0192" stroke="black" stroke-width="1.5" stroke-linecap="round"/>
</svg>
