<svg width="21" height="21" viewBox="0 0 21 21" fill="none" xmlns="http://www.w3.org/2000/svg">
<path d="M7.58678 7.06828C7.57519 7.70559 7.66248 8.34073 7.84542 8.95108L1.12772 15.6688L1.11363 15.6829L1.10602 15.7013L0.907592 16.181L0.9 16.1994V16.2193V19.3547V19.3961L0.929289 19.4254L1.60884 20.105L1.63813 20.1342H1.67955H5.75685H5.79827L5.82756 20.105L6.50711 19.4254L6.5364 19.3961V19.3547V17.416H8.47505H8.51647L8.54576 17.3868L9.22531 16.7072L9.2546 16.6779V16.6365V14.6978H10.4797H10.5017L10.5216 14.6886L11.0367 14.4508L11.0567 14.4416L11.0709 14.4249L12.116 13.1996C12.6757 13.3626 13.2564 13.4434 13.8394 13.4434L13.8403 13.4434C15.2736 13.4311 16.6603 12.9326 17.7734 12.0295C18.8865 11.1263 19.66 9.87212 19.9674 8.47209L19.9676 8.47101C20.1803 7.44909 20.1361 6.39123 19.8392 5.39138C19.5187 4.30088 18.907 3.31835 18.0699 2.54942C17.2528 1.79886 16.2512 1.27951 15.168 1.04396V1.04204L15.088 1.02574C14.1866 0.842205 13.2558 0.85978 12.3619 1.07722C11.4681 1.29466 10.6332 1.7066 9.91686 2.28369C9.20048 2.86077 8.62023 3.58879 8.21747 4.41584C7.81474 5.24285 7.59939 6.14851 7.58678 7.06828ZM7.58678 7.06828C7.58678 7.06818 7.58679 7.06807 7.58679 7.06797L7.68677 7.06979L7.58678 7.06843C7.58678 7.06838 7.58678 7.06833 7.58678 7.06828ZM18.4912 7.96046L18.4906 7.95975L18.4456 8.16409C18.214 9.21482 17.6326 10.1558 16.7964 10.8329C15.9606 11.5097 14.9197 11.8828 13.8442 11.8911C13.2668 11.892 12.6944 11.7846 12.1566 11.5745L12.1269 11.5629L12.0959 11.5706L11.3335 11.7609L11.3027 11.7686L11.282 11.7926L10.1213 13.1387H8.47505H8.43363L8.40434 13.168L7.72479 13.8476L7.6955 13.8769V13.9183V15.8569H5.75685H5.71543L5.68614 15.8862L5.00659 16.5658L4.9773 16.5951V16.6365V18.5751H2.4591V16.542L9.29192 9.70647L9.31322 9.68516L9.3192 9.65563L9.4687 8.91764L9.47464 8.88835L9.46353 8.86061C9.23901 8.29998 9.13258 7.69921 9.14584 7.09273C9.17289 6.03059 9.55451 5.00803 10.2299 4.18786C10.9052 3.36785 11.8354 2.79729 12.8724 2.56699C13.6412 2.40571 14.4381 2.43902 15.1907 2.66391C15.9434 2.88885 16.6281 3.29833 17.1824 3.85514C17.7367 4.41196 18.1431 5.09845 18.3646 5.85224C18.5659 6.53725 18.6088 7.25811 18.4912 7.96046ZM15.8014 7.25618C15.9165 7.09721 15.9983 6.91667 16.0419 6.72535C16.0856 6.53404 16.0902 6.33589 16.0555 6.14275C16.0208 5.94961 15.9475 5.76546 15.84 5.6013C15.7325 5.43715 15.5929 5.29636 15.4298 5.18738C15.2666 5.07839 15.0831 5.00345 14.8903 4.96702C14.6974 4.93059 14.4993 4.93342 14.3076 4.97536C14.1159 5.01729 13.9346 5.09747 13.7746 5.21108C13.6146 5.32469 13.4792 5.46941 13.3764 5.63658C13.1787 5.95814 13.1133 6.34381 13.194 6.71257C13.2747 7.08133 13.4951 7.40447 13.809 7.61412C14.1229 7.82377 14.5059 7.9036 14.8774 7.83686C15.2489 7.77011 15.5801 7.56198 15.8014 7.25618Z" fill="#3BBCA0" stroke="#3BBCA0" stroke-width="0.2"/>
</svg>
