<svg width="35" height="32" viewBox="0 0 35 32" fill="none" xmlns="http://www.w3.org/2000/svg">
<path d="M16.6467 22.9239C16.9639 22.579 17.2495 22.2063 17.5 21.8103C17.7601 22.195 18.0452 22.5621 18.3533 22.9095C18.0451 23.2618 17.76 23.6338 17.5 24.0231C17.2446 23.6351 16.9593 23.2676 16.6467 22.9239Z" fill="#DEAE83"/>
<path d="M34.9998 9.54594V22.2731C35.0008 22.8061 34.9572 23.3383 34.8697 23.864C34.4936 21.6393 33.3416 19.6196 31.618 18.1634C29.8944 16.7073 27.7108 15.9087 25.4544 15.9095H9.64666C7.37295 15.8846 5.16505 16.6722 3.42041 18.1305C1.67578 19.5888 0.509017 21.622 0.13018 23.864C0.0425854 23.3383 -0.000954043 22.8061 1.58517e-05 22.2731V9.54594C-5.51353e-05 8.28385 0.250158 7.03429 0.736178 5.86954C1.2222 4.70479 1.93437 3.64798 2.8315 2.76027C3.72862 1.87256 4.79288 1.17158 5.96269 0.697873C7.1325 0.224168 8.38464 -0.0128488 9.64666 0.000536932H25.4544C27.986 0.000536932 30.4139 1.00621 32.204 2.79632C33.9941 4.58643 34.9998 7.01434 34.9998 9.54594Z" fill="#3BBCA0"/>
<path d="M15.721 31.8184H9.55987C8.30635 31.8203 7.06473 31.5753 5.9059 31.0974C4.74708 30.6194 3.69373 29.9179 2.80602 29.0329C1.9183 28.1479 1.2136 27.0967 0.732143 25.9393C0.250688 24.7819 0.00190883 23.541 1.09909e-05 22.2875V15.6925C-0.00189342 14.4385 0.243706 13.1963 0.722732 12.0374C1.20176 10.8784 1.9048 9.82539 2.79155 8.93864C3.6783 8.05189 4.73133 7.34885 5.89029 6.86983C7.04925 6.3908 8.29136 6.1452 9.54541 6.14711H13.2913C13.607 6.16339 13.9211 6.20205 14.2313 6.26281C12.4643 6.54251 10.8114 7.31319 9.46121 8.48693C8.11102 9.66068 7.11786 11.1903 6.59501 12.9012C6.46483 13.3376 6.36337 13.7821 6.2913 14.2318C6.22165 14.6718 6.18779 15.1168 6.19006 15.5623V22.2875C6.19388 24.8141 7.19926 27.2361 8.98583 29.0227C10.7724 30.8092 13.1944 31.8146 15.721 31.8184Z" fill="#F1C025"/>
<path d="M34.9997 9.54591V22.2731C34.9958 24.8035 33.9889 27.2292 32.1997 29.0185C30.4104 30.8078 27.9847 31.8147 25.4543 31.8185H15.7064C13.1748 31.8185 10.7469 30.8128 8.95676 29.0227C7.16665 27.2326 6.16098 24.8047 6.16098 22.2731V15.3165C7.24324 15.7198 8.39037 15.9208 9.54526 15.9095H25.4543C27.7127 15.9097 29.8981 15.1092 31.622 13.6501C33.3458 12.191 34.4965 10.168 34.8695 7.94055C34.9581 8.47104 35.0016 9.00808 34.9997 9.54591Z" fill="#DEAE83"/>
<path d="M35 9.5459V16.1409C34.9962 18.6713 33.9893 21.097 32.2 22.8863C30.4107 24.6756 27.985 25.6825 25.4546 25.6863H22.0848C21.6524 25.6875 21.221 25.6439 20.7976 25.5561C22.5614 25.2723 24.2104 24.4999 25.5576 23.3266C26.9048 22.1533 27.8962 20.6259 28.4195 18.9177C28.5532 18.493 28.65 18.0575 28.7087 17.6161C28.7897 17.1383 28.8284 16.6544 28.8244 16.1698V9.5459C28.8263 8.29185 28.5807 7.04974 28.1017 5.89078C27.6227 4.73182 26.9196 3.67879 26.0329 2.79204C25.1461 1.90528 24.0931 1.20225 22.9341 0.723221C21.7752 0.244194 20.5331 -0.00140514 19.279 0.000499272H25.4546C27.9862 0.000499272 30.4141 1.00617 32.2042 2.79628C33.9943 4.58639 35 7.0143 35 9.5459Z" fill="#81C563"/>
<path d="M28.8241 18.5417V10.6162C28.8591 9.99533 28.767 9.37389 28.5535 8.78989C28.34 8.20588 28.0095 7.67158 27.5824 7.2197C27.1552 6.76782 26.6404 6.40786 26.0693 6.16184C25.4982 5.91583 24.8829 5.78894 24.2611 5.78894C23.6393 5.78894 23.024 5.91583 22.453 6.16184C21.8819 6.40786 21.367 6.76782 20.9399 7.2197C20.5127 7.67158 20.1823 8.20588 19.9688 8.78989C19.7553 9.37389 19.6632 9.99533 19.6981 10.6162V12.5975C19.6314 11.0809 19.0557 9.63096 18.0638 8.48166C17.0719 7.33236 15.7218 6.55073 14.2312 6.26287C13.921 6.20212 13.6068 6.16345 13.2911 6.14717H12.5391C10.8137 6.24338 9.19091 6.99722 8.00449 8.25358C6.81808 9.50994 6.15834 11.1733 6.16102 12.9013C6.1466 13.0938 6.1466 13.2872 6.16102 13.4798V21.2029C6.22667 22.3686 6.73603 23.4651 7.58455 24.2671C8.43307 25.0692 9.5564 25.5161 10.724 25.5161C11.8916 25.5161 13.0149 25.0692 13.8635 24.2671C14.712 23.4651 15.2213 22.3686 15.287 21.2029V21.1161V19.2215C15.3512 20.7389 15.926 22.1902 16.9183 23.34C17.9106 24.4898 19.2622 25.2707 20.7539 25.5562C21.1773 25.6439 21.6087 25.6875 22.0411 25.6863C22.9293 25.6863 23.8087 25.5111 24.6291 25.1708C25.4495 24.8305 26.1947 24.3317 26.8221 23.703C27.4494 23.0743 27.9466 22.328 28.2852 21.5069C28.6238 20.6858 28.7971 19.8059 28.7952 18.9178C28.8124 18.7931 28.822 18.6675 28.8241 18.5417Z" fill="white"/>
</svg>
