<svg width="18" height="23" viewBox="0 0 18 23" fill="none" xmlns="http://www.w3.org/2000/svg">
<path d="M10.9688 0.25C12.3085 0.25 13.4051 1.26768 13.4942 2.55555L13.5 2.725C13.5 2.63184 13.4947 2.53987 13.4845 2.44938L15.4688 2.45C16.8667 2.45 18 3.5581 18 4.925V19.775C18 21.1419 16.8667 22.25 15.4688 22.25H2.53125C1.13328 22.25 0 21.1419 0 19.775V4.925C0 3.5581 1.13328 2.45 2.53125 2.45L4.51552 2.44938C4.50825 2.51351 4.50349 2.57838 4.50133 2.64389L4.5 2.725C4.5 1.3581 5.63328 0.25 7.03125 0.25H10.9688ZM10.9688 5.2H7.03125C6.13794 5.2 5.35272 4.74754 4.9022 4.06421L4.9264 4.10022L2.53125 4.1C2.06526 4.1 1.6875 4.46937 1.6875 4.925V19.775C1.6875 20.2306 2.06526 20.6 2.53125 20.6H15.4688C15.9347 20.6 16.3125 20.2306 16.3125 19.775V4.925C16.3125 4.46937 15.9347 4.1 15.4688 4.1L13.0736 4.10022L13.0978 4.06421C12.6473 4.74754 11.8621 5.2 10.9688 5.2ZM10.9688 1.9H7.03125C6.56526 1.9 6.1875 2.26937 6.1875 2.725C6.1875 3.18063 6.56526 3.55 7.03125 3.55H10.9688C11.4347 3.55 11.8125 3.18063 11.8125 2.725C11.8125 2.26937 11.4347 1.9 10.9688 1.9ZM4.5 14H9C9.46599 14 9.84375 13.6306 9.84375 13.175C9.84375 12.7194 9.46599 12.35 9 12.35H4.5C4.03401 12.35 3.65625 12.7194 3.65625 13.175C3.65625 13.6306 4.03401 14 4.5 14ZM4.5 9.6H13.5C13.966 9.6 14.3438 9.23063 14.3438 8.775C14.3438 8.31937 13.966 7.95 13.5 7.95H4.5C4.03401 7.95 3.65625 8.31937 3.65625 8.775C3.65625 9.23063 4.03401 9.6 4.5 9.6ZM4.5 18.4H11.25C11.716 18.4 12.0938 18.0306 12.0938 17.575C12.0938 17.1194 11.716 16.75 11.25 16.75H4.5C4.03401 16.75 3.65625 17.1194 3.65625 17.575C3.65625 18.0306 4.03401 18.4 4.5 18.4Z" fill="#212121"/>
</svg>
