<svg width="18" height="23" viewBox="0 0 18 23" fill="none" xmlns="http://www.w3.org/2000/svg">
<path d="M10.9688 1.9H7.03125C6.56526 1.9 6.1875 2.26937 6.1875 2.725C6.1875 3.18063 6.56526 3.55 7.03125 3.55H10.9688C11.4347 3.55 11.8125 3.18063 11.8125 2.725C11.8125 2.26937 11.4347 1.9 10.9688 1.9ZM10.9688 0.25C12.2502 0.25 13.3093 1.18111 13.4769 2.38916L13.4921 2.538L13.4845 2.44938L15.4688 2.45C16.8667 2.45 18 3.5581 18 4.925V19.775C18 21.1419 16.8667 22.25 15.4688 22.25H2.53125C1.13328 22.25 0 21.1419 0 19.775V4.925C0 3.5581 1.13328 2.45 2.53125 2.45L4.51552 2.44938L4.50675 2.538L4.52311 2.38916C4.69072 1.18111 5.74978 0.25 7.03125 0.25H10.9688ZM11.25 16.75H4.5C4.03401 16.75 3.65625 17.1194 3.65625 17.575C3.65625 18.0306 4.03401 18.4 4.5 18.4H11.25C11.716 18.4 12.0938 18.0306 12.0938 17.575C12.0938 17.1194 11.716 16.75 11.25 16.75ZM9 12.35H4.5C4.03401 12.35 3.65625 12.7194 3.65625 13.175C3.65625 13.6306 4.03401 14 4.5 14H9C9.46599 14 9.84375 13.6306 9.84375 13.175C9.84375 12.7194 9.46599 12.35 9 12.35ZM13.5 7.95H4.5C4.03401 7.95 3.65625 8.31937 3.65625 8.775C3.65625 9.23064 4.03401 9.6 4.5 9.6H13.5C13.966 9.6 14.3438 9.23064 14.3438 8.775C14.3438 8.31937 13.966 7.95 13.5 7.95Z" fill="#3BBCA0"/>
</svg>
