<svg width="23" height="24" viewBox="0 0 23 24" fill="none" xmlns="http://www.w3.org/2000/svg">
<path d="M14.1928 0.311432C13.3128 0.114784 12.4147 0.0104117 11.5131 0C10.5891 0.0106508 9.69003 0.114979 8.80894 0.311314C8.42453 0.396974 8.13697 0.717971 8.09334 1.11011L7.88442 2.98787C7.82437 3.52521 7.51335 4.00258 7.04617 4.27409C6.57696 4.54875 6.00793 4.58162 5.51296 4.36398L3.79276 3.60685C3.43492 3.44935 3.01684 3.53522 2.74971 3.82108C1.50637 5.15157 0.580376 6.74728 0.0414199 8.48812C-0.0748729 8.86375 0.0591436 9.27196 0.375288 9.50507L1.90162 10.6305C2.33721 10.9512 2.59414 11.4597 2.59414 12.0006C2.59414 12.5415 2.33721 13.05 1.90219 13.3703L0.3749 14.4976C0.0592244 14.7307 -0.074669 15.1383 0.0412152 15.5136C0.57924 17.2561 1.50474 18.8536 2.74806 20.1858C3.01493 20.4718 3.43281 20.558 3.79071 20.4009L5.51859 19.6424C6.01117 19.4269 6.57783 19.4585 7.04452 19.728C7.5112 19.9976 7.82251 20.473 7.88343 21.0093L8.09081 22.8855C8.13363 23.2729 8.41476 23.5917 8.79326 23.6819C10.5725 24.106 12.4263 24.106 14.2055 23.6819C14.584 23.5917 14.8651 23.2729 14.908 22.8855L15.1157 21.0065C15.175 20.4692 15.4858 19.9923 15.9529 19.7219C16.42 19.4514 16.9876 19.4197 17.4818 19.6364L19.2093 20.3947C19.5671 20.5518 19.9849 20.4657 20.2517 20.1799C21.4944 18.8491 22.4198 17.2536 22.9586 15.513C23.0748 15.1376 22.941 14.7296 22.6251 14.4964L21.0988 13.3697C20.6628 13.0488 20.4059 12.5402 20.4059 11.9994C20.4059 11.4585 20.6628 10.9499 21.0978 10.6297L22.6228 9.50341C22.9386 9.27022 23.0723 8.86227 22.9561 8.48689C22.4172 6.74605 21.4912 5.15034 20.2478 3.81984C19.9807 3.53399 19.5626 3.44812 19.2048 3.60562L17.4843 4.36288C17.269 4.45832 17.0385 4.50694 16.8055 4.50657C15.9387 4.50566 15.2116 3.85214 15.117 2.98931L14.9079 1.11011C14.8643 0.718169 14.577 0.397275 14.1928 0.311432ZM11.5 16C9.29086 16 7.5 14.2091 7.5 12C7.5 9.79086 9.29086 8 11.5 8C13.7091 8 15.5 9.79086 15.5 12C15.5 14.2091 13.7091 16 11.5 16Z" fill="#3BBCA0"/>
</svg>
