<svg width="25" height="26" viewBox="0 0 25 26" fill="none" xmlns="http://www.w3.org/2000/svg">
<path d="M12.5 8.5C10.0147 8.5 8 10.5147 8 13C8 15.4853 10.0147 17.5 12.5 17.5C13.8488 17.5 15.059 16.9066 15.8838 15.9666C16.5787 15.1745 17 14.1365 17 13C17 12.5401 16.931 12.0962 16.8028 11.6783C16.2382 9.838 14.5253 8.5 12.5 8.5ZM9.5 13C9.5 11.3431 10.8431 10 12.5 10C14.1569 10 15.5 11.3431 15.5 13C15.5 14.6569 14.1569 16 12.5 16C10.8431 16 9.5 14.6569 9.5 13ZM20.2093 21.3947L18.4818 20.6364C17.9876 20.4197 17.4071 20.4514 16.94 20.7219C16.4729 20.9923 16.175 21.4692 16.1157 22.0065L15.908 23.8855C15.8651 24.2729 15.584 24.5917 15.2055 24.6819C13.4263 25.106 11.5725 25.106 9.79326 24.6819C9.41476 24.5917 9.13363 24.2729 9.09081 23.8855L8.88343 22.0093C8.82251 21.473 8.5112 20.9976 8.04452 20.728C7.57783 20.4585 7.01117 20.4269 6.51859 20.6424L4.79071 21.4009C4.43281 21.558 4.01493 21.4718 3.74806 21.1858C2.50474 19.8536 1.57924 18.2561 1.04122 16.5136C0.925331 16.1383 1.05922 15.7307 1.3749 15.4976L2.90219 14.3703C3.33721 14.05 3.59414 13.5415 3.59414 13.0006C3.59414 12.4597 3.33721 11.9512 2.90162 11.6305L1.37529 10.5051C1.05914 10.272 0.925127 9.86375 1.04142 9.48812C1.58038 7.74728 2.50637 6.15157 3.74971 4.82108C4.01684 4.53522 4.43492 4.44935 4.79276 4.60685L6.51296 5.36398C7.00793 5.58162 7.57696 5.54875 8.04617 5.27409C8.51335 5.00258 8.82437 4.52521 8.88442 3.98787L9.09334 2.11011C9.13697 1.71797 9.42453 1.39697 9.80894 1.31131C10.69 1.11498 11.5891 1.01065 12.5131 1C13.4147 1.01041 14.3128 1.11478 15.1928 1.31143C15.577 1.39728 15.8643 1.71817 15.9079 2.11011L16.117 3.98931C16.2116 4.85214 16.9387 5.50566 17.8055 5.50657C18.0385 5.50694 18.269 5.45832 18.4843 5.36288L20.2048 4.60562C20.5626 4.44812 20.9807 4.53399 21.2478 4.81984C22.4912 6.15034 23.4172 7.74605 23.9561 9.48689C24.0723 9.86227 23.9386 10.2702 23.6228 10.5034L22.0978 11.6297C21.6628 11.9499 21.4 12.4585 21.4 12.9994C21.4 13.5402 21.6628 14.0488 22.0988 14.3697L23.6251 15.4964C23.941 15.7296 24.0748 16.1376 23.9586 16.513C23.4198 18.2536 22.4944 19.8491 21.2517 21.1799C20.9849 21.4657 20.5671 21.5518 20.2093 21.3947ZM14.763 21.1965C14.9982 20.4684 15.4889 19.8288 16.1884 19.4238C17.0702 18.9132 18.1536 18.8546 19.0841 19.2626L20.4281 19.8526C21.291 18.8537 21.9593 17.7013 22.3981 16.4551L21.2095 15.5777L21.2086 15.577C20.398 14.9799 19.9 14.0276 19.9 12.9994C19.9 11.9718 20.3974 11.0195 21.2073 10.4227L21.2085 10.4217L22.3957 9.54496C21.9567 8.29874 21.2881 7.1463 20.4248 6.14764L19.0922 6.73419L19.0899 6.73521C18.6844 6.91457 18.2472 7.00716 17.8039 7.00657C16.1715 7.00447 14.8046 5.77425 14.6261 4.15459L14.6259 4.15285L14.4635 2.69298C13.8202 2.57322 13.1677 2.50866 12.513 2.50011C11.8389 2.50885 11.1821 2.57361 10.5377 2.69322L10.3751 4.15446C10.2625 5.16266 9.67931 6.05902 8.80191 6.5698C7.91937 7.08554 6.84453 7.14837 5.90869 6.73688L4.57273 6.14887C3.70949 7.14745 3.04092 8.29977 2.60196 9.54587L3.79181 10.4232C4.61115 11.0268 5.09414 11.9836 5.09414 13.0006C5.09414 14.0172 4.61142 14.9742 3.79237 15.5776L2.60161 16.4565C3.04002 17.7044 3.7085 18.8584 4.57205 19.8587L5.91742 19.2681C6.84745 18.8613 7.91573 18.9214 8.79471 19.4291C9.67398 19.9369 10.2593 20.8319 10.3738 21.84L10.3744 21.8445L10.5362 23.3087C11.8326 23.5638 13.1662 23.5638 14.4626 23.3087L14.6247 21.8417C14.6491 21.6217 14.6955 21.4054 14.763 21.1965Z" fill="#212121" stroke="black" stroke-width="0.3"/>
</svg>
