<svg width="26" height="25" viewBox="0 0 26 25" fill="none" xmlns="http://www.w3.org/2000/svg">
<path d="M3 14L14 14.001C15.0538 14.001 15.9181 14.8165 15.9945 15.8517L16 16.001V18.5C15.999 22.7 11.713 24 8.5 24C5.35126 24 1.17105 22.7515 1.0051 18.7485L1 18.5V16C1 14.9462 1.8164 14.0819 2.85081 14.0055L3 14ZM23 14L23.1492 14.0055C24.1319 14.0781 24.9178 14.8617 24.994 15.8434L25 16V18C24.999 21.759 21.57 23 19 23C17.942 23 16.741 22.785 15.691 22.275C16.009 21.897 16.278 21.477 16.488 21.007C17.4456 21.427 18.479 21.4925 18.9158 21.4993L19.2043 21.4963C20.2401 21.4607 23.3348 21.1117 23.4936 18.2326L23.5 18V16C23.5 15.7547 23.3222 15.5504 23.0896 15.5081L23 15.5L16.949 15.501C16.865 14.9996 16.6554 14.5434 16.3545 14.1605L16.22 14.001L23 14ZM3 15.5L2.89934 15.51C2.77496 15.5353 2.69 15.6028 2.646 15.646C2.6028 15.69 2.53528 15.7743 2.51 15.899L2.5 16V18.5C2.5 19.839 3.087 20.829 4.295 21.525C5.29136 22.1007 6.68435 22.4479 8.15851 22.4946L8.5 22.5L8.93487 22.4898C10.4555 22.4219 14.314 21.9332 14.4935 18.7323L14.5 18.499V16.001C14.5 15.7566 14.3222 15.5516 14.0896 15.5091L14 15.501L3 15.5ZM8.5 1C11.538 1 14 3.463 14 6.5C14 9.537 11.538 12 8.5 12C5.462 12 3 9.537 3 6.5C3 3.463 5.462 1 8.5 1ZM19.5 3C21.985 3 24 5.015 24 7.5C24 9.985 21.985 12 19.5 12C17.015 12 15 9.985 15 7.5C15 5.015 17.015 3 19.5 3ZM8.5 2.5C6.294 2.5 4.5 4.294 4.5 6.5C4.5 8.706 6.294 10.5 8.5 10.5C10.706 10.5 12.5 8.706 12.5 6.5C12.5 4.294 10.706 2.5 8.5 2.5ZM19.5 4.5C17.846 4.5 16.5 5.846 16.5 7.5C16.5 9.154 17.846 10.5 19.5 10.5C21.154 10.5 22.5 9.154 22.5 7.5C22.5 5.846 21.154 4.5 19.5 4.5Z" fill="#212121" stroke="black" stroke-width="0.2"/>
</svg>
