<svg width="24" height="23" viewBox="0 0 24 23" fill="none" xmlns="http://www.w3.org/2000/svg">
<path d="M2 13L13 13.001C14.0538 13.001 14.9181 13.8165 14.9945 14.8517L15 15.001V17.5C14.999 21.7 10.713 23 7.5 23C4.35126 23 0.17105 21.7515 0.00510144 17.7485L0 17.5V15C0 13.9462 0.816397 13.0819 1.85081 13.0055L2 13ZM15.22 13.001L22 13C23.0538 13 23.9181 13.8164 23.9945 14.8508L24 15V17C23.999 20.759 20.57 22 18 22C16.942 22 15.741 21.785 14.691 21.275C15.4433 20.3809 15.9316 19.2428 15.9934 17.8113L16 17.5V15.001C16 14.2992 15.7512 13.6602 15.3461 13.1501L15.22 13.001L22 13L15.22 13.001ZM7.5 0C10.537 0 13 2.463 13 5.5C13 8.537 10.537 11 7.5 11C4.463 11 2 8.537 2 5.5C2 2.463 4.463 0 7.5 0ZM18.5 2C20.985 2 23 4.015 23 6.5C23 8.985 20.985 11 18.5 11C16.015 11 14 8.985 14 6.5C14 4.015 16.015 2 18.5 2Z" fill="#3BBCA0"/>
</svg>
