<svg width="22" height="22" viewBox="0 0 22 22" fill="none" xmlns="http://www.w3.org/2000/svg">
<path d="M11 1C16.523 1 21 5.478 21 11C21 16.522 16.523 21 11 21C5.477 21 1 16.522 1 11C1 5.478 5.477 1 11 1ZM11 2.667C6.405 2.667 2.667 6.405 2.667 11C2.667 15.595 6.405 19.333 11 19.333C15.595 19.333 19.333 15.595 19.333 11C19.333 6.405 15.595 2.667 11 2.667ZM10.25 5C10.6295 5 10.9435 5.28233 10.9931 5.64827L11 5.75V11H14.25C14.664 11 15 11.336 15 11.75C15 12.1295 14.7177 12.4435 14.3517 12.4931L14.25 12.5H10.25C9.8705 12.5 9.55654 12.2177 9.50685 11.8517L9.5 11.75V5.75C9.5 5.336 9.836 5 10.25 5Z" fill="black" stroke="black" stroke-width="0.5"/>
</svg>
