<svg width="22" height="26" viewBox="0 0 22 26" fill="none" xmlns="http://www.w3.org/2000/svg">
<path d="M6 11.25C6 9.45507 7.45507 8 9.25 8H12.75C14.5449 8 16 9.45507 16 11.25C16 12.2165 15.2165 13 14.25 13H7.75C6.7835 13 6 12.2165 6 11.25ZM9.25 9.5C8.2835 9.5 7.5 10.2835 7.5 11.25C7.5 11.3881 7.61193 11.5 7.75 11.5H14.25C14.3881 11.5 14.5 11.3881 14.5 11.25C14.5 10.2835 13.7165 9.5 12.75 9.5H9.25ZM11 1C8.51163 1 6.44782 2.81776 6.064 5.19784C3.04581 6.85512 1 10.0636 1 13.75V21.25C1 23.3211 2.67893 25 4.75 25H17.25C19.3211 25 21 23.3211 21 21.25V13.75C21 10.0636 18.9542 6.85512 15.936 5.19784C15.5522 2.81776 13.4884 1 11 1ZM10.75 4C9.7474 4 8.78014 4.15133 7.86983 4.4324C8.44483 3.28648 9.63057 2.5 11 2.5C12.3694 2.5 13.5552 3.28648 14.1302 4.4324C13.2199 4.15133 12.2526 4 11.25 4H10.75ZM10.75 5.5H11.25C15.8063 5.5 19.5 9.19365 19.5 13.75V15H2.5V13.75C2.5 9.19365 6.19365 5.5 10.75 5.5ZM6 16.5V18.25C6 18.6642 6.33579 19 6.75 19C7.16421 19 7.5 18.6642 7.5 18.25V16.5H19.5V21.25C19.5 22.4926 18.4926 23.5 17.25 23.5H4.75C3.50736 23.5 2.5 22.4926 2.5 21.25V16.5H6Z" fill="#212121" stroke="black" stroke-width="0.3" stroke-linecap="round"/>
</svg>
