<svg width="20" height="24" viewBox="0 0 20 24" fill="none" xmlns="http://www.w3.org/2000/svg">
<path d="M6.5 10.25C6.5 9.2835 7.2835 8.5 8.25 8.5H11.75C12.7165 8.5 13.5 9.2835 13.5 10.25C13.5 10.3881 13.3881 10.5 13.25 10.5H6.75C6.61193 10.5 6.5 10.3881 6.5 10.25ZM10 0C7.37242 0 5.19568 1.93032 4.81053 4.45023C1.92632 6.20462 0 9.37735 0 13V14H20V13C20 9.37735 18.0737 6.20462 15.1895 4.45023C14.8043 1.93032 12.6276 0 10 0ZM10 3C9.08681 3 8.20222 3.1224 7.36172 3.3517C7.95185 2.53298 8.91368 2 10 2C11.0863 2 12.0482 2.53298 12.6383 3.3517C11.7978 3.12241 10.9132 3 10 3ZM8.25 7H11.75C13.5449 7 15 8.45507 15 10.25C15 11.2165 14.2165 12 13.25 12H6.75C5.7835 12 5 11.2165 5 10.25C5 8.45507 6.45507 7 8.25 7ZM5 17.25V15.5H0V20C0 22.2091 1.79086 24 4 24H16C18.2091 24 20 22.2091 20 20V15.5H6.5V17.25C6.5 17.6642 6.16421 18 5.75 18C5.33579 18 5 17.6642 5 17.25Z" fill="#3BBCA0"/>
</svg>
